<svg xmlns="http://www.w3.org/2000/svg" viewBox="0 0 138.37 138.37"><defs><style>.cls-1{fill:#5fbb46;fill-rule:evenodd;}</style></defs><title>amount_1</title><g id="Слой_2" data-name="Слой 2"><g id="Слой_1-2" data-name="Слой 1"><path class="cls-1" d="M69.19,0a69.19,69.19,0,1,0,69.19,69.19A69.19,69.19,0,0,0,69.19,0Zm0,133A63.83,63.83,0,1,1,133,69.19,63.83,63.83,0,0,1,69.19,133Z"/><path class="cls-1" d="M42.16,42.13a17.33,17.33,0,0,1-3.21,8.22,3.76,3.76,0,0,1-4.66,1.56,8.06,8.06,0,0,0-5.73.09,3.69,3.69,0,0,1-2.91-.34c-3.2-2.1-5.65-9-4.7-12.7,1-4,3.73-5.55,7.61-4.14,2,.72,3.9,1.1,5.89.23C39.57,32.81,42.42,36.2,42.16,42.13Zm-18.77-.21a5.84,5.84,0,0,1,2.72-5.4C23.79,37.22,22.7,39.33,23.39,41.92Z"/><path class="cls-1" d="M36.75,29.56c.52,3.23-.83,4.85-4.38,5.39C31.72,32.36,33.71,29.84,36.75,29.56Z"/><path class="cls-1" d="M66.65,111.46a17.33,17.33,0,0,1-3.21,8.22,3.76,3.76,0,0,1-4.66,1.56,8.06,8.06,0,0,0-5.73.09,3.69,3.69,0,0,1-2.91-.34c-3.2-2.1-5.65-9-4.7-12.7,1-4,3.73-5.55,7.61-4.14,2,.72,3.9,1.1,5.89.23C64.06,102.15,66.92,105.54,66.65,111.46Zm-18.77-.21a5.84,5.84,0,0,1,2.72-5.4C48.29,106.55,47.2,108.66,47.89,111.26Z"/><path class="cls-1" d="M61.24,98.89c.52,3.23-.83,4.85-4.38,5.39C56.21,101.7,58.21,99.18,61.24,98.89Z"/><path class="cls-1" d="M42.15,97.68a17.33,17.33,0,0,1-3.21,8.22,3.76,3.76,0,0,1-4.66,1.56,8.06,8.06,0,0,0-5.73.09,3.69,3.69,0,0,1-2.91-.34c-3.2-2.1-5.65-9-4.7-12.7,1-4,3.73-5.55,7.61-4.14,2,.72,3.9,1.1,5.89.23C39.56,88.36,42.42,91.75,42.15,97.68Zm-18.77-.21a5.84,5.84,0,0,1,2.72-5.4C23.79,92.77,22.7,94.88,23.39,97.47Z"/><path class="cls-1" d="M36.74,85.11c.52,3.23-.83,4.85-4.38,5.39C31.71,87.91,33.71,85.39,36.74,85.11Z"/><path class="cls-1" d="M36,70.81A17.33,17.33,0,0,1,32.77,79a3.76,3.76,0,0,1-4.66,1.56,8.06,8.06,0,0,0-5.73.09,3.69,3.69,0,0,1-2.91-.34c-3.2-2.1-5.65-9-4.7-12.7,1-4,3.73-5.55,7.61-4.14,2,.72,3.9,1.1,5.89.23C33.39,61.5,36.25,64.89,36,70.81ZM17.22,70.6a5.84,5.84,0,0,1,2.72-5.4C17.62,65.9,16.53,68,17.22,70.6Z"/><path class="cls-1" d="M30.57,58.24c.52,3.23-.83,4.85-4.38,5.39C25.54,61,27.54,58.52,30.57,58.24Z"/><path class="cls-1" d="M66.11,27.92a17.33,17.33,0,0,1-3.21,8.22,3.76,3.76,0,0,1-4.66,1.56,8.06,8.06,0,0,0-5.73.09,3.69,3.69,0,0,1-2.91-.34c-3.2-2.1-5.65-9-4.7-12.7,1-4,3.73-5.55,7.61-4.14,2,.72,3.9,1.1,5.89.23C63.52,18.6,66.38,22,66.11,27.92Zm-18.77-.21a5.84,5.84,0,0,1,2.72-5.4C47.75,23,46.65,25.12,47.34,27.71Z"/><path class="cls-1" d="M60.7,15.35c.52,3.23-.83,4.85-4.38,5.39C55.67,18.15,57.66,15.63,60.7,15.35Z"/><path class="cls-1" d="M66,55.08a17.33,17.33,0,0,1-3.21,8.22,3.76,3.76,0,0,1-4.66,1.56,8.06,8.06,0,0,0-5.73.09,3.69,3.69,0,0,1-2.91-.34c-3.2-2.1-5.65-9-4.7-12.7,1-4,3.73-5.55,7.61-4.14,2,.72,3.9,1.1,5.89.23C63.44,45.77,66.3,49.16,66,55.08Zm-18.77-.21A5.84,5.84,0,0,1,50,49.47C47.67,50.17,46.57,52.28,47.26,54.87Z"/><path class="cls-1" d="M60.62,42.51c.52,3.23-.83,4.85-4.38,5.39C55.59,45.31,57.58,42.79,60.62,42.51Z"/><path class="cls-1" d="M66.55,82.77A17.33,17.33,0,0,1,63.34,91a3.76,3.76,0,0,1-4.66,1.56,8.06,8.06,0,0,0-5.73.09A3.69,3.69,0,0,1,50,92.3c-3.2-2.1-5.65-9-4.7-12.7,1-4,3.73-5.55,7.61-4.14,2,.72,3.9,1.1,5.89.23C64,73.45,66.82,76.84,66.55,82.77Zm-18.77-.21a5.84,5.84,0,0,1,2.72-5.4C48.19,77.86,47.1,80,47.78,82.56Z"/><path class="cls-1" d="M61.14,70.2c.52,3.23-.83,4.85-4.38,5.39C56.11,73,58.1,70.48,61.14,70.2Z"/><path class="cls-1" d="M103,34.94c2,.87,3.91.49,5.89-.23,3.88-1.41,6.58.11,7.61,4.14.95,3.69-1.51,10.6-4.7,12.7a3.69,3.69,0,0,1-2.91.34,8.06,8.06,0,0,0-5.73-.09,3.76,3.76,0,0,1-4.66-1.56A17.33,17.33,0,0,1,95.3,42C95,36.09,97.89,32.7,103,34.94Zm8.33,1.47a5.84,5.84,0,0,1,2.72,5.4C114.75,39.22,113.66,37.11,111.34,36.41Z"/><path class="cls-1" d="M100.7,29.45c-.52,3.23.83,4.85,4.38,5.39C105.74,32.25,103.74,29.73,100.7,29.45Z"/><path class="cls-1" d="M78.51,104.27c2,.87,3.91.49,5.89-.23,3.88-1.41,6.58.11,7.61,4.14.95,3.69-1.51,10.6-4.7,12.7a3.69,3.69,0,0,1-2.91.34,8.06,8.06,0,0,0-5.73-.09A3.76,3.76,0,0,1,74,119.57a17.33,17.33,0,0,1-3.21-8.22C70.53,105.43,73.39,102,78.51,104.27Zm8.33,1.47a5.84,5.84,0,0,1,2.72,5.4C90.25,108.55,89.16,106.44,86.85,105.74Z"/><path class="cls-1" d="M76.21,98.78c-.52,3.23.83,4.85,4.38,5.39C81.24,101.59,79.25,99.07,76.21,98.78Z"/><path class="cls-1" d="M103,90.49c2,.87,3.91.49,5.89-.23,3.88-1.41,6.58.11,7.61,4.14.95,3.69-1.51,10.6-4.7,12.7a3.69,3.69,0,0,1-2.91.34,8.06,8.06,0,0,0-5.73-.09,3.76,3.76,0,0,1-4.66-1.56,17.33,17.33,0,0,1-3.21-8.22C95,91.64,97.89,88.25,103,90.49ZM111.35,92a5.84,5.84,0,0,1,2.72,5.4C114.76,94.77,113.66,92.66,111.35,92Z"/><path class="cls-1" d="M100.71,85c-.52,3.23.83,4.85,4.38,5.39C105.74,87.8,103.75,85.28,100.71,85Z"/><path class="cls-1" d="M109.19,63.62c2,.87,3.91.49,5.89-.23,3.88-1.41,6.58.11,7.61,4.14.95,3.69-1.51,10.6-4.7,12.7a3.69,3.69,0,0,1-2.91.34,8.06,8.06,0,0,0-5.73-.09,3.76,3.76,0,0,1-4.66-1.56,17.33,17.33,0,0,1-3.21-8.22C101.2,64.78,104.06,61.39,109.19,63.62Zm8.33,1.47a5.84,5.84,0,0,1,2.72,5.4C120.93,67.9,119.83,65.79,117.52,65.09Z"/><path class="cls-1" d="M106.88,58.13c-.52,3.23.83,4.85,4.38,5.39C111.91,60.93,109.92,58.41,106.88,58.13Z"/><path class="cls-1" d="M79.06,20.73c2,.87,3.91.49,5.89-.23,3.88-1.41,6.58.11,7.61,4.14.95,3.69-1.51,10.6-4.7,12.7a3.69,3.69,0,0,1-2.91.34,8.06,8.06,0,0,0-5.73-.09A3.76,3.76,0,0,1,74.56,36a17.33,17.33,0,0,1-3.21-8.22C71.08,21.88,73.93,18.49,79.06,20.73Zm8.33,1.47a5.84,5.84,0,0,1,2.72,5.4C90.8,25,89.71,22.9,87.39,22.2Z"/><path class="cls-1" d="M76.75,15.24c-.52,3.23.83,4.85,4.38,5.39C81.78,18,79.79,15.52,76.75,15.24Z"/><path class="cls-1" d="M79.14,47.89c2,.87,3.91.49,5.89-.23,3.88-1.41,6.58.11,7.61,4.14.95,3.69-1.51,10.6-4.7,12.7a3.69,3.69,0,0,1-2.91.34,8.06,8.06,0,0,0-5.73-.09,3.76,3.76,0,0,1-4.66-1.56A17.33,17.33,0,0,1,71.42,55C71.16,49,74,45.66,79.14,47.89Zm8.33,1.47a5.84,5.84,0,0,1,2.72,5.4C90.88,52.17,89.79,50.06,87.47,49.36Z"/><path class="cls-1" d="M76.83,42.4c-.52,3.23.83,4.85,4.38,5.39C81.87,45.2,79.87,42.68,76.83,42.4Z"/><path class="cls-1" d="M78.62,75.58c2,.87,3.91.49,5.89-.23,3.88-1.41,6.58.11,7.61,4.14.95,3.69-1.51,10.6-4.7,12.7a3.69,3.69,0,0,1-2.91.34,8.06,8.06,0,0,0-5.73-.09,3.76,3.76,0,0,1-4.66-1.56,17.33,17.33,0,0,1-3.21-8.22C70.64,76.73,73.49,73.34,78.62,75.58ZM86.95,77a5.84,5.84,0,0,1,2.72,5.4C90.36,79.86,89.27,77.75,86.95,77Z"/><path class="cls-1" d="M76.31,70.09c-.52,3.23.83,4.85,4.38,5.39C81.34,72.89,79.35,70.37,76.31,70.09Z"/></g></g></svg>