<svg xmlns="http://www.w3.org/2000/svg" id="svg16685" viewBox="0 0 48.815 48.815" height="184.496" width="184.497"><defs id="defs16679"><clipPath id="clipPath7519"><path id="path7517" d="M0 6925.877h1916.794V0H0z"/></clipPath></defs><g transform="translate(-25.61 -110.388)" id="layer1"><g transform="matrix(.35278 0 0 -.35278 -180.192 1965.24)" id="g7513"><g clip-path="url(#clipPath7519)" id="g7515"><g transform="translate(652.56 5124.831)" id="g7521"><path id="path7523" d="M0 0c-35.252 0-63.829 28.578-63.829 63.83 0 35.252 28.577 63.83 63.829 63.83 35.253 0 63.83-28.578 63.83-63.83C63.83 28.578 35.253 0 0 0m0 133.016c-38.21 0-69.186-30.976-69.186-69.186C-69.186 25.62-38.21-5.356 0-5.356c38.211 0 69.187 30.976 69.187 69.186 0 38.21-30.976 69.186-69.187 69.186" fill="#a6ec3e" fill-rule="evenodd"/></g><g transform="translate(606.765 5215.926)" id="g7525"><path id="path7527" d="M0 0c-.062 2.301.772 4.122 2.719 5.404C.403 4.703-.689 2.592 0 0zm18.766-.207c-.156-2.117-1.15-5.348-3.212-8.219-1.184-1.649-2.723-2.225-4.658-1.56-1.93.662-3.772.653-5.732-.091-.827-.314-2.162-.152-2.909.339C-.942-7.639-3.396-.726-2.449 2.964c1.033 4.027 3.728 5.555 7.612 4.14 1.982-.721 3.903-1.098 5.888-.232 5.125 2.236 7.982-1.154 7.715-7.079z" fill="none" stroke="#a6ec3e" stroke-width="5" stroke-linecap="round" stroke-linejoin="round" stroke-miterlimit="10"/></g><g transform="translate(620.122 5228.29)" id="g7529"><path id="path7531" d="M0 0c.516-3.232-.83-4.847-4.379-5.39C-5.031-2.804-3.037-.284 0 0z" fill="none" stroke="#a6ec3e" stroke-width="5" stroke-linecap="round" stroke-linejoin="round" stroke-miterlimit="10"/></g><g transform="translate(631.261 5146.591)" id="g7533"><path id="path7535" d="M0 0c-.062 2.301.772 4.122 2.719 5.404C.403 4.703-.688 2.592 0 0zm18.766-.207c-.156-2.118-1.15-5.349-3.212-8.22-1.184-1.648-2.723-2.224-4.658-1.56-1.93.663-3.771.653-5.732-.091-.827-.313-2.162-.151-2.909.34C-.942-7.64-3.396-.726-2.449 2.963-1.416 6.99 1.28 8.518 5.163 7.104c1.982-.721 3.903-1.099 5.888-.232 5.125 2.235 7.982-1.154 7.715-7.079z" fill="none" stroke="#a6ec3e" stroke-width="5" stroke-linecap="round" stroke-linejoin="round" stroke-miterlimit="10"/></g><g transform="translate(644.618 5158.955)" id="g7537"><path id="path7539" d="M0 0c.516-3.232-.83-4.847-4.379-5.39C-5.031-2.804-3.037-.284 0 0z" fill="none" stroke="#a6ec3e" stroke-width="5" stroke-linecap="round" stroke-linejoin="round" stroke-miterlimit="10"/></g><g transform="translate(606.759 5160.378)" id="g7541"><path id="path7543" d="M0 0c-.062 2.301.772 4.122 2.72 5.404C.403 4.703-.688 2.592 0 0zm18.767-.207c-.156-2.118-1.15-5.348-3.212-8.22-1.184-1.648-2.724-2.224-4.659-1.56-1.929.663-3.771.654-5.732-.09-.826-.314-2.162-.152-2.908.339C-.941-7.64-3.396-.726-2.449 2.964c1.034 4.026 3.729 5.554 7.612 4.14 1.983-.721 3.903-1.099 5.889-.232 5.124 2.235 7.981-1.154 7.715-7.079z" fill="none" stroke="#a6ec3e" stroke-width="5" stroke-linecap="round" stroke-linejoin="round" stroke-miterlimit="10"/></g><g transform="translate(620.116 5172.741)" id="g7545"><path id="path7547" d="M0 0c.516-3.232-.831-4.847-4.38-5.39C-5.032-2.804-3.037-.284 0 0z" fill="none" stroke="#a6ec3e" stroke-width="5" stroke-linecap="round" stroke-linejoin="round" stroke-miterlimit="10"/></g><g transform="translate(600.589 5187.243)" id="g7549"><path id="path7551" d="M0 0c-.062 2.301.772 4.122 2.72 5.404C.403 4.703-.688 2.592 0 0zm18.767-.207c-.157-2.117-1.15-5.348-3.212-8.219-1.184-1.649-2.724-2.225-4.659-1.56-1.93.662-3.771.653-5.732-.091-.826-.314-2.162-.152-2.909.339C-.941-7.639-3.396-.726-2.449 2.964c1.033 4.027 3.729 5.555 7.612 4.14 1.983-.721 3.903-1.098 5.888-.232 5.125 2.236 7.982-1.154 7.716-7.079z" fill="none" stroke="#a6ec3e" stroke-width="5" stroke-linecap="round" stroke-linejoin="round" stroke-miterlimit="10"/></g><g transform="translate(613.946 5199.607)" id="g7553"><path id="path7555" d="M0 0c.516-3.232-.831-4.847-4.38-5.39C-5.032-2.804-3.037-.284 0 0z" fill="none" stroke="#a6ec3e" stroke-width="5" stroke-linecap="round" stroke-linejoin="round" stroke-miterlimit="10"/></g><g transform="translate(630.716 5230.137)" id="g7557"><path id="path7559" d="M0 0c-.062 2.3.772 4.122 2.719 5.403C.403 4.703-.688 2.592 0 0zm18.766-.207c-.156-2.118-1.15-5.349-3.212-8.22-1.184-1.648-2.723-2.225-4.658-1.56-1.93.663-3.771.653-5.732-.091-.827-.314-2.162-.151-2.909.34C-.942-7.64-3.396-.726-2.449 2.963-1.416 6.99 1.28 8.518 5.163 7.104c1.983-.722 3.903-1.099 5.888-.232 5.125 2.235 7.982-1.154 7.715-7.079z" fill="none" stroke="#a6ec3e" stroke-width="5" stroke-linecap="round" stroke-linejoin="round" stroke-miterlimit="10"/></g><g transform="translate(644.073 5242.5)" id="g7561"><path id="path7563" d="M0 0c.516-3.232-.83-4.847-4.379-5.39C-5.031-2.804-3.037-.284 0 0z" fill="none" stroke="#a6ec3e" stroke-width="5" stroke-linecap="round" stroke-linejoin="round" stroke-miterlimit="10"/></g><g transform="translate(630.635 5202.973)" id="g7565"><path id="path7567" d="M0 0c-.062 2.301.772 4.122 2.72 5.404C.403 4.703-.688 2.592 0 0zm18.767-.207c-.156-2.117-1.15-5.348-3.212-8.219-1.184-1.649-2.724-2.225-4.659-1.56-1.929.662-3.771.653-5.732-.091-.826-.314-2.162-.152-2.908.339C-.941-7.639-3.396-.726-2.449 2.964c1.033 4.027 3.729 5.555 7.612 4.14 1.983-.721 3.903-1.098 5.889-.232 5.124 2.236 7.981-1.154 7.715-7.079z" fill="none" stroke="#a6ec3e" stroke-width="5" stroke-linecap="round" stroke-linejoin="round" stroke-miterlimit="10"/></g><g transform="translate(643.993 5215.337)" id="g7569"><path id="path7571" d="M0 0c.516-3.232-.831-4.847-4.38-5.39C-5.032-2.804-3.037-.284 0 0z" fill="none" stroke="#a6ec3e" stroke-width="5" stroke-linecap="round" stroke-linejoin="round" stroke-miterlimit="10"/></g><g transform="translate(631.158 5175.288)" id="g7573"><path id="path7575" d="M0 0c-.062 2.301.772 4.122 2.719 5.404C.403 4.703-.688 2.592 0 0zm18.766-.207c-.156-2.117-1.15-5.348-3.211-8.219-1.184-1.649-2.724-2.225-4.659-1.56-1.93.662-3.771.653-5.732-.091-.826-.314-2.162-.152-2.909.339C-.942-7.639-3.396-.726-2.449 2.964c1.033 4.027 3.729 5.555 7.612 4.14 1.983-.721 3.903-1.098 5.888-.232 5.125 2.236 7.982-1.154 7.715-7.079z" fill="none" stroke="#a6ec3e" stroke-width="5" stroke-linecap="round" stroke-linejoin="round" stroke-miterlimit="10"/></g><g transform="translate(644.515 5187.652)" id="g7577"><path id="path7579" d="M0 0c.515-3.232-.831-4.847-4.38-5.39C-5.032-2.804-3.037-.284 0 0z" fill="none" stroke="#a6ec3e" stroke-width="5" stroke-linecap="round" stroke-linejoin="round" stroke-miterlimit="10"/></g><g transform="translate(694.716 5221.44)" id="g7581"><path id="path7583" d="M0 0c1.946-1.282 2.78-3.103 2.72-5.404C3.408-2.812 2.316-.701 0 0zm-8.332 1.468c1.984-.866 3.906-.489 5.888.233 3.883 1.414 6.579-.115 7.612-4.141.947-3.69-1.507-10.603-4.704-12.702-.747-.491-2.082-.653-2.909-.339-1.96.744-3.802.753-5.732.09-1.935-.664-3.474-.088-4.658 1.56-2.062 2.872-3.057 6.102-3.212 8.22-.266 5.925 2.591 9.315 7.715 7.079z" fill="none" stroke="#a6ec3e" stroke-width="5" stroke-linecap="round" stroke-linejoin="round" stroke-miterlimit="10"/></g><g transform="translate(684.078 5228.4)" id="g7585"><path id="path7587" d="M0 0c-.516-3.232.83-4.848 4.38-5.39C5.032-2.804 3.037-.285 0 0z" fill="none" stroke="#a6ec3e" stroke-width="5" stroke-linecap="round" stroke-linejoin="round" stroke-miterlimit="10"/></g><g transform="translate(670.22 5152.105)" id="g7589"><path id="path7591" d="M0 0c1.946-1.282 2.78-3.103 2.72-5.404C3.408-2.812 2.316-.701 0 0zm-8.332 1.468c1.984-.866 3.906-.489 5.888.233 3.883 1.414 6.579-.114 7.612-4.141.947-3.689-1.507-10.603-4.704-12.702-.747-.49-2.082-.653-2.909-.339-1.96.744-3.802.753-5.732.091-1.935-.665-3.474-.089-4.658 1.56-2.062 2.871-3.057 6.102-3.212 8.22-.266 5.924 2.591 9.314 7.715 7.078z" fill="none" stroke="#a6ec3e" stroke-width="5" stroke-linecap="round" stroke-linejoin="round" stroke-miterlimit="10"/></g><g transform="translate(659.582 5159.065)" id="g7593"><path id="path7595" d="M0 0c-.516-3.232.83-4.847 4.38-5.39C5.031-2.804 3.037-.284 0 0z" fill="none" stroke="#a6ec3e" stroke-width="5" stroke-linecap="round" stroke-linejoin="round" stroke-miterlimit="10"/></g><g transform="translate(694.721 5165.892)" id="g7597"><path id="path7599" d="M0 0c1.947-1.282 2.781-3.103 2.72-5.404C3.408-2.812 2.316-.701 0 0zm-8.331 1.468c1.984-.866 3.905-.489 5.888.233 3.882 1.413 6.579-.115 7.612-4.141.947-3.69-1.508-10.603-4.704-12.702-.747-.491-2.083-.653-2.909-.339-1.961.743-3.802.753-5.733.09-1.934-.664-3.474-.088-4.658 1.56-2.062 2.872-3.056 6.102-3.212 8.22-.266 5.925 2.591 9.315 7.716 7.079z" fill="none" stroke="#a6ec3e" stroke-width="5" stroke-linecap="round" stroke-linejoin="round" stroke-miterlimit="10"/></g><g transform="translate(684.084 5172.851)" id="g7601"><path id="path7603" d="M0 0c-.516-3.232.831-4.847 4.38-5.39C5.032-2.804 3.037-.284 0 0z" fill="none" stroke="#a6ec3e" stroke-width="5" stroke-linecap="round" stroke-linejoin="round" stroke-miterlimit="10"/></g><g transform="translate(700.892 5192.757)" id="g7605"><path id="path7607" d="M0 0c1.946-1.282 2.78-3.103 2.719-5.404C3.407-2.812 2.315-.701 0 0zm-8.332 1.468c1.984-.866 3.905-.489 5.888.233 3.882 1.414 6.579-.115 7.612-4.141.947-3.69-1.507-10.603-4.704-12.702-.747-.49-2.083-.653-2.909-.339-1.961.744-3.802.753-5.732.091-1.935-.665-3.475-.089-4.659 1.56-2.061 2.871-3.056 6.102-3.211 8.219-.267 5.925 2.59 9.315 7.715 7.079z" fill="none" stroke="#a6ec3e" stroke-width="5" stroke-linecap="round" stroke-linejoin="round" stroke-miterlimit="10"/></g><g transform="translate(690.254 5199.717)" id="g7609"><path id="path7611" d="M0 0c-.515-3.232.831-4.848 4.38-5.39C5.032-2.804 3.037-.285 0 0z" fill="none" stroke="#a6ec3e" stroke-width="5" stroke-linecap="round" stroke-linejoin="round" stroke-miterlimit="10"/></g><g transform="translate(670.764 5235.65)" id="g7613"><path id="path7615" d="M0 0c1.946-1.282 2.78-3.103 2.72-5.404C3.408-2.812 2.316-.701 0 0zm-8.332 1.468c1.984-.866 3.906-.489 5.888.233 3.883 1.414 6.579-.114 7.612-4.141.947-3.69-1.507-10.603-4.704-12.702-.747-.49-2.082-.653-2.909-.339-1.96.744-3.802.753-5.732.091-1.935-.665-3.474-.089-4.658 1.56-2.062 2.871-3.057 6.102-3.212 8.219-.266 5.925 2.591 9.315 7.715 7.079z" fill="none" stroke="#a6ec3e" stroke-width="5" stroke-linecap="round" stroke-linejoin="round" stroke-miterlimit="10"/></g><g transform="translate(660.127 5242.61)" id="g7617"><path id="path7619" d="M0 0c-.516-3.232.83-4.847 4.38-5.39C5.031-2.804 3.037-.284 0 0z" fill="none" stroke="#a6ec3e" stroke-width="5" stroke-linecap="round" stroke-linejoin="round" stroke-miterlimit="10"/></g><g transform="translate(670.844 5208.487)" id="g7621"><path id="path7623" d="M0 0c1.947-1.282 2.781-3.103 2.72-5.404C3.408-2.812 2.316-.701 0 0zm-8.331 1.468c1.984-.866 3.905-.489 5.888.233 3.882 1.414 6.579-.115 7.612-4.141.947-3.69-1.508-10.603-4.704-12.702-.747-.491-2.083-.653-2.909-.339-1.961.744-3.802.753-5.733.09-1.934-.664-3.474-.088-4.658 1.56-2.062 2.872-3.056 6.102-3.212 8.22-.266 5.925 2.591 9.315 7.716 7.079z" fill="none" stroke="#a6ec3e" stroke-width="5" stroke-linecap="round" stroke-linejoin="round" stroke-miterlimit="10"/></g><g transform="translate(660.207 5215.447)" id="g7625"><path id="path7627" d="M0 0c-.516-3.232.831-4.848 4.38-5.39C5.032-2.804 3.037-.285 0 0z" fill="none" stroke="#a6ec3e" stroke-width="5" stroke-linecap="round" stroke-linejoin="round" stroke-miterlimit="10"/></g><g transform="translate(670.323 5180.802)" id="g7629"><path id="path7631" d="M0 0c1.946-1.282 2.78-3.103 2.719-5.404C3.407-2.812 2.315-.701 0 0zm-8.332 1.468c1.984-.866 3.906-.489 5.888.233 3.882 1.414 6.579-.115 7.612-4.141.947-3.69-1.507-10.603-4.704-12.702-.747-.491-2.082-.653-2.909-.339-1.96.744-3.802.753-5.732.091-1.935-.665-3.474-.089-4.658 1.559-2.062 2.872-3.057 6.102-3.212 8.22-.267 5.925 2.59 9.315 7.715 7.079z" fill="none" stroke="#a6ec3e" stroke-width="5" stroke-linecap="round" stroke-linejoin="round" stroke-miterlimit="10"/></g><g transform="translate(659.685 5187.762)" id="g7633"><path id="path7635" d="M0 0c-.516-3.232.83-4.848 4.379-5.39C5.031-2.804 3.037-.285 0 0z" fill="none" stroke="#a6ec3e" stroke-width="5" stroke-linecap="round" stroke-linejoin="round" stroke-miterlimit="10"/></g></g></g></g></svg>