<svg xmlns="http://www.w3.org/2000/svg" viewBox="0 0 21.2 26.86"><defs><style>.cls-1{fill:#5eb946;fill-rule:evenodd;}</style></defs><title>apple_trademark</title><g id="Слой_2" data-name="Слой 2"><g id="Слой_1-2" data-name="Слой 1"><path class="cls-1" d="M13.49,26.86h-1c-.52-.13-1-.25-1.56-.41a.91.91,0,0,0-.65,0,5,5,0,0,1-4.53-.36,9.11,9.11,0,0,1-3.12-3.16A17.14,17.14,0,0,1,.12,16a10.11,10.11,0,0,1,.15-3.9A6.5,6.5,0,0,1,8.09,7.14c.62.13,1.22.35,1.85.54h0l.18-.44a35.43,35.43,0,0,1,2.74-5.62.71.71,0,0,1,1-.3l1.49.7c.62.29.64.44.1.85a14.79,14.79,0,0,0-3.35,3.47l-.92,1.38a.34.34,0,0,0,.21,0A9,9,0,0,1,14.59,7a5.9,5.9,0,0,1,4.2,1.38,7,7,0,0,1,2.36,5,15,15,0,0,1-.77,5.94,14.56,14.56,0,0,1-2.68,5.12,6.72,6.72,0,0,1-3.6,2.39Z"/><path class="cls-1" d="M6.09,0c.53.14,1.07.23,1.58.42a4.28,4.28,0,0,1,2.71,3,8.84,8.84,0,0,1,.26,1.75.63.63,0,0,1-.71.72,4.9,4.9,0,0,1-4.2-1.95,5.2,5.2,0,0,1-1-3.31C4.78.3,5,.14,5.25,0Z"/></g></g></svg>