<?xml version="1.0" encoding="UTF-8" standalone="no"?>
<svg
   xmlns:dc="http://purl.org/dc/elements/1.1/"
   xmlns:cc="http://creativecommons.org/ns#"
   xmlns:rdf="http://www.w3.org/1999/02/22-rdf-syntax-ns#"
   xmlns:svg="http://www.w3.org/2000/svg"
   xmlns="http://www.w3.org/2000/svg"
   id="svg11936"
   version="1.1"
   viewBox="0 0 48.814919 48.814564"
   height="48.814564mm"
   width="48.814919mm">
  <defs
     id="defs11930">
    <clipPath
       id="clipPath7519"
       clipPathUnits="userSpaceOnUse">
      <path
         id="path7517"
         d="M 0,6925.877 H 1916.794 V 0 H 0 Z" />
    </clipPath>
  </defs>
  <metadata
     id="metadata11933">
    <rdf:RDF>
      <cc:Work
         rdf:about="">
        <dc:format>image/svg+xml</dc:format>
        <dc:type
           rdf:resource="http://purl.org/dc/dcmitype/StillImage" />
        <dc:title></dc:title>
      </cc:Work>
    </rdf:RDF>
  </metadata>
  <g
     transform="translate(-58.330982,-118.10093)"
     id="layer1">
    <g
       transform="matrix(0.35277777,0,0,-0.35277777,-147.47015,1972.9525)"
       id="g7513">
      <g
         clip-path="url(#clipPath7519)"
         id="g7515">
        <g
           transform="translate(652.5593,5124.8311)"
           id="g7521">
          <path
             id="path7523"
             style="fill:#a6ec3e;fill-opacity:1;fill-rule:evenodd;stroke:none"
             d="m 0,0 c -35.252,0 -63.829,28.578 -63.829,63.83 0,35.252 28.577,63.83 63.829,63.83 35.253,0 63.83,-28.578 63.83,-63.83 C 63.83,28.578 35.253,0 0,0 m 0,133.016 c -38.21,0 -69.186,-30.976 -69.186,-69.186 0,-38.21 30.976,-69.186 69.186,-69.186 38.211,0 69.187,30.976 69.187,69.186 0,38.21 -30.976,69.186 -69.187,69.186" />
        </g>
        <g
           transform="translate(606.7653,5215.9263)"
           id="g7525">
          <path
             id="path7527"
             style="fill:none;stroke:#a6ec3e;stroke-width:5;stroke-linecap:round;stroke-linejoin:round;stroke-miterlimit:10;stroke-dasharray:none;stroke-opacity:1"
             d="M 0,0 C -0.062,2.301 0.772,4.122 2.719,5.404 0.403,4.703 -0.689,2.592 0,0 Z m 18.766,-0.207 c -0.156,-2.117 -1.15,-5.348 -3.212,-8.219 -1.184,-1.649 -2.723,-2.225 -4.658,-1.56 -1.93,0.662 -3.772,0.653 -5.732,-0.091 -0.827,-0.314 -2.162,-0.152 -2.909,0.339 -3.197,2.099 -5.651,9.012 -4.704,12.702 1.033,4.027 3.728,5.555 7.612,4.14 1.982,-0.721 3.903,-1.098 5.888,-0.232 5.125,2.236 7.982,-1.154 7.715,-7.079 z" />
        </g>
        <g
           transform="translate(620.1218,5228.29)"
           id="g7529">
          <path
             id="path7531"
             style="fill:none;stroke:#a6ec3e;stroke-width:5;stroke-linecap:round;stroke-linejoin:round;stroke-miterlimit:10;stroke-dasharray:none;stroke-opacity:1"
             d="M 0,0 C 0.516,-3.232 -0.83,-4.847 -4.379,-5.39 -5.031,-2.804 -3.037,-0.284 0,0 Z" />
        </g>
        <g
           transform="translate(631.2614,5146.5913)"
           id="g7533">
          <path
             id="path7535"
             style="fill:none;stroke:#a6ec3e;stroke-width:5;stroke-linecap:round;stroke-linejoin:round;stroke-miterlimit:10;stroke-dasharray:none;stroke-opacity:1"
             d="M 0,0 C -0.062,2.301 0.772,4.122 2.719,5.404 0.403,4.703 -0.688,2.592 0,0 Z m 18.766,-0.207 c -0.156,-2.118 -1.15,-5.349 -3.212,-8.22 -1.184,-1.648 -2.723,-2.224 -4.658,-1.56 -1.93,0.663 -3.771,0.653 -5.732,-0.091 -0.827,-0.313 -2.162,-0.151 -2.909,0.34 -3.197,2.098 -5.651,9.012 -4.704,12.701 1.033,4.027 3.729,5.555 7.612,4.141 1.982,-0.721 3.903,-1.099 5.888,-0.232 5.125,2.235 7.982,-1.154 7.715,-7.079 z" />
        </g>
        <g
           transform="translate(644.6179,5158.9546)"
           id="g7537">
          <path
             id="path7539"
             style="fill:none;stroke:#a6ec3e;stroke-width:5;stroke-linecap:round;stroke-linejoin:round;stroke-miterlimit:10;stroke-dasharray:none;stroke-opacity:1"
             d="M 0,0 C 0.516,-3.232 -0.83,-4.847 -4.379,-5.39 -5.031,-2.804 -3.037,-0.284 0,0 Z" />
        </g>
        <g
           transform="translate(606.7585,5160.3779)"
           id="g7541">
          <path
             id="path7543"
             style="fill:none;stroke:#a6ec3e;stroke-width:5;stroke-linecap:round;stroke-linejoin:round;stroke-miterlimit:10;stroke-dasharray:none;stroke-opacity:1"
             d="M 0,0 C -0.062,2.301 0.772,4.122 2.72,5.404 0.403,4.703 -0.688,2.592 0,0 Z m 18.767,-0.207 c -0.156,-2.118 -1.15,-5.348 -3.212,-8.22 -1.184,-1.648 -2.724,-2.224 -4.659,-1.56 -1.929,0.663 -3.771,0.654 -5.732,-0.09 -0.826,-0.314 -2.162,-0.152 -2.908,0.339 -3.197,2.098 -5.652,9.012 -4.705,12.702 1.034,4.026 3.729,5.554 7.612,4.14 1.983,-0.721 3.903,-1.099 5.889,-0.232 5.124,2.235 7.981,-1.154 7.715,-7.079 z" />
        </g>
        <g
           transform="translate(620.1159,5172.7412)"
           id="g7545">
          <path
             id="path7547"
             style="fill:none;stroke:#a6ec3e;stroke-width:5;stroke-linecap:round;stroke-linejoin:round;stroke-miterlimit:10;stroke-dasharray:none;stroke-opacity:1"
             d="M 0,0 C 0.516,-3.232 -0.831,-4.847 -4.38,-5.39 -5.032,-2.804 -3.037,-0.284 0,0 Z" />
        </g>
        <g
           transform="translate(600.5886,5187.2432)"
           id="g7549">
          <path
             id="path7551"
             style="fill:none;stroke:#a6ec3e;stroke-width:5;stroke-linecap:round;stroke-linejoin:round;stroke-miterlimit:10;stroke-dasharray:none;stroke-opacity:1"
             d="M 0,0 C -0.062,2.301 0.772,4.122 2.72,5.404 0.403,4.703 -0.688,2.592 0,0 Z m 18.767,-0.207 c -0.157,-2.117 -1.15,-5.348 -3.212,-8.219 -1.184,-1.649 -2.724,-2.225 -4.659,-1.56 -1.93,0.662 -3.771,0.653 -5.732,-0.091 -0.826,-0.314 -2.162,-0.152 -2.909,0.339 -3.196,2.099 -5.651,9.012 -4.704,12.702 1.033,4.027 3.729,5.555 7.612,4.14 1.983,-0.721 3.903,-1.098 5.888,-0.232 5.125,2.236 7.982,-1.154 7.716,-7.079 z" />
        </g>
        <g
           transform="translate(613.946,5199.6069)"
           id="g7553">
          <path
             id="path7555"
             style="fill:none;stroke:#a6ec3e;stroke-width:5;stroke-linecap:round;stroke-linejoin:round;stroke-miterlimit:10;stroke-dasharray:none;stroke-opacity:1"
             d="M 0,0 C 0.516,-3.232 -0.831,-4.847 -4.38,-5.39 -5.032,-2.804 -3.037,-0.284 0,0 Z" />
        </g>
        <g
           transform="translate(630.7165,5230.1367)"
           id="g7557">
          <path
             id="path7559"
             style="fill:none;stroke:#a6ec3e;stroke-width:5;stroke-linecap:round;stroke-linejoin:round;stroke-miterlimit:10;stroke-dasharray:none;stroke-opacity:1"
             d="M 0,0 C -0.062,2.3 0.772,4.122 2.719,5.403 0.403,4.703 -0.688,2.592 0,0 Z m 18.766,-0.207 c -0.156,-2.118 -1.15,-5.349 -3.212,-8.22 -1.184,-1.648 -2.723,-2.225 -4.658,-1.56 -1.93,0.663 -3.771,0.653 -5.732,-0.091 -0.827,-0.314 -2.162,-0.151 -2.909,0.34 -3.197,2.098 -5.651,9.012 -4.704,12.701 1.033,4.027 3.729,5.555 7.612,4.141 1.983,-0.722 3.903,-1.099 5.888,-0.232 5.125,2.235 7.982,-1.154 7.715,-7.079 z" />
        </g>
        <g
           transform="translate(644.0729,5242.5)"
           id="g7561">
          <path
             id="path7563"
             style="fill:none;stroke:#a6ec3e;stroke-width:5;stroke-linecap:round;stroke-linejoin:round;stroke-miterlimit:10;stroke-dasharray:none;stroke-opacity:1"
             d="M 0,0 C 0.516,-3.232 -0.83,-4.847 -4.379,-5.39 -5.031,-2.804 -3.037,-0.284 0,0 Z" />
        </g>
        <g
           transform="translate(630.6354,5202.9731)"
           id="g7565">
          <path
             id="path7567"
             style="fill:none;stroke:#a6ec3e;stroke-width:5;stroke-linecap:round;stroke-linejoin:round;stroke-miterlimit:10;stroke-dasharray:none;stroke-opacity:1"
             d="M 0,0 C -0.062,2.301 0.772,4.122 2.72,5.404 0.403,4.703 -0.688,2.592 0,0 Z m 18.767,-0.207 c -0.156,-2.117 -1.15,-5.348 -3.212,-8.219 -1.184,-1.649 -2.724,-2.225 -4.659,-1.56 -1.929,0.662 -3.771,0.653 -5.732,-0.091 -0.826,-0.314 -2.162,-0.152 -2.908,0.339 -3.197,2.099 -5.652,9.012 -4.705,12.702 1.033,4.027 3.729,5.555 7.612,4.14 1.983,-0.721 3.903,-1.098 5.889,-0.232 5.124,2.236 7.981,-1.154 7.715,-7.079 z" />
        </g>
        <g
           transform="translate(643.9929,5215.3369)"
           id="g7569">
          <path
             id="path7571"
             style="fill:none;stroke:#a6ec3e;stroke-width:5;stroke-linecap:round;stroke-linejoin:round;stroke-miterlimit:10;stroke-dasharray:none;stroke-opacity:1"
             d="M 0,0 C 0.516,-3.232 -0.831,-4.847 -4.38,-5.39 -5.032,-2.804 -3.037,-0.284 0,0 Z" />
        </g>
        <g
           transform="translate(631.1579,5175.2881)"
           id="g7573">
          <path
             id="path7575"
             style="fill:none;stroke:#a6ec3e;stroke-width:5;stroke-linecap:round;stroke-linejoin:round;stroke-miterlimit:10;stroke-dasharray:none;stroke-opacity:1"
             d="M 0,0 C -0.062,2.301 0.772,4.122 2.719,5.404 0.403,4.703 -0.688,2.592 0,0 Z m 18.766,-0.207 c -0.156,-2.117 -1.15,-5.348 -3.211,-8.219 -1.184,-1.649 -2.724,-2.225 -4.659,-1.56 -1.93,0.662 -3.771,0.653 -5.732,-0.091 -0.826,-0.314 -2.162,-0.152 -2.909,0.339 -3.197,2.099 -5.651,9.012 -4.704,12.702 1.033,4.027 3.729,5.555 7.612,4.14 1.983,-0.721 3.903,-1.098 5.888,-0.232 5.125,2.236 7.982,-1.154 7.715,-7.079 z" />
        </g>
        <g
           transform="translate(644.5153,5187.6519)"
           id="g7577">
          <path
             id="path7579"
             style="fill:none;stroke:#a6ec3e;stroke-width:5;stroke-linecap:round;stroke-linejoin:round;stroke-miterlimit:10;stroke-dasharray:none;stroke-opacity:1"
             d="M 0,0 C 0.515,-3.232 -0.831,-4.847 -4.38,-5.39 -5.032,-2.804 -3.037,-0.284 0,0 Z" />
        </g>
        <g
           transform="translate(694.7155,5221.4399)"
           id="g7581">
          <path
             id="path7583"
             style="fill:none;stroke:#a6ec3e;stroke-width:5;stroke-linecap:round;stroke-linejoin:round;stroke-miterlimit:10;stroke-dasharray:none;stroke-opacity:1"
             d="M 0,0 C 1.946,-1.282 2.78,-3.103 2.72,-5.404 3.408,-2.812 2.316,-0.701 0,0 Z M -8.332,1.468 C -6.348,0.602 -4.426,0.979 -2.444,1.701 1.439,3.115 4.135,1.586 5.168,-2.44 6.115,-6.13 3.661,-13.043 0.464,-15.142 c -0.747,-0.491 -2.082,-0.653 -2.909,-0.339 -1.96,0.744 -3.802,0.753 -5.732,0.09 -1.935,-0.664 -3.474,-0.088 -4.658,1.56 -2.062,2.872 -3.057,6.102 -3.212,8.22 -0.266,5.925 2.591,9.315 7.715,7.079 z" />
        </g>
        <g
           transform="translate(684.0778,5228.3999)"
           id="g7585">
          <path
             id="path7587"
             style="fill:none;stroke:#a6ec3e;stroke-width:5;stroke-linecap:round;stroke-linejoin:round;stroke-miterlimit:10;stroke-dasharray:none;stroke-opacity:1"
             d="M 0,0 C -0.516,-3.232 0.83,-4.848 4.38,-5.39 5.032,-2.804 3.037,-0.285 0,0 Z" />
        </g>
        <g
           transform="translate(670.2194,5152.1045)"
           id="g7589">
          <path
             id="path7591"
             style="fill:none;stroke:#a6ec3e;stroke-width:5;stroke-linecap:round;stroke-linejoin:round;stroke-miterlimit:10;stroke-dasharray:none;stroke-opacity:1"
             d="M 0,0 C 1.946,-1.282 2.78,-3.103 2.72,-5.404 3.408,-2.812 2.316,-0.701 0,0 Z M -8.332,1.468 C -6.348,0.602 -4.426,0.979 -2.444,1.701 1.439,3.115 4.135,1.587 5.168,-2.44 6.115,-6.129 3.661,-13.043 0.464,-15.142 c -0.747,-0.49 -2.082,-0.653 -2.909,-0.339 -1.96,0.744 -3.802,0.753 -5.732,0.091 -1.935,-0.665 -3.474,-0.089 -4.658,1.56 -2.062,2.871 -3.057,6.102 -3.212,8.22 -0.266,5.924 2.591,9.314 7.715,7.078 z" />
        </g>
        <g
           transform="translate(659.5817,5159.0645)"
           id="g7593">
          <path
             id="path7595"
             style="fill:none;stroke:#a6ec3e;stroke-width:5;stroke-linecap:round;stroke-linejoin:round;stroke-miterlimit:10;stroke-dasharray:none;stroke-opacity:1"
             d="M 0,0 C -0.516,-3.232 0.83,-4.847 4.38,-5.39 5.031,-2.804 3.037,-0.284 0,0 Z" />
        </g>
        <g
           transform="translate(694.7214,5165.8916)"
           id="g7597">
          <path
             id="path7599"
             style="fill:none;stroke:#a6ec3e;stroke-width:5;stroke-linecap:round;stroke-linejoin:round;stroke-miterlimit:10;stroke-dasharray:none;stroke-opacity:1"
             d="M 0,0 C 1.947,-1.282 2.781,-3.103 2.72,-5.404 3.408,-2.812 2.316,-0.701 0,0 Z M -8.331,1.468 C -6.347,0.602 -4.426,0.979 -2.443,1.701 1.439,3.114 4.136,1.586 5.169,-2.44 6.116,-6.13 3.661,-13.043 0.465,-15.142 c -0.747,-0.491 -2.083,-0.653 -2.909,-0.339 -1.961,0.743 -3.802,0.753 -5.733,0.09 -1.934,-0.664 -3.474,-0.088 -4.658,1.56 -2.062,2.872 -3.056,6.102 -3.212,8.22 -0.266,5.925 2.591,9.315 7.716,7.079 z" />
        </g>
        <g
           transform="translate(684.0837,5172.8511)"
           id="g7601">
          <path
             id="path7603"
             style="fill:none;stroke:#a6ec3e;stroke-width:5;stroke-linecap:round;stroke-linejoin:round;stroke-miterlimit:10;stroke-dasharray:none;stroke-opacity:1"
             d="M 0,0 C -0.516,-3.232 0.831,-4.847 4.38,-5.39 5.032,-2.804 3.037,-0.284 0,0 Z" />
        </g>
        <g
           transform="translate(700.8923,5192.7568)"
           id="g7605">
          <path
             id="path7607"
             style="fill:none;stroke:#a6ec3e;stroke-width:5;stroke-linecap:round;stroke-linejoin:round;stroke-miterlimit:10;stroke-dasharray:none;stroke-opacity:1"
             d="M 0,0 C 1.946,-1.282 2.78,-3.103 2.719,-5.404 3.407,-2.812 2.315,-0.701 0,0 Z M -8.332,1.468 C -6.348,0.602 -4.427,0.979 -2.444,1.701 1.438,3.115 4.135,1.586 5.168,-2.44 6.115,-6.13 3.661,-13.043 0.464,-15.142 c -0.747,-0.49 -2.083,-0.653 -2.909,-0.339 -1.961,0.744 -3.802,0.753 -5.732,0.091 -1.935,-0.665 -3.475,-0.089 -4.659,1.56 -2.061,2.871 -3.056,6.102 -3.211,8.219 -0.267,5.925 2.59,9.315 7.715,7.079 z" />
        </g>
        <g
           transform="translate(690.2536,5199.7168)"
           id="g7609">
          <path
             id="path7611"
             style="fill:none;stroke:#a6ec3e;stroke-width:5;stroke-linecap:round;stroke-linejoin:round;stroke-miterlimit:10;stroke-dasharray:none;stroke-opacity:1"
             d="M 0,0 C -0.515,-3.232 0.831,-4.848 4.38,-5.39 5.032,-2.804 3.037,-0.285 0,0 Z" />
        </g>
        <g
           transform="translate(670.7643,5235.6499)"
           id="g7613">
          <path
             id="path7615"
             style="fill:none;stroke:#a6ec3e;stroke-width:5;stroke-linecap:round;stroke-linejoin:round;stroke-miterlimit:10;stroke-dasharray:none;stroke-opacity:1"
             d="M 0,0 C 1.946,-1.282 2.78,-3.103 2.72,-5.404 3.408,-2.812 2.316,-0.701 0,0 Z M -8.332,1.468 C -6.348,0.602 -4.426,0.979 -2.444,1.701 1.439,3.115 4.135,1.587 5.168,-2.44 6.115,-6.13 3.661,-13.043 0.464,-15.142 c -0.747,-0.49 -2.082,-0.653 -2.909,-0.339 -1.96,0.744 -3.802,0.753 -5.732,0.091 -1.935,-0.665 -3.474,-0.089 -4.658,1.56 -2.062,2.871 -3.057,6.102 -3.212,8.219 -0.266,5.925 2.591,9.315 7.715,7.079 z" />
        </g>
        <g
           transform="translate(660.1266,5242.6099)"
           id="g7617">
          <path
             id="path7619"
             style="fill:none;stroke:#a6ec3e;stroke-width:5;stroke-linecap:round;stroke-linejoin:round;stroke-miterlimit:10;stroke-dasharray:none;stroke-opacity:1"
             d="M 0,0 C -0.516,-3.232 0.83,-4.847 4.38,-5.39 5.031,-2.804 3.037,-0.284 0,0 Z" />
        </g>
        <g
           transform="translate(670.8444,5208.4868)"
           id="g7621">
          <path
             id="path7623"
             style="fill:none;stroke:#a6ec3e;stroke-width:5;stroke-linecap:round;stroke-linejoin:round;stroke-miterlimit:10;stroke-dasharray:none;stroke-opacity:1"
             d="M 0,0 C 1.947,-1.282 2.781,-3.103 2.72,-5.404 3.408,-2.812 2.316,-0.701 0,0 Z M -8.331,1.468 C -6.347,0.602 -4.426,0.979 -2.443,1.701 1.439,3.115 4.136,1.586 5.169,-2.44 6.116,-6.13 3.661,-13.043 0.465,-15.142 c -0.747,-0.491 -2.083,-0.653 -2.909,-0.339 -1.961,0.744 -3.802,0.753 -5.733,0.09 -1.934,-0.664 -3.474,-0.088 -4.658,1.56 -2.062,2.872 -3.056,6.102 -3.212,8.22 -0.266,5.925 2.591,9.315 7.716,7.079 z" />
        </g>
        <g
           transform="translate(660.2067,5215.4468)"
           id="g7625">
          <path
             id="path7627"
             style="fill:none;stroke:#a6ec3e;stroke-width:5;stroke-linecap:round;stroke-linejoin:round;stroke-miterlimit:10;stroke-dasharray:none;stroke-opacity:1"
             d="M 0,0 C -0.516,-3.232 0.831,-4.848 4.38,-5.39 5.032,-2.804 3.037,-0.285 0,0 Z" />
        </g>
        <g
           transform="translate(670.3229,5180.8018)"
           id="g7629">
          <path
             id="path7631"
             style="fill:none;stroke:#a6ec3e;stroke-width:5;stroke-linecap:round;stroke-linejoin:round;stroke-miterlimit:10;stroke-dasharray:none;stroke-opacity:1"
             d="M 0,0 C 1.946,-1.282 2.78,-3.103 2.719,-5.404 3.407,-2.812 2.315,-0.701 0,0 Z M -8.332,1.468 C -6.348,0.602 -4.426,0.979 -2.444,1.701 1.438,3.115 4.135,1.586 5.168,-2.44 6.115,-6.13 3.661,-13.043 0.464,-15.142 c -0.747,-0.491 -2.082,-0.653 -2.909,-0.339 -1.96,0.744 -3.802,0.753 -5.732,0.091 -1.935,-0.665 -3.474,-0.089 -4.658,1.559 -2.062,2.872 -3.057,6.102 -3.212,8.22 -0.267,5.925 2.59,9.315 7.715,7.079 z" />
        </g>
        <g
           transform="translate(659.6852,5187.7617)"
           id="g7633">
          <path
             id="path7635"
             style="fill:none;stroke:#a6ec3e;stroke-width:5;stroke-linecap:round;stroke-linejoin:round;stroke-miterlimit:10;stroke-dasharray:none;stroke-opacity:1"
             d="M 0,0 C -0.516,-3.232 0.83,-4.848 4.379,-5.39 5.031,-2.804 3.037,-0.285 0,0 Z" />
        </g>
      </g>
    </g>
  </g>
</svg>
