<svg xmlns="http://www.w3.org/2000/svg" viewBox="0 0 138.37 138.37"><defs><style>.cls-1{fill:#5fbb46;fill-rule:evenodd;}</style></defs><title>area_1</title><g id="Слой_2" data-name="Слой 2"><g id="Слой_1-2" data-name="Слой 1"><path class="cls-1" d="M69.19,0a69.19,69.19,0,1,0,69.19,69.19A69.19,69.19,0,0,0,69.19,0Zm0,133A63.83,63.83,0,1,1,133,69.19,63.83,63.83,0,0,1,69.19,133Z"/><path class="cls-1" d="M71,80.75v6.91H81.51c3,0,6,0,9.06-.05.59,0,1.16-.58,1.73-.89-.32-.51-.53-1.3-1-1.49-5.86-2.49-6.82-7.58-6.67-13,.12-4.31,1.05-8.51,4-12,3.75-4.47,9.33-4.68,13-.14,4.75,5.85,5.5,12.63,3,19.51-.75,2.1-3.33,3.55-5,5.33A19.39,19.39,0,0,0,98.3,86.7a6,6,0,0,0,2,.89c4.47.08,8.94,0,13.42.06,2.77,0,4.22,1.11,4.14,3s-1.51,2.95-4.2,2.95H40c-4.72,0-9.44,0-14.16,0-2.65,0-4.23-1.14-4.09-3.05.17-2.43,2-2.88,4-2.89,3.6,0,7.21,0,10.81-.07a1.58,1.58,0,0,0,1.24-.79c.1-.43-.22-1.34-.54-1.44-3.22-1-4.94-3.38-6-6.33A19.59,19.59,0,0,1,31,67.29c.86-3.41,2.27-6.53,5.14-8.76a7.77,7.77,0,0,1,10.72.92c4.88,5.34,6.42,14.59,3.1,21-.93,1.79-3,3-4.53,4.47-.62.62-1.12,1.37-1.94,2.39h8.29c3.63,0,7.26,0,10.89,0,1.32,0,2.06-.38,2-1.89s0-3.17,0-4.74C55.19,78.66,52,71,51.56,63.77c-.44-8.05.37-15.88,5.15-22.72a17.4,17.4,0,0,1,4.53-4.67c6.12-4,13-2.52,17.35,4A33.81,33.81,0,0,1,83,69.87C81.09,76.2,78,78.65,71,80.75Zm5.72-31.36c-.74-1.53-1.2-2.6-1.77-3.61-1.61-2.87-3.48-5.66-7.22-5.46s-5.64,3-7.25,6a10.53,10.53,0,0,0-.5,1.16A32.3,32.3,0,0,0,58.16,67c1.51,6.59,8.69,10.22,14.52,6.82C75,72.44,77,70.46,77.4,67.3c-3.26,0-6.31.18-9.31-.09a6.14,6.14,0,0,1-3.58-1.85A4.27,4.27,0,0,1,64,60a4.8,4.8,0,0,1,4.58-2.55c3.22.07,6.45,0,9.67,0l.13-.86a7.82,7.82,0,0,0-1.79-.51c-1.6-.07-3.21,0-4.81,0-2.15-.13-3.7-1.66-3.48-3.54a3.19,3.19,0,0,1,3.57-3.12C73.31,49.4,74.74,49.38,76.69,49.38ZM98,72.83l-1.29-1.24,3.08-2.41A38.41,38.41,0,0,0,97.24,64c-1-1.49-2.57-1.57-3.89-.21C90.63,66.59,89.72,74.55,91.6,78a3.51,3.51,0,0,0,4,1.88,16.42,16.42,0,0,0,3.61-1.7c-1.92-1.05-4.5-.2-4.35-2.82C94.94,74.35,97.11,73.49,98,72.83Zm-52.39-3.5A46.63,46.63,0,0,0,42.94,64c-1-1.5-2.41-1.69-3.81-.25-2.63,2.72-4,10.72-1.9,13.83.81,1.2,2.85,1.89,4.43,2.11,1,.14,2.18-1,3.29-1.62-2-1.11-4.67.53-5-2.58-.27-2.6,2.24-1.93,3.17-2.27l-1.26-1.94Z"/></g></g></svg>