<svg xmlns="http://www.w3.org/2000/svg" id="svg18032" viewBox="0 0 48.815 48.815" height="184.496" width="184.497"><g transform="translate(-78.899 -155.263)" id="layer1"><g id="g18012" transform="translate(160.023 23.373)"><path transform="matrix(.35278 0 0 -.35278 -56.717 178.816)" d="M0 0c-35.253 0-63.83 28.578-63.83 63.83 0 35.252 28.577 63.83 63.83 63.83 35.252 0 63.829-28.578 63.829-63.83C63.829 28.578 35.252 0 0 0m0 133.016c-38.211 0-69.187-30.976-69.187-69.186C-69.187 25.62-38.211-5.356 0-5.356c38.21 0 69.186 30.976 69.186 69.186 0 38.21-30.976 69.186-69.186 69.186" id="path7765" fill="#a6ec3e" fill-rule="evenodd"/><g id="g7767" transform="matrix(.35278 0 0 -.35278 -65.041 156.35)"><path d="M0 0c-.781 1.598-1.525 3.564-2.647 5.285-.978 1.498-2.411 1.689-3.808.247-2.63-2.716-4.012-10.722-1.902-13.829.811-1.195 2.853-1.893 4.431-2.107 1.003-.136 2.184 1.036 3.285 1.622-2.007 1.107-4.668-.529-4.995 2.581-.272 2.597 2.238 1.93 3.172 2.265l-1.261 1.942L0 0m52.393-3.496c-.12.113-.705.675-1.291 1.235.882.692 1.766 1.383 3.084 2.414-.713 1.501-1.409 3.488-2.54 5.184-.99 1.486-2.569 1.573-3.892.209-2.719-2.804-3.625-10.765-1.742-14.175.915-1.658 2.389-2.224 4.03-1.884 1.267.263 2.41 1.113 3.609 1.701-1.921 1.053-4.5.204-4.352 2.821.055.975 2.218 1.832 3.094 2.495M31.099 19.95c-.745 1.531-1.203 2.604-1.771 3.614-1.609 2.868-3.482 5.658-7.218 5.46-3.706-.197-5.638-2.999-7.251-5.972-.199-.369-.347-.767-.502-1.159-2.502-6.342-3.332-12.774-1.782-19.549 1.507-6.588 8.686-10.218 14.516-6.82 2.343 1.366 4.355 3.353 4.716 6.505-3.259 0-6.305-.179-9.312.085-1.258.111-2.705.91-3.584 1.847-1.421 1.514-1.617 3.469-.498 5.382 1.024 1.751 2.509 2.595 4.581 2.552 3.224-.067 6.449-.018 9.674-.018l.127.855c-.596.18-1.186.486-1.788.514-1.6.074-3.209-.044-4.808.049-2.154.125-3.695 1.663-3.482 3.544.23 2.039 1.434 3.15 3.573 3.116 1.429-.023 2.858-.005 4.809-.005m-5.715-31.363v-6.912c3.528 0 7.033-.002 10.537 0 3.02.002 6.043-.04 9.06.054.587.019 1.158.577 1.735.886-.323.512-.53 1.3-.989 1.495-5.857 2.487-6.823 7.576-6.667 12.992.124 4.31 1.053 8.508 3.986 12.005 3.75 4.47 9.333 4.68 13.021.139 4.753-5.853 5.497-12.626 3.032-19.513-.754-2.105-3.326-3.549-5.031-5.329-.511-.534-.907-1.178-1.356-1.772.675-.308 1.345-.873 2.024-.885 4.471-.083 8.945-.025 13.416-.059 2.768-.021 4.22-1.105 4.138-2.975-.083-1.921-1.511-2.946-4.196-2.947-24.549-.007-49.098-.006-73.647-.007-4.721 0-9.442-.016-14.163.004-2.648.01-4.228 1.142-4.095 3.051.172 2.434 1.96 2.881 3.976 2.891 3.606.017 7.211-.004 10.815.07.443.01 1.155.437 1.242.793.105.429-.218 1.337-.541 1.437-3.223.99-4.938 3.376-6.013 6.333-1.402 3.859-1.23 7.788-.246 11.704.855 3.411 2.265 6.534 5.139 8.758 3.379 2.617 7.856 2.211 10.722-.923C6.166 4.54 7.704-4.715 4.385-11.141c-.926-1.791-3.02-2.966-4.53-4.473-.622-.619-1.116-1.366-1.939-2.392 3.279 0 5.783-.002 8.287 0 3.628.004 7.257.029 10.885.005 1.322-.008 2.062.381 1.966 1.892-.101 1.576-.023 3.165-.023 4.74C9.597-9.327 6.375-1.708 5.975 5.559c-.444 8.05.372 15.876 5.154 22.717 1.231 1.762 2.748 3.516 4.526 4.667 6.121 3.966 13.013 2.525 17.356-3.984 6.037-9.047 7.474-19.073 4.376-29.497-1.882-6.327-4.948-8.781-12.003-10.875" id="path7769" fill="#a6ec3e" fill-rule="evenodd"/></g></g></g></svg>