<svg xmlns="http://www.w3.org/2000/svg" id="svg19814" viewBox="0 0 49.33 49.33" height="186.443" width="186.443"><defs id="defs19808"><clipPath id="clipPath7701"><path id="path7699" d="M0 6925.877h1916.794V0H0z"/></clipPath><clipPath id="clipPath7723"><path id="path7721" d="M0 6925.877h1916.794V0H0z"/></clipPath></defs><g transform="translate(-69.059 -163.42)" id="layer1"><g id="g20385" transform="matrix(.35278 0 0 -.35278 -358.28 2018.245)"><g id="g7695"><g id="g7697" clip-path="url(#clipPath7701)"><g id="g7703" transform="translate(1281.268 5123.353)"><path d="M0 0c-35.624 0-64.503 28.879-64.503 64.503 0 35.624 28.879 64.503 64.503 64.503 35.624 0 64.503-28.879 64.503-64.503C64.503 28.879 35.624 0 0 0m0 134.419c-38.613 0-69.916-31.303-69.916-69.916S-38.613-5.413 0-5.413 69.916 25.89 69.916 64.503 38.613 134.419 0 134.419" id="path7705" fill="#a6ec3e" fill-rule="evenodd"/></g></g></g><g id="g7717"><g id="g7719" clip-path="url(#clipPath7723)"><g id="g7725" transform="translate(1251.52 5186.482)"><path d="M0 0c-.206 7.748 2.603 13.879 9.157 18.196C1.358 15.836-2.318 8.728 0 0zm63.192-.697c-.523-7.13-3.87-18.01-10.814-27.678-3.986-5.55-9.171-7.492-15.687-5.253-6.498 2.232-12.699 2.199-19.301-.306-2.784-1.056-7.28-.51-9.795 1.142C-3.171-25.724-11.436-2.445-8.246 9.98c3.479 13.559 12.558 18.704 25.633 13.943 6.675-2.43 13.143-3.7 19.827-.784C54.47 30.668 64.092 19.254 63.192-.697z" id="path7727" fill="none" stroke="#a6ec3e" stroke-width="5" stroke-linecap="round" stroke-miterlimit="10"/></g><g id="g7729" transform="translate(1296.499 5228.114)"><path d="M0 0c1.735-10.884-2.797-16.322-14.748-18.15C-16.944-9.441-10.228-.958 0 0z" id="path7731" fill="none" stroke="#a6ec3e" stroke-width="5" stroke-linecap="round" stroke-miterlimit="10"/></g></g></g></g></g></svg>