<svg xmlns="http://www.w3.org/2000/svg" id="svg20469" viewBox="0 0 47.39 47.39" height="179.112" width="179.112"><g transform="translate(-82.182 -172.803)" id="layer1"><g id="g20448" transform="matrix(.35278 0 0 -.35278 -113.771 1571.798)"><g id="g5999" transform="translate(687.292 3898.488)"><path d="M0 0c0 35.714-28.952 64.667-64.667 64.667S-129.334 35.714-129.334 0s28.952-64.667 64.667-64.667S0-35.714 0 0z" id="path6001" fill="none" stroke="#5cb930" stroke-width="5" stroke-linecap="round" stroke-miterlimit="10"/></g><g id="g6015" transform="translate(611.717 3893.191)"><path d="M0 0l7.102-.335-.461-4.732-.719-.379L0 0m16.019-9.674c.59 2.998 1.123 5.694 1.71 8.68 3.24-.642 5.871 2.763 9.838 1.649L16.019-9.674M-22.296 8.392c.203-3.933 2.81-6.365 6.185-7.92 3.027-1.394 6.218-1.907 9.59-1.363.872.141 2.198-.231 2.757-.861 2.769-3.126 5.699-6.205 7.858-9.736 1.17-1.912 1.364-4.728 1.21-7.083-.382-5.798-1.389-11.552-1.818-17.348-.298-4.054-.057-.844-.057-5.051h13.3c0 4.878.102 2.307-.028 7.032-.13 4.756-.576 9.503-.691 14.259-.03 1.205.344 2.705 1.095 3.597 4.337 5.15 8.798 10.197 13.323 15.183-.19-1.604.541-2.426 2.375-2.706.341 1.351-.663 2.666-2.218 2.881.054.058.106.118.159.176.545.6 1.739.743 2.66.848 6.715.769 11.471 6.235 10.618 12.341-.463 3.324-2.369 5.707-5.081 7.374a10.65 10.65 0 0 1 3.382 7.789c0 5.556-4.237 10.12-9.655 10.642a8.11 8.11 0 0 1-1.844 3.192c.083.518.138 1.045.138 1.586 0 5.537-4.489 10.026-10.027 10.026a9.975 9.975 0 0 1-4.219-.939c-1.522 1.535-3.263 2.216-5.32 2.062-3.134-.235-5.48-2.17-6.867-5.628a6.798 6.798 0 0 1-1.56.188 6.782 6.782 0 0 1-6.738-6.026c-.89-.928-1.639-2.033-2.271-3.289-6.431-1.063-11.337-6.646-11.337-13.379 0-1.302.188-2.561.531-3.754a10.411 10.411 0 0 1-2.648-6.94c0-.293.02-.58.044-.866-1.815-1.583-2.987-3.573-2.846-6.287" id="path6017" fill="#5cb930" fill-rule="evenodd"/></g></g></g></svg>