<svg xmlns="http://www.w3.org/2000/svg" viewBox="0 0 139.83 139.83"><defs><style>.cls-1{fill:#5fbb46;fill-rule:evenodd;}</style></defs><title>best_1</title><g id="Слой_2" data-name="Слой 2"><g id="Слой_1-2" data-name="Слой 1"><path class="cls-1" d="M69.92,0a69.92,69.92,0,1,0,69.92,69.92A69.92,69.92,0,0,0,69.92,0Zm0,134.42a64.5,64.5,0,1,1,64.5-64.5A64.5,64.5,0,0,1,69.92,134.42Z"/><path class="cls-1" d="M103.36,72c-.52,7.13-3.87,18-10.81,27.68-4,5.55-9.17,7.49-15.69,5.25a27.13,27.13,0,0,0-19.3.31,12.42,12.42,0,0,1-9.8-1.14C37,97,28.73,73.73,31.92,61.31c3.48-13.56,12.56-18.7,25.63-13.94,6.67,2.43,13.14,3.7,19.83.78C94.64,40.62,104.26,52,103.36,72Zm-63.19-.7c-.21-7.75,2.6-13.88,9.16-18.2C41.53,55.45,37.85,62.56,40.17,71.29Z"/><path class="cls-1" d="M85.15,29.66C86.88,40.54,82.35,46,70.4,47.81,68.2,39.1,74.92,30.61,85.15,29.66Z"/></g></g></svg>