<svg xmlns="http://www.w3.org/2000/svg" id="svg18622" viewBox="0 0 49.33 49.33" height="186.443" width="186.443"><g transform="translate(-79.343 -151.5)" id="layer1"><g id="g18597" transform="translate(-61.368 19.867)"><g id="g7751" transform="matrix(.35278 0 0 -.35278 166.019 171.362)"><path d="M0 0c-11.5 8.715-26.481 17.438-30.818 22.373-3.438 3.91-5.683 8.293-6.423 13.512-1.009 7.11-.069 14.204 5.068 19.126 4.284 4.105 8.511 5.599 14.56 6.033 4.12.294 9.126-1.44 11.735-4.424 1.651-1.888 3.265-3.829 5.081-5.55.677-.695 1.133-1.531 3.386-2.763C1.26 49.737.92 50.532.706 51.609c1.626 1.38 2.885 2.564 4.26 3.593 5.496 4.106 12.513 7.129 19.226 4.692 5.629-2.043 9.187-6.678 10.925-12.662 1.118-3.849.191-7.712-1.421-11.395-2.868-6.552-7.323-11.993-12.15-17.107C15.286 12.099 9.065 8.97 0 0z" id="path7753" fill="none" stroke="#a6ec3e" stroke-width="5" stroke-linecap="round" stroke-linejoin="round" stroke-miterlimit="10"/></g><g id="g7755" transform="matrix(.35278 0 0 -.35278 171.652 142.616)"><path d="M0 0c-1.056-2.885-1.939-5.611-3.045-8.245-1.464-3.489-4.311-5.701-7.462-7.589-.901-.54-1.722-1.215-2.477-1.754-.066 1.753 1.418 5.452 3.755 9.237-2.383-2.409-3.701-5.406-4.618-8.738-1.085 2.602-.54 7.836 1.606 10.704C-9.156-2.263-4.734-.914 0 0z" id="path7757" fill="none" stroke="#a6ec3e" stroke-width="5" stroke-linecap="round" stroke-linejoin="round" stroke-miterlimit="10"/></g><g id="g7759" transform="matrix(.35278 0 0 -.35278 166.158 149.064)"><path d="M0 0c-4.054 1.157-6.27 3.818-6.583 7.964C-2.361 7.931.899 4.146 0 0z" id="path7761" fill="none" stroke="#a6ec3e" stroke-width="5" stroke-linecap="round" stroke-linejoin="round" stroke-miterlimit="10"/></g><g id="g7771" transform="matrix(.35278 0 0 -.35278 165.375 179.053)"><path d="M0 0c-35.624 0-64.503 28.879-64.503 64.503 0 35.624 28.879 64.503 64.503 64.503 35.624 0 64.503-28.879 64.503-64.503C64.503 28.879 35.624 0 0 0m0 134.419c-38.613 0-69.916-31.302-69.916-69.916C-69.916 25.89-38.613-5.413 0-5.413S69.916 25.89 69.916 64.503c0 38.614-31.303 69.916-69.916 69.916" id="path7773" fill="#a6ec3e" fill-rule="evenodd"/></g></g></g></svg>