<svg xmlns="http://www.w3.org/2000/svg" id="svg22314" viewBox="0 0 47.39 47.39" height="179.111" width="179.111"><g transform="translate(-64.42 -162.753)" id="layer1"><g id="g22306" transform="matrix(.35278 0 0 -.35278 -133.545 1388.181)"><g id="g5971" transform="translate(692.993 3406.487)"><path d="M0 0c0 35.715-28.952 64.667-64.666 64.667-35.715 0-64.667-28.952-64.667-64.667 0-35.714 28.952-64.666 64.667-64.666C-28.952-64.666 0-35.714 0 0z" id="path5973" fill="none" stroke="#5cb930" stroke-width="5" stroke-linecap="round" stroke-miterlimit="10"/></g><g id="g6425" transform="translate(669.381 3406.442)"><path d="M0 0c0-16.906-13.706-30.612-30.615-30.612S-61.231-16.906-61.231 0c0 16.911 13.707 30.618 30.616 30.618S0 16.911 0 0" id="path6427" fill="#5cb930"/></g><g id="g6429" transform="translate(648.548 3431.792)"><path d="M0 0l-2.11.565-1.772 1.094-.677.64-.114.304-1.246.451-1.467.453-1.245.189-1.357.034-.527.153 3.129.074 3.051-.45 2.639-.68 1.168-.377v-.413l.264-.302-.827-.415.602-.414.076-.492z" id="path6431" fill="#fff"/></g><g id="g6433" transform="translate(638.446 3435.299)"><path d="M0 0l1.245-.302.451-.266.906-.187.076-.302 1.052-.151-.035-.451-.641.114-.529.262.829-.677v-.265l-.752.113.415-.262-2.188.603-1.018-.04.944.414.225.453-1.356.376-1.018-.112-.829-.038-1.431.529-.793-.038-.301-.416-1.357-.037-1.018.112s4.032.907 3.883.907c-.152 0 2.185.149 2.185.149z" id="path6435" fill="#fff"/></g><g id="g6437" transform="translate(630.08 3411.743)"><path d="M0 0l1.355.715L3.24.376l1.282-.53 1.246-.712.526-.381.828-.449.077-.187H4.937l.151.563-.414.15-.528.565-.981.152-.451.376h-.603l-.303.376-.715-.11-.415-.266h-.49z" id="path6439" fill="#fff"/></g><g id="g6441" transform="translate(636.073 3434.354)"><path d="M0 0l-.867-.601-1.019-.226-1.093-.303-.414-.753-.038-.602 1.056-.078.752-.528 1.281-.223-.185-.907.601-.716.567.076v1.28l1.13.602-.077.72-.262.075.565.488-.152.68 1.885-.376.64-.642 1.473.151.601-.265.68-.866.337-.45 1.434-.416.754-.414.15-.53.452-.264.227-.304.037-.79 1.583-.413-.565-.527-2.037.188.303 1.657-.981-.075-1.281-.226-1.131-.072-.83-.227s-.714-.456-.828-.456c-.113 0-.036-.227-.036-.227l1.883.418.263-.226.226-.942.377-.114 1.094.152.226.035s.151-.411.037-.486c-.114-.08-.866-.306-.866-.306l-.602-.449-.605-.301-.339.337.339.3.379.265-.455.074-.826-.339s-.453-.3-.605-.336c-.149-.037-.603-.301-.603-.301l-.225-.227.225-.265s-.113-.302-.225-.302c-.114 0-1.282-.529-1.282-.529l-1.207-.602-.263-.715-.641-.866-.528-.262.49-.307s.15-.829.038-.829c-.113 0-2.977-1.429-2.977-1.429l-.793-1.21.452-3.161-.263-.907-1.282 1.094-.226 1.128.152.491-.266.642-.564.226-.603-.226-.791.453-1.168.038-.529-.038.038-.49-1.735.189-1.242.112-.415-.376-.791-.418-.755-.486-.074-.642-.455-1.017-.637-2.64.565-1.016.677-1.056.867-.186 1.093.035.603.415.264.64.34.566 1.431.114 1.093-.077-.678-.79-.678-1.321-.227-1.017-.339-.678-.187-.339 1.166.034 1.696-.372.869-.568-.19-1.054-.414-1.961.604-.676.829-.757 1.206.04.942-.077.828-.488.228-.717-.491-.493s-.15.983-.264.983c-.113 0-.943.151-.943.151l-.676-.3.075-.529-.568.038-.864.64-.868.227-.64.679-.264.641-.529-.114-.15.791-.34.677-.865 1.284-.941.337-1.322.454-1.355 1.808-1.095.153-.828-.079-2.903 2.603-.829 1.129.15.68-.265 2.864-.412 1.394-.265 1.846.189.528-.149.829s-.569-.075-.455-.112c.114-.04-.074-1.056-.074-1.056l.263-1.28.226-1.624-.151-.976-.188-.528-.301.034-.263 1.358.263.909-.526.752.263.563.074 1.17.3 1.958-.261.982.943 2.45 1.015 1.243 1.772 2.032.565.757.604.792 1.017 1.205 1.508 1.243 1.395.755 1.922.87 1.469.637 1.924.528.753-.078.942.04 1.13.076.906.077.752.111.602-.077.19-.376z" id="path6443" fill="#fff"/></g><g id="g6445" transform="translate(634.263 3408.805)"><path d="M0 0l1.432-.227.225-.306-.677-.11z" id="path6447" fill="#fff"/></g><g id="g6449" transform="translate(637.542 3408.765)"><path d="M0 0l1.206-.04-.452.792.941-.034.943-.115.678-.416.831-.262-.302-.338-.867.262-.829-.342-.264-.187S.98-.413.868-.453c-.114-.04-.756.112-.756.112z" id="path6451" fill="#fff"/></g><g id="g6453" transform="translate(642.48 3408.197)"><path d="M0 0l-.187.527L1.206.416.868-.035.188-.15z" id="path6455" fill="#fff"/></g><g id="g6457" transform="translate(634.98 3401.189)"><path d="M0 0l.678.341.527.79.227.49 1.131.188 1.092.642.603.15-.414-.716.075-.53.076-.904.491.114-.228 1.093.905.077-.076.75 1.132-1.203 1.695-.188.754-.188.565.3s1.093.109.944.109c-.152 0 1.394-.974 1.394-.974l.188-.455.603-.113.753.04.492-.53v-.414l.79-.602.603-.341.83.151 1.432-.151.791-.491.565-.638.114-1.096.567-.226-.417-.563-.601-.906.337-.227.681.608.6-.116v-.453l-.412-.527 1.167.941.753-.226s.453-.073.529-.188c.074-.112.19-.981.19-.981s.602.454.751.416c.151-.037 1.093.077 1.093.077l.491.185s.188.264.264.115c.076-.151.754-.827.754-.827l.678.186.265-.299-.265-1.586-1.696-2.072-.754-1.206-.941-1.772s-.68-1.129-.68-1.243c0-.113-1.318-1.356-1.318-1.356l-1.735-1.018-2.45-1.095-.64-1.052-1.167-1.019-1.283-.679-1.96-1.131-1.282-.075.114-.565-.792-.189-2.035-.227-.49-.453-1.432-.486-.679-.154-1.018-.038-1.356.075-1.017.117-.076.112.565.114.075.412.264.34.452.564.415.794.414.864.417 1.054.186 2.605-.339.526-1.884.904-1.094.717-1.281 1.431-1.168 1.995-.791 1.51-.641.339-.264.304.076 1.429.489.378-.34.606v.938l.53 1.134.678.187.151.414.339.641.528.15.413.944s-.224 1.282-.074 1.282c.149 0-.302.863-.302.863l-.452.642.415.381z" id="path6459" fill="#fff"/></g><g id="g6461" transform="translate(661.626 3425.122)"><path d="M0 0l-.678.147.603-.75L1.282-2.64l1.017-.827.754-2.225.414-1.284v-.79l.491-2.639.415-2.034.489-.75.039-2.187.3-.941.377-.984.303-1.206.452-1.319v-.792l.452-.527v4.9l-.452 2.525-.415 2.449-.717 2.413-1.016 2.074-.868 1.998-.603 1.165-.98 1.283-.679 1.096-.791.789z" id="path6463" fill="#fff"/></g><g id="g6465" transform="translate(649.828 3433.416)"><path d="M0 0l1.019-.077.942-.569-.189-.186-.828.379z" id="path6467" fill="#fff"/></g><g id="g6469" transform="translate(637.528 3375.295)"><path d="M0 0c-17.634-1.201-32.44 11.847-33.642 29.479-1.201 17.634 12.647 36.445 39.667 34.499l.073.025c-22.647.096-38.026-14.304-38.026-31.98 0-17.672 14.327-32 31.999-32z" id="path6471" fill="#5cb930"/></g><g id="g6473" transform="translate(635.635 3374.003)"><path d="M0 0s-9.757-4.299-20.681 6.314c-13.95 13.552-27.185-1.63-27.185-1.63S-43.173-23.492 0 0" id="path6475" fill="#5cb930"/></g><g id="g6477" transform="translate(607.582 3371.333)"><path d="M0 0c-7.553 1.14-15 3.721-20.993 8.295.194-1.063 6.347-27.578 46.077-6.919 0 0-.7-.309-1.936-.562C14.255-2.257 8.793-1.325 0 0" id="path6479" fill="#f6faf2"/></g><g id="g6481" transform="translate(607.38 3371.186)"><path d="M0 0c-7.536 1.191-14.739 3.581-20.734 8.157.195-1.062 6.491-27.145 46.222-6.489 0 0-.7-.309-1.938-.559C15.447-2.574 8.879-1.402 0 0" id="path6483" fill="#5cb930"/></g><g id="g6485" transform="translate(607.497 3390.382)"><path d="M0 0s-6.832 1.705-8.233 11.671c-1.79 12.721-14.848 10.158-14.848 10.158S-32.045 5.228 0 0" id="path6487" fill="#5cb930"/></g><g id="g6489" transform="translate(591.777 3400.35)"><path d="M0 0c-3.48 3.654-6.32 8.016-7.595 12.833-.33-.636-7.859-16.961 21.239-22.275 0 0-.488.121-1.237.493C6.523-6.947 4.05-4.252 0 0" id="path6491" fill="#f6fbf1"/></g><g id="g6493" transform="translate(591.612 3400.354)"><path d="M0 0c-3.45 3.673-6.242 7.84-7.517 12.652-.328-.632-7.607-16.79 21.492-22.104 0 0-.492.121-1.238.495C7.018-7.6 4.062-4.329 0 0" id="path6495" fill="#5cb930"/></g><g id="g6497" transform="translate(602.958 3411.64)"><path d="M0 0s-3.132 5.408 2.352 12.456c7 9.004-2.7 15.741-2.7 15.741S-16.47 23.648 0 0" id="path6499" fill="#5cb930"/></g><g id="g6501" transform="translate(599.597 3427.815)"><path d="M0 0c.179 4.477 1.203 8.98 3.484 12.77-.606-.182-15.664-5.474-1.069-27.298 0 0-.225.385-.45 1.089C-.397-8.452-.207-5.209 0 0" id="path6503" fill="#f1f8eb"/></g><g id="g6505" transform="translate(599.499 3427.926)"><path d="M0 0c.208 4.464 1.139 8.818 3.419 12.605-.606-.181-15.401-5.527-.808-27.353 0 0-.225.388-.45 1.091C-.507-9.172-.246-5.268 0 0" id="path6507" fill="#5cb930"/></g><g id="g6509" transform="translate(612.815 3431.806)"><path d="M0 0s.729 4.397 6.946 5.794c7.94 1.782 5.653 9.896 5.653 9.896S1.655 20.5 0 0" id="path6511" fill="#5cb930"/></g><g id="g6513" transform="translate(618.302 3442.24)"><path d="M0 0c2.13 2.388 4.736 4.406 7.713 5.455C7.295 5.63-3.399 9.546-5.261-9.097c0 0 .053.313.247.804C-4.052-4.474-2.477-2.773 0 0" id="path6515" fill="#f5faf2"/></g><g id="g6517" transform="translate(618.296 3442.347)"><path d="M0 0c2.145 2.366 4.63 4.341 7.605 5.392-.417.175-10.993 3.941-12.854-14.704 0 0 .05.318.247.809C-4.437-4.821-2.521-2.792 0 0" id="path6519" fill="#5cb930"/></g><g id="g6521" transform="translate(633.023 3439.345)"><path d="M0 0s1.418 2.262 5.174 1.598c4.798-.85 5.407 4.161 5.407 4.161S5.647 10.94 0 0" id="path6523" fill="#5cb930"/></g><g id="g6525" transform="translate(638.464 3443.84)"><path d="M0 0c1.724.827 3.632 1.341 5.516 1.233-.19.19-5.19 4.825-10.524-5.044 0 0 .104.162.324.388C-3.272-1.535-2.012-.958 0 0" id="path6527" fill="#f6fbf2"/></g><g id="g6529" transform="translate(638.485 3443.9)"><path d="M0 0c1.729.812 3.557 1.329 5.444 1.224-.19.191-5.162 4.713-10.494-5.156 0 0 .102.166.322.39C-3.566-1.64-2.039-.958 0 0" id="path6531" fill="#5cb930"/></g></g></g></svg>