<svg xmlns="http://www.w3.org/2000/svg" id="svg32608" viewBox="0 0 7.48 9.476" height="35.814" width="28.272"><defs id="defs32602"><clipPath id="clipPath7225"><path id="path7223" d="M0 6925.877h1916.794V0H0z"/></clipPath></defs><g transform="translate(-131.119 -174.932)" id="layer1"><g id="g32581" transform="matrix(.35278 0 0 -.35278 -415.608 2608.59)"><g id="g7219"><g id="g7221" clip-path="url(#clipPath7225)"><g id="g7227" transform="translate(1563.265 6871.697)"><path d="M0 0h-.997c-.523.133-1.05.249-1.565.407-.228.07-.418.084-.645-.004-1.566-.605-3.081-.469-4.532.366-1.329.764-2.315 1.88-3.121 3.157-1.348 2.134-2.174 4.464-2.508 6.966-.174 1.308-.186 2.612.147 3.903.935 3.624 4.16 5.666 7.825 4.924.619-.126 1.217-.352 1.846-.538-.014-.012.005-.004.011.01.061.144.122.289.18.435.771 1.941 1.637 3.838 2.74 5.618.267.433.583.519 1.049.304.499-.23.997-.465 1.495-.697.614-.288.638-.439.096-.85-1.298-.983-2.435-2.123-3.353-3.473-.311-.456-.613-.918-.919-1.377a.347.347 0 0 1 .207.027c1.009.419 2.052.692 3.147.732 1.569.056 2.996-.348 4.203-1.38 1.518-1.298 2.183-3.019 2.36-4.954.186-2.033-.163-4.006-.773-5.937-.589-1.862-1.412-3.61-2.684-5.115C3.241 1.38 2.102.486.605.134.404.087.201.044 0 0" id="path7229" fill="#d82428" fill-rule="evenodd"/></g><g id="g7231" transform="translate(1555.868 6898.558)"><path d="M0 0c.529-.139 1.074-.234 1.584-.424 1.409-.524 2.299-1.562 2.707-2.987.161-.564.211-1.165.256-1.754.035-.452-.257-.719-.71-.716-1.695.011-3.168.53-4.204 1.945-.717.98-.986 2.107-.952 3.312.008.322.231.484.479.624z" id="path7233" fill="#d82428" fill-rule="evenodd"/></g></g></g><text transform="matrix(1 0 0 -.92755 1554.547 6878.247)" style="-inkscape-font-specification:MyriadPro-Cond" id="text7237" font-weight="400" font-stretch="condensed" font-size="15.527" font-family="Myriad Pro Cond" fill="#fff"><tspan x="0 5.636446" y="0" id="tspan7235">en</tspan></text></g></g></svg>