<svg xmlns="http://www.w3.org/2000/svg" id="svg28179" viewBox="0 0 49.832 49.832" height="188.34" width="188.34"><defs id="defs28173"><clipPath id="clipPath6115"><path id="path6113" d="M0 6925.877h1916.794V0H0z"/></clipPath></defs><g transform="translate(-71.846 -146.34)" id="layer1"><g id="g6109" transform="matrix(.35278 0 0 -.35278 -280.259 1185.826)"><g clip-path="url(#clipPath6115)" id="g6111"><g transform="translate(1136.847 2875.947)" id="g6117"><path id="path6119" d="M0 0c0 37.625-30.502 68.127-68.128 68.127-37.625 0-68.127-30.502-68.127-68.127 0-37.626 30.502-68.128 68.127-68.128C-30.502-68.128 0-37.626 0 0z" fill="none" stroke="#a6ec3e" stroke-width="5" stroke-linecap="round" stroke-miterlimit="10"/></g><g transform="translate(1079.363 2859.396)" id="g6121"><path id="path6123" d="M0 0c-.061 5.311-4.464 9.768-9.721 9.837-5.475.072-10.051-4.481-10.042-9.99.012-5.502 4.613-9.898 10.207-9.75A9.778 9.778 0 0 1 0 0m3.546 19.267c3.883.088 7.39.159 10.895.253 1.539.042 3.11-.043 4.61.234 5.222.962 8.609-1.126 9.938-6.292 3.876-15.064-2.104-27.863-16.112-34.791-3.501-1.732-5.94-2.324-7.972 2.261-2.254 5.085-5.855 6.052-11.417 4.822-2.043-.452-4.327-.447-6.389-.059-6.436 1.214-9.203.327-11.955-5.425-1.551-3.244-3.262-3.465-6.2-2.262-12.325 5.05-17.783 13.068-17.784 26.425 0 1.703-.007 3.406.002 5.109.044 8.286 3.008 10.78 11.31 10.005 2.237-.209 4.592.903 6.839.722 2.526-.204 4.99-1.183 7.142-1.739 1.546 2.252 2.934 6.484 4.974 6.825 5.755.966 11.87.917 17.642.004 1.954-.308 3.31-4.4 4.477-6.092" fill="#a6ec3e" fill-rule="evenodd"/></g><g transform="translate(1095.465 2882.327)" id="g6125"><path id="path6127" d="M0 0c-5.259.119-9.76 4.758-9.605 9.898.155 5.154 4.904 9.674 10.026 9.543 5.188-.132 9.709-4.832 9.587-9.963C9.884 4.262 5.259-.117 0 0" fill="#a6ec3e" fill-rule="evenodd"/></g><g transform="translate(1043.35 2882.321)" id="g6129"><path id="path6131" d="M0 0c-5.253.001-9.71 4.574-9.601 9.85.106 5.079 4.462 9.506 9.448 9.599 5.187.099 9.755-4.408 9.803-9.676C9.7 4.463 5.292-.002 0 0" fill="#a6ec3e" fill-rule="evenodd"/></g><g transform="translate(1079.185 2898.598)" id="g6133"><path id="path6135" d="M0 0c.019-5.304-4.407-9.699-9.735-9.668-5.323.03-9.736 4.546-9.606 9.827.125 5.097 4.455 9.401 9.537 9.483C-4.566 9.727-.02 5.255 0 0" fill="#a6ec3e" fill-rule="evenodd"/></g></g></g></g></svg>