<svg xmlns="http://www.w3.org/2000/svg" id="svg14732" viewBox="0 0 16.228 15.878" height="60.01" width="61.333"><g transform="translate(-127.68 -196.74)" id="layer1"><g transform="translate(16.257 58.018)" id="g15897"><path id="path7851" d="M127.65 146.447v.564c-.01.043-.024.087-.03.132-.07.491-.098.993-.213 1.474-.414 1.724-1.325 3.154-2.698 4.29a8.005 8.005 0 0 1-3.463 1.671v-5.605h2.413l.237-2.474h-.216c-.759 0-1.518-.002-2.278.002-.116.001-.168-.02-.166-.153.008-.46-.006-.92.005-1.378.018-.737.425-1.134 1.2-1.182.478-.03.939.058 1.39.194.127.038.138.002.152-.106.054-.399.118-.797.177-1.196.057-.388.11-.778.17-1.21-.505-.085-1.002-.19-1.504-.248a6.826 6.826 0 0 0-1.779.025c-.665.096-1.303.27-1.866.65-.792.534-1.228 1.259-1.215 2.229.009.73.002 1.46.002 2.191v.185h-1.575v2.484h1.564v5.614c-.075-.013-.137-.02-.197-.033-1.586-.36-2.951-1.108-4.076-2.279-1.01-1.051-1.703-2.275-2.032-3.688-.11-.47-.155-.955-.23-1.433v-.846l.04-.371c.22-2.003 1.052-3.716 2.553-5.078 1.88-1.707 4.116-2.424 6.64-2.056 2.892.422 4.978 1.99 6.25 4.596.385.787.608 1.627.684 2.502.015.178.04.355.061.533" fill="#5cb930" stroke-width=".353"/></g></g></svg>