<svg xmlns="http://www.w3.org/2000/svg" viewBox="0 0 10.16 744.71"><defs><style>.cls-1{fill:#90c320;}</style></defs><title>form_decor</title><g id="Слой_2" data-name="Слой 2"><g id="Слой_1-2" data-name="Слой 1"><path class="cls-1" d="M8.74,740.62c0,2.2.38,1.41.46,1.74C9.1,738.69,8.63,740.72,8.74,740.62Z"/><polygon class="cls-1" points="7.79 704.33 7.96 704.98 7.54 699.63 7.79 704.33"/><path class="cls-1" d="M7.79,670.4c-.71,3.21.12,12.3-.14,18.34l-.16,1,.57,2.73C8,685.12,7.59,675.57,7.79,670.4Z"/><path class="cls-1" d="M9.34,652.31c-.28,1.12-.24-3.91-.09,4.22l.07-.76Z"/><path class="cls-1" d="M9.32,655.76c0,3.57.23-2.34,0,0Z"/><path class="cls-1" d="M9.16,639.26,9.41,644c.16-1,.2-5.17.32-3.62C9.59,635.52,9.43,636.51,9.16,639.26Z"/><path class="cls-1" d="M8.64,634.79l.1,2.44A8.1,8.1,0,0,0,8.64,634.79Z"/><path class="cls-1" d="M9,642.41l-.22-5.17a3.47,3.47,0,0,0,.08,2.38C8.61,639.18,8.82,640.21,9,642.41Z"/><path class="cls-1" d="M8.86,645.33c-.16,2.64-.25,6.05-.5,1.33C8.46,655.67,9,654.34,8.86,645.33Z"/><path class="cls-1" d="M7.05,668.67l-.21,3.53.24,3.05C7,673.73,7.28,668.45,7.05,668.67Z"/><path class="cls-1" d="M9.53,609.93c-.15-.29-.4,1.58-.6,1.93l.17,3.48C9.21,613.56,9.31,610.17,9.53,609.93Z"/><path class="cls-1" d="M8.93,611.87l-.26-5.2C8.64,611.31,8.76,612.16,8.93,611.87Z"/><polygon class="cls-1" points="7.85 633.95 8.4 642.5 7.84 632.31 7.85 633.95"/><polygon class="cls-1" points="9.55 590.06 9.9 593.01 9.37 587.76 9.55 590.06"/><path class="cls-1" d="M9.49,576.88c.29,2.18.49-3,.67-.68-.05-3.58-.3-6.64-.53-9.39A96.68,96.68,0,0,1,9.49,576.88Z"/><path class="cls-1" d="M9.31,562.19c.07,1.46.19,3,.33,4.62C9.57,565.26,9.47,563.73,9.31,562.19Z"/><path class="cls-1" d="M8.75,597.8a17.62,17.62,0,0,0,.43-4.09l-.43,2Z"/><path class="cls-1" d="M8.74,595.82v-.07l0-4.42Z"/><path class="cls-1" d="M8.74,598.32v-.52A.94.94,0,0,0,8.74,598.32Z"/><path class="cls-1" d="M8.23,620.32c-.24-3.06-.5-9.43-.86-3.26C7.67,619.25,7.88,615.72,8.23,620.32Z"/><path class="cls-1" d="M8.21,600.86l-.1,5.53c.11-.11.28-1.11.4.41Z"/><polygon class="cls-1" points="8.07 598.15 8.21 600.86 8.25 598.81 8.07 598.15"/><path class="cls-1" d="M8.91,571.65c-.19-2.39-.2-5-.23-7.95-.08,3.16-.13,6.43-.13,9.53C8.68,573.68,8.92,575,8.91,571.65Z"/><path class="cls-1" d="M8.79,583.4l0-.53C8.73,583.19,8.71,583.46,8.79,583.4Z"/><path class="cls-1" d="M8.68,534.67l-.08.47a1,1,0,0,1,.07.11Z"/><path class="cls-1" d="M8.47,573.77a35.39,35.39,0,0,0,.15,5.15c0-1.78-.07-3.66-.07-5.68C8.49,573,8.45,573,8.47,573.77Z"/><path class="cls-1" d="M9.11,554.09c-.09,1.24-.17,2.64-.23,4.11A27.47,27.47,0,0,0,9.11,554.09Z"/><path class="cls-1" d="M8.88,582.07l0,.36C9,581.64,8.95,581.74,8.88,582.07Z"/><path class="cls-1" d="M8.88,582.07c-.06-1.22-.17-2.18-.26-3.15,0,1.45.08,2.79.14,4C8.79,582.57,8.84,582.28,8.88,582.07Z"/><path class="cls-1" d="M5.93,525.87c.4.42.76,6.67.34,12.06.3,5.31,1.6,1.84,2.33-2.8-.17-.16-.33-.16-.57-5.63-.22,1.91-.51,12.12-.86,7.51-.2-7.23.14-5.93.35-9.44-.49,3-.72-9.2-1.44-7.63l.26,6.34C6.22,526.41,6,524.11,5.93,525.87Z"/><path class="cls-1" d="M8.56,545.54l0,2.25c.07-2.56.23-4.4.54-7.77-.19-3.74-.34-4.51-.47-4.77l-.06,11.06Z"/><path class="cls-1" d="M8.61,557.87c-.43-1.75-.61-7.15-1.08-3.85,0,6.59.36,4.62.55,8.56-.11-10.64.24,3.06.48-4.63.07,2.09.1,4,.11,5.75.05-1.92.12-3.76.2-5.5l0,.24v.05h0c-.05.46-.09.61-.06.09v-.22a1.54,1.54,0,0,1-.16-.48c.09-3.08.11-.49.16.48,0,0,0,.12.06.13v0l-.24-10.66C8.55,550,8.56,552.87,8.61,557.87Z"/><path class="cls-1" d="M6.45,611.37c0-.33.07-.32.1-.34C6.5,610.34,6.46,610.08,6.45,611.37Z"/><path class="cls-1" d="M6.71,607a24.69,24.69,0,0,1,.19,3.94c-.13,2.19-.21,0-.35.1.11,1.52.31,5.31.52.55L7,610.83c.15-4.29.69-9.81.74-9.06A27.87,27.87,0,0,0,6.71,607Z"/><path class="cls-1" d="M7.55,582.12l-.21-8.88L7,577.77l.22-.23C7.1,582.58,7.38,581.49,7.55,582.12Z"/><polygon class="cls-1" points="8.89 533.65 9.35 534.83 8.7 529.7 8.89 533.65"/><polygon class="cls-1" points="8.84 522.12 9.23 522.54 8.99 519.5 8.84 522.12"/><path class="cls-1" d="M5.18,128.06l.11,2.61C5.25,129.43,5.22,128.64,5.18,128.06Z"/><path class="cls-1" d="M5.2,109.18,5,108.71C5.12,109.59,5.2,109.95,5.2,109.18Z"/><path class="cls-1" d="M8.79,238.81c.37-3.8.94-8,.5-7.58l-.43,1.17C8.93,235,8.89,237.08,8.79,238.81Z"/><path class="cls-1" d="M6.2,44.79,6.07,45.9l.42,2.57Z"/><path class="cls-1" d="M4.41,42.11l.28-5C4.59,38.22,4.5,39.83,4.41,42.11Z"/><path class="cls-1" d="M5.64,231.19l.44,3C6.08,229.47,5.85,231.57,5.64,231.19Z"/><path class="cls-1" d="M8.68,404c.17-3.28.24-5.89.26-8.18C8.69,399.74,8.32,402.93,8.68,404Z"/><path class="cls-1" d="M.57,120.63c.08,1.6.17,2.28.26,2.23C.76,121.22.68,120.29.57,120.63Z"/><path class="cls-1" d="M8.94,386.32l-.1,1.73c.07,2.4.13,4.81.1,7.74A61.44,61.44,0,0,0,8.94,386.32Z"/><path class="cls-1" d="M5.28,605.22l-.05.85C5.28,606.15,5.29,605.77,5.28,605.22Z"/><path class="cls-1" d="M.9,714.18c0-1.07,0-2.82,0-4.47C.84,710.51.84,711.86.9,714.18Z"/><path class="cls-1" d="M9,475.7c0,2.45,0,.39,0,0Z"/><path class="cls-1" d="M7.31,487.6a2.06,2.06,0,0,0-.21-1A2.91,2.91,0,0,1,7.31,487.6Z"/><path class="cls-1" d="M6.24,362v-.21C6.15,362.47,6.17,362.35,6.24,362Z"/><path class="cls-1" d="M8.83,479.39c.05-.92.1-2,.13-3.13C8.92,476.76,8.88,477.71,8.83,479.39Z"/><path class="cls-1" d="M9,478.89,9,481C9.06,481.34,9.11,481.06,9,478.89Z"/><path class="cls-1" d="M9,472.3c0,1.4,0,2.7,0,4,0-.48.05-.68.07-.55Z"/><path class="cls-1" d="M4.12,404.81l0,.52C4.26,407.8,4.23,406.72,4.12,404.81Z"/><path class="cls-1" d="M4.29,175.14l0,.28,0-.36Z"/><path class="cls-1" d="M4,166.35a40.91,40.91,0,0,1,.36,8.7l1.25-2.91Z"/><path class="cls-1" d="M5.3,173.27l.39-6.17c.64,7.45.42,12.84,1,7-1.36-.87-.14-24-1.5-24.84l.29-4.07c0,1.17.07,1.35.05,2.5.65-7.91-1-5.88-.79-16.07.1-3.55.3-6,.46-3.61l-.34-7.92c0-2.3.26-1.74.24.55L5,108.62l0,.09c-.21-1.72-.54-5.63-.68-7.53.19-3.07.14,1.54.31.75l-.33-6.69c.35-2.72.69,2.82.64,7.43,1.36-6.24-.34-5.55.45-19L5.58,90c.77-4.07.49-9,1-16.13-.25,1.69-1.21,14.29-1.55,7a69.61,69.61,0,0,0-.12-8.65c.48,0,.36-3.86.34-8.64l.64.33c-.18-5.17-.51-4.76-.8-7.8.06-5.76.56-7,1-8.31.1-9.23-.79,6.37-.91-4.55.24-7.67,0-13.06-.4-22.24.22-5.37.39.94.57-1l-.51-4.76c0-1.17.17-.79.25-.6-.2-4-.64-.33-.81-6.64-.31-.75-.15-3.33.06-6.65L2.8,2.84,6.3,3,4.62,1.36A72.05,72.05,0,0,0,4.66,12c-.18,1.92-.39-.93-.64-.34.52,10.71.38,9.18,1.09,18L4.69,37.1c.48-5.51,1,1.53,1.52,7.69.23-2,.43-3.62.53-4.74l.34,9.83c-.1,1.19-.32.2-.59-1.41l.15,1.8c-.24,3.52-.61,1.69-1-.83l.39-3.54c-.39-2.43-.82-4.7-1.19-4.19.07.64.14,1.87.17,3.22-.11-.63-.2-1-.26-.75a20.64,20.64,0,0,0,.24,3l-.71,2.24.28.54L4.15,62.79C4.87,72,5.92,80,6.22,94.6c-.52-3.62-.85-.78-1.47-1,.66-4-.28-11.31-.15-18.88-.07,4-.36,3.08-.47,2.08l.6,13.5c-.51-.3-.38,2.87-.59,6.39,1-2.67.67,10.06,1,15.56-.34.34-.68-1-.6-7.68-.75,7.4,1.18,9.56.54,16.81a15.68,15.68,0,0,0-.13-3.17c.3,3.82.06,13.17-.23,11v-1.63c-.12,10.86,0,33.07.84,34.69a5.65,5.65,0,0,1-1.2-2.08l2.86,19.39c-.73-1.71-2.47,4.85-2.88-4.16-.1,2.59-.23,5.79,0,11.24.1-1.77,1.06-4.4,1.12-2-.81,6.62-.43,4.6-1.13,12.75.16-2.65,1.3.29,1.27,4.47-.17-.65-1.13.35-1.25-1.18l1.12,10.41c-.2-2.6-1-.46-1.27,1.87.22-1.08,0,9,.09,11.77l.26-4.41C4.39,232.1,6.14,232,6.08,243.61c-.23-1.41-1.43-3.48-1.57,2.44a131.53,131.53,0,0,1,3.21,22.34l-.33,2,.38,7.91c-.87-4.93-2.69-18.75-3.4-26.3-.26,4.4-.39,1.22-.36,7.81-.31,2.32-.47-3.59-.49-5.53l-.2,15.33c.67-.68.67,11.72,1.23,11.14l-.7-16.65c.67-.67,1.91,9.63,1.79,20.49-.27,2.76-1.2-2.07-1.42-1.84A110.64,110.64,0,0,1,4.51,294l-.36-4.61c-.25,6,.89,9.87.25,17.13,0,2.51-.87,7.49-.47,7.92.77-4.09,3.14-4.89,3.72-2.16-.05.88-.73,13.17-1.11,16-.6,4.13-1.43-6.2-2-2.68A17,17,0,0,1,5.07,329c-.16,2.63-.57-1.09-.49,4.63.68,1-.06,11.64.58,2.71C5.35,342,5,342.33,5,348.91c.44-2.09,1.5,5.9,1.69,11.51-.17-.33-.4.93-.5,1.54-.06,11.47-.37,17.63-.38,28.33-.17,1-.36,6.15-.66,4a60.33,60.33,0,0,1,.37,6.25c-.59,6.39-.09-7.36-.8-2.49.4.42.55,8.54.79,13.24.61-1.45.12-10.86-.13-15.57.84,0,1.73,8.17,2.12,19.36.21,8.89-.55,3.85-.43,5.4C7,437.12,8.6,434.65,8,448.51c-.54,5.5-1.07.25-1.46,1.47-.2-7.24.34-11.12.32-16l-.25,6a93.67,93.67,0,0,1-.16-9.77c-.48,4.61-.09,28.21-.54,41.09.18,2.29.37,6.24.58,4.37l-.08-4.08c.43-3.75.6,7.67.8,2.51.31,5.47.78,11.6.54,19.29l-.61,1.45a39.83,39.83,0,0,0,.18-7.19c.27,3.21-.83,11.8,0,15.32l.42-5.4c.31,5.49,1,12.27.77,19.09.61-3.1-.07-1.57.64-6.42-.88,4.2,0-17.45-.89-10.7.82-5,.35-8.61,1-15.11-.2.2-.39,2.3-.29-3.42-.06-.26-.13-.87-.18-1.26l0-.39,0,.32c0-.25,0-.27,0,.12a22.59,22.59,0,0,1-.31,2.92c-.46-2.84-.45-11.95-.69-15,.1-3.4.23,1.42.45-.43l-.36-4.6c.45-.46.75-9,1-1l0-7.2c.25-4.24.35-10.08.16-13.67.1-3.4-.5-8.58-.15-5.62l-.28-11.3.11-.1c.06-11.15-.74-22.95.07-35.69-.11-3.75-.25-7.63-.12-13.91l.39-1.22c-.14-4.82.39-14.47,0-16.54,1-5.2.23-23.39.41-31.86L9,324.2c0-5.83-.12-11.43-.32-18.67l-.45.45c-.37-6.24.32-16,.27-25.92a28.39,28.39,0,0,1,0,4.95c1-11.8-.74-24.89,0-35.59a50,50,0,0,1,0-6.47c0,.25,0,.47,0,.66v-1.09l.24-3.7c-.11,1.12-.2,2.19-.24,3.12,0-2.06-.07-5.17-.18-8.23l.48-1.3v-.71c.18-3-.23-2.41-.59-.81-.08-1.54-.17-2.95-.29-4,.78-2.44-.26-8,.57-11.35-.4-2.06-.3-15.37-1.15-17,.11-.1.16-1,.17.65a95.94,95.94,0,0,0,0-9.87l.61-1.45-.82-7.44c.37-4.52.59-6.39,1.06-1.91-.72-10.84-.27-8.79-1-18l.4.45c0-3.29-.55-8.56-.22-10.55.75-7.37.1-36.47.8-55.39-1.17,3.67.52-8.79-.38-9.54.28-1.1.43-3.74.67-.67-.27-9.66.44-14.51-.32-21.17.28-1.11.4,2.07.57,1.08a24.22,24.22,0,0,1-.08-4.07c.16-1,.23,1.41.35,2.94,0-9.86-.9-10.86-1.69-11.58a44.22,44.22,0,0,0-.2-11.1c.26-1.74.53-4.64.63,1.49,0-3.45.38-21.06-.26-21.41a46.22,46.22,0,0,0,0-5.73c0-6.68.08-8.1.05-13.84V0H6.3L4.13,0l2.11.1A14.56,14.56,0,0,1,2.8.53H2v.82c0,2.27-.19,5.06-.13,9l-.08-.17c-.56,14,.27,6.06-.37,19.92l.48-.75c1,1.29-.61,12.27-.21,20.31l.27-2.9C2.28,51.16.53,59,.4,63.45c-.09,1-.14-1.52-.21-2.86-.61,11.55.63,1.5.77,10.1-.34,1.59-.86-2-.92,3.75-.27,2.88,1.1,16.8.45,24.7.26-1.74.52-3.47.72.53.09,6.13-1,16.56-.16,22.09-.07.78-.14,1.07-.2,1.11.21,4.68.35,15.22.8,18-1.66,4.33.81,29.11-.72,29L1,184.3l-.16-.38a107.06,107.06,0,0,0,.63,15.7c-.1,2.13-.25.57-.33.4-.31,13.45-.24,14.79.52,26.07l-.5,1.17c.29,3.06-.78,19.45-.2,32.64a4.52,4.52,0,0,1-.22-1.45c.58,14.84-1.37,35.54.43,41l.44,9.8c.14-12.67.78,1.89,1.08-3.33.11,5-.54,12.88-.64,6.76l.09-1c-.94-2.25-.33,15.75-1,15.41,0,24.94-.47,49.24-.51,72.6L1.4,397l0,8.15c-.17,2.14-.57,2.87-.54-2.94a43.61,43.61,0,0,0,.51,9.91c-.3,11.38-.85-4.45-.87-1l.05,4.74.09-1.07A80.24,80.24,0,0,1,1.17,426c-.15,4.42-.45,2.27-.48,4,0,0,0,.14-.05.55s0,1.08,0,2.12L.61,443l.58-4.1c.28,4.55,0,9.65.62,4.92-1,7-.36,38.29-.68,42.56.42,6.37.41,12.66.36,20.45.12-1.94.77-3.1.69,3.62C.85,508,1.61,522.71.64,528.15c.64-4.85.16,19.11,1.07,11.49-.11,5.61-.5.34-.82,4.6.52,13.35-.34,29.41-.16,45.91.18.26.44-2.51.71,1l-.88,8.71c.09,3.26,1,3,.4,9,.15-.84.37-2.1.43.09-.86,32.32.7,66-.91,98.87.34-4.45.37-1.48.39,1.91.08-2.21.43.05.67-.38L.88,723.07c.66,2.5,0,14.73.68,16.17l-.11-4.35c.75,5.79,1.66-8.1,2.62-7.25-.85-6.48,1.26-17.09,0-27.72.2-2.35.31,2,.53.75a67.37,67.37,0,0,1-.31-12l.1.68c-.1-16.94.3-24.21.57-43.24l-.47,1.41c.06-4.09.21-5,.33-6.87-.72-4.69,0,11.49-.83,7.21,1-5.43,0-28.84,1.11-32.51,0-6.29-.55,1.84-.54-4.45l.3-1.67-.38-1.59c.06-4.13.43-6.21.68-6.36,0,1,.07,2.85.09,3.92.35-5.35-.12-15.08,0-16.92l-.18,6c-.28-17.17.11-38.14-.49-54.73l-.22,1.26c-.41-12.67.25-10.15.05-24.06l.05.51c-.22-2.78-.33-6.5-.31-10.31.26,3.51.51-6.61.8-2-.44-13.74-.35-6.8-1.18-15.87L4.16,487a70.28,70.28,0,0,1-.61-10.3c.32,5.7.57-4.43,1,1.95.81-14.58-.82-21.65.37-28.33-1-6.69-.57,12.62-.79,8.87-.34,3.14-.77-5.53-.66-10.1s1.31-7.92,1.29-19.63c0,1.17.07,1.24.07,2.41.26-4.38-.35-8.59.07-14-.62-3,0-7-.76-7.85l.18,10.75C4.11,414.74,3.18,409,3.63,399c.16.78.37,3.77.49,5.82.23-2.93-.15-5.65.08-8.69.79.87.17,13.06.78,19.59.33-3.15-.57-12.35.28-9.07-1.09-4.71.14-11.54-.7-19.48l.47.52c-.07-1.25-.3-3.86-.29-6.17l.62,4.18c-.52-6.42.46-12.38.17-18.54,0,12.9-.57,2.9-.92,8.35-.64-15.91,1.24-9.15,1-27,.07,2.41-.29,9.05-.5,5.28.1-3.39.28-7.87.53-9.95-.1-11.8-.49,1.81-.78-3.21.58-4-.24-5.79-.42-11l.48,0c.31-13.45-1-3.57-.63-15.67L5,319.11l-.17-6.31.55,1.3a147.53,147.53,0,0,1-.15-15.73c-.34,1.56-.88-.88-.89-6.84.29-4.06.46,2.28.39-6.17A24,24,0,0,1,4.95,293c.16.38.3,1.88.46,2.27.33-4.38.08-11,.07-14.05,0,1.18,0,2.58-.11,3.31l-.67-12.24c.18-1.93.33-.4.47,1.12-.05-2.48-.27-4.19-.32-7.84.39.94.8.72,1,5.88l-.44-11.66c.17-.78.47-6,.61-4.47.23-6.46-.76-15.86-.46-24.43a27.46,27.46,0,0,1-.2-3.16c.09-8.05.57-15.19,0-24.74l.7-5.42c-.16-7.48-.89,7.33-1.15-5.12-.22-8.81.6-3.29.8-6.38a129.92,129.92,0,0,1-.5-20.1C5.35,168.67,5.25,170.77,5.3,173.27ZM5,81.05c.1,1.79.41,5.35.13,6.66C4.57,85.67,4.83,84.1,5,81.05Zm.28-22.69a32.91,32.91,0,0,1,.1-5.7C5.42,54.34,5.4,56.25,5.27,58.36ZM8.63,448.89l0-.19C8.8,444.71,8.72,446.12,8.63,448.89Zm-.21,8.28c.07.83.13.77.2.42a34.32,34.32,0,0,1-.1-4.55A17.84,17.84,0,0,0,8.42,457.16ZM.87,430.94,1,429.33C1.13,433,1,432,.87,430.94Z"/><path class="cls-1" d="M4.61,42.47a1.47,1.47,0,0,1,.26-.76C4.8,41,4.7,41,4.61,42.47Z"/><path class="cls-1" d="M5.56,230.63v.28a.85.85,0,0,0,.09.28Z"/><path class="cls-1" d="M4.33,328.95c.07-1.7.16-2.65.25-3.29C4.46,325.57,4.37,326.34,4.33,328.95Z"/><path class="cls-1" d="M9.24,501l-.13-5.3c0,2.56-.08,3.48-.16,4.77C9.07,500.38,9.24,499.37,9.24,501Z"/><path class="cls-1" d="M6.26,547c.06.77,0,1.64.07,2.41l.22-.21C6.53,545.94,6.35,543.63,6.26,547Z"/><path class="cls-1" d="M7.64,505.94c-.41.42-.27,3.75-.19,7.46v-.66C8,513.83,7.83,509.88,7.64,505.94Z"/><path class="cls-1" d="M7.46,514.26c0,1.14,0,2.31,0,3.43C7.7,518.12,7.52,516.3,7.46,514.26Z"/><path class="cls-1" d="M8.69,467.66c-.1,1.76.52,1.11.35,2.1C9.56,471.73,8.42,458,8.69,467.66Z"/><polygon class="cls-1" points="6.3 508.94 6.8 507.61 6.4 505.53 6.3 508.94"/><path class="cls-1" d="M6.67,479.62l-.14,5.93c.08-.09.13.66.17,1.59C6.72,483.49,6.82,479.48,6.67,479.62Z"/><path class="cls-1" d="M6.7,487.14c0,1.9,0,3.72.08,4.78C6.78,490.89,6.77,488.67,6.7,487.14Z"/><polygon class="cls-1" points="6.15 500.83 6.26 499.07 6.29 494.88 6.15 500.83"/><path class="cls-1" d="M6.77,415.82l-.14-6.48c-.17-.66-.28,1.1-.21,3.52C6.54,414.41,6.6,416.82,6.77,415.82Z"/><path class="cls-1" d="M5.4,435.41a16.52,16.52,0,0,1,.38-2.86l-.62-.2Z"/><path class="cls-1" d="M5.25,416.52c-.17-.65-.49-9.4-.46-1.19C5,416,5.11,422.48,5.25,416.52Z"/><polygon class="cls-1" points="6.04 318.93 6.04 320.58 7.06 320.35 6.04 318.93"/><path class="cls-1" d="M3.6,232.92c-.24,7.67.63,1.82.32,8.76.24,1.8.25-5.67.46-3.82C4.13,233.23,4.27,230.79,3.6,232.92Z"/><path class="cls-1" d="M4.38,237.86l.15,2.36C4.47,238.88,4.42,238.25,4.38,237.86Z"/><polygon class="cls-1" points="0.35 732.26 0.14 737.2 0.48 734.01 0.35 732.26"/><path class="cls-1" d="M1.11,741.74l-.35.63-.38.69,2.43,1.36.54.3,3-.59c-.91,0-2.51.07-3.5,0L1,744,1,742.36A5.59,5.59,0,0,1,1.11,741.74Z"/><path class="cls-1" d="M6.3,67.34,6.14,67a25.43,25.43,0,0,0-.21,4.23Z"/><polygon class="cls-1" points="5.81 134.28 5.83 133.13 5.24 135.28 5.81 134.28"/><path class="cls-1" d="M6.56,190.45c0-2.29-.11-5-.08-7.29C6.59,188.16,5.83,191.07,6.56,190.45Z"/></g></g></svg>