<svg xmlns="http://www.w3.org/2000/svg" id="svg21044" viewBox="0 0 47.39 47.39" height="179.112" width="179.111"><g transform="translate(-64.653 -154.34)" id="layer1"><g id="g22194" transform="matrix(.35278 0 0 -.35278 -113.245 1464.116)"><g id="g5995" transform="translate(636.11 3645.587)"><path d="M0 0c0 35.714-28.952 64.667-64.667 64.667-35.714 0-64.666-28.953-64.666-64.667 0-35.715 28.952-64.667 64.666-64.667C-28.952-64.667 0-35.715 0 0z" id="path5997" fill="none" stroke="#5cb930" stroke-width="5" stroke-linecap="round" stroke-miterlimit="10"/></g><g id="g6421" transform="translate(545.794 3667.136)"><path d="M0 0l-.162 2.621c-2.808 0-5.916.712-8.301-.292-1.248-.525-1.78-4.091-1.685-6.243C-9.514-18.406.58-30.819 16.303-35.225c-4.509 4.956-10.588 8.51-14.539 13.686-4.073 5.336-6.073 12.252-9.049 18.625zm56.91-2.432c-.466-12.633-6.874-20.744-16.657-26.893-2.388-1.501-4.184-3.944-6.252-5.953l1.478-1.456c17.2 8.716 24.254 17.3 25.91 32.185.262 2.367-.21 6.428-1.535 7.016-2.544 1.129-5.945.329-8.989.329L50.672.425l6.238-2.857M43.4.967l5.609 4.776c-10.481 6.14-39.544 5.582-46.674-.712l5.902-3.448-6.673.479c.473-10.625 5.113-17.937 10.591-25.381 3.339-4.538 4.695-10.952 5.463-16.72.241-1.807-4.41-4.178-6.671-6.441-1.214-1.214-2.105-2.749-3.529-4.658l8.7-4.792-9.661 1.265c10.842-9.381 31.394-8.752 36.008.11l-5.482-1.86c1.975 1.886 3.95 3.77 6.431 6.141-1.563 1.673-2.65 3.766-4.323 4.475-8.661 3.668-6.548 10.24-4.211 16.301 1.364 3.538 4.29 6.509 6.678 9.608 4.895 6.355 8.37 13.122 7.253 22.205L43.4.967" id="path6423" fill="#5cb930"/></g></g></g></svg>