<svg xmlns="http://www.w3.org/2000/svg" id="svg33293" viewBox="0 0 60.506 60.506" height="228.683" width="228.684"><defs id="defs33287"><clipPath id="clipPath6197"><path id="path6195" d="M0 6925.877h1916.794V0H0z"/></clipPath><clipPath id="clipPath6209"><path id="path6207" d="M422.18 6778.87h8.87v-23.38h-8.87z"/></clipPath><clipPath id="clipPath6225"><path id="path6223" d="M379.862 6770.88h5.711v-12.71h-5.711z"/></clipPath><clipPath id="clipPath6241"><path id="path6239" d="M365.455 6796.4h128.083v-62.78H365.455z"/></clipPath></defs><g transform="translate(-69.547 -131.42)" id="layer1"><g id="g6191" transform="matrix(.35278 0 0 -.35278 -51.181 2548.9)"><g clip-path="url(#clipPath6197)" id="g6193"><g transform="translate(513.736 6766.94)" id="g6199"><path id="path6201" d="M0 0c0 47.362-38.395 85.756-85.756 85.756-47.362 0-85.757-38.394-85.757-85.756s38.395-85.756 85.757-85.756C-38.395-85.756 0-47.362 0 0" fill="#d82428"/></g><g id="g6203"><g id="g6217"><g id="g6215" clip-path="url(#clipPath6209)"><g id="g6213" transform="translate(425.08 6755.486)"><path id="path6211" d="M0 0c-.106.154-.21.326-.312.524-.886 1.757-1.336 4.568-1.336 8.355 0 3.813.467 6.922 1.396 9.244.873 2.186 2.217 3.517 4.111 4.078.476.142.92.213 1.311.213.234 0 .509-.022.799-.117-.693.961-1.483 1.085-2.048 1.085-.394 0-.834-.071-1.314-.212-1.894-.56-3.238-1.894-4.111-4.078C-2.43 16.771-2.9 13.66-2.9 9.85c0-3.789.45-6.6 1.337-8.358C-1.086.549-.518.159 0 0" fill="#81bc00"/></g></g></g></g><g id="g6219"><g id="g6233"><g id="g6231" clip-path="url(#clipPath6225)"><g id="g6229" transform="translate(381.114 6769.542)"><path id="path6227" d="M0 0c.191.034.381.063.564.088.451.066.886.129 1.312.195.379.056.742.084 1.071.084.577 0 1.077-.088 1.512-.261a2.832 2.832 0 0 1-.331.39c-.601.565-1.394.84-2.433.84-.332 0-.689-.029-1.068-.086-.429-.065-.867-.128-1.314-.192a14.866 14.866 0 0 1-.565-.089v-12.338c.379.052.748.106 1.252.18z" fill="#81bc00"/></g></g></g></g><g id="g6235"><g id="g6293"><g id="g6291" clip-path="url(#clipPath6241)"><g id="g6245" transform="translate(439.98 6783.757)"><path id="path6243" d="M0 0a8.343 8.343 0 0 1-1.249.967c3.596-3.411 4.164-9.182 4.007-13.425-.181-4.861-.642-10.459-3.88-15.362-2.483-3.761-6.451-6.593-11.172-7.974-1.811-.53-3.508-.798-5.04-.798-2.024 0-3.77.456-5.215 1.358 1.643-1.541 3.815-2.326 6.464-2.326 1.535 0 3.231.27 5.043.798 4.72 1.381 8.688 4.212 11.172 7.974 3.237 4.902 3.699 10.5 3.88 15.361C4.167-9.183 3.599-3.409 0 0" fill="#81bc00"/></g><g id="g6249" transform="translate(473.78 6781.011)"><path id="path6247" d="M0 0c-.243 1.039-.497 2.113-.746 3.208-.443-1.99-.894-3.983-1.344-5.977l1.542.335C-.361-1.622-.184-.811 0 0" fill="#81bc00"/></g><g id="g6253" transform="translate(469.909 6770.339)"><path id="path6251" d="M0 0l-.604-2.865.989.391.597.234.267 1.272L6.372.237c-.109.46-.21.866-.29 1.196z" fill="#81bc00"/></g><g id="g6257" transform="translate(490.65 6773.438)"><path id="path6255" d="M0 0l.151.543c.388 1.407.684 2.381.974 3.322.284.942.583 1.912.971 3.313l.479 1.723-1.533-.671-.026-.083a120.098 120.098 0 0 0-.971-3.313c-.287-.94-.583-1.915-.974-3.321L-1.08.971l-.595-.102A368.758 368.758 0 0 1-4.851.308l.202-.715c.775-2.786 1.55-5.571 2.323-8.359.675-.797 1.048-1.245 1.762-2.097l1.147-1.379-1.879-.039c-4.232-.084-6.404-.224-10.855-.708l-.356-1.143 1.412.154c4.587.5 6.757.644 11.051.73l2.933.038-1.276 1.341-2.903 3.31S-2.622-4.161-3.4-1.376l-.199.715c1.018.184 1.895.369 3.004.559z" fill="#81bc00"/></g><g id="g6261" transform="translate(469.482 6759.271)"><path id="path6259" d="M0 0l-.592-.102c-8.617-1.482-16.925-3.587-24.617-5.641l-.692-1.487 1.923.513C-16.28-4.661-7.967-2.554.657-1.073l.595.104.148.541c.779 2.815 2.424 8.746 2.424 8.746l-1.704-.67C1.575 5.681.669 2.418.151.542z" fill="#81bc00"/></g><g id="g6265" transform="translate(454.126 6763.889)"><path id="path6263" d="M0 0c.423.101.834.195 1.252.294v24.22l1.332 3.747-1.682-.406-.065-.016L0 25.482z" fill="#81bc00"/></g><g id="g6269" transform="translate(483.848 6780.756)"><path id="path6267" d="M0 0c.319.062.628.122.93.179-1.146 4.086-2.288 8.173-3.437 12.259l.977 3.208-1.385-.13-.207-.022-.637-2.087C-2.504 8.938-1.249 4.471 0 0" fill="#81bc00"/></g><g id="g6273" transform="translate(411.97 6776.221)"><path id="path6271" d="M0 0l1.344 3.827-1.726-.474-.035-.009-.835-2.375v-30.044L.406-31.88l-1.136-.305c-.045-.012-4.535-1.214-7.962-2.084l-.177-.045.766-1.091.663.169a695.29 695.29 0 0 1 7.961 2.083l1.137.303L0-30.044z" fill="#81bc00"/></g><g id="g6277" transform="translate(365.455 6750.858)"><path id="path6275" d="M0 0v-1.245l.565-.231a29.71 29.71 0 0 1 3.359-1.157v1.428A28.21 28.21 0 0 0 0 0" fill="#81bc00"/></g><g id="g6281" transform="translate(402.384 6734.498)"><path id="path6279" d="M0 0l-10.592.875.376-.549.248-.367L1.024-.883l7.077 2.282-2.022.56z" fill="#81bc00"/></g><g id="g6285" transform="translate(380.45 6750.363)"><path id="path6283" d="M0 0c-.198-.021-.397-.038-.589-.055V-9.88c.438-.849 1.713-3.302 1.713-3.302l-1.267-.179c-4.336-.612-6.59-.868-11.119-1.138-.313-.612-.547-1.074-.547-1.074l1.601.095c4.664.275 6.917.526 11.317 1.148l1.267.179-1.713 3.304v9.825c.191.015.388.034.585.053L.559.062A28.907 28.907 0 0 0 0 0" fill="#81bc00"/></g><g id="g6289" transform="translate(397.5 6767.51)"><path id="path6287" d="M0 0c0-2.537-.391-4.812-1.172-6.763-.784-1.968-1.889-3.671-3.279-5.067a25.974 25.974 0 0 0-2.167-1.88C-3.084-18.858.461-23.94 3.931-28.832a20.75 20.75 0 0 1 1.609-.403A1253.433 1253.433 0 0 0-4.893-14.274c.602.453 1.169.947 1.697 1.477C-1.806-11.403-.704-9.699.083-7.73.858-5.78 1.255-3.504 1.255-.968c0 4.667-1.288 7.982-3.83 9.851a7.072 7.072 0 0 1-.491.325C-1.033 7.266 0 4.176 0 0" fill="#81bc00"/></g></g></g></g><g transform="translate(441.548 6771.14)" id="g6295"><path id="path6297" d="M0 0c-.189-5.18-.717-10.354-3.738-14.931-2.409-3.646-6.259-6.311-10.652-7.594-4.595-1.345-8.259-.907-10.622 1.367-3.305 3.183-3.867 8.575-3.711 12.812.19 5.166.704 10.334 3.711 14.902 2.398 3.635 6.245 6.286 10.622 7.564 4.597 1.344 8.273.915 10.652-1.337C-.411 9.629.156 4.229 0 0m-8.109-2.327c0 3.934-.495 6.832-1.483 8.687-.989 1.855-2.59 2.457-4.798 1.806-2.169-.643-3.737-2.179-4.708-4.611-.974-2.431-1.459-5.615-1.459-9.548 0-3.936.476-6.845 1.429-8.731.95-1.883 2.53-2.499 4.738-1.846 2.246.663 3.857 2.218 4.827 4.669.971 2.448 1.454 5.639 1.454 9.574" fill="#fff"/></g><g transform="translate(452.938 6762.563)" id="g6299"><path id="path6301" d="M0 0v26.763c.332.94.501 1.409.835 2.348-4.01-.97-6.017-1.497-10.026-2.59.503-.721.751-1.084 1.254-1.806V-5.693c-.503-1.076-.751-1.613-1.254-2.688 8.168 2.179 16.363 4.226 24.726 5.662.778 2.815 1.166 4.219 1.944 7.023-1.207-.474-1.81-.719-3.021-1.216C9.602 2.224 4.78 1.175 0 0" fill="#fff"/></g><g transform="translate(484.39 6774.241)" id="g6303"><path id="path6305" d="M0 0c1.43.262 2.823.509 4.17.741.781 2.815 1.169 3.831 1.947 6.637-1.211-.478-1.814-.72-3.024-1.218-1.22-.218-2.806-.518-4.568-.864a6835.323 6835.323 0 0 1-4.051 14.447l.669 2.194a144.188 144.188 0 0 1-13.09-1.858c.263-.809.393-1.213.654-2.023a20062.47 20062.47 0 0 1-6.863-26.058l6.582 1.307 1.465.657.574 2.664 7.603 1.789s1.486-6.135 2.216-9.197l-.724-2.345c4.457.485 6.685.645 11.142.735-.752.901-1.127 1.349-1.879 2.238C1.885-6.769.943-3.384 0 0m-14.177 2.635c.621 2.741 1.24 5.483 1.847 8.219.302 1.366.539 2.547.716 3.526.177-.929.4-2.046.69-3.322a709.734 709.734 0 0 1 1.72-7.341 374.162 374.162 0 0 1-4.973-1.082" fill="#fff"/></g><g transform="translate(410.733 6744.693)" id="g6307"><path id="path6309" d="M0 0l-1.205 2.041V32.45c.335.948.503 1.422.835 2.372-3.842-1.053-5.763-1.563-9.608-2.505.335-.775.5-1.163.835-1.939V-.38c.397-.565.796-1.134 1.196-1.699C-4.487-1.202 0 0 0 0" fill="#fff"/></g><g transform="translate(400.847 6738.104)" id="g6311"><path id="path6313" d="M0 0a1231.354 1231.354 0 0 0-11.204 16.07 15.29 15.29 0 0 1 2.264 1.868c1.314 1.318 2.34 2.915 3.084 4.775.743 1.859 1.112 4.013 1.112 6.458 0 4.372-1.16 7.465-3.469 9.161-3.178 2.341-8.041 1.674-11.607 1.253-.992-.116-2.06-.314-3.119-.489a154.31 154.31 0 0 0-3.054-.477c-.977-.142-1.877-.267-2.705-.379-.826-.109-3.285-.3-3.836-.331.707-1.02 1.059-1.526 1.769-2.535V19.003c-1.899.44-3.716 1.202-5.175 2.42V14.38c3.169-1.3 6.679-2.157 10.128-1.852-1.602-.488-3.268-.724-4.953-.765V1.179l-1.393-2.741c4.493.266 6.739.508 11.234 1.143-.5.962-.752 1.446-1.252 2.412v10.844a28.763 28.763 0 0 1 2.572.249C-16.229 8.026-9.376-2.027-9.376-2.027L1.176-2.9l4.16 1.342S2.134-.642 0 0m-15.368 21.456c-1.146-1.226-2.629-1.99-4.452-2.259-.627-.093-1.047-.154-1.533-.222-.249-.02-.527-.056-.823-.1v14.056c.468.101.924.185 1.367.247.448.064.879.127 1.306.191 1.864.279 3.309-.043 4.327-1.006 1.018-.964 1.527-2.639 1.527-5.044 0-2.679-.575-4.64-1.719-5.863" fill="#fff"/></g><g transform="translate(400.637 6715.488)" id="g6315"><path id="path6317" d="M0 0c.201.41.468.652.796.731.329.079.648.039.969-.119.313-.156.541-.389.676-.698.137-.308.105-.666-.1-1.076l-3.089-6.23c-.205-.409-.468-.652-.797-.731a1.387 1.387 0 0 0-.965.119c-.319.156-.544.39-.68.698-.136.308-.104.666.1 1.076zm-4.821-5.372c-.24-.486-.366-.95-.375-1.394a2.966 2.966 0 0 1 .227-1.226c.159-.377.382-.711.666-1.002.284-.293.604-.526.953-.7a3.471 3.471 0 0 1 1.136-.336 3.207 3.207 0 0 1 1.199.075c.394.101.767.288 1.116.563.346.275.642.655.882 1.141L4.072-2.02c.238.475.362.938.373 1.387A2.98 2.98 0 0 1 4.221.602a3.27 3.27 0 0 1-.666 1.001 3.472 3.472 0 0 1-.953.701 3.503 3.503 0 0 1-1.134.334 3.239 3.239 0 0 1-1.201-.075 2.915 2.915 0 0 1-1.12-.57A3.32 3.32 0 0 1-1.731.86z" fill="#fff"/></g><g transform="translate(408.948 6701.337)" id="g6319"><path id="path6321" d="M0 0l1.882-.439 1.282 5.475 1.125-.262.473-5.887 1.992-.466-.663 6.329c.68.184 1.202.515 1.565.993.365.478.634 1.089.809 1.833.586 2.51-.226 4.024-2.44 4.542l-3.027.707zm4.478 10.656l.976-.229c.344-.08.61-.187.8-.32.189-.133.322-.3.399-.502.077-.201.104-.429.083-.683a5.879 5.879 0 0 0-.145-.869 5.663 5.663 0 0 0-.255-.844 1.655 1.655 0 0 0-.357-.57 1.032 1.032 0 0 0-.542-.282c-.219-.044-.492-.028-.826.051l-1.068.25z" fill="#fff"/></g><g transform="translate(430.606 6702.544)" id="g6323"><path id="path6325" d="M0 0l-1.93.031-.011-.648a1.638 1.638 0 0 0-.124-.645 1.093 1.093 0 0 0-.302-.403 1.133 1.133 0 0 0-.401-.206 1.411 1.411 0 0 0-.408-.057c-.441.007-.746.14-.911.403-.166.261-.246.584-.24.965l.109 6.734c.006.444.092.809.255 1.096.163.287.483.426.962.419.367-.006.654-.147.867-.42.21-.275.311-.598.305-.968l-.012-.629 1.936-.031.011.74c.006.455-.065.88-.218 1.271-.152.39-.365.726-.637 1.009a2.963 2.963 0 0 1-.974.663c-.379.16-.787.244-1.228.252a3.454 3.454 0 0 1-1.281-.21 3.026 3.026 0 0 1-1.006-.624 2.788 2.788 0 0 1-.66-.951 3.108 3.108 0 0 1-.247-1.198l-.118-7.25c-.008-.604.08-1.106.27-1.503.189-.399.434-.719.734-.965a2.7 2.7 0 0 1 1.015-.524 4.3 4.3 0 0 1 1.112-.167 2.88 2.88 0 0 1 1.208.231c.376.159.704.376.986.649.284.272.505.594.671.96.163.368.249.755.255 1.162z" fill="#fff"/></g><g transform="translate(439.408 6699.796)" id="g6327"><path id="path6329" d="M0 0l1.885.422L.606 6.144l2.33.521L4.214.943l1.889.421-2.874 12.854-1.885-.422 1.23-5.506-2.332-.521-1.227 5.506-1.886-.421z" fill="#fff"/></g><g transform="translate(453.528 6703.857)" id="g6331"><path id="path6333" d="M0 0l1.74.838-.714 2.796 2.377 1.14 1.738-2.306 1.74.836-8.414 10.571-1.45-.698zm2.312 6.218L.568 5.382l-1.211 4.713.033.016z" fill="#fff"/></g><g transform="translate(467.514 6711.713)" id="g6335"><path id="path6337" d="M0 0l1.513 1.206-3.507 4.396.902.719 4.913-3.273 1.601 1.276-5.377 3.4c.275.647.34 1.261.189 1.844-.148.583-.462 1.172-.938 1.77-1.608 2.015-3.3 2.314-5.079.897l-2.427-1.938zm-5.594 10.114l.785.626c.278.22.527.364.748.43.223.067.436.067.64.002.207-.065.402-.185.589-.358a6.28 6.28 0 0 0 .592-.651c.21-.26.376-.501.503-.724.13-.22.207-.432.231-.635a1.03 1.03 0 0 0-.118-.599c-.098-.198-.285-.404-.551-.617l-.858-.685z" fill="#fff"/></g><g transform="translate(471.259 6730.81)" id="g6339"><path id="path6341" d="M0 0l.554.697c.354.447.707.665 1.062.657.358-.007.737-.171 1.142-.494l4.975-3.941c.444-.352.699-.7.767-1.043.064-.342-.071-.727-.408-1.153l-.551-.697zm7.73-8.591l1.672 2.108c.714.9 1.031 1.773.953 2.617-.08.843-.6 1.648-1.568 2.414L3.96 2.374c-.841.667-1.675.959-2.507.874C.624 3.164-.13 2.692-.814 1.831L-2.59-.411z" fill="#fff"/></g><g transform="translate(481.167 6745.107)" id="g6343"><path id="path6345" d="M0 0a2.701 2.701 0 0 1-1.074.259A3.08 3.08 0 0 1-2.216.08a3.288 3.288 0 0 1-1.856-1.708c-.24-.501-.365-.981-.37-1.44a2.95 2.95 0 0 1 .249-1.262c.174-.383.428-.732.772-1.049.34-.317.734-.58 1.178-.793.746-.355 1.43-.523 2.048-.502.616.021 1.255.336 1.912.945l1.097 1.01c.193.175.359.309.499.403.141.094.29.147.446.164.16.016.344-.012.553-.085a8.02 8.02 0 0 0 .788-.331c.266-.127.505-.256.715-.385.214-.129.373-.272.483-.429a.973.973 0 0 0 .172-.543c.006-.206-.062-.456-.204-.752-.21-.446-.489-.701-.829-.771a1.51 1.51 0 0 0-.977.12l-.532.254-.832-1.744.633-.303c.403-.19.811-.292 1.232-.302.417-.011.813.056 1.189.199.373.142.722.363 1.039.659.32.296.581.656.782 1.076.266.559.399 1.074.408 1.548.006.472-.089.898-.284 1.278a3.212 3.212 0 0 1-.862 1.029c-.379.307-.819.58-1.319.818a9.754 9.754 0 0 1-1.193.484 3.175 3.175 0 0 1-1.03.165 2.334 2.334 0 0 1-.95-.23c-.308-.147-.628-.379-.956-.699L.631-4.184a3.149 3.149 0 0 0-.524-.411 1.07 1.07 0 0 0-.45-.152 1.167 1.167 0 0 0-.479.071 6.295 6.295 0 0 0-.604.257 3.326 3.326 0 0 0-.553.326 1.567 1.567 0 0 0-.4.41 1.134 1.134 0 0 0-.172.522c-.014.195.035.414.148.654.214.444.507.693.88.746.372.053.753-.013 1.144-.198l.386-.184.828 1.745z" fill="#fff"/></g><g transform="translate(409.863 6819.226)" id="g6347"><path id="path6349" d="M0 0l1.853.474-.149 2.854 2.525.647 1.24-2.576 1.852.473-6.117 11.896-1.545-.395zm3.447 5.589l-1.852-.473-.261 4.809.036.011z" fill="#fff"/></g><g transform="translate(423.592 6833.066)" id="g6351"><path id="path6353" d="M0 0l.994.039c.372.013.662-.034.87-.141.204-.109.355-.262.459-.46.101-.197.165-.434.195-.708.03-.273.05-.562.062-.866.012-.33.012-.63.006-.899-.009-.269-.06-.5-.153-.694a1.07 1.07 0 0 0-.451-.466c-.207-.117-.505-.183-.893-.198l-.918-.036zm-1.478-11.347l1.913.073-.196 5.089.974.037c.71.028 1.281.167 1.711.423.429.255.765.6 1.012 1.038.21.362.343.748.396 1.161.054.41.068.902.045 1.477-.03.779-.116 1.398-.258 1.849A2.772 2.772 0 0 1 3.396.974a2.673 2.673 0 0 1-1.112.672 4.37 4.37 0 0 1-1.397.147l-2.867-.11z" fill="#fff"/></g><g transform="translate(437.59 6832.347)" id="g6355"><path id="path6357" d="M0 0l.979-.17c.371-.063.646-.172.82-.32.178-.147.297-.329.355-.544.057-.215.072-.459.042-.733a12.788 12.788 0 0 0-.301-1.741 1.665 1.665 0 0 0-.293-.645 1.066 1.066 0 0 0-.54-.363C.835-4.587.53-4.59.147-4.523l-.905.156zm-3.814-10.787l1.884-.327.87 5.014.962-.167c.702-.121 1.29-.102 1.761.058.474.16.876.426 1.208.802.28.311.491.661.627 1.054.14.391.258.868.356 1.434.132.769.177 1.391.132 1.863A2.793 2.793 0 0 1 3.528.243c-.263.392-.58.688-.95.889-.37.201-.817.347-1.332.437l-2.829.491z" fill="#fff"/></g><g transform="translate(445.152 6818.927)" id="g6359"><path id="path6361" d="M0 0l5.295-2.113.692 1.734-3.515 1.406 4.14 10.375-1.776.71z" fill="#fff"/></g><g transform="translate(455.132 6814.31)" id="g6363"><path id="path6365" d="M0 0l4.768-3.128 1.024 1.561L2.625.512l2.102 3.201 2.758-1.812.965 1.472-2.762 1.809L7.79 8.383l3.166-2.078.966 1.469-4.769 3.129z" fill="#fff"/></g><g transform="translate(387.361 6788.363)" id="g6367"><path id="path6369" d="M0 0c10.427 2.991 34.15 27.139 2.173 43.893C9.009 28.998-9.361 21.812-8.908 7.779-8.633-.807-1.485-8.253 5.945-6.599 1.204-5.611-2.88-2.454-4.552 2.412c-4.155 12.1 12.531 17.479 11.531 27.935C10.666 19.407-9.684 12.778 0 0" fill="#81bc00"/></g><g transform="translate(395.151 6781.49)" id="g6371"><path id="path6373" d="M0 0l-.187.019C-.255-.079-.208-.097 0 0" fill="#008030"/></g><g transform="translate(404.49 6788.635)" id="g6375"><path id="path6377" d="M0 0c-9.524-2.252-14.318-1.811-15.996-1.12C-13.221-4.163-8.062-8 1.433-5.897c12.744 2.819 31.755 15.559 64.941 16.43v8.217C33.188 17.879 12.297 2.908 0 0" fill="#fff"/></g><g transform="translate(397.568 6729.661)" id="g6379"><path id="path6381" d="M0 0c-4.607-1.013-8.222-1.456-10.974-1.616v-7.342c2.821.003 6.837.472 12.555 1.629 15.597 3.16 35.067 16.991 71.716 17.864v8.217C36.648 17.88 16.834 3.711 0 0" fill="#fff"/></g><g transform="translate(427.652 6722.422)" id="g6383"><path id="path6385" d="M0 0c-4.903 0-9.621.795-14.031 2.26a175.705 175.705 0 0 0-5.88-2.164A48.467 48.467 0 0 1 0-4.154c16.029 0 30.247 7.755 39.107 19.714a141.225 141.225 0 0 1-5.681-.432C25.269 5.853 13.318 0 0 0" fill="#81bc00"/></g><g transform="translate(407.403 6806.55)" id="g6387"><path id="path6389" d="M0 0a44.312 44.312 0 0 0 20.249 4.864A44.33 44.33 0 0 0 40.697-.104c1.971.457 4.004.874 6.097 1.244a48.413 48.413 0 0 1-26.545 7.877A48.497 48.497 0 0 1 .74 4.944a18.975 18.975 0 0 0-.089-1.56A20.034 20.034 0 0 0 0 0" fill="#81bc00"/></g></g></g></g></svg>