<svg xmlns="http://www.w3.org/2000/svg" id="svg11408" viewBox="0 0 9.748 9.748" height="36.843" width="36.843"><defs id="defs11402"><linearGradient x2="1" gradientUnits="userSpaceOnUse" gradientTransform="matrix(19.7997 0 0 -19.7997 408.442 1469.963)" id="linearGradient1735"><stop offset="0" id="stop1729" stop-color="#4dcc4b"/><stop offset="0" id="stop1731" stop-color="#4dcc4b"/><stop offset="1" id="stop1733" stop-color="#389a09"/></linearGradient></defs><g transform="translate(-89.784 -180.172)" id="layer1"><g id="g11382" transform="translate(84.831 -20.128)"><g id="g1713" transform="matrix(.35278 0 0 -.35278 14.7 207.56)"><path d="M0 0a7.055 7.055 0 0 0-7.054-7.054h-13.521A7.056 7.056 0 0 0-27.632 0v13.523a7.058 7.058 0 0 0 7.057 7.055h13.521A7.057 7.057 0 0 0 0 13.523z" id="path1715" fill="#fff"/></g><g id="g1725" transform="matrix(.35278 0 0 -.35278 -137.126 724.176)"><g id="g1727"><path d="M420.348 1473.468c-2.522-2.564-4.589-5.2-6.196-7.914l-.444 1.001c-.892 1.988-1.707 2.983-2.438 2.983-.857 0-1.798-.544-2.828-1.629.61-.209 1.16-.632 1.648-1.271.491-.637 1.024-1.622 1.593-2.955l.399-.931c.419-1.018.69-1.751.815-2.196.315.295.909.746 1.783 1.353l1.058.715c1.313 2.771 3.216 5.755 5.709 8.944 2.493 3.192 4.757 5.55 6.795 7.085l-.502.717c-2.407-1.375-4.87-3.339-7.392-5.902" id="path1737" fill="url(#linearGradient1735)"/></g></g></g></g></svg>