<svg xmlns="http://www.w3.org/2000/svg" id="svg19217" viewBox="0 0 48.815 48.815" height="184.496" width="184.497"><defs id="defs19211"><clipPath id="clipPath7663"><path id="path7661" d="M0 6925.877h1916.794V0H0z"/></clipPath></defs><g transform="translate(-80.769 -131.89)" id="layer1"><g id="g7657" transform="matrix(.35278 0 0 -.35278 -272.706 1986.742)"><g clip-path="url(#clipPath7663)" id="g7659"><g transform="translate(1071.162 5124.831)" id="g7665"><path id="path7667" d="M0 0c-35.253 0-63.83 28.578-63.83 63.83 0 35.252 28.577 63.83 63.83 63.83 35.252 0 63.829-28.578 63.829-63.83C63.829 28.578 35.252 0 0 0m0 133.016c-38.211 0-69.187-30.976-69.187-69.186C-69.187 25.62-38.211-5.356 0-5.356c38.21 0 69.186 30.976 69.186 69.186 0 38.21-30.976 69.186-69.186 69.186" fill="#a6ec3e" fill-rule="evenodd"/></g><g transform="translate(1077.481 5173.83)" id="g7669"><path id="path7671" d="M0 0c3.639 12.047 11.109 20.733 22.081 27.365-7.889-2.41-18.674-9.971-25.682-24.297-3.884 4.099-5.12 9.017-4.813 14.332.652 11.352 8.019 19.186 19.518 21.256 8.932 1.607 17.593.04 26.237-1.913 2.726-.616 5.408-1.43 8.583-2.281-1.757-2.986-3.19-5.81-4.975-8.391C32.965 14.523 22.849 5.458 9.833-.137 6.665-1.499 3.5-1.478 0 0z" fill="none" stroke="#a6ec3e" stroke-width="5" stroke-linecap="round" stroke-miterlimit="10"/></g><g transform="translate(1067.036 5176.972)" id="g7673"><path id="path7675" d="M0 0c-10.114 2.069-19.003.449-27.914-4.163 4.66.959 8.79 2.294 12.983 2.544 4.589.273 9.246-.375 13.85-.849.6-.062 1.498-1.479 1.508-2.278.044-3.587-2.436-7.053-5.914-8.006-12.483-3.419-24.686-2.527-36.527 2.775-.227.102-.394.335-.684.591 4.865 6.865 9.679 13.639 17.103 18.073 8.33 4.975 17.745 3.357 23.249-4.313C-1.491 3.183-.938 1.774 0 0z" fill="none" stroke="#a6ec3e" stroke-width="5" stroke-linecap="round" stroke-miterlimit="10"/></g><g transform="translate(1063.998 5192.596)" id="g7677"><path id="path7679" d="M0 0c-2.89 7.187-7.322 12.436-13.992 15.669 5.762-4.3 9.281-10.063 11.34-17.104-2.503-1.263-5.047-1.173-7.156.405-8.711 6.524-14.105 15.208-16.546 26.182 8.903-.84 17.303-2.194 24.495-7.344 4.926-3.528 6.654-9.899 4.25-14.506C1.827 2.223.958 1.304 0 0z" fill="none" stroke="#a6ec3e" stroke-width="5" stroke-linecap="round" stroke-miterlimit="10"/></g><g transform="translate(1071.924 5171.413)" id="g7681"><path id="path7683" d="M0 0c.912-.37 2.283-.482 2.771-1.197C5.117-4.628 7.22-8.224 9.42-11.754c.452-.725.99-1.396 1.423-2.131.295-.501.769-1.168.631-1.58-.153-.453-.892-.941-1.419-.997a104.62 104.62 0 0 0-7.909-.554c-.582-.017-1.37.462-1.699.955-.184.277.367 1.055.603 1.6.354.821 1.122 1.692 1.018 2.446C1.554-8.27.811-4.556 0 0z" fill="none" stroke="#a6ec3e" stroke-width="5" stroke-linecap="round" stroke-miterlimit="10"/></g></g></g></g></svg>