<svg xmlns="http://www.w3.org/2000/svg" viewBox="0 0 138.37 138.37"><defs><style>.cls-1{fill:#5fbb46;fill-rule:evenodd;}</style></defs><title>new_1</title><g id="Слой_2" data-name="Слой 2"><g id="Слой_1-2" data-name="Слой 1"><path class="cls-1" d="M69.19,0a69.19,69.19,0,1,0,69.19,69.19A69.19,69.19,0,0,0,69.19,0Zm0,133A63.83,63.83,0,1,1,133,69.19,63.83,63.83,0,0,1,69.19,133Z"/><path class="cls-1" d="M75.51,84c3.64-12,11.11-20.73,22.08-27.37-7.89,2.41-18.67,10-25.68,24.3-3.88-4.1-5.12-9-4.81-14.33.65-11.35,8-19.19,19.52-21.26,8.93-1.61,17.59,0,26.24,1.91,2.73.62,5.41,1.43,8.58,2.28-1.76,3-3.19,5.81-5,8.39-8,11.55-18.1,20.61-31.12,26.21A11.9,11.9,0,0,1,75.51,84Z"/><path class="cls-1" d="M65.06,80.88c-10.11-2.07-19-.45-27.91,4.16,4.66-1,8.79-2.29,13-2.54,4.59-.27,9.25.37,13.85.85.6.06,1.5,1.48,1.51,2.28a8.33,8.33,0,0,1-5.91,8A52.79,52.79,0,0,1,23,90.85a3.59,3.59,0,0,1-.68-.59C27.23,83.4,32,76.62,39.47,72.19c8.33-5,17.74-3.36,23.25,4.31A40.6,40.6,0,0,1,65.06,80.88Z"/><path class="cls-1" d="M62,65.25c-2.89-7.19-7.32-12.44-14-15.67,5.76,4.3,9.28,10.06,11.34,17.1a6.52,6.52,0,0,1-7.16-.41C43.5,59.76,38.11,51.07,35.67,40.1c8.9.84,17.3,2.19,24.49,7.34,4.93,3.53,6.65,9.9,4.25,14.51A29.44,29.44,0,0,1,62,65.25Z"/><path class="cls-1" d="M69.95,86.43c.91.37,2.28.48,2.77,1.2,2.35,3.43,4.45,7,6.65,10.56.45.72,1,1.4,1.42,2.13.3.5.77,1.17.63,1.58a2,2,0,0,1-1.42,1c-2.63.28-5.27.48-7.91.55a2.33,2.33,0,0,1-1.7-1c-.18-.28.37-1.05.6-1.6.35-.82,1.12-1.69,1-2.45C71.5,94.7,70.76,91,69.95,86.43Z"/></g></g></svg>