<svg xmlns="http://www.w3.org/2000/svg" id="svg25776" viewBox="0 0 49.831 49.831" height="188.339" width="188.339"><defs id="defs25770"><clipPath id="clipPath7245"><path id="path7243" d="M0 6925.877h1916.794V0H0z"/></clipPath></defs><g transform="translate(-61.329 -165.272)" id="layer1"><g id="g7239" transform="matrix(.35278 0 0 -.35278 -81.237 1272.878)"><g clip-path="url(#clipPath7245)" id="g7241"><g transform="translate(542.877 3069.042)" id="g7247"><path id="path7249" d="M0 0c0 37.626-30.502 68.127-68.127 68.127-37.626 0-68.127-30.501-68.127-68.127 0-37.626 30.501-68.127 68.127-68.127C-30.502-68.127 0-37.626 0 0z" fill="none" stroke="#a6ec3e" stroke-width="5" stroke-linecap="round" stroke-miterlimit="10"/></g><g transform="translate(501.366 3058.774)" id="g7251"><path id="path7253" d="M0 0c1.313-.398 1.933-1.595 1.542-3.064C1.576-1.761 1.104-.728 0 0m-9.1-3.183c.088-1.2.653-3.032 1.822-4.66.671-.934 1.544-1.261 2.641-.885 1.095.376 2.139.371 3.25-.051.469-.178 1.227-.086 1.65.192 1.813 1.19 3.205 5.11 2.668 7.203C2.345.899.816 1.766-1.386.964-2.51.555-3.6.341-4.725.832-7.631 2.1-9.251.178-9.1-3.183" fill="#a6ec3e" fill-rule="evenodd"/></g><g transform="translate(451.83 3059.933)" id="g7255"><path id="path7257" d="M0 0c1.312-.398 1.933-1.595 1.542-3.064C1.576-1.761 1.104-.728 0 0m-9.1-3.183c.088-1.2.652-3.032 1.822-4.66.671-.934 1.544-1.261 2.641-.885 1.094.376 2.139.371 3.25-.051.469-.178 1.226-.086 1.65.192 1.813 1.191 3.205 5.11 2.668 7.203C2.345.899.815 1.766-1.386.964-2.51.555-3.6.341-4.725.832-7.631 2.1-9.251.178-9.1-3.183" fill="#a6ec3e" fill-rule="evenodd"/></g><g transform="translate(445.799 3063.879)" id="g7259"><path id="path7261" d="M0 0c1.722-.161 2.854-1.59 2.483-3.057C.471-2.749-.293-1.833 0 0" fill="#a6ec3e" fill-rule="evenodd"/></g><g transform="translate(463.259 3063.462)" id="g7263"><path id="path7265" d="M0 0l7.482-.353-.486-4.985-.757-.398L0 0m16.876-10.191l1.803 9.145c3.412-.678 6.183 2.909 10.364 1.737L16.876-10.191M-23.488 8.842c.214-4.144 2.959-6.705 6.515-8.344 3.19-1.47 6.551-2.009 10.104-1.435.918.147 2.315-.244 2.904-.909 2.916-3.293 6.003-6.536 8.278-10.257 1.232-2.014 1.438-4.98 1.275-7.461-.402-6.108-1.464-12.17-1.914-18.277-.316-4.27-.062-.888-.062-5.32h14.013c0 5.138.107 2.43-.029 7.408-.138 5.01-.609 10.011-.73 15.021-.03 1.27.364 2.85 1.155 3.791C22.59-11.517 27.29-6.199 32.057-.946c-.201-1.691.569-2.556 2.502-2.852.359 1.424-.699 2.809-2.337 3.035l.168.186c.574.633 1.832.783 2.802.893 7.074.811 12.085 6.569 11.187 13.001-.489 3.502-2.496 6.013-5.354 7.77a11.222 11.222 0 0 1 3.564 8.206c0 5.853-4.464 10.661-10.173 11.211a8.571 8.571 0 0 1-1.941 3.362c.087.546.144 1.101.144 1.671 0 5.834-4.729 10.564-10.564 10.564-1.59 0-3.092-.362-4.444-.991-1.603 1.618-3.438 2.335-5.604 2.173-3.303-.248-5.775-2.286-7.236-5.929a7.12 7.12 0 0 1-1.643.198 7.146 7.146 0 0 1-7.098-6.349c-.938-.977-1.727-2.141-2.392-3.465-6.776-1.119-11.945-7.002-11.945-14.094 0-1.373.199-2.699.56-3.955a10.964 10.964 0 0 1-2.79-7.312c0-.308.021-.61.046-.911-1.911-1.668-3.146-3.765-2.997-6.624" fill="#a6ec3e" fill-rule="evenodd"/></g></g></g></g></svg>