<svg xmlns="http://www.w3.org/2000/svg" id="svg27586" viewBox="0 0 49.832 49.832" height="188.34" width="188.34"><defs id="defs27580"><clipPath id="clipPath6089"><path id="path6087" d="M0 6925.877h1916.794V0H0z"/></clipPath></defs><g transform="translate(-70.911 -144.704)" id="layer1"><g id="g6083" transform="matrix(.35278 0 0 -.35278 -281.194 1248.749)"><g clip-path="url(#clipPath6089)" id="g6085"><g transform="translate(1136.847 3058.947)" id="g6091"><path id="path6093" d="M0 0c0 37.625-30.502 68.127-68.128 68.127-37.625 0-68.127-30.502-68.127-68.127 0-37.626 30.502-68.128 68.127-68.128C-30.502-68.128 0-37.626 0 0z" fill="none" stroke="#a6ec3e" stroke-width="5" stroke-linecap="round" stroke-miterlimit="10"/></g><g transform="translate(1069.582 3107.536)" id="g6095"><path id="path6097" d="M0 0c13.012-8.405 27.17-12.236 43.028-12.88L-4.619-58.843c-2.724 2.856-6.43 6.564-9.918 10.465-1.893 2.115-3.877 3.173-6.823 2.973-4.026-.275-8.084-.069-13.081-.069l30.846-31.971 46.677 48.39c0-10.561.794-20.868-.236-30.988-.921-9.044-6.745-16.241-12.862-22.814-8.175-8.786-17.978-15.437-28.403-21.218-.764-.424-2.152-.508-2.878-.096-14.788 8.414-28.631 17.94-37.437 33.115-3.121 5.379-4.839 11.093-4.75 17.446.183 13.42.055 26.843.055 40.666C-27.808-12.318-13.236-8.664 0 0" fill="#a6ec3e" fill-rule="evenodd"/></g></g></g></g></svg>