<svg xmlns="http://www.w3.org/2000/svg" viewBox="0 0 139.83 139.83"><defs><style>.cls-1,.cls-2{fill:#5fbb46;}.cls-2{fill-rule:evenodd;}</style></defs><title>partner_1</title><g id="Слой_2" data-name="Слой 2"><g id="Слой_1-2" data-name="Слой 1"><path class="cls-1" d="M69.92,0a69.92,69.92,0,1,0,69.92,69.92A69.92,69.92,0,0,0,69.92,0Zm0,134.42a64.5,64.5,0,1,1,64.5-64.5A64.5,64.5,0,0,1,69.92,134.42Z"/><path class="cls-2" d="M85.6,80.61l-2-2.89,5.21-4.37C84.83,68.64,81,64,77.06,59.47c-.59-.66-2.16-.77-3.22-.64-7,.89-14.1,1.8-21.1,3-1.07.18-2.38,1.79-2.7,3a68.46,68.46,0,0,0-1.87,10.13,4.51,4.51,0,0,0,1.29,3.2c1.85,1.87,4.08,3.36,5.94,5.22.58.58.46,1.87.66,2.84-1,0-2.2.46-2.92,0A71,71,0,0,1,47.18,82c-1.18,3-1.57,5,.44,7.2s1.79,5.15-.2,7.55a5.68,5.68,0,0,1-7.17,1.54c-2.76-1.24-4.06-3.81-3.09-6.54A10.57,10.57,0,0,0,37,84.36c-1-2.93-1.33-6.06-2.37-9a7.87,7.87,0,0,0-3-3.5c-3.36-2.26-5-5.22-4.24-8.61.75-3.55,3.3-5.62,7.21-6.34a5.39,5.39,0,0,0,3.09-2Q43,47.48,47.89,39.81a9.34,9.34,0,0,0,1.43-4.39c.14-2.81,1.14-4.9,3.72-6.07s4.78-.06,7,1.51a10.74,10.74,0,0,0,4.75,1.91c4.55.56,9.13.9,13.71,1.05a6.26,6.26,0,0,0,4.06-1.38c3.07-2.79,6.16-3.65,9.4-2.12s4.61,4.32,4.29,8.55a5.19,5.19,0,0,0,.61,3.2c2.22,3.06,4.59,6,7.09,8.87a5.08,5.08,0,0,0,3,1.26,6,6,0,0,1,5.37,4.2c.87,2.55,0,4.61-1.85,6.56a7.67,7.67,0,0,0-1.88,4c-.61,4.76-1.13,9.56-1.26,14.35,0,1.6.91,3.38,1.82,4.82A7.78,7.78,0,0,1,97.54,96.4a7,7,0,0,1-1.81-8.49c1.2-2.59.42-4.14-1.05-6.08C91,76.94,91,76.89,85.6,80.61ZM70.4,45.78c4.3,5.66,8.27,9.78,15.66,8.81,4.87-.64,9.94.32,14.92.57l.55-.84c-2.37-3-4.7-6-7.18-8.93C94,45,92.89,45,92.14,45.05c-3.2.07-6.42.48-9-2.12a2.89,2.89,0,0,0-2.37-.72C77.37,43.24,74.08,44.48,70.4,45.78Zm30.77,15.85c-.79-1-1.33-2.43-2-2.49-5.49-.47-11-.7-16.52-1l-.27,1,9.33,11.73ZM105,65,94.55,74.73c1.46,2.12,3,4.51,4.73,6.79.47.62,1.51,1.37,2.06,1.22.81-.22,1.92-1.14,2-1.87C104,75.61,104.45,70.31,105,65ZM72.25,54.66C71.81,54,71.5,53.5,71.1,53c-1.66-2-2.79-5.59-5.9-4.5C60.94,50,57,52.62,53.05,54.86c-.55.31-.74,1.25-1.1,1.9.77.24,1.58.77,2.3.66C60.24,56.57,66.21,55.61,72.25,54.66ZM77,39.21c-1.64-2.92-12.62-3.34-14.31-.78C67,43.11,67,43.11,72.87,40.81Zm-14,5.6c-1.39-1.51-2.3-2.65-3.36-3.63-1.72-1.59-3.37-.79-4.09.89-1,2.28-1.36,4.81-2.17,7.87ZM49.82,43.36c-2.42,3.73-4.51,6.88-6.51,10.09-.22.36-.08,1.4.12,1.47a2.75,2.75,0,0,0,1.81,0C48.61,53.45,50.59,48.91,49.82,43.36ZM41.46,85.22c2.44-7.56,1.76-9.72-3.26-12.17.47,2,.9,4,1.43,6S40.84,83.16,41.46,85.22Zm2-12.54,1-.24,1.7-8.51c-3.93-.36-3.69,2.7-4.13,4.56C41.78,69.7,42.94,71.26,43.46,72.68Z"/><path class="cls-2" d="M70,114.51c-3.9,0-7.8-.07-11.7,0-2.61.06-3.53-1-3-3.57,1-5.06,1.8-10.15,2.8-15.2.91-4.56,6.58-7.91,12.53-7.53,7,.45,10.36,3.35,11.71,10.16.8,4,1.51,8.1,2.27,12.15.49,2.59,0,4.2-3.21,4-3.78-.19-7.57,0-11.36,0Z"/><path class="cls-2" d="M70,68a9.63,9.63,0,1,1,.08,19.26c-5.67,0-10.24-4.2-10-9.51C60.42,71.57,63.32,68.26,70,68Z"/></g></g></svg>