<svg xmlns="http://www.w3.org/2000/svg" id="svg15938" viewBox="0 0 49.33 49.33" height="186.443" width="186.443"><g transform="translate(-57.372 -133.737)" id="layer1"><g id="g16559" transform="matrix(.35278 0 0 -.35278 82.069 157.732)"><g transform="translate(-432.55 -5187.518)" id="g16512"><g id="g16507"><g id="g16495"><path d="M432.46 5121.117c-35.623 0-64.502 28.88-64.502 64.503 0 35.624 28.879 64.503 64.503 64.503 35.624 0 64.503-28.879 64.503-64.503 0-35.624-28.88-64.503-64.503-64.503m0 134.42c-38.613 0-69.916-31.304-69.916-69.917s31.303-69.916 69.916-69.916 69.916 31.303 69.916 69.916-31.303 69.916-69.916 69.916" id="path7489" fill="#a6ec3e"/></g></g></g><g transform="translate(-432.55 -5187.518)" id="g16499"><g transform="translate(406.002 5182.86)" id="g7491"><path id="path7493" d="M0 0l1.038.243 1.699 8.514C-1.194 9.12-.951 6.062-1.39 4.201-1.677 2.977-.514 1.412 0 0m-2-12.542C.442-4.98-.24-2.826-5.256-.374c.476-2.007.9-4.009 1.429-5.982.556-2.075 1.214-4.124 1.827-6.186m8.364 41.856C3.942 25.586 1.856 22.43-.143 19.22c-.22-.355-.075-1.402.122-1.468.545-.182 1.28-.188 1.811.039 3.367 1.435 5.345 5.98 4.574 11.523m13.125-1.439c-1.388 1.51-2.303 2.646-3.362 3.625-1.724 1.594-3.373.79-4.092-.894-.973-2.279-1.361-4.81-2.167-7.867l9.621 5.136m14.02 5.596c-1.641 2.918-12.616 3.343-14.316.781 4.375-4.69 4.375-4.69 10.218-2.382 1.272.503 2.547.995 4.098 1.601m-4.715-15.459c-.437.626-.752 1.165-1.149 1.634-1.664 1.96-2.791 5.589-5.898 4.5-4.268-1.498-8.16-4.093-12.15-6.329-.55-.308-.743-1.252-1.102-1.901.769-.236 1.578-.767 2.298-.664 5.99.851 11.964 1.818 18.001 2.76M61.496 7.684L51.088-2.052c1.463-2.123 3.023-4.514 4.734-6.792.465-.619 1.513-1.373 2.062-1.222.807.222 1.925 1.135 2.015 1.866.659 5.271 1.09 10.57 1.597 15.884m-3.781 3.362c-.792 1.042-1.326 2.434-1.976 2.491-5.493.473-11.008.702-16.515 1.005l-.274-.983 9.328-11.732 9.437 9.219M26.943 26.897c4.302-5.664 8.268-9.784 15.656-8.814 4.866.638 9.942-.324 14.924-.57l.549.844c-2.374 2.992-4.698 6.026-7.176 8.931-.37.433-1.461.356-2.215.338-3.199-.073-6.42-.478-9.038 2.123-.532.527-1.701.921-2.372.716-3.36-1.026-6.651-2.271-10.328-3.568m15.2-34.831l-2.048 2.892 5.207 4.369C41.37 4.04 37.588 8.71 33.604 13.203c-.586.662-2.162.774-3.217.641-7.05-.885-14.101-1.795-21.1-2.999-1.071-.185-2.381-1.792-2.705-2.98-.899-3.304-1.48-6.719-1.874-10.125-.117-1.022.527-2.429 1.29-3.196 1.855-1.865 4.084-3.357 5.94-5.221.583-.584.458-1.872.657-2.838-.99-.041-2.199-.464-2.925-.048-1.998 1.145-3.793 2.642-5.942 4.199-1.183-3.007-1.572-4.992.443-7.204 2.119-2.327 1.787-5.146-.2-7.547-1.928-2.33-4.533-2.725-7.172-1.545-2.765 1.236-4.064 3.813-3.09 6.54.956 2.679.673 4.905-.17 7.435-.974 2.925-1.334 6.06-2.37 8.956-.488 1.363-1.744 2.667-2.986 3.5-3.357 2.257-4.961 5.217-4.243 8.613.751 3.553 3.298 5.623 7.208 6.336 1.132.206 2.415 1.09 3.09 2.044A398.126 398.126 0 0 1 4.437 32.87c.812 1.264 1.358 2.899 1.43 4.392.136 2.814 1.145 4.902 3.721 6.07 2.666 1.21 4.783.061 6.968-1.51 1.354-.974 3.099-1.711 4.748-1.913 4.549-.557 9.134-.905 13.715-1.052 1.357-.043 3.073.491 4.056 1.385 3.07 2.791 6.158 3.654 9.397 2.116 3.295-1.563 4.609-4.323 4.286-8.545-.08-1.061.025-2.397.607-3.2a120.832 120.832 0 0 1 7.09-8.867c.65-.739 1.939-1.126 2.988-1.264 2.68-.352 4.514-1.698 5.37-4.201.871-2.55-.041-4.606-1.852-6.558-.962-1.036-1.694-2.587-1.875-3.99-.615-4.762-1.126-9.556-1.265-14.35-.047-1.597.912-3.379 1.823-4.817 2.146-3.392 1.781-7.765-1.128-10.352-2.822-2.509-7.616-2.528-10.436.06-2.586 2.372-3.181 5.524-1.807 8.492 1.197 2.585.421 4.143-1.051 6.081-3.718 4.89-3.65 4.942-9.079 1.219" fill="#a6ec3e" fill-rule="evenodd"/></g></g><g transform="translate(-432.55 -5187.518)" id="g16503"><g transform="translate(432.531 5141.023)" id="g7495"><path id="path7497" d="M0 0c-3.9 0-7.804.066-11.702-.024-2.606-.059-3.527 1.029-3.042 3.566.968 5.061 1.798 10.15 2.804 15.204.907 4.561 6.585 7.91 12.524 7.528 6.982-.448 10.362-3.353 11.712-10.159.801-4.04 1.509-8.099 2.269-12.148.489-2.592-.005-4.201-3.209-4.044C7.579.109 3.786-.033 0-.033z" fill="#a6ec3e" fill-rule="evenodd"/></g></g><path d="M0 0c5.574-.024 9.685-4.148 9.724-9.755.037-5.278-4.238-9.49-9.643-9.505-5.667-.016-10.24 4.197-9.975 9.51C-9.583-3.557-6.684-.247 0 0" id="path7501" fill="#a6ec3e" fill-rule="evenodd"/></g></g></svg>