<svg xmlns="http://www.w3.org/2000/svg" id="svg29418" viewBox="0 0 8.584 9.509" height="35.941" width="32.444"><g transform="translate(-91.068 -196.185)" id="layer1"><g transform="matrix(.35278 0 0 -.35278 97.086 203.01)" id="g7421"><path id="path7423" d="M0 0c-3.719-3.756-6.528-5.968-10.007-7.169-2.984-1.03-5.09-.254-6.711 2.403-.12.198-.237.416-.277.639-.438 2.498 1.44 3.546 3.037 4.717 1.347.988 2.448.891 3.69-.145C-8.641-.912-8.039-1.011-6.389.356-3.64 2.635-1.28 5.283.393 8.47c.832 1.584.695 2.048-.668 3.223-1.409 1.214-1.682 2.334-.829 3.964a16.144 16.144 0 0 0 1.681 2.571c1.03 1.293 2.355 1.451 3.726.555 2.859-1.868 3.449-3.229 2.635-6.61C5.663 6.871 2.564 2.65 0 0" fill="#fff" fill-rule="evenodd"/></g></g></svg>