<svg xmlns="http://www.w3.org/2000/svg" viewBox="0 0 43.65 48.36"><g id="Слой_2" data-name="Слой 2"><path d="M30.61 34.71c-6.67 6.74-11.71 10.71-18 12.86-5.35 1.85-9.13.45-12-4.31a3.47 3.47 0 0 1-.5-1.15c-.79-4.48 2.58-6.36 5.45-8.46 2.42-1.77 4.39-1.6 6.62.26 2.92 2.44 4 2.61 7 .16a48 48 0 0 0 12.13-14.55c1.49-2.84 1.25-3.67-1.2-5.78s-3-4.19-1.49-7.11a29.06 29.06 0 0 1 3-4.61c1.85-2.32 4.22-2.6 6.68-1 5.13 3.35 6.19 5.79 4.73 11.86-2.26 9.5-7.82 17.12-12.42 21.83z" fill="#34b24c" fill-rule="evenodd" id="Слой_2-2" data-name="Слой 2"/></g></svg>