<svg xmlns="http://www.w3.org/2000/svg" id="svg15711" viewBox="0 0 8.467 11.606" height="43.864" width="32"><defs id="defs15705"><clipPath id="clipPath7885"><path d="M0 6925.877h1916.794V0H0z" id="path7883"/></clipPath></defs><g transform="translate(-95.567 -152.599)" id="layer1"><g transform="matrix(.35278 0 0 -.35278 29.179 454.118)" id="g7879"><g clip-path="url(#clipPath7885)" id="g7881"><g transform="translate(200.15 847.701)" id="g7887"><path id="path7889" d="M0 0c2.52.016 4.819-2.268 4.831-4.797.012-2.529-2.254-4.818-4.78-4.832-2.547-.014-4.822 2.233-4.837 4.778C-4.803-2.321-2.527-.018 0 0m6.258 5.379c-3.621 2.33-9.269 2.093-12.954-.354-5.669-3.761-7.242-11.98-2.336-17.99.346-.425 9.191-12.933 9.191-12.933.664 1.336 6.444 9.796 6.444 9.796-.049.006 4.857 6.346 5.303 9.339.698 4.683-1.426 9.426-5.648 12.142" fill="#fff" fill-rule="evenodd"/></g></g></g></g></svg>