<svg xmlns="http://www.w3.org/2000/svg" id="svg26999" viewBox="0 0 49.831 49.832" height="188.34" width="188.339"><defs id="defs26993"><clipPath id="clipPath6063"><path id="path6061" d="M0 6925.877h1916.794V0H0z"/></clipPath></defs><g transform="translate(-81.195 -147.042)" id="layer1"><g id="g6057" transform="matrix(.35278 0 0 -.35278 -61.37 1119.147)"><g clip-path="url(#clipPath6063)" id="g6059"><g transform="translate(542.877 2684.947)" id="g6065"><path id="path6067" d="M0 0c0 37.625-30.502 68.127-68.127 68.127-37.626 0-68.127-30.502-68.127-68.127 0-37.626 30.501-68.128 68.127-68.128C-30.502-68.128 0-37.626 0 0z" fill="none" stroke="#a6ec3e" stroke-width="5" stroke-linecap="round" stroke-miterlimit="10"/></g><g transform="translate(472.423 2657.064)" id="g6069"><path id="path6071" d="M0 0l.073.393L0 0v-.001M.696 35.185c.043-.2.065-.41.087-.619-.022.209-.044.419-.087.619m-.227.774c.072-.188.121-.386.171-.583-.05.197-.099.395-.171.583m-1.374 2.067c.119-.118.217-.243.323-.365-.106.122-.204.247-.323.365m-.698.62c.115-.09.21-.186.316-.28-.106.094-.201.19-.316.28m-.822.593c.099-.064.181-.133.274-.197-.093.064-.175.133-.274.197m-.948.571c.06-.034.109-.069.168-.101-.059.032-.108.067-.168.101m3.977-7.853c.041.195.087.395.118.583-.031-.188-.077-.388-.118-.583m-.232-.942c.049.173.106.353.147.522-.041-.169-.098-.349-.147-.522m-.297-.953c.045.131.099.271.14.4-.041-.129-.095-.269-.14-.4m-.429-1.156c.054.135.117.278.167.409-.05-.131-.113-.274-.167-.409m-6.029-5.098c-.087-.045-.17-.099-.257-.141.087.042.17.096.257.141m.817.466c-.056-.035-.111-.076-.166-.111.055.035.11.076.166.111m.738.496l-.023-.017.023.017m5.587 8.121c.022.198.052.399.06.589-.008-.19-.038-.391-.06-.589m31.244-6.186l6.726-4.118c-3.339.385-4.772.552-8.072.932l6.7-4.875-.451-2.095H23.363l.013 2.005 7.567-.385c-3.709 2.108-5.727 3.255-8.532 4.851l6.796 3.895zm-39.857 34.34c6.258 6 11.254 6.197 18.904.603-3.23.509-5.29.835-7.35 1.162-.236-.495-.471-.987-.709-1.481 2.528-1.607 5.054-3.216 7.726-4.916-7.13-6.819-11.4-5.065-19.335-.323l8.887-1.327c.228.574.459 1.149.688 1.723l-8.811 4.559m-21.991-25.153c5.582 6.317 11.394 6.584 17.906.975-2.513.554-4.54.998-6.57 1.444l-.91-1.387 8.292-5.814c-7.034-4.673-12.689-5.034-19.53-.014 3.614-.358 6.083-.603 8.552-.85.136.553.276 1.104.413 1.655l-8.153 3.991m55.796-4.92c0 7.946-.307 16.041.096 24.101.333 6.677-2.951 10.459-8.552 12.794-8.664 3.614-17.588 3.84-26.575 1.376-9.486-2.602-12.356-6.437-12.565-16.31-.047-2.269-.228-4.536-.343-6.725-3.393-.711-6.363-1.177-9.244-1.966-9.304-2.545-12.011-6.131-12.052-15.768-.029-7.189-.445-14.42.201-21.551.276-3.049 2.096-6.786 4.449-8.674C-28.966-9.502-9.562-8.383-.027-.146a.738.738 0 0 1-.008-.046l.233.224.007.006H.204L.09.018l4.662 7.763h7.143c1.698-15.155 6.809-19.761 20.391-18.714 1.844.143 3.682.475 5.496.855 8.499 1.78 11.094 5.027 11.161 13.871.185 23.358.183 23.358-22.992 27.179" fill="#a6ec3e"/></g></g></g></g></svg>