<svg xmlns="http://www.w3.org/2000/svg" id="svg26391" viewBox="0 0 49.831 49.832" height="188.34" width="188.339"><g transform="translate(-76.754 -186.307)" id="layer1"><g id="g26948" transform="matrix(.35278 0 0 -.35278 -65.811 1225.793)"><g id="g6023" transform="translate(542.877 2875.947)"><path d="M0 0c0 37.625-30.502 68.127-68.127 68.127-37.626 0-68.127-30.502-68.127-68.127 0-37.626 30.501-68.128 68.127-68.128C-30.502-68.128 0-37.626 0 0z" id="path6025" fill="none" stroke="#a6ec3e" stroke-width="5" stroke-linecap="round" stroke-miterlimit="10"/></g><g id="g6027" transform="translate(500.811 2858.692)"><path d="M0 0c2.94-.328 2.962-.309 3.273 2.983C.611 3.241.611 3.241 0 0m-5.869-13.923c1.258.355 2.667.335 2.979.909C-1.213-9.927.19-6.691 1.688-3.508l-.692.71c-.854-.426-2.144-.632-2.49-1.315-1.533-3.028-2.795-6.193-4.375-9.81M4.334 6.555c1.326 5.102 1.332 9.876-.316 14.644-.626 1.815-1.573 2.647-3.639 1.826C2.771 17.786 2.8 12.353 1.596 6.682l2.738-.127m-31.286 26.381c-.009 6.593-.797 13.449-5.274 19.368-.433.573-.89 1.131-1.376 1.661-1.153 1.261-1.376 2.587-.015 3.764 1.41 1.22 2.534.259 3.488-.792 3.645-4.014 5.779-8.77 6.785-14.061.237-1.243.417-2.499.672-4.044 1.813 2.008 3.644 3.486 3.844 6.424.261 3.817 2.654 6.57 5.883 8.561 5.302 3.271 11.216 3.65 17.537 3.883-4.4-3.934-8.359-7.772-12.654-11.187-2.057-1.636-4.641-2.842-7.179-3.594-4.784-1.418-7.548-5.062-7.113-9.776 3.83.378 7.651 1.041 11.479 1.084C.97 34.358 9.118 26.716 9.129 14.824 9.133 9.652 7.898 4.368 6.51-.666 4.461-8.092 1.08-14.985-3.724-21.109c-4.376-5.578-9.814-8.431-17.112-7.352-2.566.38-5.284.357-7.853-.019-7.43-1.088-13.217 1.714-17.704 7.32-8.041 10.048-12.074 21.715-12.82 34.467-.401 6.852 2.287 12.688 7.51 17.151 3.216 2.748 7.238 3.865 11.381 3.747 4.398-.125 8.782-.809 13.37-1.269" id="path6029" fill="#a6ec3e" fill-rule="evenodd"/></g></g></g></svg>