<svg xmlns="http://www.w3.org/2000/svg" id="svg24745" viewBox="0 0 47.39 47.39" height="179.111" width="179.111"><defs id="defs24739"><clipPath id="clipPath6759"><path id="path6757" d="M1323.47 3426.3h25.3v-47.25h-25.3z"/></clipPath><clipPath id="clipPath6775"><path id="path6773" d="M1298.23 3426.3h25.3v-47.25h-25.3z"/></clipPath></defs><g transform="translate(-81.481 -133.772)" id="layer1"><g id="g24502" transform="matrix(.35278 0 0 -.35278 -355.186 1361.134)"><g id="g5963" transform="translate(1240.298 3411.973)"><path d="M0 0c0 35.714 28.952 64.666 64.667 64.666 35.714 0 64.666-28.952 64.666-64.666 0-35.715-28.952-64.667-64.666-64.667C28.952-64.667 0-35.715 0 0z" id="path5965" fill="none" stroke="#5cb930" stroke-width="5" stroke-linecap="round" stroke-miterlimit="10"/></g><g id="g6573" transform="translate(1348.774 3379.165)"><path d="M0 0c-8.439-1.13-16.871-2.271-25.309-3.401V47.24L0 45.243z" id="path6575" fill="#5cb930"/></g><g id="g6577" transform="translate(1329.543 3418.443)"><path d="M0 0c-1.341.022-2.01.039-3.347.062v4.107C-2.01 4.113-1.341 4.096 0 4.034z" id="path6579" fill="#f2f2f2"/></g><g id="g6581" transform="translate(1333.815 3418.36)"><path d="M0 0c-1.339.028-2.005.039-3.344.067v4.018C-2.005 4.029-1.339 4.001 0 3.95z" id="path6583" fill="#f2f2f2"/></g><g id="g6585" transform="translate(1338.09 3418.275)"><path d="M0 0c-1.328.04-2.004.051-3.343.073v3.922A579.76 579.76 0 0 0 0 3.861z" id="path6587" fill="#f2f2f2"/></g><g id="g6589" transform="translate(1342.37 3418.209)"><path d="M0 0c-1.337.022-2.01.033-3.347.062v3.832C-2.01 3.838-1.337 3.811 0 3.76z" id="path6591" fill="#f2f2f2"/></g><g id="g6593" transform="translate(1346.645 3418.13)"><path d="M0 0c-1.339.022-2.008.039-3.345.057V3.8A631.63 631.63 0 0 0 0 3.665z" id="path6595" fill="#f2f2f2"/></g><g id="g6597" transform="translate(1329.543 3412.955)"><path d="M0 0c-1.341-.018-2.01-.028-3.349-.04l.002 4.107C-2.01 4.056-1.341 4.051 0 4.034z" id="path6599" fill="#f2f2f2"/></g><g id="g6601" transform="translate(1333.815 3412.994)"><path d="M0 0c-1.339-.012-2.006-.012-3.344-.034v4.017c1.339-.01 2.005-.016 3.344-.039z" id="path6603" fill="#f2f2f2"/></g><g id="g6605" transform="translate(1338.09 3413.044)"><path d="M0 0c-1.328-.017-2.004-.017-3.343-.039v3.928c1.339-.017 2.015-.022 3.343-.034z" id="path6607" fill="#f2f2f2"/></g><g id="g6609" transform="translate(1342.37 3413.089)"><path d="M0 0c-1.337-.011-2.01-.022-3.347-.033v3.832C-2.01 3.788-1.337 3.776 0 3.76z" id="path6611" fill="#f2f2f2"/></g><g id="g6613" transform="translate(1346.645 3413.14)"><path d="M0 0a338.328 338.328 0 0 1-3.345-.045v3.743c1.337-.006 2.006-.016 3.345-.034z" id="path6615" fill="#f2f2f2"/></g><g id="g6617" transform="translate(1329.543 3407.466)"><path d="M0 0l-3.347-.14v4.113L0 4.028z" id="path6619" fill="#f2f2f2"/></g><g id="g6621" transform="translate(1333.815 3407.634)"><path d="M0 0a311.451 311.451 0 0 1-3.344-.141v4.024c1.339.022 2.005.034 3.344.061z" id="path6623" fill="#f2f2f2"/></g><g id="g6625" transform="translate(1338.09 3407.807)"><path d="M0 0c-1.328-.056-2.004-.078-3.343-.14v3.928c1.339.028 2.015.034 3.343.062z" id="path6627" fill="#f2f2f2"/></g><g id="g6629" transform="translate(1342.37 3407.98)"><path d="M0 0c-1.337-.056-2.01-.078-3.347-.134v3.832c1.337.023 2.01.034 3.347.062z" id="path6631" fill="#f2f2f2"/></g><g id="g6633" transform="translate(1346.645 3408.148)"><path d="M0 0l-3.345-.129v3.733c1.337.027 2.006.044 3.345.066z" id="path6635" fill="#f2f2f2"/></g><g id="g6637" transform="translate(1329.543 3401.972)"><path d="M0 0a486.7 486.7 0 0 0-3.347-.229v4.1c1.337.067 2.006.107 3.347.163z" id="path6639" fill="#f2f2f2"/></g><g id="g6641" transform="translate(1333.815 3402.268)"><path d="M0 0c-1.339-.089-2.005-.14-3.344-.234v4.022c1.339.062 2.005.096 3.344.157z" id="path6643" fill="#f2f2f2"/></g><g id="g6645" transform="translate(1338.09 3402.564)"><path d="M0 0c-1.328-.09-2.004-.146-3.343-.235v3.917c1.339.078 2.015.106 3.343.172z" id="path6647" fill="#f2f2f2"/></g><g id="g6649" transform="translate(1342.37 3402.866)"><path d="M0 0c-1.337-.095-2.01-.146-3.347-.234v3.832c1.337.067 2.01.09 3.347.157z" id="path6651" fill="#f2f2f2"/></g><g id="g6653" transform="translate(1346.645 3403.163)"><path d="M0 0a316.822 316.822 0 0 0-3.345-.235v3.743c1.337.067 2.006.09 3.345.157z" id="path6655" fill="#f2f2f2"/></g><g id="g6657" transform="translate(1323.517 3375.764)"><path d="M0 0c-8.43 1.13-16.865 2.271-25.299 3.401v45.244L0 50.642z" id="path6659" fill="#5cb930"/></g><g id="g6661" transform="translate(1304.292 3418.203)"><path d="M0 0c-1.34-.028-2.007-.034-3.349-.062V3.62c1.342.056 2.009.072 3.349.129z" id="path6663" fill="#f2f2f2"/></g><g id="g6665" transform="translate(1308.564 3418.275)"><path d="M0 0c-1.338-.017-2.003-.033-3.344-.056v3.772c1.341.05 2.006.078 3.344.134z" id="path6667" fill="#f2f2f2"/></g><g id="g6669" transform="translate(1312.842 3418.354)"><path d="M0 0c-1.34-.018-2.007-.028-3.347-.051V3.81c1.34.05 2.007.073 3.347.134z" id="path6671" fill="#f2f2f2"/></g><g id="g6673" transform="translate(1317.118 3418.439)"><path d="M0 0c-1.335-.028-2.009-.04-3.345-.062v3.956c1.336.056 2.01.079 3.345.134z" id="path6675" fill="#f2f2f2"/></g><g id="g6677" transform="translate(1321.393 3418.51)"><path d="M0 0c-1.341-.017-2.007-.033-3.347-.062v4.051L0 4.13z" id="path6679" fill="#f2f2f2"/></g><g id="g6681" transform="translate(1304.292 3413.089)"><path d="M0 0c-1.34.028-2.012.028-3.35.045l.001 3.682c1.342.011 2.009.016 3.349.033z" id="path6683" fill="#f2f2f2"/></g><g id="g6685" transform="translate(1308.564 3413.044)"><path d="M0 0c-1.338.022-2.006.022-3.344.039v3.777c1.341.017 2.006.023 3.344.039z" id="path6687" fill="#f2f2f2"/></g><g id="g6689" transform="translate(1312.842 3413.005)"><path d="M0 0c-1.34.006-2.007.022-3.347.028V3.9c1.34.011 2.007.017 3.347.034z" id="path6691" fill="#f2f2f2"/></g><g id="g6693" transform="translate(1317.118 3412.955)"><path d="M0 0c-1.335.017-2.009.027-3.345.039V4c1.336.012 2.01.017 3.345.034z" id="path6695" fill="#f2f2f2"/></g><g id="g6697" transform="translate(1321.393 3412.91)"><path d="M0 0c-1.341.011-2.007.017-3.347.039v4.045c1.34.017 2.006.017 3.347.034z" id="path6699" fill="#f2f2f2"/></g><g id="g6701" transform="translate(1304.292 3407.986)"><path d="M0 0c-1.34.062-2.007.084-3.349.14v3.681C-2.007 3.793-1.34 3.782 0 3.754z" id="path6703" fill="#f2f2f2"/></g><g id="g6705" transform="translate(1308.564 3407.818)"><path d="M0 0c-1.338.056-2.003.084-3.344.134v3.771c1.341-.022 2.006-.033 3.344-.061z" id="path6707" fill="#f2f2f2"/></g><g id="g6709" transform="translate(1312.842 3407.644)"><path d="M0 0c-1.34.057-2.007.084-3.347.135v3.866c1.34-.017 2.007-.039 3.347-.056z" id="path6711" fill="#f2f2f2"/></g><g id="g6713" transform="translate(1317.118 3407.477)"><path d="M0 0c-1.335.057-2.009.079-3.345.129 0 1.584-.004 2.378-.004 3.962 1.34-.023 2.014-.04 3.349-.062z" id="path6715" fill="#f2f2f2"/></g><g id="g6717" transform="translate(1321.393 3407.31)"><path d="M0 0c-1.341.05-2.007.078-3.347.128V4.18c1.34-.029 2.006-.034 3.347-.068z" id="path6719" fill="#f2f2f2"/></g><g id="g6721" transform="translate(1304.292 3402.884)"><path d="M0 0c-1.34.095-2.007.15-3.349.24v3.67C-2.007 3.854-1.34 3.821 0 3.748z" id="path6723" fill="#f2f2f2"/></g><g id="g6725" transform="translate(1308.564 3402.581)"><path d="M0 0c-1.338.106-2.003.146-3.344.246v3.766C-2.003 3.95-1.338 3.917 0 3.85z" id="path6727" fill="#f2f2f2"/></g><g id="g6729" transform="translate(1312.842 3402.29)"><path d="M0 0l-3.347.235v3.867c1.34-.068 2.007-.095 3.347-.163z" id="path6731" fill="#f2f2f2"/></g><g id="g6733" transform="translate(1317.118 3401.993)"><path d="M0 0c-1.335.096-2.009.141-3.345.235v3.956c1.336-.061 2.01-.095 3.345-.162z" id="path6735" fill="#f2f2f2"/></g><g id="g6737" transform="translate(1321.396 3401.697)"><path d="M0 0c-1.344.09-2.01.14-3.35.229v4.045c1.34-.055 2.006-.089 3.347-.156C-.003 2.467 0 1.65 0 0" id="path6739" fill="#f2f2f2"/></g><g id="g6741" transform="translate(1315.6 3378.433)"><path d="M0 0c-3.66.722-5.491 1.079-9.156 1.807v19.258c3.665-.324 5.496-.492 9.156-.811z" id="path6743" fill="#f2f2f2"/></g><g id="g6745" transform="translate(1305.523 3380.419)"><path d="M0 0c-2.228.441-3.338.66-5.558 1.102v11.247c2.22-.286 3.33-.437 5.558-.728z" id="path6747" fill="#f2f2f2"/></g><g id="g6749" transform="translate(1322.386 3377.095)"><path d="M0 0c-2.222.437-3.328.654-5.551 1.097v12.371c2.218-.296 3.329-.431 5.551-.728z" id="path6751" fill="#f2f2f2"/></g><g id="g6753"><g id="g6767"><g clip-path="url(#clipPath6759)" id="g6765" opacity=".1"><g transform="translate(1348.774 3379.064)" id="g6763"><path d="M0 0v45.243l-25.309 1.991v-.402L-.081-.011c.027 0 .054.005.081.011" id="path6761" fill="#221e20"/></g></g></g></g><g id="g6769"><g id="g6783"><g clip-path="url(#clipPath6775)" id="g6781" opacity=".1"><g transform="translate(1298.226 3379.064)" id="g6779"><path d="M0 0v45.243l25.304 1.991v-.402L.079-.011A.358.358 0 0 0 0 0" id="path6777" fill="#221e20"/></g></g></g></g><g id="g6785" transform="translate(1323.13 3424.873)"><path d="M0 0c-3.397-.442-6.795-.879-10.195-1.321v20.143c3.4-.436 6.798-.873 10.195-1.315z" id="path6787" fill="#5cb930"/></g><g id="g6789" transform="translate(1312.958 3423.552)"><path d="M0 0c-3.399.442-6.799.879-10.191 1.321v17.507c3.392.443 6.792.879 10.191 1.316z" id="path6791" fill="#5cb930"/></g><g id="g6793" transform="translate(1323.213 3373.704)"><path d="M0 0l-31.065-4.599v69.14C-20.71 63.014-10.353 62.571 0 61.044z" id="path6795" fill="#5cb930"/></g><g id="g6797" transform="translate(1299.61 3428.241)"><path d="M0 0c-1.647.083-2.468.123-4.108.195v5.047c1.64-.117 2.461-.168 4.108-.285z" id="path6799" fill="#f2f2f2"/></g><g id="g6801" transform="translate(1304.85 3427.995)"><path d="M0 0c-1.643.078-2.455.111-4.104.189v4.936c1.649-.118 2.461-.174 4.104-.286z" id="path6803" fill="#f2f2f2"/></g><g id="g6805" transform="translate(1310.101 3427.743)"><path d="M0 0c-1.637.078-2.462.111-4.104.189v4.83c1.642-.123 2.467-.174 4.104-.291z" id="path6807" fill="#f2f2f2"/></g><g id="g6809" transform="translate(1315.355 3427.491)"><path d="M0 0c-1.641.078-2.468.112-4.109.195v4.706c1.641-.112 2.468-.173 4.109-.285z" id="path6811" fill="#f2f2f2"/></g><g id="g6813" transform="translate(1320.6 3427.245)"><path d="M0 0c-1.643.072-2.461.111-4.106.185v4.598C-2.461 4.666-1.643 4.61 0 4.498z" id="path6815" fill="#f2f2f2"/></g><g id="g6817" transform="translate(1299.61 3421.504)"><path d="M0 0c-1.647.034-2.468.045-4.108.073v5.041c1.64-.067 2.461-.094 4.108-.156z" id="path6819" fill="#f2f2f2"/></g><g id="g6821" transform="translate(1304.85 3421.403)"><path d="M0 0c-1.643.028-2.455.045-4.104.084v4.924c1.649-.072 2.461-.095 4.104-.162z" id="path6823" fill="#f2f2f2"/></g><g id="g6825" transform="translate(1310.101 3421.309)"><path d="M0 0c-1.637.033-2.462.044-4.104.072v4.824c1.642-.068 2.467-.101 4.104-.163z" id="path6827" fill="#f2f2f2"/></g><g id="g6829" transform="translate(1315.355 3421.213)"><path d="M0 0c-1.641.028-2.468.045-4.109.073v4.705c1.641-.067 2.468-.1 4.109-.162z" id="path6831" fill="#f2f2f2"/></g><g id="g6833" transform="translate(1320.6 3421.112)"><path d="M0 0c-1.643.034-2.461.045-4.106.073v4.594c1.645-.062 2.463-.096 4.106-.163z" id="path6835" fill="#f2f2f2"/></g><g id="g6837" transform="translate(1299.61 3414.768)"><path d="M0 0c-1.647-.028-2.468-.033-4.116-.051 0 2.021.008 3.028.008 5.047 1.64-.022 2.461-.033 4.108-.05z" id="path6839" fill="#f2f2f2"/></g><g id="g6841" transform="translate(1304.85 3414.818)"><path d="M0 0c-1.643-.018-2.461-.022-4.104-.045V4.89c1.649-.023 2.461-.028 4.104-.045z" id="path6843" fill="#f2f2f2"/></g><g id="g6845" transform="translate(1310.101 3414.874)"><path d="M0 0c-1.637-.012-2.462-.017-4.104-.045v4.823C-2.462 4.756-1.637 4.75 0 4.733z" id="path6847" fill="#f2f2f2"/></g><g id="g6849" transform="translate(1315.355 3414.936)"><path d="M0 0c-1.641-.022-2.468-.028-4.109-.051v4.706C-2.468 4.644-1.641 4.633 0 4.61z" id="path6851" fill="#f2f2f2"/></g><g id="g6853" transform="translate(1320.6 3414.991)"><path d="M0 0c-1.643-.017-2.461-.027-4.106-.045v4.589c1.645-.012 2.463-.023 4.106-.04z" id="path6855" fill="#f2f2f2"/></g><g id="g6857" transform="translate(1299.61 3408.025)"><path d="M0 0c-1.647-.067-2.468-.106-4.108-.168v5.047c1.64.028 2.461.045 4.108.073z" id="path6859" fill="#f2f2f2"/></g><g id="g6861" transform="translate(1304.85 3408.232)"><path d="M0 0c-1.643-.072-2.455-.101-4.104-.174v4.936L0 4.846z" id="path6863" fill="#f2f2f2"/></g><g id="g6865" transform="translate(1310.101 3408.445)"><path d="M0 0c-1.637-.073-2.462-.102-4.104-.168v4.817c1.642.034 2.467.045 4.104.079z" id="path6867" fill="#f2f2f2"/></g><g id="g6869" transform="translate(1315.355 3408.657)"><path d="M0 0c-1.641-.066-2.468-.105-4.109-.168v4.706c1.641.033 2.468.051 4.109.073z" id="path6871" fill="#f2f2f2"/></g><g id="g6873" transform="translate(1320.6 3408.864)"><path d="M0 0c-1.643-.066-2.461-.095-4.106-.156v4.582c1.645.04 2.463.051 4.106.084z" id="path6875" fill="#f2f2f2"/></g><g id="g6877" transform="translate(1299.61 3401.29)"><path d="M0 0c-1.647-.118-2.468-.185-4.108-.291v5.035c1.64.084 2.461.129 4.108.202z" id="path6879" fill="#f2f2f2"/></g><g id="g6881" transform="translate(1304.85 3401.646)"><path d="M0 0c-1.643-.117-2.455-.173-4.104-.291V4.65c1.649.073 2.461.112 4.104.19z" id="path6883" fill="#f2f2f2"/></g><g id="g6885" transform="translate(1310.101 3402.01)"><path d="M0 0c-1.637-.112-2.462-.174-4.104-.285v4.817c1.642.078 2.467.117 4.104.201z" id="path6887" fill="#f2f2f2"/></g><g id="g6889" transform="translate(1315.355 3402.38)"><path d="M0 0c-1.641-.117-2.468-.168-4.109-.291v4.705c1.641.084 2.468.124 4.109.202z" id="path6891" fill="#f2f2f2"/></g><g id="g6893" transform="translate(1320.6 3402.743)"><path d="M0 0c-1.643-.117-2.461-.179-4.106-.291v4.594c1.645.078 2.463.118 4.106.201z" id="path6895" fill="#f2f2f2"/></g><g id="g6897" transform="translate(1292.215 3369.106)"><path d="M0 0a179395.13 179395.13 0 0 0-31.061 4.599v61.044C-20.706 67.17-10.354 67.612 0 69.14z" id="path6899" fill="#5cb930"/></g><g id="g6901" transform="translate(1268.608 3427.469)"><path d="M0 0c-1.644-.073-2.463-.117-4.104-.196v4.521c1.641.112 2.46.173 4.104.285z" id="path6903" fill="#f2f2f2"/></g><g id="g6905" transform="translate(1273.854 3427.72)"><path d="M0 0c-1.643-.073-2.458-.117-4.104-.201v4.638c1.646.112 2.461.167 4.104.285z" id="path6907" fill="#f2f2f2"/></g><g id="g6909" transform="translate(1279.103 3427.973)"><path d="M0 0l-4.104-.196v4.745c1.644.117 2.463.173 4.104.285z" id="path6911" fill="#f2f2f2"/></g><g id="g6913" transform="translate(1284.356 3428.219)"><path d="M0 0c-1.64-.073-2.469-.112-4.109-.196V4.66c1.64.118 2.469.18 4.109.291z" id="path6915" fill="#f2f2f2"/></g><g id="g6917" transform="translate(1289.603 3428.47)"><path d="M0 0c-1.646-.072-2.463-.117-4.107-.195v4.968c1.644.118 2.461.179 4.107.291z" id="path6919" fill="#f2f2f2"/></g><g id="g6921" transform="translate(1268.608 3421.208)"><path d="M0 0l-4.104-.084v4.526c1.641.068 2.46.101 4.104.162z" id="path6923" fill="#f2f2f2"/></g><g id="g6925" transform="translate(1273.854 3421.297)"><path d="M0 0c-1.643-.027-2.458-.044-4.104-.066v4.627c1.646.066 2.461.094 4.104.168z" id="path6927" fill="#f2f2f2"/></g><g id="g6929" transform="translate(1279.103 3421.398)"><path d="M0 0c-1.641-.028-2.46-.046-4.104-.079v4.745c1.644.072 2.463.101 4.104.168z" id="path6931" fill="#f2f2f2"/></g><g id="g6933" transform="translate(1284.356 3421.499)"><path d="M0 0c-1.64-.04-2.469-.051-4.109-.084v4.856c1.64.068 2.469.107 4.109.168z" id="path6935" fill="#f2f2f2"/></g><g id="g6937" transform="translate(1289.603 3421.594)"><path d="M0 0c-1.646-.039-2.463-.051-4.107-.078v4.974c1.644.061 2.461.095 4.107.157z" id="path6939" fill="#f2f2f2"/></g><g id="g6941" transform="translate(1268.608 3414.936)"><path d="M0 0c-1.644.028-2.466.033-4.106.05l.002 4.515c1.641.017 2.46.023 4.104.039z" id="path6943" fill="#f2f2f2"/></g><g id="g6945" transform="translate(1273.854 3414.88)"><path d="M0 0l-4.104.044v4.633c1.646.022 2.461.028 4.104.045z" id="path6947" fill="#f2f2f2"/></g><g id="g6949" transform="translate(1279.103 3414.823)"><path d="M0 0c-1.641.012-2.46.034-4.104.045V4.79c1.644.017 2.463.027 4.104.039z" id="path6951" fill="#f2f2f2"/></g><g id="g6953" transform="translate(1284.356 3414.768)"><path d="M0 0l-4.109.045v4.862c1.64.011 2.469.023 4.109.039z" id="path6955" fill="#f2f2f2"/></g><g id="g6957" transform="translate(1289.603 3414.706)"><path d="M0 0c-1.646.017-2.463.028-4.107.045v4.974c1.644.016 2.461.022 4.107.044z" id="path6959" fill="#f2f2f2"/></g><g id="g6961" transform="translate(1268.608 3408.675)"><path d="M0 0c-1.644.061-2.463.095-4.104.167v4.511c1.641-.023 2.46-.04 4.104-.074z" id="path6963" fill="#f2f2f2"/></g><g id="g6965" transform="translate(1273.854 3408.462)"><path d="M0 0c-1.643.062-2.458.09-4.104.162v4.633C-2.458 4.767-1.643 4.75 0 4.717z" id="path6967" fill="#f2f2f2"/></g><g id="g6969" transform="translate(1279.103 3408.243)"><path d="M0 0c-1.641.073-2.46.101-4.104.174v4.745C-2.46 4.885-1.641 4.874 0 4.84z" id="path6971" fill="#f2f2f2"/></g><g id="g6973" transform="translate(1284.356 3408.036)"><path d="M0 0c-1.64.067-2.469.102-4.109.162l-.002 4.862C-2.469 4.997-1.64 4.975 0 4.946z" id="path6975" fill="#f2f2f2"/></g><g id="g6977" transform="translate(1289.603 3407.83)"><path d="M0 0c-1.646.062-2.463.096-4.107.157v4.98c1.644-.033 2.461-.051 4.107-.078z" id="path6979" fill="#f2f2f2"/></g><g id="g6981" transform="translate(1268.608 3402.402)"><path d="M0 0c-1.644.111-2.463.173-4.104.291v4.515c1.641-.084 2.46-.112 4.104-.196z" id="path6983" fill="#f2f2f2"/></g><g id="g6985" transform="translate(1273.854 3402.038)"><path d="M0 0c-1.643.118-2.458.174-4.104.291v4.627C-2.458 4.84-1.643 4.801 0 4.717z" id="path6987" fill="#f2f2f2"/></g><g id="g6989" transform="translate(1279.103 3401.675)"><path d="M0 0c-1.641.112-2.46.168-4.104.291V5.03C-2.46 4.946-1.641 4.912 0 4.834z" id="path6991" fill="#f2f2f2"/></g><g id="g6993" transform="translate(1284.356 3401.31)"><path d="M0 0c-1.64.112-2.469.174-4.109.286v4.857C-2.469 5.07-1.64 5.02 0 4.936z" id="path6995" fill="#f2f2f2"/></g><g id="g6997" transform="translate(1289.606 3400.947)"><path d="M0 0c-1.648.112-2.466.174-4.11.285V5.26c1.644-.084 2.462-.118 4.107-.201C-.003 3.033 0 2.021 0 0" id="path6999" fill="#f2f2f2"/></g><g id="g7001" transform="translate(1282.495 3372.394)"><path d="M0 0c-4.497.879-6.744 1.321-11.242 2.205v23.646c4.498-.398 6.745-.599 11.242-.991z" id="path7003" fill="#f2f2f2"/></g><g id="g7005" transform="translate(1270.118 3374.83)"><path d="M0 0l-6.816 1.343v13.808c2.724-.346 4.092-.525 6.816-.883z" id="path7007" fill="#f2f2f2"/></g><g id="g7009" transform="translate(1290.823 3370.744)"><path d="M0 0c-2.728.543-4.085.806-6.816 1.349V16.54A906.72 906.72 0 0 1 0 15.639z" id="path7011" fill="#f2f2f2"/></g><g id="g7013" transform="translate(1314.238 3444.948)"><path d="M0 0s-8.617 16.596 13.172 20.96c0 0 5.023-20.093-11.828-21.346 0 0 1.272 9.73 8.73 15.225 0 0-8.586-2.11-10.074-14.839" id="path7015" fill="#5cb930"/></g><g id="g7017" transform="translate(1314.045 3445.33)"><path d="M0 0s-.157 11.084-12.758 7.239c0 0 3.015-11.894 12.164-7.816 0 0-3.395 4.723-8.83 5.5 0 0 5.073 1.304 9.424-4.923" id="path7019" fill="#5cb930"/></g></g></g></svg>