<svg xmlns="http://www.w3.org/2000/svg" id="svg31945" viewBox="0 0 7.48 9.476" height="35.814" width="28.272"><g transform="translate(-100.968 -175.634)" id="layer1"><g id="g32538" transform="matrix(.35278 0 0 -.35278 -433.964 2609.291)"><g id="g7207" transform="translate(1529.83 6871.697)"><path d="M0 0h-.997c-.522.133-1.05.249-1.565.407-.227.07-.417.084-.645-.004-1.566-.605-3.081-.469-4.531.366-1.329.764-2.315 1.88-3.121 3.157-1.349 2.134-2.174 4.464-2.508 6.966-.175 1.308-.187 2.612.146 3.903.935 3.624 4.161 5.666 7.825 4.924.62-.126 1.218-.352 1.846-.538-.014-.012.006-.004.012.01.06.144.121.289.18.435.771 1.941 1.636 3.838 2.739 5.618.268.433.584.519 1.049.304.5-.23.997-.465 1.495-.697.615-.288.639-.439.097-.85-1.299-.983-2.436-2.123-3.354-3.473-.311-.456-.612-.918-.919-1.377a.35.35 0 0 1 .208.027c1.008.419 2.051.692 3.147.732 1.568.056 2.995-.348 4.203-1.38 1.517-1.298 2.182-3.019 2.359-4.954.186-2.033-.162-4.006-.772-5.937-.589-1.862-1.413-3.61-2.685-5.115C3.241 1.38 2.102.486.605.134.404.087.202.044 0 0" id="path7209" fill="#8db43a" fill-rule="evenodd"/></g><g id="g7211" transform="translate(1522.433 6898.558)"><path d="M0 0c.529-.139 1.074-.234 1.585-.424 1.408-.524 2.299-1.562 2.707-2.987.161-.564.211-1.165.256-1.754.034-.452-.257-.719-.711-.716-1.694.011-3.167.53-4.203 1.945-.717.98-.987 2.107-.953 3.312.008.322.232.484.48.624z" id="path7213" fill="#8db43a" fill-rule="evenodd"/></g><text transform="matrix(1 0 0 -.92755 1522.14 6878.247)" style="-inkscape-font-specification:MyriadPro-Cond" id="text7217" font-weight="400" font-stretch="condensed" font-size="15.527" font-family="Myriad Pro Cond" fill="#fff"><tspan x="0 3.804213" y="0" id="tspan7215">ru</tspan></text></g></g></svg>