<svg xmlns="http://www.w3.org/2000/svg" id="svg23705" viewBox="0 0 47.39 47.39" height="179.111" width="179.112"><g transform="translate(-97.374 -110.4)" id="layer1"><g id="g23676" transform="matrix(.35278 0 0 -.35278 -359.36 1422.111)"><g id="g5955" transform="translate(1297.18 3651.071)"><path d="M0 0c0 35.714 28.952 64.667 64.667 64.667S129.334 35.714 129.334 0s-28.952-64.666-64.667-64.666S0-35.714 0 0z" id="path5957" fill="none" stroke="#5cb930" stroke-width="5" stroke-linecap="round" stroke-miterlimit="10"/></g><g id="g6549" transform="translate(1315.923 3672.76)"><path d="M0 0s-18.951-61.604 39.972-69.843c0 0 6.18 5.975 2.883 16.893-3.296 10.92-18.007 14.63-22.398 18.028-4.385 3.4-10.362 8.138-11.805 12.671 0 0 3.506-16.895 19.16-31.936C27.812-54.187.622-46.15 0 0" id="path6551" fill="#5cb930"/></g><g id="g6553" transform="translate(1406.491 3672.76)"><path d="M0 0s18.956-61.604-39.966-69.843c0 0-6.181 5.975-2.885 16.893 3.297 10.92 18.008 14.63 22.393 18.028 4.391 3.4 10.363 8.138 11.806 12.671 0 0-3.501-16.895-19.161-31.936C-27.813-54.187-.617-46.15 0 0" id="path6555" fill="#5cb930"/></g><g id="g6557" transform="translate(1328.8 3686.87)"><path d="M0 0s5.254-.102 8.24-8.961c2.991-8.859 6.696-17.099 20.602-17.099 0 0-.616 8.034-7.827 15.863 0 0 8.24-4.43 10.406-15.142v-10.92h2.45l-.805 11.022s.515 14.41-7.724 22.039C17.102 4.431 4.535 1.34 0 0" id="path6559" fill="#5cb930"/></g><g id="g6561" transform="translate(1391.528 3685.539)"><path d="M0 0s-4.332.536-7.832-6.393c-3.506-6.932-7.532-13.269-18.967-11.623 0 0 1.463 6.533 8.315 12.116 0 0-7.328-.799-10.373-9.352 0 0-.033 10.325 7.644 15.622C-13.536 5.664-3.564 1.638 0 0" id="path6563" fill="#5cb930"/></g><g id="g6569" transform="translate(1327.46 3651.54)"><path d="M0 0s5.661-9.105 16.071-13.598c9.784-4.222 15.065-10.162 17.204-13.598 0 0 4.74 8.138 11.639 10.612C51.818-14.112 65.414-7.829 67.06 0z" id="path6571" fill="#5cb930"/></g></g></g></svg>