<svg xmlns="http://www.w3.org/2000/svg" id="svg15129" viewBox="0 0 4.964 5.287" height="19.981" width="18.763"><g transform="translate(-99.473 -151.674)" id="layer1"><g transform="matrix(.35278 0 0 -.35278 102.34 155.277)" id="g7203"><path id="path7205" d="M0 0c-2.144 0-3.889 1.829-3.889 4.078 0 2.248 1.745 4.077 3.889 4.077 2.144 0 3.888-1.829 3.888-4.077C3.888 1.829 2.144 0 0 0m0 10.213c-3.279 0-5.946-2.752-5.946-6.135 0-1.523.544-2.915 1.437-3.989L-8.127-3.71l1.117-1.063 3.629 3.81A5.787 5.787 0 0 1 0-2.058c3.278 0 5.945 2.752 5.945 6.136 0 3.383-2.667 6.135-5.945 6.135" fill="gray"/></g></g></svg>