<svg xmlns="http://www.w3.org/2000/svg" id="svg12659" viewBox="0 0 69.79 16.521" height="62.44" width="263.773"><defs id="defs12653"><clipPath id="clipPath7791"><path id="path7789" d="M0 6925.877h1916.794V0H0z"/></clipPath></defs><g transform="translate(-64.204 -140.558)" id="layer1"><g id="g7785" transform="matrix(.35278 0 0 -.35278 -499.922 2548.43)"><g clip-path="url(#clipPath7791)" id="g7787"><g transform="translate(1645.428 6802.05)" id="g7793"><path id="path7795" d="M0 0c0-12.656-10.26-22.915-22.915-22.915S-45.83-12.656-45.83 0c0 12.655 10.26 22.915 22.915 22.915S0 12.655 0 0" fill="#5cb830" fill-rule="evenodd"/></g><g transform="translate(1645.428 6802.05)" id="g7797"><path id="path7799" d="M0 0c0-12.656-10.26-22.915-22.915-22.915S-45.83-12.656-45.83 0c0 12.655 10.26 22.915 22.915 22.915S0 12.655 0 0z" fill="none" stroke="#fff" stroke-miterlimit="10"/></g><g transform="translate(1634.159 6810.731)" id="g7801"><path id="path7803" d="M0 0l-12.056-10.278L-23.91-.185C-22.857.521-2.417.73 0 0" fill="#fff" fill-rule="evenodd"/></g><g transform="translate(1609.72 6809.227)" id="g7805"><path id="path7807" d="M0 0l8.403-7.306L0-14.451z" fill="#fff" fill-rule="evenodd"/></g><g transform="translate(1630.754 6796.407)" id="g7809"><path id="path7811" d="M0 0a11.155 11.155 0 0 0-.111-.101A16.116 16.116 0 0 1-2.89-3.295c.66.022 1.286.047 1.87.075.887.618 1.879 1.118 2.872 1.604L0 0" fill="#fff" fill-rule="evenodd"/></g><g transform="translate(1629.632 6797.387)" id="g7813"><path id="path7815" d="M0 0l-4.303 3.756L-7.548.961l-3.209 2.806-8.78-7.664c1.291-.462 9.545-.579 15.992-.428A17.7 17.7 0 0 0 0 0" fill="#fff" fill-rule="evenodd"/></g><g transform="translate(1634.827 6791.779)" id="g7817"><path id="path7819" d="M0 0l-1.561 2.517C-4.14 1.257-6.649.079-6.983-3.251-8.157-1.671-8.331-.246-7.6 1.015a15.635 15.635 0 0 0 3.163 3.856c.87.761.99 1.271.403 2.104-.203.287-.29.639-.53 1.192l9.012-1.071C2.964 4.728 1.547 2.466 0 0" fill="#fff" fill-rule="evenodd"/></g><g transform="translate(1634.652 6794.766)" id="g7821"><path id="path7823" d="M0 0v4.391l-3.443.409c.615-.881.615-1.582.337-2.165L0 0" fill="#fff" fill-rule="evenodd"/></g><g transform="translate(1629.989 6798.728)" id="g7825"><path id="path7827" d="M0 0c-.196.278-.309.567-.437.902-.061.155-.128.329-.214.528l-.514 1.182 5.828-.693v8.604L-3.769 3.19.012-.017 0 0" fill="#fff" fill-rule="evenodd"/></g><g transform="translate(1720.428 6802.05)" id="g7829"><path id="path7831" d="M0 0c0-12.656-10.26-22.915-22.915-22.915S-45.83-12.656-45.83 0c0 12.655 10.26 22.915 22.915 22.915S0 12.655 0 0" fill="#5cb830" fill-rule="evenodd"/></g><g transform="translate(1720.428 6802.05)" id="g7833"><path id="path7835" d="M0 0c0-12.656-10.26-22.915-22.915-22.915S-45.83-12.656-45.83 0c0 12.655 10.26 22.915 22.915 22.915S0 12.655 0 0z" fill="none" stroke="#fff" stroke-miterlimit="10"/></g><g transform="translate(1703.119 6795.885)" id="g7837"><path id="path7839" d="M0 0c-3.719-3.756-6.528-5.968-10.007-7.169-2.984-1.03-5.091-.254-6.711 2.403-.12.197-.237.416-.277.639-.439 2.498 1.44 3.545 3.037 4.717 1.347.988 2.448.891 3.69-.145C-8.641-.913-8.039-1.011-6.389.356-3.64 2.635-1.28 5.282.393 8.47c.832 1.583.695 2.047-.668 3.223-1.409 1.214-1.682 2.333-.829 3.964a16.135 16.135 0 0 0 1.681 2.57c1.03 1.293 2.355 1.451 3.725.556 2.86-1.868 3.45-3.229 2.636-6.61C5.663 6.871 2.564 2.65 0 0" fill="#fff" fill-rule="evenodd"/></g><g transform="translate(1796.428 6802.05)" id="g7841"><path id="path7843" d="M0 0c0-12.656-10.26-22.915-22.915-22.915S-45.83-12.656-45.83 0c0 12.655 10.26 22.915 22.915 22.915S0 12.655 0 0" fill="#fff" fill-rule="evenodd"/></g><g transform="translate(1796.428 6802.05)" id="g7845"><path id="path7847" d="M0 0c0-12.656-10.26-22.915-22.915-22.915S-45.83-12.656-45.83 0c0 12.655 10.26 22.915 22.915 22.915S0 12.655 0 0z" fill="none" stroke="#fff" stroke-miterlimit="10"/></g><g transform="translate(1796.17 6802.81)" id="g7849"><path id="path7851" d="M0 0v-1.598c-.03-.124-.07-.248-.088-.374-.196-1.394-.276-2.816-.602-4.179-1.173-4.887-3.756-8.94-7.648-12.161-2.876-2.38-6.162-3.949-9.817-4.738v15.888h6.842l.67 7.013h-.612c-2.151 0-4.304.005-6.456-.006-.331-.002-.478.06-.472.436.023 1.301-.018 2.604.015 3.904.052 2.091 1.206 3.216 3.404 3.352 1.352.083 2.659-.165 3.939-.55.359-.108.391-.005.431.299.151 1.132.335 2.26.5 3.39.161 1.102.312 2.206.485 3.43-1.434.242-2.842.539-4.266.705a19.348 19.348 0 0 1-5.042-.071c-1.885-.274-3.694-.768-5.289-1.843-2.246-1.514-3.481-3.569-3.445-6.318.026-2.07.005-4.141.005-6.212v-.525h-4.464v-7.039h4.432v-15.915c-.213.036-.387.056-.557.095-4.497 1.021-8.366 3.14-11.556 6.459-2.862 2.979-4.826 6.448-5.76 10.454-.31 1.333-.438 2.708-.649 4.062V.355c.037.351.072.703.111 1.054.624 5.678 2.984 10.532 7.237 14.393 5.331 4.84 11.667 6.87 18.823 5.827 8.198-1.194 14.11-5.638 17.717-13.026C-1.021 6.37-.389 3.99-.175 1.509-.132 1.004-.06.503 0 0" fill="#5cb930"/></g><g transform="translate(1796.17 6802.81)" id="g7853"><path id="path7855" d="M0 0v-1.598c-.03-.124-.07-.248-.088-.374-.196-1.394-.276-2.816-.602-4.179-1.173-4.887-3.756-8.94-7.648-12.161-2.876-2.38-6.162-3.949-9.817-4.738v15.888h6.842l.67 7.013h-.612c-2.151 0-4.304.005-6.456-.006-.331-.002-.478.06-.472.436.023 1.301-.018 2.604.015 3.904.052 2.091 1.206 3.216 3.404 3.352 1.352.083 2.659-.165 3.939-.55.359-.108.391-.005.431.299.151 1.132.335 2.26.5 3.39.161 1.102.312 2.206.485 3.43-1.434.242-2.842.539-4.266.705a19.348 19.348 0 0 1-5.042-.071c-1.885-.274-3.694-.768-5.289-1.843-2.246-1.514-3.481-3.569-3.445-6.318.026-2.07.005-4.141.005-6.212v-.525h-4.464v-7.039h4.432v-15.915c-.213.036-.387.056-.557.095-4.497 1.021-8.366 3.14-11.556 6.459-2.862 2.979-4.826 6.448-5.76 10.454-.31 1.333-.438 2.708-.649 4.062V.355c.037.351.072.703.111 1.054.624 5.678 2.984 10.532 7.237 14.393 5.331 4.84 11.667 6.87 18.823 5.827 8.198-1.194 14.11-5.638 17.717-13.026C-1.021 6.37-.389 3.99-.175 1.509-.132 1.004-.06.503 0 0z" fill="none" stroke="#fff" stroke-miterlimit="10"/></g></g></g></g></svg>