<svg xmlns="http://www.w3.org/2000/svg" id="svg28782" viewBox="0 0 49.832 49.832" height="188.34" width="188.34"><defs id="defs28776"><clipPath id="clipPath6155"><path id="path6153" d="M0 6925.877h1916.794V0H0z"/></clipPath></defs><g transform="translate(-72.08 -167.376)" id="layer1"><g id="g6149" transform="matrix(.35278 0 0 -.35278 -280.025 1139.481)"><g clip-path="url(#clipPath6155)" id="g6151"><g transform="translate(1136.847 2684.947)" id="g6157"><path id="path6159" d="M0 0c0 37.625-30.502 68.127-68.128 68.127-37.625 0-68.127-30.502-68.127-68.127 0-37.626 30.502-68.128 68.127-68.128C-30.502-68.128 0-37.626 0 0z" fill="none" stroke="#a6ec3e" stroke-width="5" stroke-linecap="round" stroke-miterlimit="10"/></g><g transform="translate(1070.308 2707.762)" id="g6161"><path id="path6163" d="M0 0c-15.081.485-26.093-13.24-25.689-26.413.388-12.669 12.274-24.875 26.142-24.593 13.868.283 25.37 13.481 25.295 25.682C25.666-11.983 12.811.884 0 0m-9.03 9.399c-1.515 1.488-3.712 2.718-4.385 4.52-1.017 2.719.127 5.024 3.644 5.034 5.816.014 11.629.046 17.444.009 2.266-.015 4.758.008 4.929-3.169.148-2.747-.629-4.988-3.933-5.298-.537-.05-1.051-.374-2.638-.97 1.921-1.368 3.071-2.636 4.489-3.126C21.06 2.773 27.482-4.39 31.339-14.892c4.732-12.89.307-23.535-7.082-33.249-6.57-8.633-24.602-12.903-34.663-9.031-17.872 6.876-27.336 22.956-21.99 41.839 2.841 10.035 9.515 17.6 19.843 21.258 1.779.63 3.362 1.811 5.035 2.738l-1.512.736" fill="#a6ec3e" fill-rule="evenodd"/></g><g transform="translate(1072.054 2696.254)" id="g6165"><path id="path6167" d="M0 0c-.843-9.748 3.471-17.599 9.649-24.719.098-.111.201-.223.273-.352 1.425-2.518 5.194-5.453 1.981-7.872-3.189-2.405-4.13 2.398-5.816 4.214C2.499-24.867.218-19.853-5.121-17.513c-1.247.546-1.942 3.787-1.83 5.728.328 5.671 1.203 11.31 1.839 16.965.098.883-.264 2.022.171 2.619.681.938 1.786 1.884 2.855 2.094.529.104 1.895-1.369 1.988-2.226C.176 5.171 0 2.624 0 0" fill="#a6ec3e" fill-rule="evenodd"/></g><g transform="translate(1085.608 2672.173)" id="g6169"><path id="path6171" d="M0 0c.168 1.664-.021 3.469.568 4.967 2.18 5.535-1.114 15.488-6.107 18.832-1.458.977-2.233 2.974-2.885 4.813C4.337 25.337 8.451 12.901 1.751-.078L0 0" fill="#a6ec3e" fill-rule="evenodd"/></g></g></g></g></svg>