<svg xmlns="http://www.w3.org/2000/svg" id="svg9024" viewBox="0 0 41.388 46.567" height="176" width="156.428"><g transform="translate(-104.816 -181.63)" id="layer1"><g id="g9592" transform="translate(186.184 182.413)"><g id="g4401" transform="matrix(.35278 0 0 -.35278 -69.48 -.783)"><path d="M0 0c2.928-.682 5.944-1.151 8.767-2.084 7.795-2.577 12.718-7.676 14.977-14.68.892-2.768 1.168-5.725 1.417-8.617.191-2.224-1.423-3.535-3.933-3.52-9.376.055-17.525 2.606-23.257 9.561-3.967 4.812-5.456 10.353-5.272 16.273C-7.251-1.482-6.017-.69-4.645 0z" id="path4403" fill="#5cba30" fill-rule="evenodd"/></g><g id="g4405" transform="matrix(.35278 0 0 -.35278 -74.412 28.9)"><path d="M0 0h2.356c-.347 2.847-.694 6.365-1.043 10.557C.616 5.744.178 2.225 0 0" id="path4407" fill="#5cba30" fill-rule="evenodd"/></g><g id="g4409" transform="matrix(.35278 0 0 -.35278 -49.018 24.85)"><path d="M0 0c-.292-.243-.439-.764-.439-1.561v-1.381c0-.931.122-1.539.366-1.825.244-.284.81-.426 1.698-.426V.364h-.324C.726.364.292.243 0 0" id="path4411" fill="#5cba30" fill-rule="evenodd"/></g><path id="path4415" d="M-46.024 32.066h-2.42v-3.992c-.306 0-.504.048-.594.145-.09.097-.134.31-.134.638v3.21h-2.243V29.42c0-.449.026-.79.078-1.024.051-.234.171-.427.359-.58.187-.154.484-.282.89-.384-.556-.047-.915-.198-1.08-.452-.164-.253-.247-.71-.247-1.366 0-.592.077-1.054.23-1.389.153-.334.374-.574.665-.72a2.71 2.71 0 0 1 1.004-.265c.378-.03.97-.046 1.777-.046h1.715zm-6.284 0h-2.019V28.03l-1.255 4.036h-2.116v-8.871h2.018v4.003l1.353-4.003h2.02zm-5.974 1.528h-1.669v-1.528h-4.38v-8.871h2.42v7.097h.716v-7.097h2.42v7.097h.493zm-6.794-7.54c.008.919-.535 1.443-1.628 1.57 1.093.128 1.636.66 1.628 1.595l-.011 1.412c-.004.672.103 1.15.321 1.435h-2.23c-.26-.222-.39-.653-.39-1.292v-1.73c0-.22-.07-.396-.21-.53a.771.771 0 0 0-.542-.204l-.011 3.756h-2.42v-8.871h2.42l.011 3.745c.455-.01.69-.252.705-.723l.046-1.73c.015-.64.146-1.07.39-1.292h2.231c-.218.215-.325.66-.321 1.336zm-8.312 6.012l-.13-1.594h-.863l-.145 1.594h-2.496l1.231-8.866h3.49l1.38 8.866zm33.31-9.818c-.344-3.355-1.643-6.339-4.605-8.588-2.357-1.79-5.142-2.49-8.205-2.392-2.137.068-4.173.542-6.141 1.267a.741.741 0 0 1-.405.048c.597-.796 1.188-1.597 1.793-2.388 1.793-2.341 4.01-4.315 6.547-6.021 1.058-.711 1.01-.975-.19-1.472-.972-.404-1.943-.81-2.918-1.21-.908-.372-1.524-.222-2.047.529-2.152 3.085-3.842 6.372-5.348 9.738-.112.253-.231.504-.35.755-.012.024-.051.037-.023.018-1.226-.323-2.395-.716-3.603-.934-7.152-1.287-13.449 2.253-15.273 8.536-.65 2.239-.628 4.5-.287 6.767.652 4.337 2.264 8.377 4.895 12.077 1.574 2.214 3.498 4.148 6.092 5.473 2.832 1.448 5.788 1.683 8.845.633.444-.152.816-.127 1.26-.006 1.005.274 2.035.475 3.055.705h1.945c.395-.077.79-.15 1.182-.231 2.92-.61 5.146-2.16 7.034-4.145 2.484-2.608 4.09-5.638 5.24-8.867 1.19-3.347 1.87-6.768 1.508-10.292" fill="#5cba30" fill-rule="evenodd" stroke-width=".353"/></g></g></svg>