<svg xmlns="http://www.w3.org/2000/svg" viewBox="0 0 7.97 212.5"><defs><style>.cls-1{fill:#90c320}</style></defs><g id="Слой_2" data-name="Слой 2"><g id="Слой_1-2" data-name="Слой 1"><path class="cls-1" d="M6.6 212.25c0 .31.38.2.46.25-.06-.5-.57-.24-.46-.25zM5.63 207.07l.17.09-.42-.76.25.67zM5.63 202.23c-.71.46.12 1.75-.13 2.62l-.16.14.58.39a12.67 12.67 0 0 1-.29-3.15zM7.17 199.64c-.28.16-.24-.56-.09.6a.82.82 0 0 1 .07-.11 3.92 3.92 0 0 1 .02-.49zM7.15 200.14c0 .51.23-.33 0 0zM7 197.78l.25.67c.16-.14.2-.74.32-.52-.15-.68-.31-.54-.57-.15zM6.46 197.15l.11.35c.07-.07.09-.16-.11-.35z"/><path class="cls-1" d="M6.79 198.23l-.22-.74c-.12.1-.35.11.08.34-.21-.06-.01.09.14.4zM6.69 198.65c-.15.38-.25.86-.5.19.1 1.29.6 1.1.5-.19zM4.89 202l-.21.5.24.44c-.12-.23.19-.94-.03-.94zM7.35 193.6c-.15 0-.4.23-.6.28l.18.5c.07-.27.19-.75.42-.78zM6.75 193.87l-.26-.74c-.03.67.09.79.26.74zM5.67 197.03l.55 1.22-.56-1.46.01.24zM7.36 190.76l.35.42-.53-.75.18.33zM7.29 188.88c.29.31.49-.43.67-.1a3.43 3.43 0 0 0-.53-1.34 2.06 2.06 0 0 1-.14 1.44zM7.11 186.78a4.06 4.06 0 0 0 .33.66 2.09 2.09 0 0 0-.33-.66zM6.56 191.87a.82.82 0 0 0 .43-.59l-.43.29v.3zM6.55 191.59v-.63c.03.04.02.26 0 .63zM6.56 191.94v-.07c0-.07-.06.04 0 .07zM6.05 195.08c-.24-.44-.5-1.34-.86-.46.3.31.5-.19.86.46zM6 192.3l-.1.79c.11 0 .28-.16.4.06zM5.89 191.92l.13.39.04-.3-.17-.09zM6.71 188.14a2.67 2.67 0 0 1-.23-1.14 7.45 7.45 0 0 0-.13 1.36c.13.06.38.26.36-.22zM6.59 189.81v-.08s-.07.09 0 .08zM6.47 182.86l-.08.07h.07z"/><path class="cls-1" d="M6.27 188.44a.82.82 0 0 0 .16.73 5.2 5.2 0 0 1-.08-.81c-.06-.03-.1-.03-.08.08zM6.9 185.63a4.35 4.35 0 0 0-.23.59c.14-.22.33-.53.23-.59zM6.69 189.62v.05c.11-.11.06-.1 0-.05zM6.69 189.62a2 2 0 0 0-.26-.45 2.94 2.94 0 0 0 .14.56.55.55 0 0 1 .12-.11zM3.72 181.61c.4.06.76.95.34 1.72.3.76 1.6.26 2.33-.4-.17 0-.33 0-.57-.8-.22.27-.5 1.73-.86 1.07-.21-1 .14-.85.35-1.35-.49.43-.72-1.31-1.45-1.09l.26.9c-.12.02-.3-.3-.4-.05zM6.35 184.41v.32a3 3 0 0 1 .53-1.11c-.19-.53-.34-.64-.47-.68l-.05 1.58zM6.41 186.17c-.43-.25-.62-1-1.08-.55 0 .94.36.66.55 1.22-.11-1.52.24.44.48-.66a4.72 4.72 0 0 1 .12.82 6.69 6.69 0 0 1 .19-.79c-.05.07-.09.09-.06 0a.48.48 0 0 1-.16-.07c.09-.44.11-.07.16.07h.06l-.24-1.52a6.13 6.13 0 0 0-.02 1.48zM4.26 193.81a.12.12 0 0 1 .1 0c-.05-.15-.08-.19-.1 0zM4.52 193.18a.65.65 0 0 1 .19.56c-.13.31-.21 0-.35 0 .11.22.31.76.52.08l-.06-.11c.15-.61.68-1.4.74-1.29a2.9 2.9 0 0 0-1.04.76zM5.36 189.63l-.21-1.27-.37.65L5 189c-.09.7.18.54.36.63zM6.68 182.71l.46.17-.65-.73.19.56zM6.62 181.07l.4.06-.24-.44-.16.38zM1.5 88.18l-.11-.37a1.54 1.54 0 0 0 .11.37zM1.48 90.87l.2.07c-.11-.13-.19-.18-.2-.07zM6.49 140.63c.37-.54.94-1.15.5-1.08l-.43.17a1.58 1.58 0 0 1-.07.91zM3.83 113l-.13.16.42.37zM2 112.57l.28-.72a2.84 2.84 0 0 0-.28.72zM1 73.46L.56 73c.01.71.23.41.44.46zM6.43 164.21a4.16 4.16 0 0 0 .25-1.21c-.24.6-.62 1.06-.25 1.21zM6.11 89.23c-.08-.23-.17-.32-.26-.32.07.24.15.37.26.32zM6.68 161.69c0 .08-.07.16-.1.25a3.84 3.84 0 0 1 .11 1.1 1.34 1.34 0 0 0-.01-1.35zM1.24 20.08a1.26 1.26 0 0 1 .05-.08c-.06-.05-.06 0-.05.08zM5.58 4.52a5.33 5.33 0 0 1 0 .64 1.64 1.64 0 0 0 0-.64zM6.8 174.44c0 .35 0 .06 0 0zM5.09 176.14a.27.27 0 0 0-.21-.14.35.35 0 0 1 .21.14zM4 158.21s-.1.06 0 0zM6.6 175a2.37 2.37 0 0 0 .13-.45 2.46 2.46 0 0 0-.13.45zM6.81 174.9v.31c0 .09.07 0 0-.31zM6.77 174a2.71 2.71 0 0 1 0 .57c0-.07.05-.1.07-.08s-.06-.29-.07-.49zM2.47 48.68v-.07c-.14-.36-.11-.2 0 .07zM2 131.56v-.05zM1.63 130.3a1 1 0 0 1 .37 1.25l1.25-.42z"/><path class="cls-1" d="M1.36 81.73l-.36.88c-.64-1.06-.42-1.83-1-1 1.36.12.15 3.42 1.5 3.54l-.28.58c0-.17-.07-.19-.05-.36-.65 1.13 1 .84.79 2.29-.1.51-.3.86-.46.52l.34 1.13c0 .33-.26.25-.24-.08L1.71 91a7.14 7.14 0 0 1 .65 1c-.19.44-.14-.22-.31-.11l.33 1c-.35.39-.69-.4-.65-1.06-1.35.89.34.79-.44 2.72l-.17-.9c-.77.58-.49 1.28-1 2.3.25-.24 1.21-2 1.55-1a1.5 1.5 0 0 0 .12 1.23c-.48 0-.36.55-.33 1.23H.82c.19.74.51.68.8 1.11-.06.82-.56 1-1 1.19-.1 1.32.79-.91.92.65a5.81 5.81 0 0 0 .46 3.1c-.22.77-.39-.13-.57.14l.51.68c0 .17-.17.11-.25.09.2.57.64 0 .82.95.71.24-1 1.85-.22 3-.18.27-.39-.13-.64 0a9.47 9.47 0 0 0 1.09 2.56l-.42 1.07c.48-.79 1 .22 1.52 1.09a7.38 7.38 0 0 0 .53-.68l.35 1.4c-.1.17-.32 0-.59-.2.05.1.11.19.15.26-.24.5-.6.24-1-.12l.39-.51c-.39-.35-.82-.67-1.19-.6a1.12 1.12 0 0 1 .17.46c-.11-.09-.2-.15-.26-.11s.07.19.24.42l-.71.32.28.08-.44 1.84c.72 1.31 1.78 2.45 2.08 4.54-.52-.52-.85-.11-1.47-.14.65-.57-.28-1.61-.15-2.69-.07.56-.36.44-.47.3l.6 1.93c-.51 0-.38.41-.59.91 1-.38.67 1.43 1 2.22-.34 0-.68-.14-.6-1.09-.75 1.06 1.18 1.36.54 2.4 0-.23 0-.36-.13-.45.3.54.07 1.88-.23 1.57v-.23c-.11 1.55 0 4.72.85 4.95a5.58 5.58 0 0 1-1.2-.29l2.87 2.76c-.73-.24-2.47.7-2.88-.59a2.41 2.41 0 0 0 0 1.6c.1-.25 1.05-.63 1.12-.29-.81.95-.43.66-1.12 1.82.16-.38 1.3 0 1.27.64-.17-.09-1.13.05-1.25-.17l1.13 1.48c-.2-.37-1-.06-1.27.27.22-.15 0 1.28.09 1.68l.26-.63c-.17 1.68 1.59 1.65 1.53 3.32-.23-.2-1.43-.49-1.57.35.58.39 2.77 1.71 3.22 3.18l-.33.28.38 1.13a23.29 23.29 0 0 1-3.41-3.75c-.26.63-.39.18-.36 1.11-.31.33-.47-.51-.49-.79L1 145c.67-.1.68 1.67 1.24 1.59l-.7-2.37c.67-.1 1.91 1.37 1.8 2.92-.27.39-1.2-.29-1.42-.26a2.42 2.42 0 0 1 .28 1.61l-.36-.66c-.25.86.89 1.41.26 2.44 0 .36-.86 1.07-.47 1.13a5 5 0 0 1 3.72-.32 12.51 12.51 0 0 1-1.11 2.29c-.6.59-1.44-.88-2-.38.18 0 .41.35.48.48-.16.38-.57-.15-.48.66.68.13-.05 1.66.58.38.2.8-.14.85-.11 1.79.44-.3 1.5.84 1.7 1.64-.17 0-.4.13-.5.22-.06 1.64-.37 2.52-.37 4-.16.14-.36.88-.66.57a1.62 1.62 0 0 1 .37.89c-.59.91-.09-1.05-.8-.35.4.06.55 1.22.8 1.89.61-.21.11-1.55-.14-2.22.84 0 1.73 1.16 2.12 2.76.21 1.27-.54.55-.42.77-.14 2.38 1.48 2 .87 4-.54.79-1.07 0-1.46.21-.21-1 .34-1.59.31-2.29l-.25.86A2 2 0 0 1 4.2 168c-.48.66-.08 4-.52 5.86.18.33.37.89.58.62l-.08-.58c.43-.54.6 1.09.8.36a4.46 4.46 0 0 1 .55 2.74l-.61.21c.18 0 .36-.72.18-1 .27.46-.83 1.69 0 2.19l.42-.77c.31.78 1 1.75.77 2.72.6-.44-.07-.22.64-.92-.88.6 0-2.49-.89-1.52.82-.71.35-1.23 1-2.16-.2 0-.39.33-.29-.49a.91.91 0 0 1-.18-.18V175a.92.92 0 0 1-.31.42c-.47-.4-.45-1.7-.69-2.14.09-.49.23.2.45-.06l-.36-.66c.45-.07.74-1.29 1-.15v-1a3 3 0 0 0 .16-2c.1-.49-.5-1.22-.15-.8L6.41 167h.11c.05-1.59-.75-3.27.06-5.09a5 5 0 0 1-.13-2l.39-.18c-.14-.69.38-2.07 0-2.36 1-.74.22-3.34.4-4.55h-.51a11.59 11.59 0 0 0-.33-2.66l-.45.06c-.37-.89.31-2.29.26-3.7.17.1.13.45 0 .71 1-1.69-.75-3.55 0-5.08a1.07 1.07 0 0 1 0-.92.21.21 0 0 0 0 .09 1.15 1.15 0 0 0 0-.16c.08-.17.17-.34.24-.53a1.82 1.82 0 0 0-.24.45 5.8 5.8 0 0 0-.18-1.17l.48-.19v-.1c.18-.43-.23-.34-.59-.11a2.26 2.26 0 0 0-.29-.58c.78-.35-.26-1.14.56-1.62-.4-.29-.31-2.19-1.16-2.42.11 0 .16-.14.17.09a2 2 0 0 0 0-1.41l.61-.21L5 132.3c.37-.65.59-.91 1.06-.27-.73-1.54-.28-1.25-1-2.57l.4.06c0-.47-.55-1.22-.22-1.5.75-1.05.09-5.2.78-7.91-1.16.53.52-1.26-.38-1.36.28-.16.43-.53.67-.1-.27-1.38.43-2.07-.33-3 .28-.16.4.29.57.15-.06-.11-.24-.44-.08-.58s.23.2.35.42c0-1.41-.9-1.55-1.7-1.65a1.1 1.1 0 0 0-.2-1.58c.26-.25.53-.66.63.21 0-.49.38-3-.26-3.06.16-.15 0-.69 0-.82a17.74 17.74 0 0 0 0-2.29l-.1.3c-.77-.43-.17-.9-.27-1.77L5 105c.55-2-.27-.86.36-2.84l-.48.11c-1-.18.6-1.75.21-2.9l-.27.42c-.35-.63 1.4-1.76 1.53-2.38.09-.14.14.22.21.41.6-1.65-.63-.21-.78-1.44.34-.23.86.29.92-.54.27-.41-1.11-2.39-.46-3.52-.26.25-.52.5-.72-.07-.1-.87 1-2.37.16-3.15.07-.11.14-.15.2-.16-.21-.67-.36-2.17-.81-2.57 1.66-.62-.82-4.15.71-4.14l-.09-2.06.16.05A2.66 2.66 0 0 0 5.18 78c.1-.3.25-.08.33-.06A4.47 4.47 0 0 0 5 74.18l.5-.17c-.29-.44.77-2.78.19-4.66a.35.35 0 0 1 .22.21c-.59-2.12 1.36-5.07-.44-5.85L5 62.32c-.14 1.81-.78-.27-1.08.48-.11-.71.54-1.84.63-1l-.09.2c.94.32.33-2.25 1-2.2-.05-3.56.46-7 .49-10.36l-.73.39v-1.16c.17-.31.57-.41.54.42.41-.44-.35-1.39-.51-1.41.29-1.62.85.63.87.13l-.06-.68-.06.11c-.3-.55-.62-.6-.58-1.59.14-.63.45-.32.48-.57.05 0 .08-.08 0-.38l.1-1.47-.58.59c-.29-.65 0-1.38-.63-.7 1-1 .35-5.47.66-6.08a5.93 5.93 0 0 1-.37-2.92c-.12.28-.77.44-.69-.52 1.34.35.58-1.76 1.54-2.54-.64.69-.16-2.73-1.07-1.64.11-.8.5 0 .82-.66-.52-1.9.33-4.2.15-6.55-.18 0-.44.36-.71-.15L6 20.83c-.09-.46-1-.43-.41-1.28-.15.12-.37.3-.43 0C6 14.93 4.41 10.12 6 5.43c-.34.64-.37.21-.39-.27-.08.32-.43 0-.67.06l.66-2c-.66-.36 0-2.1-.68-2.31l.08.66c-.75-.82-1.66 1.16-2.61 1 .85.92-1.25 2.44 0 4-.19.34-.31-.28-.53-.11.41.38.5.85.32 1.71l-.1-.1c.11 2.42-.3 3.46-.56 6.17L2 14a2.29 2.29 0 0 1-.33 1c.72.67 0-1.64.83-1-1 .78 0 4.12-1.1 4.64 0 .9.55-.26.54.63l-.3.24.38.23a.93.93 0 0 1-.68.91 2.19 2.19 0 0 0-.09-.56c-.35.76.12 2.15 0 2.42l.18-.86c.28 2.45-.1 5.44.51 7.81l.22-.18c.42 1.81-.24 1.45 0 3.43l-.05-.07a2.81 2.81 0 0 1 .31 1.47c-.26-.5-.51.94-.8.29.45 2 .35 1 1.18 2.26l-.37.3A2 2 0 0 1 3 38.41c-.32-.81-.56.63-1-.28-.81 2.08.83 3.09-.36 4 1 1 .57-1.8.79-1.27.33-.45.77.79.67 1.44s-1.31 1.13-1.29 2.8c0-.17-.07-.18-.07-.34-.26.63.36 1.23-.07 2 .62.43 0 1 .76 1.12l-.19-1.53c.21.87 1.14 1.68.69 3.12a2.41 2.41 0 0 1-.49-.83c-.23.42.16.81-.08 1.24-.79-.12-.18-1.86-.78-2.79-.33.45.58 1.76-.28 1.29 1.09.67-.13 1.65.7 2.78l-.47-.07a2.21 2.21 0 0 1 .29.88l-.62-.6c.53.92-.45 1.77-.17 2.65 0-1.84.57-.41.92-1.19.64 2.27-1.24 1.31-1 3.85-.07-.34.28-1.29.5-.75a3.72 3.72 0 0 1-.53 1.42c.1 1.68.49-.26.78.46-.58.57.24.83.42 1.56h-.46c-.31 1.92 1 .51.64 2.24l-.67-.73.17.9-.55-.18a3.13 3.13 0 0 1 .15 2.24c.34-.22.88.12.89 1-.29.58-.46-.32-.39.88-.3-.27-.68-.57-.24-1.09-.16-.05-.3-.27-.46-.32a4.14 4.14 0 0 0-.07 2 1.22 1.22 0 0 1 .11-.47l.67 1.75c-.18.28-.33.06-.47-.16a8 8 0 0 1 .32 1.12c-.39-.13-.8-.1-1-.84l.44 1.66c-.17.11-.47.86-.61.64-.23.92.77 2.26.46 3.49a.79.79 0 0 1 .25.5c-.09 1.15-.56 2.17 0 3.53l-.7.77c.16 1.07.88-1 1.15.73.23 1.26-.6.47-.79.91a3 3 0 0 1 .51 2.87 4.66 4.66 0 0 1-.11-1.08zm.34 13.16c-.1-.25-.42-.76-.13-.95.55.29.29.51.13.95zm1.21 20c-.16-.19-.08-.48.1-.81a1.48 1.48 0 0 1-.1.81zm3.49 55.73c.16-.62.09-.4 0 0zm-.21 1.18c.07.12.13.11.2.06-.12-.08-.13-.35-.1-.65-.12.08-.21.23-.1.59zM5.71 44.94l-.13.23c-.14-.52-.01-.37.13-.23z"/><path class="cls-1" d="M2.24 112.62a.5.5 0 0 1 .26-.11c-.08-.1-.17-.1-.26.11zM1.09 73.54H1zM2.06 153.51a1 1 0 0 1 .25-.47c-.12-.04-.22.1-.25.47zM7 178.06l-.13-.76a1.17 1.17 0 0 1-.16.68c.14.02.29-.16.29.08zM4.05 184.63c.06.11 0 .23.07.34h.22c-.01-.5-.19-.83-.29-.34zM5.42 178.76c-.41.06-.27.54-.19 1.07a.46.46 0 0 1 0-.09c.57.15.38-.42.19-.98zM5.25 179.95a2.09 2.09 0 0 1 0 .49c.24.06.05-.2 0-.49zM6.46 173.3c-.1.25.52.16.35.3.52.27-.62-1.68-.35-.3zM4.09 179.19l.5-.19-.41-.29-.09.48zM4.45 175l-.14.85c.08 0 .13.09.17.23.02-.52.11-1.08-.03-1.08zM4.48 176.08a1.49 1.49 0 0 0 .08.68 3.35 3.35 0 0 0-.08-.68zM3.93 178.03l.11-.25.03-.59-.14.84zM4.52 165.9l-.15-.9c-.17-.09-.28.16-.21.5s.19.5.36.4zM3.15 168.7c.1-.25.22-.27.38-.41h-.62zM3 166c-.17-.09-.5-1.34-.46-.17.18.1.32 1.02.46.17zM3.76 152.08l.01.23 1.01-.03-1.02-.2zM1.29 139.81c-.24 1.1.63.26.33 1.25.24.26.25-.81.46-.55-.26-.66-.08-1.01-.79-.7z"/><path class="cls-1" d="M2.07 140.51a2.56 2.56 0 0 0 .16.34 1.15 1.15 0 0 0-.16-.34zM6.12 1.94l.21-.7-.34.45.13.25zM5.36.59L6 .42 5.42 0c.03.16.09.47-.06.59zM.4 96.85l.16.05c.17-.11.18-.27.21-.6zM.86 87.29l-.01.17.59-.31-.58.14zM.09 79.28c0 .33.11.71.08 1-.1-.68.66-1.09-.08-1z"/></g></g></svg>