<svg xmlns="http://www.w3.org/2000/svg" id="svg23093" viewBox="0 0 47.39 47.39" height="179.112" width="179.111"><g transform="translate(-99.478 -161.585)" id="layer1"><g id="g23066" transform="matrix(.35278 0 0 -.35278 -338.973 1562.514)"><g id="g5947" transform="translate(1245.352 3903.972)"><path d="M0 0c0 35.714 28.952 64.667 64.666 64.667 35.715 0 64.667-28.953 64.667-64.667s-28.952-64.667-64.667-64.667C28.952-64.667 0-35.714 0 0z" id="path5949" fill="none" stroke="#5cba30" stroke-width="5" stroke-linecap="round" stroke-miterlimit="10"/></g><g id="g6533" transform="translate(1347.656 3930.83)"><path d="M0 0l-8.702 9.096-8.107-5.03-10.756 4.57-3.96.972-8.624 1.596-4.182-1.465-11.913-4.806-7.204 4.382L-72.551.61l4.046-6.509-5.433-12.803-7.306-1.774-.28-12.593 7.183-1.676 5.339-13.212-3.763-6.177 8.706-9.102 6.682 4.154 12.584-5.337 1.826-7.515 12.588-.276 2.015 8.614 11.594 4.687 7.459-4.533 9.095 8.708-5.144 8.276 4.48 10.525 9.365 2.286.278 12.583-9.764 2.276-4.166 10.302zm-20.553-10.514c9.027-9.436 8.696-24.398-.74-33.432-9.434-9.023-24.396-8.689-33.426.751-9.028 9.428-8.7 24.398.733 33.419 9.442 9.03 24.407 8.698 33.433-.738" id="path6535" fill="#5cb930"/></g><g id="g6537" transform="translate(1331.383 3919.578)"><path d="M0 0c-6.132 8.202-13.378 19.704-20.36 36.829C-27.483 19.657-33.115 13.79-42.004.472c-5.427-8.06-6.967-14.111-6.967-17.211 0-14.561 12.427-26.363 27.755-26.363 15.333 0 27.759 10.861 27.759 25.427C6.543-11.678 3.555-4.432 0 0" id="path6539" fill="#fff"/></g><g id="g6541" transform="translate(1326.332 3917.7)"><path d="M0 0c-4.648 6.582-10.145 18.318-15.439 32.058-5.4-13.776-9.171-22.789-16.359-32.353-4.115-6.466-5.338-10.644-5.338-13.131 0-11.682 9.425-21.149 21.05-21.149s21.05 8.719 21.05 20.395C4.964-9.367 2.695-3.552 0 0" id="path6543" fill="#5cb930"/></g><g id="g6545" transform="translate(1326.404 3913.142)"><path d="M0 0c-.31-6.726-2.8-12.535-8.974-15.839-8.931-4.784-17.147-2.529-22.129 2.473 1.701-8.794 12.111-16.231 23.914-9.907C.99-18.899 1.921-9.604 0 0" id="path6547" fill="#fff"/></g></g></g></svg>