<svg xmlns="http://www.w3.org/2000/svg" id="svg34068" viewBox="0 0 17.126 16.977" height="64.164" width="64.728"><defs id="defs34062"><clipPath id="clipPath8021"><path id="path8019" d="M0 6925.877h1916.794V0H0z"/></clipPath></defs><g transform="translate(-97.782 -156.224)" id="layer1"><g id="g8015" transform="matrix(.35278 0 0 -.35278 -465.975 504.54)"><g clip-path="url(#clipPath8021)" id="g8017"><g transform="translate(1645.239 963.35)" id="g8023"><path id="path8025" d="M0 0c0-12.655-10.26-22.914-22.915-22.914S-45.83-12.655-45.83 0c0 12.656 10.26 22.915 22.915 22.915S0 12.656 0 0" fill="#fff" fill-rule="evenodd"/></g><g transform="translate(1645.239 963.35)" id="g8027"><path id="path8029" d="M0 0c0-12.655-10.26-22.914-22.915-22.914S-45.83-12.655-45.83 0c0 12.656 10.26 22.915 22.915 22.915S0 12.656 0 0z" fill="none" stroke="#fff" stroke-miterlimit="10"/></g><g transform="translate(1622.324 986.852)" id="g8031"><path id="path8033" d="M0 0c-13.13 0-23.773-10.644-23.773-23.773 0-11.389 8.007-20.906 18.7-23.23v22.342h-10.046L-.656-8.768c.542.596 1.42.596 1.961 0l14.464-15.893H5.722v-22.192c10.366 2.562 18.051 11.922 18.051 23.08C23.773-10.644 13.13 0 0 0" fill="#5cb930"/></g><g transform="translate(1622.324 986.852)" id="g8035"><path id="path8037" d="M0 0c-13.13 0-23.773-10.644-23.773-23.773 0-11.389 8.007-20.906 18.7-23.23v22.342h-10.046L-.656-8.768c.542.596 1.42.596 1.961 0l14.464-15.893H5.722v-22.192c10.366 2.562 18.051 11.922 18.051 23.08C23.773-10.644 13.13 0 0 0z" fill="none" stroke="#fff" stroke-miterlimit="10"/></g></g></g></g></svg>