<svg xmlns="http://www.w3.org/2000/svg" id="Capa_1" width="512" height="512"><g fill="#F29100"><path d="M256 0C114.615 0 0 114.615 0 256s114.615 256 256 256c141.319-.159 255.841-114.681 256-256C512 114.615 397.385 0 256 0zm0 496C123.452 496 16 388.548 16 256S123.452 16 256 16c132.486.15 239.85 107.514 240 240 0 132.548-107.452 240-240 240z"/><path d="M274.409 64.903l19.247-19.247-11.312-11.312-32 32a8 8 0 0 0 0 11.312l32 32 11.312-11.312-17.123-17.123C364.01 91.477 431.898 165.791 432 256h16c-.116-99.777-76.244-181.73-173.591-191.097zM229.656 402.344l-11.312 11.312 17.123 17.123C147.99 420.523 80.102 346.209 80 256H64c.116 99.777 76.244 181.73 173.591 191.097l-19.247 19.247 11.312 11.312 32-32a8 8 0 0 0 0-11.312l-32-32z"/><path d="M160 328h80v-16h-80v-40h64c.221.005.442.005.663 0 8.653-.183 15.52-7.347 15.337-16v-56c.005-.221.005-.442 0-.663-.183-8.653-7.346-15.52-16-15.337h-64a14.654 14.654 0 0 0-.663 0c-8.653.183-15.52 7.346-15.337 16v40h16v-40h64v56h-64a14.654 14.654 0 0 0-.663 0c-8.653.183-15.52 7.346-15.337 16v40c-.005.221-.005.442 0 .663.183 8.653 7.347 15.52 16 15.337zM336 184h-16v72h-40v-72h-16v80a8 8 0 0 0 8 8h48v56h16v-56h24v-16h-24v-72z"/></g></svg>