<svg xmlns="http://www.w3.org/2000/svg" id="Capa_1" viewBox="0 0 480.052 480.052" width="512" height="512"><path d="M435.498 64.829a8 8 0 0 0-7.105.064l-34.48 17.488-26.984-46.352a52.903 52.903 0 0 0-46.92-28H186.665a57.048 57.048 0 0 0-48.664 27.504l-24.8 40.304a8 8 0 0 0 2.52 10.944l88 56a8 8 0 0 0 4.288 1.248 7.87 7.87 0 0 0 1.968-.248 7.998 7.998 0 0 0 5.024-3.864l33.6-60.456 36.8 69.6-33.504 20.104a8.001 8.001 0 0 0-3.704 8.56 8 8 0 0 0 6.912 6.256l119.064 13.536c.3.032.602.048.904.048a8 8 0 0 0 7.2-4.512l56.936-117.536a8 8 0 0 0-3.711-10.688zm-230.361 59.887l-74.184-47.2 20.72-33.664a41.007 41.007 0 0 1 34.992-19.824h32.48l19.824 39.8-33.832 60.888zm165.208 56.264l-89.984-10.232 19.768-11.864a8 8 0 0 0 2.952-10.592L237.377 24.028h82.632a37.28 37.28 0 0 1 33.088 20l30.784 52.904a8 8 0 0 0 10.528 3.096l20.048-10.16-44.112 91.112zM473.049 232.06l-25.856-51.648a8 8 0 0 0-11.2-3.328l-96 56a8 8 0 0 0-2.96 10.8l33.376 60.144h-74.4v-32a8 8 0 0 0-13.92-5.384l-80 88a8 8 0 0 0-.416 10.264l80 104a8 8 0 0 0 14.336-4.88v-24h56a51.202 51.202 0 0 0 46.912-28l56-95.952 16.64-26.88a56.69 56.69 0 0 0 1.488-57.136zm-88.04 172.096a35.64 35.64 0 0 1-33 19.872h-64a8 8 0 0 0-8 8v8.48l-61.6-80.048 61.6-67.744v19.312a8 8 0 0 0 8 8h146.072l-49.072 84.128zm72.912-123.344l-14.4 23.2h-54.808l-33.904-61.016 81.864-47.768 22.2 44.32a40.85 40.85 0 0 1-.952 41.264zM191.273 244.676l-48-104a8 8 0 0 0-7.768-4.648l-128 8a8 8 0 0 0-3.72 14.784l.008.016 39.552 24.528-26.4 52.864a57.601 57.601 0 0 0 .144 55.808l44.52 76.88 24.344 42.168a58.767 58.767 0 0 0 50.056 28.952h32a8 8 0 0 0 8-8v-112a8 8 0 0 0-8-8h-59.768l39.904-69.24 32.992 12.704a8 8 0 0 0 10.136-10.816zm-31.264 83.352v96h-24a42.506 42.506 0 0 1-36.216-20.936l-21.96-38.048 22.656-37.016h59.52zm-12.504-102.632a8 8 0 0 0-9.8 3.472l-69.2 120.064-37.568-64.904a41.598 41.598 0 0 1 .272-40.432l29.752-59.632a8 8 0 0 0-2.944-10.4l-24.472-15.136 97.496-6.072 37.44 81.12-20.976-8.08z" fill="#933EC5"/></svg>