<svg xmlns="http://www.w3.org/2000/svg" id="svg8" viewBox="0 0 135.467 81.839" height="309.312" width="512"><g transform="translate(-6.825 -139.92)" id="layer1"><g transform="matrix(.3016 0 0 .3016 6.825 113.106)" id="g4580"><g id="g4518"><g id="g4516" fill="#933ec5"><path d="M429.926 88.908H19.246C8.617 88.908 0 97.525 0 108.154v232.864c0 10.629 8.617 19.246 19.246 19.246h410.68c10.629 0 19.246-8.617 19.246-19.246V108.154c0-10.629-8.617-19.246-19.246-19.246zm-12.511 239.6H31.757V120.665h385.658z" id="path4504"/><path d="M290.441 272.604a2.997 2.997 0 0 0 2.514 1.361h21.525a3.003 3.003 0 0 0 2.806-1.936c2.646-6.979 4.343-11.426 4.903-12.862 1.429 0 8.04.008 15.128.019h.4c8.146.01 16.8.021 18.871.021.611 2.615 2.126 9.541 2.751 12.396a3 3 0 0 0 2.931 2.36h18.771a3 3 0 0 0 2.93-3.645l-20.414-92.478a3 3 0 0 0-2.93-2.354H342.29c-7.334 0-11.542 2.445-14.069 8.174l-38.011 86.091a3.007 3.007 0 0 0 .231 2.853zm53.759-70.553l1.815 8.512L352.232 239h-22.314z" id="path4506"/><path d="M217.378 269.439c7.083 2.484 16.974 4.029 26.456 4.131h.032c27.188-.006 44.881-12.748 45.075-32.463.104-10.84-6.811-19.038-21.678-25.764-9.101-4.421-14.676-7.357-14.623-11.853 0-4.042 5.098-8.133 14.893-8.134.236-.004.516-.006.79-.006 8.134 0 13.879 1.844 17.492 3.231a3.003 3.003 0 0 0 4.034-2.298l2.428-14.277a3 3 0 0 0-2.044-3.36c-4.464-1.428-11.682-3.13-20.723-3.13-25.626 0-43.623 12.892-43.766 31.339-.162 13.66 12.867 21.281 22.688 25.826 10.073 4.646 13.457 7.619 13.411 11.781-.071 6.372-8.075 9.273-15.483 9.273-10.543 0-16.225-1.59-24.263-4.933a3 3 0 0 0-4.109 2.265l-2.573 15.033a3 3 0 0 0 1.963 3.339z" id="path4508"/><path d="M67.114 181.03c17.185 6.185 31.242 15.999 40.652 28.382a3 3 0 0 0 5.325-2.435l-5.001-23.645a3.69 3.69 0 0 0-.036-.151c-1.798-6.753-7.491-7.757-11.617-7.924l-.117-.002-28.185-.046h-.005a2.999 2.999 0 1 0-1.016 5.821z" id="path4510"/><path d="M171.154 272.859a2.998 2.998 0 0 0 2.293 1.065h20.766a2.999 2.999 0 0 0 2.957-2.496l15.78-92.537a2.998 2.998 0 0 0-2.956-3.504h-20.781a3 3 0 0 0-2.957 2.496L170.49 270.42a3.002 3.002 0 0 0 .664 2.439z" id="path4512"/><path d="M88.185 196.697a2.999 2.999 0 0 0-4.707 3.221l21.008 71.777a3 3 0 0 0 2.879 2.158h.003l24.193-.035a2.998 2.998 0 0 0 2.752-1.814l39.711-92.351a2.999 2.999 0 0 0-2.756-4.185h-.002l-21.845.011a3 3 0 0 0-2.792 1.906l-25.557 65.288-2.749-9.95a2.838 2.838 0 0 0-.137-.388c-4.034-9.363-14.875-24.014-30.001-35.638z" id="path4514"/></g></g></g></g></svg>