<?xml version="1.0" encoding="UTF-8" standalone="no"?>
<svg
   xmlns:dc="http://purl.org/dc/elements/1.1/"
   xmlns:cc="http://creativecommons.org/ns#"
   xmlns:rdf="http://www.w3.org/1999/02/22-rdf-syntax-ns#"
   xmlns:svg="http://www.w3.org/2000/svg"
   xmlns="http://www.w3.org/2000/svg"
   viewBox="0 0 1074.0483 631.367"
   height="262.5"
   width="447.5"
   id="svg10"
   version="1.1">
  <metadata
     id="metadata16">
    <rdf:RDF>
      <cc:Work
         rdf:about="">
        <dc:format>image/svg+xml</dc:format>
        <dc:type
           rdf:resource="http://purl.org/dc/dcmitype/StillImage" />
        <dc:title></dc:title>
      </cc:Work>
    </rdf:RDF>
  </metadata>
  <defs
     id="defs14" />
  <g
     transform="translate(-0.88617705,-0.53110175)"
     id="g3690">
    <path
       id="path3696"
       d="m 1008.8635,631.08301 c -2.5501,-0.35737 -5.4333,-1.30974 -6.4071,-2.11639 -1.4122,-1.16974 -34.12568,-65.47446 -35.67855,-70.13306 -0.32032,-0.96098 -1.10171,-0.94205 -3.58569,0.0868 -5.87731,2.43447 -15.40381,0.78223 -17.79465,-3.08623 -1.75053,-2.83242 -2.13129,-10.182 -1.21821,-23.51446 1.59169,-23.24139 -1.03419,-33.45131 -10.09942,-39.26845 -6.14888,-3.94573 -14.80635,-13.02181 -19.66457,-20.61539 -4.51174,-7.05204 -18.05994,-35.01149 -21.78784,-44.96364 -2.44081,-6.51608 -3.16016,-7.42265 -9.87997,-12.45139 -3.98613,-2.98299 -7.44132,-5.29128 -7.67822,-5.12952 -0.23689,0.16176 -1.21628,-1.23712 -2.17641,-3.10861 -0.96014,-1.87149 -3.90375,-5.85071 -6.54138,-8.84271 -2.63762,-2.992 -3.84121,-4.62391 -2.67464,-3.62646 2.09145,1.78823 2.08789,1.72219 -0.25534,-4.73332 -1.307,-3.60077 -3.12599,-10.71686 -4.04219,-15.81354 -1.83141,-10.18785 -3.8108,-14.91064 -8.47634,-20.22439 l -3.08473,-3.51332 -4.15913,2.84489 c -7.06008,4.82918 -10.15141,6.02147 -17.28003,6.66473 -7.95793,0.7181 -12.37909,2.15037 -12.37909,4.01033 0,1.43215 9.16551,7.30971 16.36512,10.49444 2.50855,1.10965 8.74013,2.90023 13.84794,3.97906 12.91028,2.7268 15.38438,5.68529 12.73436,15.22758 l -1.04143,3.75 -14.20299,-0.006 c -7.81165,-0.003 -15.81489,-0.45334 -17.78498,-1.00061 -2.37698,-0.6603 -5.90923,-3.37848 -10.5,-8.0801 -3.80491,-3.89678 -12.67769,-12.06172 -19.71728,-18.1443 C 781.15919,358.93284 778,355.16619 778,351.04966 778,349.42596 777.35827,349 774.9121,349 c -3.06898,0 -3.08388,0.026 -2.43237,4.25 2.04419,13.25319 5.26726,18.75 10.99413,18.75 1.86777,0 4.55003,0.43878 5.96058,0.97507 3.39093,1.28923 6.6798,6.7511 6.33759,10.52493 l -0.27203,3 h -12.70441 -12.7044 l -4.08547,-3.99188 c -5.10171,-4.98485 -13.84904,-18.05169 -19.85524,-29.65994 -4.38644,-8.47773 -4.59385,-9.26352 -4.90941,-18.59993 -0.4438,-13.1302 0.32694,-14.52786 8.51146,-15.43481 7.18849,-0.79658 15.94215,-4.69737 26.47163,-11.79624 12.28399,-8.28175 13.71417,-12.09165 13.75139,-36.63284 L 790,254.26871 l 3.68545,-7.38435 c 2.97416,-5.9592 5.95558,-9.6424 15.44794,-19.08418 C 823.42365,213.58607 823.837,212.60697 822.13621,197 c -0.62934,-5.775 -2.69933,-20.175 -4.59998,-32 -12.33591,-76.748629 -9.61405,-106.675547 12.34273,-135.70875 7.12247,-9.417954 18.81718,-20.4723932 26.73447,-25.2707679 5.49662,-3.33130504 12.30546,-4.58271961 13.07208,-2.4025555 0.21621,0.6148596 -3.52261,5.5648596 -8.3085,11.0000004 -15.58687,17.701407 -23.91008,32.548619 -28.63223,51.075093 -2.08754,8.190082 -2.24141,10.908375 -2.1967,38.80698 0.0506,31.57003 1.23486,43.87305 6.54554,68 7.28234,33.08444 14.17753,43.93475 43.079,67.78937 17.05748,14.07885 24.17443,21.02091 31.40774,30.63595 8.22207,10.92935 13.57835,21.32564 21.93493,42.57468 7.95706,20.23314 14.83365,33.80675 21.84272,43.11502 6.0077,7.97841 8.97001,10.15044 19.91214,14.60005 6.37138,2.59091 9.73594,4.80439 15.92517,10.47684 8.94018,8.19366 8.01836,7.92389 29.72208,8.69848 l 13.4174,0.47885 3.9435,-3.37544 c 5.1515,-4.40952 8.9719,-5.76258 11.3535,-4.02109 1.5592,1.14014 2.3274,0.87519 5.8633,-2.02224 5.3839,-4.4117 9.2707,-5.88974 11.2243,-4.26835 2.1891,1.81675 1.1843,5.83491 -5.1339,20.53157 -3.072,7.14564 -5.5855,13.48091 -5.5855,14.07837 0,0.59747 1.7474,3.10528 3.8831,5.57291 4.7352,5.47103 7.7515,13.96567 9.2056,25.92534 0.6394,5.25878 2.059,10.97784 3.4853,14.04118 4.7992,10.30753 2.4365,16.14678 -8.5234,21.0653 -4.3776,1.96458 -7.7019,2.71543 -12.1156,2.73654 -9.0359,0.0432 -15.3151,-3.4334 -26.4982,-14.67113 -12.6911,-12.75315 -20.2905,-15.29815 -27.87224,-9.33432 -4.01392,3.15734 -8.25675,12.57903 -10.12119,22.47519 -2.09038,11.09546 -1.53297,40.84553 1.03794,55.39693 1.75405,9.92795 15.98019,54.64493 20.29219,63.78437 2.6001,5.51097 4.529,7.40447 12.531,12.30086 7.4397,4.55233 11.2696,15.27527 6.876,19.25144 -1.64,1.48415 -10.7853,3.86349 -13.567,3.52972 -0.6124,-0.0735 -3.1999,-0.42601 -5.75,-0.78338 z m 13.8865,-4.7133 c 5.0908,-1.36427 1.5339,-9.91563 -5.8926,-14.1668 -10.6064,-6.0714 -11.8716,-8.4366 -23.64453,-44.20291 -10.05452,-30.54564 -12.30917,-43.17683 -12.29668,-68.88946 0.01,-19.93668 2.76374,-33.4628 8.61977,-42.33468 l 2.45819,-3.72413 -2.69142,1.02327 c -1.48029,0.56281 -5.86647,2.41932 -9.74708,4.1256 -9.40184,4.13393 -15.86136,5.7732 -22.80565,5.78753 -3.1625,0.007 -5.75,0.3707 -5.75,0.80926 0,0.43857 2.77857,5.27607 6.17461,10.75 13.8875,22.38474 15.54954,29.44635 13.52213,57.45261 l -1.41163,19.5 18.10745,36.5 18.10744,36.5 4,0.60809 c 5.6814,0.86372 10.6381,0.96159 13.25,0.26162 z m -61.35209,-72.50515 c 2.84757,-1.29744 2.93556,-1.80714 4.57816,-26.52167 0.99392,-14.95441 0.55306,-21.18746 -1.96931,-27.84289 -1.83244,-4.83502 -8.03058,-16.66857 -10.9993,-21 -7.47558,-10.90702 -12.27604,-24.39653 -13.97742,-39.27722 C 937.98385,430.07259 938.34766,428 941,428 c 2.29347,0 2.99417,1.93028 3.02445,8.33179 0.024,5.08017 0.83648,9.8747 3.14265,18.5458 l 1.16427,4.37759 9.08431,-0.47789 c 8.17427,-0.43002 10.33093,-1.00608 21.52826,-5.75035 10.62194,-4.50048 13.63761,-5.34693 20.59643,-5.78108 12.78403,-0.79757 16.49323,0.86157 28.32733,12.67088 5.4638,5.4523 11.7115,10.66934 14.2474,11.89692 5.3769,2.60294 13.1211,2.87586 18.6647,0.65778 3.3758,-1.35075 3.8202,-1.92316 3.8202,-4.92102 0,-1.86586 0.821,-4.91702 1.8245,-6.78036 1.6967,-3.15065 1.7122,-3.60501 0.221,-6.48866 -0.8819,-1.70543 -2.055,-7.07427 -2.6068,-11.93075 -1.3802,-12.14663 -3.5008,-18.20909 -8.5021,-24.30602 -4.8895,-5.96062 -6.532,-10.51633 -6.5476,-18.16065 C 1048.971,390.96515 1048.0061,387 1045.8545,387 c -3.297,0 -8.4768,6.19703 -11.911,14.25 -2.3368,5.47981 -3.8206,7.75 -5.0652,7.75 -3.0198,0 -3.0845,-1.79035 -0.2897,-8.01802 1.4867,-3.31295 2.4736,-6.25309 2.1931,-6.53365 -0.2806,-0.28056 -7.4826,-0.87019 -16.0046,-1.31029 -17.31187,-0.89405 -18.83721,-1.42699 -26.2771,-9.18095 -5.07173,-5.28583 -9.18648,-7.84627 -18.17712,-11.31089 -9.0399,-3.48359 -14.77701,-8.49881 -21.69643,-18.96643 -7.29928,-11.04225 -10.5433,-17.69946 -20.07853,-41.20407 -15.07578,-37.16225 -20.24807,-44.09476 -54.3408,-72.83401 -14.95591,-12.60743 -23.63568,-21.53742 -28.55899,-29.38227 -13.3816,-21.32237 -23.95403,-85.63076 -20.70232,-125.924895 2.32737,-28.840013 10.25053,-48.723189 27.38358,-68.719109 7.20571,-8.4097614 2.41419,-5.366374 -8.21731,5.219312 -18.8592,18.77793 -26.8957,37.294407 -28.68303,66.087059 -1.10874,17.860983 1.44175,42.808913 9.20894,90.078213 3.36713,20.49154 3.71949,34.90726 0.97772,40 -1.03636,1.925 -6.56649,8.02975 -12.28918,13.56611 -6.52246,6.3101 -10.20997,10.60115 -9.8825,11.5 0.28731,0.78864 0.95512,9.63244 1.48402,19.6529 1.58555,30.03963 -0.64681,53.27761 -6.69078,69.64831 -2.12848,5.7652 -3.84156,8.33849 -8.93531,13.42214 -3.46608,3.45921 -6.30196,6.52629 -6.30196,6.81574 0,1.80629 2.96411,4.99005 10.70914,11.50272 10.09348,8.48743 27.52254,24.88128 26.48756,24.91432 -0.38318,0.0122 0.4283,0.90222 1.8033,1.97776 2.21078,1.7293 4.14723,1.9581 16.7388,1.97776 l 14.2388,0.0222 -0.2107,-2.54583 c -0.31191,-3.76877 -2.41243,-5.04661 -11.1887,-6.80663 -12.94175,-2.59538 -30.91642,-12.16263 -32.16004,-17.11759 -1.56657,-6.2417 3.98643,-9.99595 16.50635,-11.15955 5.98273,-0.55604 8.21225,-1.30589 12.90391,-4.33993 8.6714,-5.60772 17.14817,-14.00026 22.64128,-22.41633 4.8761,-7.47074 8.5303,-9.94213 8.5303,-5.76918 0,2.63019 -7.21781,13.44771 -13.17688,19.74854 l -5.07023,5.36103 3.11742,3.55054 c 4.95475,5.64315 7.09443,10.847 9.7604,23.73793 3.99042,19.29515 9.09857,27.91901 22.36081,37.75071 3.85466,2.85758 7.00848,5.68145 7.00848,6.27526 0,0.59381 1.0125,0.15385 2.25,-0.97768 4.73872,-4.33296 17.85308,-8.58821 19.96364,-6.47765 1.99261,1.99261 -0.0888,3.99385 -5.32073,5.11591 -5.80164,1.24423 -11.37053,4.26678 -12.29369,6.67247 -1.39079,3.62436 -0.0572,7.24891 10.39501,28.25164 11.87832,23.86843 11.38711,23.21306 31.21463,41.64634 8.42446,7.83206 9.36284,11.80871 8.9992,38.13664 -0.25373,18.37101 -0.0808,21.34773 1.32143,22.75 1.87478,1.87478 7.2809,2.1125 10.86842,0.47792 z m 83.67879,-111.45345 c -3.9993,-3.36518 -4.2834,-8.00183 -0.5767,-9.41111 6.4931,-2.46869 15.7354,6.36461 11.3,10.8 -2.0838,2.0838 -7.4172,1.39302 -10.7233,-1.38889 z M 825.75,386.33772 c 0.6875,-0.27741 1.8125,-0.27741 2.5,0 0.6875,0.27741 0.125,0.50439 -1.25,0.50439 -1.375,0 -1.9375,-0.22698 -1.25,-0.50439 z m 17.0625,-0.0208 c 0.72187,-0.28887 1.58438,-0.25335 1.91667,0.0789 0.33229,0.33229 -0.25834,0.56864 -1.3125,0.52522 -1.16495,-0.048 -1.4019,-0.28494 -0.60417,-0.60416 z m 218.6685,-3.25704 c 0.9833,-3.09822 -0.6687,-2.49175 -4.604,1.69015 -3.3314,3.54016 -3.5035,4.05777 -3.0757,9.25 l 0.4531,5.5 3.2864,-7.19015 c 1.8076,-3.95458 3.5806,-8.11708 3.9402,-9.25 z M 790.35097,380.47222 C 789.53483,378.3454 786.69273,377 783.01608,377 c -4.62401,0 -8.258,-2.30644 -10.8221,-6.86864 -3.94096,-7.01199 -6.66069,-24.10685 -4.08825,-25.6967 0.60815,-0.37586 4.27646,-0.61821 8.1518,-0.53855 l 7.04607,0.14484 4.2411,-4.42626 c 4.49896,-4.69537 7.48728,-11.36943 10.0939,-22.54346 1.7909,-7.67719 3.03519,-49.58608 1.83625,-61.8463 l -0.75544,-7.72493 -1.83348,4 c -1.52582,3.32879 -1.83788,6.63461 -1.85971,19.70078 -0.0306,18.3524 -1.04382,24.1191 -5.36257,30.52246 -5.63452,8.35421 -27.41722,20.87979 -38.2567,21.99852 l -5.66345,0.58452 0.49366,9.43768 c 0.44222,8.45449 0.88299,10.18352 4.23088,16.59686 5.23373,10.02594 14.06154,23.46453 18.33353,27.90918 l 3.60433,3.75 h 9.26566 c 7.90019,0 9.17927,-0.22515 8.67941,-1.52778 z M 38.75,518.33772 c 0.6875,-0.27741 1.8125,-0.27741 2.5,0 0.6875,0.27741 0.125,0.50439 -1.25,0.50439 -1.375,0 -1.9375,-0.22698 -1.25,-0.50439 z m 22,0 c 0.6875,-0.27741 1.8125,-0.27741 2.5,0 0.6875,0.27741 0.125,0.50439 -1.25,0.50439 -1.375,0 -1.9375,-0.22698 -1.25,-0.50439 z m 104,0 c 0.6875,-0.27741 1.8125,-0.27741 2.5,0 0.6875,0.27741 0.125,0.50439 -1.25,0.50439 -1.375,0 -1.9375,-0.22698 -1.25,-0.50439 z m 12,0 c 0.6875,-0.27741 1.8125,-0.27741 2.5,0 0.6875,0.27741 0.125,0.50439 -1.25,0.50439 -1.375,0 -1.9375,-0.22698 -1.25,-0.50439 z m 194.0625,-0.0208 c 0.72187,-0.28887 1.58438,-0.25335 1.91667,0.0789 0.33229,0.33229 -0.25834,0.56864 -1.3125,0.52522 -1.16495,-0.048 -1.4019,-0.28494 -0.60417,-0.60416 z m 18.9375,0.0208 c 0.6875,-0.27741 1.8125,-0.27741 2.5,0 0.6875,0.27741 0.125,0.50439 -1.25,0.50439 -1.375,0 -1.9375,-0.22698 -1.25,-0.50439 z m 229.0625,-0.0208 c 0.72187,-0.28887 1.58438,-0.25335 1.91667,0.0789 0.33229,0.33229 -0.25834,0.56864 -1.3125,0.52522 -1.16495,-0.048 -1.4019,-0.28494 -0.60417,-0.60416 z m 17.9375,0.0208 c 0.6875,-0.27741 1.8125,-0.27741 2.5,0 0.6875,0.27741 0.125,0.50439 -1.25,0.50439 -1.375,0 -1.9375,-0.22698 -1.25,-0.50439 z m 188.0625,-0.0208 c 0.72187,-0.28887 1.58438,-0.25335 1.91667,0.0789 0.33229,0.33229 -0.25834,0.56864 -1.3125,0.52522 -1.16495,-0.048 -1.4019,-0.28494 -0.60417,-0.60416 z m 19,0 c 0.72187,-0.28887 1.58438,-0.25335 1.91667,0.0789 0.33229,0.33229 -0.25834,0.56864 -1.3125,0.52522 -1.16495,-0.048 -1.4019,-0.28494 -0.60417,-0.60416 z m -548.53233,-2.05316 c 2.6291,-0.20668 6.6791,-0.20418 9,0.006 2.32091,0.20972 0.16983,0.37882 -4.78017,0.37577 -4.95,-0.003 -6.84892,-0.17464 -4.21983,-0.38131 z M 464.75,516.2766 c 1.7875,-0.22182 4.7125,-0.22182 6.5,0 1.7875,0.22183 0.325,0.40333 -3.25,0.40333 -3.575,0 -5.0375,-0.1815 -3.25,-0.40333 z m 283.53017,-0.0129 c 2.6291,-0.20668 6.6791,-0.20418 9,0.006 2.32091,0.20972 0.16983,0.37882 -4.78017,0.37577 -4.95,-0.003 -6.84892,-0.17464 -4.21983,-0.38131 z M 217.46342,467 c 0,-27.225 0.1286,-38.3625 0.28576,-24.75 0.15717,13.6125 0.15717,35.8875 0,49.5 -0.15716,13.6125 -0.28576,2.475 -0.28576,-24.75 z m 258.0163,15 0.0203,-34.5 22.25059,-0.0294 22.25059,-0.0294 -21.98749,0.29846 -21.98748,0.29846 -0.28338,34.23091 -0.28339,34.2309 0.0203,-34.5 z m 286.85649,27 c 0,-4.125 0.17651,-5.8125 0.39226,-3.75 0.21574,2.0625 0.21574,5.4375 0,7.5 -0.21575,2.0625 -0.39226,0.375 -0.39226,-3.75 z M 82,511.62244 c 0,-0.20765 0.7875,-0.99515 1.75,-1.75 1.586056,-1.24387 1.621426,-1.2085 0.377555,0.37756 C 82.821186,511.91575 82,512.44548 82,511.62244 Z m 118.23333,-4.10829 c 3.10703,-3.28525 3.94583,-3.71876 5,-2.58411 1.02745,1.10589 1.01428,1.22 -0.0697,0.60425 -0.84975,-0.48269 -2.6705,0.45831 -5,2.58411 l -3.66359,3.34323 3.73333,-3.94748 z M 660,507.5 c 1.86578,-1.925 3.61733,-3.5 3.89233,-3.5 0.275,0 -1.02655,1.575 -2.89233,3.5 -1.86578,1.925 -3.61733,3.5 -3.89233,3.5 -0.275,0 1.02655,-1.575 2.89233,-3.5 z m 143.40499,1.25 -1.90499,-2.25 2.25,1.90499 c 1.2375,1.04774 2.25,2.06024 2.25,2.25 0,0.80025 -0.80479,0.20945 -2.59501,-1.90499 z M 866.5,509 c 0.99549,-1.1 2.03498,-2 2.30998,-2 0.275,0 -0.31449,0.9 -1.30998,2 -0.99549,1.1 -2.03498,2 -2.30998,2 -0.275,0 0.31449,-0.9 1.30998,-2 z M 13.452948,505.75 9.5,501.5 l 4.25,3.95295 c 2.3375,2.17412 4.25,4.08662 4.25,4.25 0,0.75658 -0.87085,-4.9e-4 -4.547052,-3.95295 z M 273,508.5 c -0.68469,-0.825 -1.01989,-1.5 -0.74489,-1.5 0.275,0 1.0602,0.675 1.74489,1.5 0.68469,0.825 1.01989,1.5 0.74489,1.5 -0.275,0 -1.0602,-0.675 -1.74489,-1.5 z m 74.43709,-1.75 -2.93709,-3.25 3.25,2.93709 c 3.02946,2.73778 3.70965,3.56291 2.93709,3.56291 -0.1721,0 -1.6346,-1.4625 -3.25,-3.25 z m 248.9679,1 -1.90499,-2.25 2.25,1.90499 c 1.2375,1.04774 2.25,2.06024 2.25,2.25 0,0.80025 -0.80479,0.20945 -2.59501,-1.90499 z M 414,508.62244 c 0,-0.20765 0.7875,-0.99515 1.75,-1.75 1.58606,-1.24387 1.62143,-1.2085 0.37756,0.37756 C 414.82119,508.91575 414,509.44548 414,508.62244 Z M 140,504.5 c -0.68469,-0.825 -1.01989,-1.5 -0.74489,-1.5 0.275,0 1.0602,0.675 1.74489,1.5 0.68469,0.825 1.01989,1.5 0.74489,1.5 -0.275,0 -1.0602,-0.675 -1.74489,-1.5 z m 128.40499,-0.75 -1.90499,-2.25 2.25,1.90499 c 2.11444,1.79022 2.70524,2.59501 1.90499,2.59501 -0.18976,0 -1.20226,-1.0125 -2.25,-2.25 z M 799,504.5 c -0.68469,-0.825 -1.01989,-1.5 -0.74489,-1.5 0.275,0 1.0602,0.675 1.74489,1.5 0.68469,0.825 1.01989,1.5 0.74489,1.5 -0.275,0 -1.0602,-0.675 -1.74489,-1.5 z m 71,1.12244 c 0,-0.20765 0.7875,-0.99515 1.75,-1.75 1.58606,-1.24387 1.62143,-1.2085 0.37756,0.37756 C 870.82119,505.91575 870,506.44548 870,505.62244 Z m -698.77643,-1.34933 c 2.04796,-0.21488 5.64796,-0.21785 8,-0.007 2.35204,0.21125 0.67643,0.38706 -3.72357,0.39069 -4.4,0.004 -6.32439,-0.16921 -4.27643,-0.38408 z m 205.52643,-0.005 c 2.3375,-0.21053 6.1625,-0.21053 8.5,0 2.3375,0.21054 0.425,0.3828 -4.25,0.3828 -4.675,0 -6.5875,-0.17226 -4.25,-0.3828 z m 247.47357,0.005 c 2.04796,-0.21488 5.64796,-0.21785 8,-0.007 2.35204,0.21125 0.67643,0.38706 -3.72357,0.39069 -4.4,0.004 -6.32439,-0.16921 -4.27643,-0.38408 z m 206.52643,-0.005 c 2.3375,-0.21053 6.1625,-0.21053 8.5,0 2.3375,0.21054 0.425,0.3828 -4.25,0.3828 -4.675,0 -6.5875,-0.17226 -4.25,-0.3828 z M 641,503 c 0.825,-0.53316 1.95,-0.96937 2.5,-0.96937 0.55,0 0.325,0.43621 -0.5,0.96937 -0.825,0.53316 -1.95,0.96937 -2.5,0.96937 -0.55,0 -0.325,-0.43621 0.5,-0.96937 z m 80,-0.5 c -0.68469,-0.825 -1.01989,-1.5 -0.74489,-1.5 0.275,0 1.0602,0.675 1.74489,1.5 0.68469,0.825 1.01989,1.5 0.74489,1.5 -0.275,0 -1.0602,-0.675 -1.74489,-1.5 z M 360.40499,498.75 358.5,496.5 l 2.25,1.90499 c 1.2375,1.04774 2.25,2.06024 2.25,2.25 0,0.80025 -0.80479,0.20945 -2.59501,-1.90499 z m 60.6753,0.25 C 422.5381,495.93897 423,495.37166 423,496.6422 c 0,0.53655 -0.69982,1.84905 -1.55517,2.91667 -1.46637,1.83031 -1.48719,1.7984 -0.36454,-0.55887 z m 186.3568,-1.25 -2.93709,-3.25 3.25,2.93709 c 1.7875,1.6154 3.25,3.0779 3.25,3.25 0,0.77256 -0.82513,0.0924 -3.56291,-2.93709 z m -454.0321,0 -1.90499,-2.25 2.25,1.90499 c 1.2375,1.04774 2.25,2.06024 2.25,2.25 0,0.80025 -0.80479,0.20945 -2.59501,-1.90499 z M 195.5,498 c 0.99549,-1.1 2.03498,-2 2.30998,-2 0.275,0 -0.31449,0.9 -1.30998,2 -0.99549,1.1 -2.03498,2 -2.30998,2 -0.275,0 0.31449,-0.9 1.30998,-2 z m 145.45416,-0.0856 c -0.61391,-1.1471 -0.92784,-2.274 -0.69762,-2.50422 0.23022,-0.23022 0.93203,0.70832 1.55958,2.08564 1.37807,3.02454 0.70709,3.35038 -0.86196,0.41858 z M 404,497.5 c 1.29175,-1.375 2.57363,-2.5 2.84863,-2.5 0.275,0 -0.55688,1.125 -1.84863,2.5 -1.29175,1.375 -2.57363,2.5 -2.84863,2.5 -0.275,0 0.55688,-1.125 1.84863,-2.5 z m 184.95416,-0.58565 c -0.61391,-1.1471 -0.92784,-2.274 -0.69762,-2.50422 0.23022,-0.23022 0.93203,0.70832 1.55958,2.08564 1.37807,3.02454 0.70709,3.35038 -0.86196,0.41858 z M 734.92431,496.25 732.5,493.5 l 2.75,2.42431 c 1.5125,1.33338 2.75,2.57088 2.75,2.75 0,0.78428 -0.8098,0.14598 -3.07569,-2.42431 z M 812,497.5 c -0.68469,-0.825 -1.01989,-1.5 -0.74489,-1.5 0.275,0 1.0602,0.675 1.74489,1.5 0.68469,0.825 1.01989,1.5 0.74489,1.5 -0.275,0 -1.0602,-0.675 -1.74489,-1.5 z m 45,1.12244 c 0,-0.20765 0.7875,-0.99515 1.75,-1.75 1.58606,-1.24387 1.62143,-1.2085 0.37756,0.37756 C 857.82119,498.91575 857,499.44548 857,498.62244 Z M 24.437091,494.75 21.5,491.5 l 3.25,2.93709 C 27.779455,497.17487 28.459652,498 27.687091,498 c -0.1721,0 -1.6346,-1.4625 -3.25,-3.25 z m 239.186449,1.71134 c -0.96498,-2.51469 -0.68031,-3.16355 0.49853,-1.13634 0.58369,1.00375 0.8506,2.03566 0.59313,2.29313 -0.25747,0.25747 -0.74872,-0.26309 -1.09166,-1.15679 z m 14.33062,-4.54699 c -0.61391,-1.1471 -0.92784,-2.274 -0.69762,-2.50422 0.23022,-0.23022 0.93203,0.70832 1.55958,2.08564 1.37807,3.02454 0.70709,3.35038 -0.86196,0.41858 z m 129.61013,0.79252 c 0.37553,-0.98622 0.93469,-1.54122 1.24258,-1.23333 0.30789,0.30789 6.4e-4,1.11479 -0.68278,1.79313 -0.98762,0.98026 -1.10248,0.8654 -0.5598,-0.5598 z m 195.89459,0.2266 c -0.36253,-0.58659 -0.44468,-1.281 -0.18255,-1.54313 0.26212,-0.26213 0.74306,0.21781 1.06875,1.06653 0.67618,1.76211 0.0998,2.07206 -0.8862,0.4766 z m -249.50472,-2.01912 c -0.61391,-1.1471 -0.92784,-2.274 -0.69762,-2.50422 0.23022,-0.23022 0.93203,0.70832 1.55958,2.08564 1.37807,3.02454 0.70709,3.35038 -0.86196,0.41858 z m -205.33062,-0.45301 c -0.34295,-0.8937 -0.59502,-2.15061 -0.56015,-2.79313 0.0349,-0.64251 0.49453,-0.0904 1.02148,1.22697 0.52695,1.31735 0.77902,2.57426 0.56015,2.79313 -0.21887,0.21887 -0.67854,-0.33327 -1.02148,-1.22697 z M 424.25218,488.5 c -0.0111,-2.2 0.18461,-3.21775 0.4349,-2.26166 0.25029,0.95609 0.25937,2.75609 0.0202,4 -0.23919,1.24391 -0.44398,0.46166 -0.45508,-1.73834 z m 290.90571,0.5 c 0,-1.375 0.22698,-1.9375 0.50439,-1.25 0.27741,0.6875 0.27741,1.8125 0,2.5 -0.27741,0.6875 -0.50439,0.125 -0.50439,-1.25 z M 82.080288,488 C 83.5381,484.93897 84,484.37166 84,485.6422 c 0,0.53655 -0.699825,1.84905 -1.555166,2.91667 -1.466378,1.83031 -1.487191,1.7984 -0.364546,-0.55887 z m 587.998662,0.41667 c 0.048,-1.16495 0.28494,-1.4019 0.60416,-0.60417 0.28887,0.72187 0.25335,1.58438 -0.0789,1.91667 -0.33229,0.33229 -0.56864,-0.25834 -0.52522,-1.3125 z m -650.620069,-0.4832 c -0.362533,-0.58659 -0.444683,-1.281 -0.182555,-1.54313 0.262128,-0.26213 0.743066,0.21781 1.068751,1.06653 0.676184,1.76211 0.09985,2.07206 -0.886196,0.4766 z M 261.45848,446.5 c -2.4e-4,-23.65 0.13037,-33.46794 0.29023,-21.81765 0.15987,11.65029 0.16007,31.00029 4.3e-4,43 -0.15963,11.99971 -0.29043,2.46765 -0.29066,-21.18235 z M 586.232,486 c 0,-1.925 0.2058,-2.7125 0.45733,-1.75 0.25152,0.9625 0.25152,2.5375 0,3.5 -0.25153,0.9625 -0.45733,0.175 -0.45733,-1.75 z m 204.96295,0.5 c 0.0204,-1.65 0.2445,-2.20394 0.49804,-1.23097 0.25354,0.97297 0.23687,2.32297 -0.0371,3 -0.27393,0.67703 -0.48137,-0.11903 -0.46099,-1.76903 z m 71.96294,0.5 c 0,-1.375 0.22698,-1.9375 0.50439,-1.25 0.27741,0.6875 0.27741,1.8125 0,2.5 -0.27741,0.6875 -0.50439,0.125 -0.50439,-1.25 z m 15.15198,-3.5 c 0.006,-3.3 0.1923,-4.52944 0.41486,-2.73209 0.22256,1.79735 0.21797,4.49735 -0.0102,6 -0.22818,1.50265 -0.41027,0.0321 -0.40466,-3.26791 z M 730.15789,486 c 0,-1.375 0.22698,-1.9375 0.50439,-1.25 0.27741,0.6875 0.27741,1.8125 0,2.5 -0.27741,0.6875 -0.50439,0.125 -0.50439,-1.25 z m -597.83782,-5 c 0,-3.575 0.1815,-5.0375 0.40333,-3.25 0.22182,1.7875 0.22182,4.7125 0,6.5 -0.22183,1.7875 -0.40333,0.325 -0.40333,-3.25 z m 204.9898,0.5 c 0.006,-3.3 0.1923,-4.52944 0.41486,-2.73209 0.22256,1.79735 0.21797,4.49735 -0.0102,6 -0.22818,1.50265 -0.41027,0.0321 -0.40466,-3.26791 z M 601.46374,470 601.5,453.5 l 34,-0.0197 34,-0.0197 -33.72588,0.28279 -33.72588,0.28279 -0.31038,16.2369 -0.31039,16.2369 0.0363,-16.5 z m 204.5237,10.79562 c -0.26809,-3.68741 -0.12553,-6.3405 0.31681,-5.89575 0.44234,0.44475 0.66169,3.46172 0.48744,6.70438 L 806.47488,487.5 Z M 202.40479,470.5 c 0.001,-8.8 0.15425,-12.26613 0.33996,-7.70252 0.18572,4.56362 0.18468,11.76362 -0.002,16 -0.18698,4.23639 -0.33893,0.50252 -0.33766,-8.29748 z m 74.0528,-26 c 2.5e-4,-23.1 0.13143,-32.40721 0.29152,-20.68268 0.16008,11.72452 0.15988,30.62452 -4.5e-4,42 -0.16034,11.37547 -0.29131,1.78268 -0.29107,-21.31732 z m 75.85228,35 c 0.006,-3.3 0.1923,-4.52944 0.41486,-2.73209 0.22256,1.79735 0.21797,4.49735 -0.0102,6 -0.22818,1.50265 -0.41027,0.0321 -0.40466,-3.26791 z m 318.66546,1.29649 c -0.26529,-2.58693 -0.11257,-4.33373 0.33938,-3.88178 0.45195,0.45195 0.66901,2.56853 0.48235,4.70351 L 671.45768,485.5 Z M 147.29966,479 c 0,-3.025 0.18747,-4.2625 0.41659,-2.75 0.22913,1.5125 0.22913,3.9875 0,5.5 -0.22912,1.5125 -0.41659,0.275 -0.41659,-2.75 z m 276.98635,0.5 c 0.008,-2.75 0.20172,-3.75631 0.43157,-2.23625 0.22986,1.52006 0.22371,3.77006 -0.0136,5 -0.23736,1.22994 -0.42542,-0.0138 -0.41792,-2.76375 z m 438.87188,2.5 c 0,-1.375 0.22698,-1.9375 0.50439,-1.25 0.27741,0.6875 0.27741,1.8125 0,2.5 -0.27741,0.6875 -0.50439,0.125 -0.50439,-1.25 z M 1.1578947,481 c 0,-1.375 0.2269737,-1.9375 0.504386,-1.25 0.2774123,0.6875 0.2774123,1.8125 0,2.5 -0.2774123,0.6875 -0.504386,0.125 -0.504386,-1.25 z m 16.0000003,0 c 0,-1.375 0.226973,-1.9375 0.504386,-1.25 0.277412,0.6875 0.277412,1.8125 0,2.5 -0.277413,0.6875 -0.504386,0.125 -0.504386,-1.25 z m 391.921055,-0.58333 c 0.048,-1.16495 0.28494,-1.4019 0.60416,-0.60417 0.28887,0.72187 0.25335,1.58438 -0.0789,1.91667 -0.33229,0.33229 -0.56864,-0.25834 -0.52522,-1.3125 z M 85.32814,473.5 c -0.0044,-3.85 0.17268,-5.54754 0.393592,-3.7723 0.220912,1.77523 0.224542,4.92523 0.0081,7 -0.216475,2.07476 -0.397221,0.6223 -0.401658,-3.2277 z m 15.99193,0.5 c 0,-3.575 0.1815,-5.0375 0.40333,-3.25 0.22182,1.7875 0.22182,4.7125 0,6.5 -0.22183,1.7875 -0.40333,0.325 -0.40333,-3.25 z m 759.82419,1.25 c -1.0912,-2.55004 -1.06651,-2.60886 0.33949,-0.80887 0.83394,1.06762 1.51625,2.30512 1.51625,2.75 0,1.51991 -0.67833,0.81036 -1.85574,-1.94113 z m -520.41329,0.0941 c 0.67703,-0.27392 2.02703,-0.29059 3,-0.0371 0.97297,0.25354 0.41903,0.47766 -1.23097,0.49804 -1.65,0.0204 -2.44606,-0.18706 -1.76903,-0.46099 z m 324,0 c 0.67703,-0.27392 2.02703,-0.29059 3,-0.0371 0.97297,0.25354 0.41903,0.47766 -1.23097,0.49804 -1.65,0.0204 -2.44606,-0.18706 -1.76903,-0.46099 z M 794.25,475.31067 c 0.9625,-0.25152 2.5375,-0.25152 3.5,0 0.9625,0.25153 0.175,0.45733 -1.75,0.45733 -1.925,0 -2.7125,-0.2058 -1.75,-0.45733 z m -134.4375,-0.99378 c 0.72187,-0.28887 1.58438,-0.25335 1.91667,0.0789 0.33229,0.33229 -0.25834,0.56864 -1.3125,0.52522 -1.16495,-0.048 -1.4019,-0.28494 -0.60417,-0.60416 z M 403.92431,470.25 401.5,467.5 l 2.75,2.42431 c 2.57029,2.26589 3.20859,3.07569 2.42431,3.07569 -0.17912,0 -1.41662,-1.2375 -2.75,-2.75 z M 148.0856,471 c -0.0302,-0.825 0.38124,-2.175 0.9144,-3 1.18132,-1.82797 1.18132,-0.24909 0,2.5 -0.56668,1.31874 -0.87815,1.48906 -0.9144,0.5 z M 96.75,467.33772 c 0.6875,-0.27741 1.8125,-0.27741 2.5,0 0.6875,0.27741 0.125,0.50439 -1.25,0.50439 -1.375,0 -1.9375,-0.22698 -1.25,-0.50439 z M 396,465 c -0.90129,-0.58246 -1.02463,-0.97549 -0.30902,-0.98469 0.65504,-0.008 1.4691,0.43469 1.80902,0.98469 0.7673,1.24153 0.42112,1.24153 -1.5,0 z m 476,-1.5 c -0.68469,-0.825 -1.01989,-1.5 -0.74489,-1.5 0.275,0 1.0602,0.675 1.74489,1.5 0.68469,0.825 1.01989,1.5 0.74489,1.5 -0.275,0 -1.0602,-0.675 -1.74489,-1.5 z m -736,-0.44098 c 0,-0.51754 0.44485,-1.21592 0.98855,-1.55194 0.56686,-0.35034 0.7345,0.0511 0.39301,0.94098 C 136.71677,464.18048 136,464.49745 136,463.05902 Z M 153.5,461 c 0.99549,-1.1 2.03498,-2 2.30998,-2 0.275,0 -0.31449,0.9 -1.30998,2 -0.99549,1.1 -2.03498,2 -2.30998,2 -0.275,0 0.31449,-0.9 1.30998,-2 z m 235.5,1 c -0.825,-0.53316 -1.05,-0.96937 -0.5,-0.96937 0.55,0 1.675,0.43621 2.5,0.96937 0.825,0.53316 1.05,0.96937 0.5,0.96937 -0.55,0 -1.675,-0.43621 -2.5,-0.96937 z m 26.40499,-2.25 -1.90499,-2.25 2.25,1.90499 c 2.11444,1.79022 2.70524,2.59501 1.90499,2.59501 -0.18976,0 -1.20226,-1.0125 -2.25,-2.25 z m 419.40751,-0.43311 c 0.72187,-0.28887 1.58438,-0.25335 1.91667,0.0789 0.33229,0.33229 -0.25834,0.56864 -1.3125,0.52522 -1.16495,-0.048 -1.4019,-0.28494 -0.60417,-0.60416 z M 143,453.5 c 1.29175,-1.375 2.57363,-2.5 2.84863,-2.5 0.275,0 -0.55688,1.125 -1.84863,2.5 -1.29175,1.375 -2.57363,2.5 -2.84863,2.5 -0.275,0 0.55688,-1.125 1.84863,-2.5 z m 32.7009,0.75681 c 4.51049,-0.18486 12.16049,-0.1858 17,-0.002 4.8395,0.1837 1.1491,0.33495 -8.2009,0.3361 -9.35,10e-4 -13.3096,-0.14916 -8.7991,-0.33401 z M 671.40918,436.5 c 10e-4,-9.35 0.1524,-13.0404 0.3361,-8.2009 0.18371,4.83951 0.18277,12.48951 -0.002,17 -0.18485,4.5105 -0.33516,0.5509 -0.33401,-8.7991 z m 130.53699,7.75 -3.44617,-3.75 3.75,3.44617 c 3.49042,3.20761 4.20979,4.05383 3.44617,4.05383 -0.16711,0 -1.85461,-1.6875 -3.75,-3.75 z m -454.02186,0 -2.42431,-2.75 2.75,2.42431 c 2.57029,2.26589 3.20859,3.07569 2.42431,3.07569 -0.17912,0 -1.41662,-1.2375 -2.75,-2.75 z M 161.8125,443.31689 c 0.72187,-0.28887 1.58437,-0.25335 1.91667,0.0789 0.33229,0.33229 -0.25834,0.56864 -1.3125,0.52522 -1.16495,-0.048 -1.4019,-0.28494 -0.60417,-0.60416 z M 534,443.60699 c 0,-0.21616 0.69837,-0.661 1.55194,-0.98855 0.88992,-0.34149 1.29132,-0.17385 0.94098,0.39301 C 535.90566,443.96166 534,444.4169 534,443.60699 Z m -350.78155,-1.34401 18.71846,-0.30688 0.33345,-11.72805 0.33346,-11.72805 -0.0519,12 -0.0519,12 -19,0.0349 -19,0.0349 18.71845,-0.30689 z M 601.38536,430 c 0,-6.875 0.15977,-9.6875 0.35504,-6.25 0.19527,3.4375 0.19527,9.0625 0,12.5 -0.19527,3.4375 -0.35504,0.625 -0.35504,-6.25 z m 221.12172,10.01145 c -0.35034,-0.56686 0.0511,-0.7345 0.94098,-0.39301 1.73242,0.66479 2.04939,1.38156 0.61096,1.38156 -0.51754,0 -1.21592,-0.44485 -1.55194,-0.98855 z M 547,434.5 c 2.42903,-2.475 4.64142,-4.5 4.91642,-4.5 0.275,0 -1.48739,2.025 -3.91642,4.5 -2.42903,2.475 -4.64142,4.5 -4.91642,4.5 -0.275,0 1.48739,-2.025 3.91642,-4.5 z m 266.40499,-0.75 -1.90499,-2.25 2.25,1.90499 c 2.11444,1.79022 2.70524,2.59501 1.90499,2.59501 -0.18976,0 -1.20226,-1.0125 -2.25,-2.25 z m -325.59957,-1.49703 c 6.21799,-0.17573 16.11799,-0.17511 22,10e-4 5.88202,0.17649 0.79458,0.32027 -11.30542,0.31951 -12.1,-7.5e-4 -16.91256,-0.14515 -10.69458,-0.32089 z m 306.27353,-1.8363 c 0.048,-1.16495 0.28494,-1.4019 0.60416,-0.60417 0.28887,0.72187 0.25335,1.58438 -0.0789,1.91667 -0.33229,0.33229 -0.56864,-0.25834 -0.52522,-1.3125 z M 475.48236,391.75021 475.5,352.5 l 21.75061,-0.0299 21.75062,-0.03 -21.48903,0.29942 -21.48902,0.29942 -0.27923,38.98074 -0.27922,38.98074 0.0176,-39.25021 z M 340.15789,428 c 0,-1.375 0.22698,-1.9375 0.50439,-1.25 0.27741,0.6875 0.27741,1.8125 0,2.5 -0.27741,0.6875 -0.50439,0.125 -0.50439,-1.25 z m -198.42692,-1.65594 c 0.67703,-0.27392 2.02703,-0.29059 3,-0.0371 0.97297,0.25354 0.41903,0.47766 -1.23097,0.49804 -1.65,0.0204 -2.44606,-0.18706 -1.76903,-0.46099 z m 266.66719,-0.74886 c -0.29649,-0.77265 -0.35439,-2.91015 -0.12866,-4.75 0.37762,-3.07783 0.42322,-3.01217 0.57046,0.82147 0.088,2.29166 0.72254,4.39364 1.41004,4.67105 0.97906,0.39506 0.97226,0.5215 -0.0314,0.58333 -0.70477,0.0434 -1.52397,-0.55321 -1.82046,-1.32585 z M 533,426.87418 c 0,-0.275 1.35,-1.79338 3,-3.37418 1.65,-1.5808 3,-2.64918 3,-2.37418 0,0.275 -1.35,1.79338 -3,3.37418 -1.65,1.5808 -3,2.64918 -3,2.37418 z M 793.30987,421.5 c 0.006,-3.3 0.1923,-4.52944 0.41486,-2.73209 0.22256,1.79735 0.21797,4.49735 -0.0102,6 -0.22818,1.50265 -0.41027,0.0321 -0.40466,-3.26791 z m 74.50263,3.81689 c 0.72187,-0.28887 1.58438,-0.25335 1.91667,0.0789 0.33229,0.33229 -0.25834,0.56864 -1.3125,0.52522 -1.16495,-0.048 -1.4019,-0.28494 -0.60417,-0.60416 z M 339.25218,421.5 c -0.0111,-2.2 0.18461,-3.21775 0.4349,-2.26166 0.25029,0.95609 0.25937,2.75609 0.0202,4 C 339.46809,424.48225 339.2633,423.7 339.2522,421.5 Z M 421,424.60699 c 0,-0.21616 0.69837,-0.661 1.55194,-0.98855 0.88992,-0.34149 1.29132,-0.17385 0.94098,0.39301 C 422.90566,424.96166 421,425.4169 421,424.60699 Z M 862.15789,423 c 0,-1.375 0.22698,-1.9375 0.50439,-1.25 0.27741,0.6875 0.27741,1.8125 0,2.5 -0.27741,0.6875 -0.50439,0.125 -0.50439,-1.25 z m 13.26204,1.33653 c 0.80252,-0.25294 1.65366,-1.5627 1.89141,-2.91058 0.37812,-2.14359 0.41702,-2.10561 0.31047,0.30313 -0.0821,1.85557 -0.69902,2.80495 -1.89141,2.91058 -1.12225,0.0994 -1.23582,-0.0115 -0.31047,-0.30313 z m -742.34098,-1.91986 c 0.048,-1.16495 0.28494,-1.4019 0.60416,-0.60417 0.28887,0.72187 0.25335,1.58438 -0.0789,1.91667 -0.3323,0.33229 -0.56864,-0.25834 -0.52522,-1.3125 z M 808.19495,420.5 c 0.0204,-1.65 0.2445,-2.20394 0.49804,-1.23097 0.25354,0.97297 0.23687,2.32297 -0.0371,3 -0.27393,0.67703 -0.48137,-0.11903 -0.46099,-1.76903 z M 423.15789,420 c 0,-1.375 0.22698,-1.9375 0.50439,-1.25 0.27741,0.6875 0.27741,1.8125 0,2.5 -0.27741,0.6875 -0.50439,0.125 -0.50439,-1.25 z M 586.232,419 c 0,-1.925 0.2058,-2.7125 0.45733,-1.75 0.25152,0.9625 0.25152,2.5375 0,3.5 -0.25153,0.9625 -0.45733,0.175 -0.45733,-1.75 z m -452.07411,-3 c 0,-1.375 0.22698,-1.9375 0.50439,-1.25 0.27741,0.6875 0.27741,1.8125 0,2.5 -0.27741,0.6875 -0.50439,0.125 -0.50439,-1.25 z m 535.92106,0.41667 c 0.048,-1.16495 0.28494,-1.4019 0.60416,-0.60417 0.28887,0.72187 0.25335,1.58438 -0.0789,1.91667 -0.33229,0.33229 -0.56864,-0.25834 -0.52522,-1.3125 z m 206,-1 c 0.048,-1.16495 0.28494,-1.4019 0.60416,-0.60417 0.28887,0.72187 0.25335,1.58438 -0.0789,1.91667 -0.33229,0.33229 -0.56864,-0.25834 -0.52522,-1.3125 z m -660,-1 c 0.048,-1.16495 0.28494,-1.4019 0.60416,-0.60417 0.28887,0.72187 0.25335,1.58438 -0.0789,1.91667 -0.3323,0.33229 -0.56864,-0.25834 -0.52522,-1.3125 z m 124,0 c 0.048,-1.16495 0.28494,-1.4019 0.60416,-0.60417 0.28887,0.72187 0.25335,1.58438 -0.0789,1.91667 -0.33229,0.33229 -0.56864,-0.25834 -0.52522,-1.3125 z m 519.48534,-1.12354 c -0.54268,-1.4252 -0.42782,-1.54006 0.5598,-0.5598 0.68342,0.67834 0.99067,1.48524 0.68278,1.79313 -0.30789,0.30789 -0.86705,-0.24711 -1.24258,-1.23333 z M 603,413.05902 c 0,-0.51754 0.44485,-1.21592 0.98855,-1.55194 0.56686,-0.35034 0.7345,0.0511 0.39301,0.94098 C 603.71677,414.18048 603,414.49745 603,413.05902 Z m 191.07895,-0.64235 c 0.048,-1.16495 0.28494,-1.4019 0.60416,-0.60417 0.28887,0.72187 0.25335,1.58438 -0.0789,1.91667 -0.33229,0.33229 -0.56864,-0.25834 -0.52522,-1.3125 z m -235,-1 c 0.048,-1.16495 0.28494,-1.4019 0.60416,-0.60417 0.28887,0.72187 0.25335,1.58438 -0.0789,1.91667 -0.33229,0.33229 -0.56864,-0.25834 -0.52522,-1.3125 z M 810,412.05902 c 0,-0.51754 0.44485,-1.21592 0.98855,-1.55194 0.56686,-0.35034 0.7345,0.0511 0.39301,0.94098 C 810.71677,413.18048 810,413.49745 810,412.05902 Z m -266.92105,-1.64235 c 0.048,-1.16495 0.28494,-1.4019 0.60416,-0.60417 0.28887,0.72187 0.25335,1.58438 -0.0789,1.91667 -0.33229,0.33229 -0.56864,-0.25834 -0.52522,-1.3125 z M 401.92431,407.25 399.5,404.5 l 2.75,2.42431 c 2.57029,2.26589 3.20859,3.07569 2.42431,3.07569 -0.17912,0 -1.41662,-1.2375 -2.75,-2.75 z M 605,409.87418 c 0,-0.275 1.35,-1.79338 3,-3.37418 1.65,-1.5808 3,-2.64918 3,-2.37418 0,0.275 -1.35,1.79338 -3,3.37418 -1.65,1.5808 -3,2.64918 -3,2.37418 z M 195.40499,406.75 193.5,404.5 l 2.25,1.90499 c 1.2375,1.04774 2.25,2.06024 2.25,2.25 0,0.80025 -0.80479,0.20945 -2.59501,-1.90499 z M 589,408.05902 c 0,-0.51754 0.44485,-1.21592 0.98855,-1.55194 0.56686,-0.35034 0.7345,0.0511 0.39301,0.94098 C 589.71677,409.18048 589,409.49745 589,408.05902 Z M 814,406.5 c 1.29175,-1.375 2.57363,-2.5 2.84863,-2.5 0.275,0 -0.55688,1.125 -1.84863,2.5 -1.29175,1.375 -2.57363,2.5 -2.84863,2.5 -0.275,0 0.55688,-1.125 1.84863,-2.5 z m -677,0.55902 c 0,-0.51754 0.44485,-1.21592 0.98855,-1.55194 0.56686,-0.35034 0.7345,0.0511 0.39301,0.94098 C 137.71677,408.18048 137,408.49745 137,407.05902 Z m 222,0.56342 c 0,-0.20765 0.7875,-0.99515 1.75,-1.75 1.58606,-1.24387 1.62143,-1.2085 0.37756,0.37756 C 359.82119,407.91575 359,408.44548 359,407.62244 Z M 560.40479,392.5 c 10e-4,-8.8 0.15425,-12.26613 0.33996,-7.70252 0.18572,4.56362 0.18468,11.76362 -0.002,16 -0.18698,4.23639 -0.33893,0.50252 -0.33766,-8.29748 z m -16.00485,0 c 10e-4,-8.25 0.15629,-11.49193 0.34419,-7.20429 0.1879,4.28763 0.18676,11.03763 -0.003,15 -0.1893,3.96236 -0.34304,0.45429 -0.34164,-7.79571 z M 162,402 c 0.825,-0.53316 1.95,-0.96937 2.5,-0.96937 0.55,0 0.325,0.43621 -0.5,0.96937 -0.825,0.53316 -1.95,0.96937 -2.5,0.96937 -0.55,0 -0.325,-0.43621 0.5,-0.96937 z m 254,-0.5 c -0.68469,-0.825 -1.01989,-1.5 -0.74489,-1.5 0.275,0 1.0602,0.675 1.74489,1.5 0.68469,0.825 1.01989,1.5 0.74489,1.5 -0.275,0 -1.0602,-0.675 -1.74489,-1.5 z M 762.33621,396 c 0,-4.125 0.17651,-5.8125 0.39226,-3.75 0.21574,2.0625 0.21574,5.4375 0,7.5 -0.21575,2.0625 -0.39226,0.375 -0.39226,-3.75 z M 821,402 c 0.825,-0.53316 1.95,-0.96937 2.5,-0.96937 0.55,0 0.325,0.43621 -0.5,0.96937 -0.825,0.53316 -1.95,0.96937 -2.5,0.96937 -0.55,0 -0.325,-0.43621 0.5,-0.96937 z m 26,0 c -0.825,-0.53316 -1.05,-0.96937 -0.5,-0.96937 0.55,0 1.675,0.43621 2.5,0.96937 0.825,0.53316 1.05,0.96937 0.5,0.96937 -0.55,0 -1.675,-0.43621 -2.5,-0.96937 z m -638,-1.5 c -0.68469,-0.825 -1.01989,-1.5 -0.74489,-1.5 0.275,0 1.0602,0.675 1.74489,1.5 0.68469,0.825 1.01989,1.5 0.74489,1.5 -0.275,0 -1.0602,-0.675 -1.74489,-1.5 z M 144.5,397 c 2.14824,-2.2 4.1309,-4 4.4059,-4 0.275,0 -1.25766,1.8 -3.4059,4 -2.14824,2.2 -4.1309,4 -4.4059,4 -0.275,0 1.25766,-1.8 3.4059,-4 z m 27.75,3.27153 c 2.0625,-0.21574 5.4375,-0.21574 7.5,0 2.0625,0.21575 0.375,0.39226 -3.75,0.39226 -4.125,0 -5.8125,-0.17651 -3.75,-0.39226 z M 349.5,397 c 2.14824,-2.2 4.1309,-4 4.4059,-4 0.275,0 -1.25766,1.8 -3.4059,4 -2.14824,2.2 -4.1309,4 -4.4059,4 -0.275,0 1.25766,-1.8 3.4059,-4 z m 28.75,3.27153 c 2.0625,-0.21574 5.4375,-0.21574 7.5,0 2.0625,0.21575 0.375,0.39226 -3.75,0.39226 -4.125,0 -5.8125,-0.17651 -3.75,-0.39226 z m 247,0 c 2.0625,-0.21574 5.4375,-0.21574 7.5,0 2.0625,0.21575 0.375,0.39226 -3.75,0.39226 -4.125,0 -5.8125,-0.17651 -3.75,-0.39226 z M 659.94617,397.25 656.5,393.5 l 3.75,3.44617 c 3.49042,3.20761 4.20979,4.05383 3.44617,4.05383 -0.16711,0 -1.85461,-1.6875 -3.75,-3.75 z m 31.3637,-1.75 c 0.006,-3.3 0.1923,-4.52944 0.41486,-2.73209 0.22256,1.79735 0.21797,4.49735 -0.0102,6 -0.22818,1.50265 -0.41027,0.0321 -0.40466,-3.26791 z M 831.25,400.27153 c 2.0625,-0.21574 5.4375,-0.21574 7.5,0 2.0625,0.21575 0.375,0.39226 -3.75,0.39226 -4.125,0 -5.8125,-0.17651 -3.75,-0.39226 z M 596,397.62244 c 0,-0.20765 0.7875,-0.99515 1.75,-1.75 1.58606,-1.24387 1.62143,-1.2085 0.37756,0.37756 C 596.82119,397.91575 596,398.44548 596,397.62244 Z m 4,-3 c 0,-0.20765 0.7875,-0.99515 1.75,-1.75 1.58606,-1.24387 1.62143,-1.2085 0.37756,0.37756 C 600.82119,394.91575 600,395.44548 600,394.62244 Z M 85.417143,387.64467 c -0.286049,-0.74543 -0.358631,-4.23293 -0.161295,-7.75 l 0.358793,-6.39467 0.192679,7.17668 c 0.158266,5.89486 0.505244,7.25835 1.94268,7.63399 1.640089,0.4286 1.638118,0.46461 -0.03139,0.57333 -0.979761,0.0638 -2.015424,-0.4939 -2.301472,-1.23933 z m 164.806987,0.62755 10.72414,-0.33936 0.27586,-15.20382 c 0.22984,-12.66681 0.52617,-15.22199 1.77587,-15.31272 0.825,-0.0599 0.94905,0.0777 0.27568,0.30577 -0.87704,0.29705 -1.30252,4.72099 -1.5,15.59629 L 261.5,388.5 l -11,0.0558 -11,0.0558 10.72413,-0.33936 z m 26.21732,-0.56421 c -0.27268,-0.71059 -0.36943,-8.24809 -0.215,-16.75 l 0.28079,-15.45801 0.49638,16.75133 c 0.27301,9.21324 0.36976,16.75074 0.215,16.75 -0.15477,-7.3e-4 -0.50449,-0.58272 -0.77717,-1.29332 z m 9.30855,0.54948 c 3.9875,-0.18981 10.5125,-0.18981 14.5,0 3.9875,0.18982 0.725,0.34512 -7.25,0.34512 -7.975,0 -11.2375,-0.1553 -7.25,-0.34512 z M 364,388 c 0.825,-0.53316 1.95,-0.96937 2.5,-0.96937 0.55,0 0.325,0.43621 -0.5,0.96937 -0.825,0.53316 -1.95,0.96937 -2.5,0.96937 -0.55,0 -0.325,-0.43621 0.5,-0.96937 z m 247,0 c 0.825,-0.53316 1.95,-0.96937 2.5,-0.96937 0.55,0 0.325,0.43621 -0.5,0.96937 -0.825,0.53316 -1.95,0.96937 -2.5,0.96937 -0.55,0 -0.325,-0.43621 0.5,-0.96937 z m 87.25,0.26496 c 2.6125,-0.206 6.8875,-0.206 9.5,0 2.6125,0.206 0.475,0.37454 -4.75,0.37454 -5.225,0 -7.3625,-0.16854 -4.75,-0.37454 z m 41.5,-0.007 c 3.9875,-0.18981 10.5125,-0.18981 14.5,0 3.9875,0.18982 0.725,0.34512 -7.25,0.34512 -7.975,0 -11.2375,-0.1553 -7.25,-0.34512 z m -648.9375,-0.9406 c 0.721875,-0.28887 1.584375,-0.25335 1.916667,0.0789 0.332291,0.33229 -0.258334,0.56864 -1.3125,0.52522 -1.164943,-0.048 -1.4019,-0.28494 -0.604167,-0.60416 z m 8,-1 c 0.721875,-0.28887 1.58437,-0.25335 1.91667,0.0789 0.33229,0.33229 -0.25834,0.56864 -1.312503,0.52522 -1.164943,-0.048 -1.4019,-0.28494 -0.604167,-0.60416 z m 68,0 c 0.72187,-0.28887 1.58437,-0.25335 1.91667,0.0789 0.33229,0.33229 -0.25834,0.56864 -1.3125,0.52522 -1.16495,-0.048 -1.4019,-0.28494 -0.60417,-0.60416 z m 15.9375,0.0208 c 0.6875,-0.27741 1.8125,-0.27741 2.5,0 0.6875,0.27741 0.125,0.50439 -1.25,0.50439 -1.375,0 -1.9375,-0.22698 -1.25,-0.50439 z m 189,0 c 0.6875,-0.27741 1.8125,-0.27741 2.5,0 0.6875,0.27741 0.125,0.50439 -1.25,0.50439 -1.375,0 -1.9375,-0.22698 -1.25,-0.50439 z m 18.0625,-0.0208 c 0.72187,-0.28887 1.58438,-0.25335 1.91667,0.0789 0.33229,0.33229 -0.25834,0.56864 -1.3125,0.52522 -1.16495,-0.048 -1.4019,-0.28494 -0.60417,-0.60416 z m 228.9375,0.0208 c 0.6875,-0.27741 1.8125,-0.27741 2.5,0 0.6875,0.27741 0.125,0.50439 -1.25,0.50439 -1.375,0 -1.9375,-0.22698 -1.25,-0.50439 z m 18.0625,-0.0208 c 0.72187,-0.28887 1.58438,-0.25335 1.91667,0.0789 0.33229,0.33229 -0.25834,0.56864 -1.3125,0.52522 -1.16495,-0.048 -1.4019,-0.28494 -0.60417,-0.60416 z M 101.32007,379 c 0,-3.575 0.1815,-5.0375 0.40333,-3.25 0.22182,1.7875 0.22182,4.7125 0,6.5 -0.22183,1.7875 -0.40333,0.325 -0.40333,-3.25 z m 441.75888,-4.58333 c 0.048,-1.16495 0.28494,-1.4019 0.60416,-0.60417 0.28887,0.72187 0.25335,1.58438 -0.0789,1.91667 -0.33229,0.33229 -0.56864,-0.25834 -0.52522,-1.3125 z M 17.157895,373 c 0,-1.375 0.226973,-1.9375 0.504386,-1.25 0.277412,0.6875 0.277412,1.8125 0,2.5 -0.277413,0.6875 -0.504386,0.125 -0.504386,-1.25 z m 541.921055,0.41667 c 0.048,-1.16495 0.28494,-1.4019 0.60416,-0.60417 0.28887,0.72187 0.25335,1.58438 -0.0789,1.91667 -0.33229,0.33229 -0.56864,-0.25834 -0.52522,-1.3125 z m -558.0000026,-1 c 0.047984,-1.16495 0.2849403,-1.4019 0.6041666,-0.60417 0.2888706,0.72187 0.2533443,1.58438 -0.078947,1.91667 -0.3322917,0.33229 -0.5686404,-0.25834 -0.5252196,-1.3125 z M 82.144264,366.25 c -1.091201,-2.55004 -1.066517,-2.60886 0.339485,-0.80887 0.833938,1.06762 1.516251,2.30512 1.516251,2.75 0,1.51991 -0.678332,0.81036 -1.855736,-1.94113 z M 22,361.87418 c 0,-0.275 1.35,-1.79338 3,-3.37418 1.65,-1.5808 3,-2.64918 3,-2.37418 0,0.275 -1.35,1.79338 -3,3.37418 -1.65,1.5808 -3,2.64918 -3,2.37418 z M 535,360.5 c -0.68469,-0.825 -1.01989,-1.5 -0.74489,-1.5 0.275,0 1.0602,0.675 1.74489,1.5 0.68469,0.825 1.01989,1.5 0.74489,1.5 -0.275,0 -1.0602,-0.675 -1.74489,-1.5 z m 180.73333,-2.62409 c 0.67834,-0.68342 1.48524,-0.99067 1.79313,-0.68278 0.30789,0.30789 -0.24711,0.86705 -1.23333,1.24258 -1.4252,0.54268 -1.54006,0.42782 -0.5598,-0.5598 z M 73,355.5 c -0.684689,-0.825 -1.019889,-1.5 -0.744889,-1.5 0.275,0 1.0602,0.675 1.744889,1.5 0.684689,0.825 1.019889,1.5 0.744889,1.5 -0.275,0 -1.0602,-0.675 -1.744889,-1.5 z m 455,0.5 c -0.90129,-0.58246 -1.02463,-0.97549 -0.30902,-0.98469 0.65504,-0.008 1.4691,0.43469 1.80902,0.98469 0.7673,1.24153 0.42112,1.24153 -1.5,0 z m 195.8125,0.31689 c 0.72187,-0.28887 1.58438,-0.25335 1.91667,0.0789 0.33229,0.33229 -0.25834,0.56864 -1.3125,0.52522 -1.16495,-0.048 -1.4019,-0.28494 -0.60417,-0.60416 z M 546.94617,350.25 543.5,346.5 l 3.75,3.44617 c 3.49042,3.20761 4.20979,4.05383 3.44617,4.05383 -0.16711,0 -1.85461,-1.6875 -3.75,-3.75 z M 10.5,351 c 0.995486,-1.1 2.034975,-2 2.309975,-2 0.275,0 -0.314489,0.9 -1.309975,2 -0.995486,1.1 -2.0349751,2 -2.3099751,2 -0.275,0 0.3144888,-0.9 1.3099751,-2 z m 34.75,-0.73899 c 3.1625,-0.19845 8.3375,-0.19845 11.5,0 3.1625,0.19845 0.575,0.36082 -5.75,0.36082 -6.325,0 -8.9125,-0.16237 -5.75,-0.36082 z M 88.924314,348.25 86.5,345.5 l 2.75,2.42431 c 1.5125,1.33338 2.75,2.57088 2.75,2.75 0,0.78428 -0.809799,0.14598 -3.075686,-2.42431 z M 16,345.5 c 1.291745,-1.375 2.573628,-2.5 2.848628,-2.5 0.275,0 -0.556883,1.125 -1.848628,2.5 -1.291745,1.375 -2.573628,2.5 -2.848628,2.5 -0.275,0 0.556883,-1.125 1.848628,-2.5 z m 67,-2 c -0.684689,-0.825 -1.019889,-1.5 -0.744889,-1.5 0.275,0 1.0602,0.675 1.744889,1.5 0.684689,0.825 1.019889,1.5 0.744889,1.5 -0.275,0 -1.0602,-0.675 -1.744889,-1.5 z M 75,339 c -0.901292,-0.58246 -1.024633,-0.97549 -0.309017,-0.98469 0.655041,-0.008 1.469098,0.43469 1.809017,0.98469 0.767305,1.24153 0.421123,1.24153 -1.5,0 z m 400.81181,-1.74832 c 8.42149,-0.16744 21.92149,-0.16707 30,8.2e-4 8.0785,0.16789 1.18819,0.30489 -15.31181,0.30444 -16.5,-4.5e-4 -23.10969,-0.13781 -14.68819,-0.30526 z M 32.8125,336.31689 c 0.721875,-0.28887 1.584375,-0.25335 1.916667,0.0789 0.332291,0.33229 -0.258334,0.56864 -1.3125,0.52522 -1.164943,-0.048 -1.4019,-0.28494 -0.604167,-0.60416 z m 35,0 c 0.721875,-0.28887 1.584375,-0.25335 1.916667,0.0789 0.332291,0.33229 -0.258334,0.56864 -1.3125,0.52522 -1.164943,-0.048 -1.4019,-0.28494 -0.604167,-0.60416 z m -31,-1 c 0.721875,-0.28887 1.584375,-0.25335 1.916667,0.0789 0.332291,0.33229 -0.258334,0.56864 -1.3125,0.52522 -1.164943,-0.048 -1.4019,-0.28494 -0.604167,-0.60416 z"
       style="fill:#292929" />
    <path
       id="path3694"
       d="M 308.18908,509.79206 308,503.08413 l -7.75,-0.34082 -7.75,-0.34082 7.78138,-0.20125 c 8.98839,-0.23246 8.9969,-0.22399 8.46173,8.41073 L 308.37817,516.5 Z M 143.40499,507.75 141.5,505.5 l 2.25,1.90499 c 1.2375,1.04774 2.25,2.06024 2.25,2.25 0,0.80025 -0.80479,0.20945 -2.59501,-1.90499 z M 412,509.87418 c 0,-0.275 1.35,-1.79338 3,-3.37418 1.65,-1.5808 3,-2.64918 3,-2.37418 0,0.275 -1.35,1.79338 -3,3.37418 -1.65,1.5808 -3,2.64918 -3,2.37418 z M 88,505.5 c 1.865783,-1.925 3.617334,-3.5 3.892334,-3.5 0.275,0 -1.026551,1.575 -2.892334,3.5 -1.865783,1.925 -3.617334,3.5 -3.892334,3.5 -0.275,0 1.026551,-1.575 2.892334,-3.5 z m 636.92431,0.75 -2.42431,-2.75 2.75,2.42431 c 1.5125,1.33338 2.75,2.57088 2.75,2.75 0,0.78428 -0.8098,0.14598 -3.07569,-2.42431 z M 749.75,502.26779 c 2.3375,-0.21053 6.1625,-0.21053 8.5,0 2.3375,0.21054 0.425,0.3828 -4.25,0.3828 -4.675,0 -6.5875,-0.17226 -4.25,-0.3828 z M 649,498.5 c 1.29175,-1.375 2.57363,-2.5 2.84863,-2.5 0.275,0 -0.55688,1.125 -1.84863,2.5 -1.29175,1.375 -2.57363,2.5 -2.84863,2.5 -0.275,0 0.55688,-1.125 1.84863,-2.5 z M 357.40499,496.75 355.5,494.5 l 2.25,1.90499 c 1.2375,1.04774 2.25,2.06024 2.25,2.25 0,0.80025 -0.80479,0.20945 -2.59501,-1.90499 z M 77,495.5 c 1.291745,-1.375 2.573628,-2.5 2.848628,-2.5 0.275,0 -0.556883,1.125 -1.848628,2.5 -1.291745,1.375 -2.573628,2.5 -2.848628,2.5 -0.275,0 0.556883,-1.125 1.848628,-2.5 z M 410.15789,485 c 0,-1.375 0.22698,-1.9375 0.50439,-1.25 0.27741,0.6875 0.27741,1.8125 0,2.5 -0.27741,0.6875 -0.50439,0.125 -0.50439,-1.25 z m 305.2997,-39.5 c 2.5e-4,-23.1 0.13143,-32.40721 0.29152,-20.68268 0.16008,11.72452 0.15988,30.62452 -4.5e-4,42 -0.16034,11.37547 -0.29131,1.78268 -0.29107,-21.31732 z m -59.05771,34.5786 c 0.0722,-3.91145 0.5179,-5.53412 1.60012,-5.82613 1.04228,-0.28123 1.13816,-0.14674 0.31421,0.44073 -0.65218,0.46501 -1.37223,3.08676 -1.60011,5.82613 L 656.29977,485.5 Z M 791,480.55902 c 0,-1.89254 0.34578,-3.65469 0.7684,-3.91589 0.42263,-0.26119 0.60036,1.28725 0.39497,3.44099 C 791.70224,484.91953 791,485.2062 791,480.55902 Z M 586.44464,452.5 c -4.2e-4,-17.05 0.13593,-24.16558 0.30301,-15.81241 0.16707,8.35318 0.16742,22.30318 7.7e-4,31 -0.16665,8.69683 -0.30335,1.86241 -0.30378,-15.18759 z M 16.464082,427 c 0,-27.775 0.128309,-39.1375 0.28513,-25.25 0.156822,13.8875 0.156822,36.6125 0,50.5 -0.156821,13.8875 -0.28513,2.525 -0.28513,-25.25 z M 349.8125,474.31689 c 0.72187,-0.28887 1.58438,-0.25335 1.91667,0.0789 0.33229,0.33229 -0.25834,0.56864 -1.3125,0.52522 -1.16495,-0.048 -1.4019,-0.28494 -0.60417,-0.60416 z M 868.40499,459.75 866.5,457.5 l 2.25,1.90499 c 1.2375,1.04774 2.25,2.06024 2.25,2.25 0,0.80025 -0.80479,0.20945 -2.59501,-1.90499 z M 413,458.5 c -0.68469,-0.825 -1.01989,-1.5 -0.74489,-1.5 0.275,0 1.0602,0.675 1.74489,1.5 0.68469,0.825 1.01989,1.5 0.74489,1.5 -0.275,0 -1.0602,-0.675 -1.74489,-1.5 z m -247.1875,-4.18311 c 0.72187,-0.28887 1.58437,-0.25335 1.91667,0.0789 0.33229,0.33229 -0.25834,0.56864 -1.3125,0.52522 -1.16495,-0.048 -1.4019,-0.28494 -0.60417,-0.60416 z m 448.87771,-12.06387 c 7.25462,-0.17063 19.40462,-0.17107 27,-9.7e-4 7.59539,0.17009 1.65979,0.3097 -13.19021,0.31023 -14.85,5.4e-4 -21.0644,-0.13863 -13.80979,-0.30926 z M 656.37817,431 c 0,-6.325 0.16237,-8.9125 0.36082,-5.75 0.19845,3.1625 0.19845,8.3375 0,11.5 -0.19845,3.1625 -0.36082,0.575 -0.36082,-5.75 z m -296.97318,2.75 -1.90499,-2.25 2.25,1.90499 c 1.2375,1.04774 2.25,2.06024 2.25,2.25 0,0.80025 -0.80479,0.20945 -2.59501,-1.90499 z m 434.67396,-6.33333 c 0.048,-1.16495 0.28494,-1.4019 0.60416,-0.60417 0.28887,0.72187 0.25335,1.58438 -0.0789,1.91667 -0.33229,0.33229 -0.56864,-0.25834 -0.52522,-1.3125 z M 146.6755,426.31315 c 0.64653,-0.4615 1.37399,-2.63326 1.61658,-4.82613 0.43773,-3.95683 0.44018,-3.95353 0.32449,0.43526 -0.0794,3.01248 -0.59476,4.55102 -1.61657,4.82613 -1.03084,0.27754 -1.13234,0.1414 -0.3245,-0.43526 z m 661.40345,-1.89648 c 0.048,-1.16495 0.28494,-1.4019 0.60416,-0.60417 0.28887,0.72187 0.25335,1.58438 -0.0789,1.91667 -0.33229,0.33229 -0.56864,-0.25834 -0.52522,-1.3125 z m -389.26645,-0.0998 c 0.72187,-0.28887 1.58438,-0.25335 1.91667,0.0789 0.33229,0.33229 -0.25834,0.56864 -1.3125,0.52522 -1.16495,-0.048 -1.4019,-0.28494 -0.60417,-0.60416 z M 354.25218,420.5 c -0.0111,-2.2 0.18461,-3.21775 0.4349,-2.26166 0.25029,0.95609 0.25937,2.75609 0.0202,4 C 354.46809,423.48225 354.2633,422.7 354.2522,420.5 Z M 134.15789,420 c 0,-1.375 0.22698,-1.9375 0.50439,-1.25 0.27741,0.6875 0.27741,1.8125 0,2.5 -0.27741,0.6875 -0.50439,0.125 -0.50439,-1.25 z m 727.92106,-0.58333 c 0.048,-1.16495 0.28494,-1.4019 0.60416,-0.60417 0.28887,0.72187 0.25335,1.58438 -0.0789,1.91667 -0.33229,0.33229 -0.56864,-0.25834 -0.52522,-1.3125 z m 14,-1 c 0.048,-1.16495 0.28494,-1.4019 0.60416,-0.60417 0.28887,0.72187 0.25335,1.58438 -0.0789,1.91667 -0.33229,0.33229 -0.56864,-0.25834 -0.52522,-1.3125 z M 155,406.5 c 1.29175,-1.375 2.57363,-2.5 2.84863,-2.5 0.275,0 -0.55688,1.125 -1.84863,2.5 -1.29175,1.375 -2.57363,2.5 -2.84863,2.5 -0.275,0 0.55688,-1.125 1.84863,-2.5 z m 493.92431,-0.25 -2.42431,-2.75 2.75,2.42431 c 1.5125,1.33338 2.75,2.57088 2.75,2.75 0,0.78428 -0.8098,0.14598 -3.07569,-2.42431 z m -410.50972,-4.61197 c -0.28745,-0.74909 -0.35841,-4.01159 -0.1577,-7.25 l 0.36494,-5.88803 0.18909,6.71617 0.18908,6.71617 10.75,0.32145 10.75,0.32145 -10.78138,0.21238 c -8.32504,0.16399 -10.90046,-0.0979 -11.30403,-1.14959 z m 54.53918,0.62658 14.95603,-0.31622 0.37488,-6.72419 0.37489,-6.7242 -0.0798,7 -0.0798,7 -15.25113,0.0404 -15.25113,0.0404 14.95603,-0.31622 z m 404.79623,-0.002 c 2.8875,-0.202 7.6125,-0.202 10.5,0 2.8875,0.202 0.525,0.36728 -5.25,0.36728 -5.775,0 -8.1375,-0.16528 -5.25,-0.36728 z m 41.5,-0.006 c 4.2625,-0.18745 11.2375,-0.18745 15.5,0 4.2625,0.18745 0.775,0.34082 -7.75,0.34082 -8.525,0 -12.0125,-0.15337 -7.75,-0.34082 z M 411.92431,397.25 409.5,394.5 l 2.75,2.42431 c 2.57029,2.26589 3.20859,3.07569 2.42431,3.07569 -0.17912,0 -1.41662,-1.2375 -2.75,-2.75 z M 803,397.5 c 1.29175,-1.375 2.57363,-2.5 2.84863,-2.5 0.275,0 -0.55688,1.125 -1.84863,2.5 -1.29175,1.375 -2.57363,2.5 -2.84863,2.5 -0.275,0 0.55688,-1.125 1.84863,-2.5 z M 205.40499,396.75 203.5,394.5 l 2.25,1.90499 c 1.2375,1.04774 2.25,2.06024 2.25,2.25 0,0.80025 -0.80479,0.20945 -2.59501,-1.90499 z M 597,397.62244 c 0,-0.20765 0.7875,-0.99515 1.75,-1.75 1.58606,-1.24387 1.62143,-1.2085 0.37756,0.37756 C 597.82119,397.91575 597,398.44548 597,397.62244 Z M 816.92431,392.25 814.5,389.5 l 2.75,2.42431 c 1.5125,1.33338 2.75,2.57088 2.75,2.75 0,0.78428 -0.8098,0.14598 -3.07569,-2.42431 z M 857,392.5 c 0,-0.825 0.43588,-1.5 0.96862,-1.5 0.53273,0 0.70959,0.675 0.39301,1.5 -0.31659,0.825 -0.75246,1.5 -0.96862,1.5 C 857.17686,394 857,393.325 857,392.5 Z m -33.44236,-1.40674 c -0.30822,-0.49871 0.34022,-0.67122 1.44098,-0.38337 2.33499,0.61061 2.63015,1.29011 0.5604,1.29011 -0.79254,0 -1.69316,-0.40803 -2.00138,-0.90674 z m 28.17357,-1.0131 c -0.43497,-1.66335 -0.30483,-2.05378 0.43724,-1.31171 0.5811,0.5811 0.85979,1.64682 0.61931,2.36826 -0.24965,0.74895 -0.70294,0.29565 -1.05655,-1.05655 z m -31.1885,-1.01106 c -0.31644,-0.512 -0.19299,-1.1672 0.27431,-1.45601 0.46731,-0.28881 0.84965,0.13009 0.84965,0.9309 0,1.68617 -0.31534,1.83349 -1.12396,0.52511 z m -105.54606,-15.3661 0.49664,-15.203 0.28186,14.4215 c 0.15502,7.93182 -0.0685,14.77317 -0.49665,15.203 -0.42817,0.42983 -0.55501,-6.05984 -0.28185,-14.4215 z M 172.2723,386.2702 c 2.07477,-0.21647 5.22477,-0.21284 7,0.008 1.77524,0.22091 0.0777,0.39803 -3.7723,0.39359 -3.85,-0.004 -5.30246,-0.18518 -3.2277,-0.40166 z m 205.9777,0.001 c 2.0625,-0.21574 5.4375,-0.21574 7.5,0 2.0625,0.21575 0.375,0.39226 -3.75,0.39226 -4.125,0 -5.8125,-0.17651 -3.75,-0.39226 z m 247,0 c 2.0625,-0.21574 5.4375,-0.21574 7.5,0 2.0625,0.21575 0.375,0.39226 -3.75,0.39226 -4.125,0 -5.8125,-0.17651 -3.75,-0.39226 z m 207.0223,-0.001 c 2.07477,-0.21647 5.22477,-0.21284 7,0.008 1.77524,0.22091 0.0777,0.39803 -3.7723,0.39359 -3.85,-0.004 -5.30246,-0.18518 -3.2277,-0.40166 z M 79,360.5 c -0.684689,-0.825 -1.019889,-1.5 -0.744889,-1.5 0.275,0 1.0602,0.675 1.744889,1.5 0.684689,0.825 1.019889,1.5 0.744889,1.5 -0.275,0 -1.0602,-0.675 -1.744889,-1.5 z m -4,-4 c -0.684689,-0.825 -1.019889,-1.5 -0.744889,-1.5 0.275,0 1.0602,0.675 1.744889,1.5 0.684689,0.825 1.019889,1.5 0.744889,1.5 -0.275,0 -1.0602,-0.675 -1.744889,-1.5 z m 643.8125,0.81689 c 0.72187,-0.28887 1.58438,-0.25335 1.91667,0.0789 0.33229,0.33229 -0.25834,0.56864 -1.3125,0.52522 -1.16495,-0.048 -1.4019,-0.28494 -0.60417,-0.60416 z m -656,-7 c 0.721875,-0.28887 1.584375,-0.25335 1.916667,0.0789 0.332291,0.33229 -0.258334,0.56864 -1.3125,0.52522 -1.164943,-0.048 -1.4019,-0.28494 -0.604167,-0.60416 z m 460,-12 c 0.72187,-0.28887 1.58438,-0.25335 1.91667,0.0789 0.33229,0.33229 -0.25834,0.56864 -1.3125,0.52522 -1.16495,-0.048 -1.4019,-0.28494 -0.60417,-0.60416 z"
       style="fill:#292929" />
    <path
       id="path3692"
       d="M 41.5,518.39988 C 20.667604,515.37613 6.5872437,502.70293 2.469279,483.26981 0.31797617,473.11757 0.37643877,379.2708 2.5397834,370.09307 5.6452989,356.91829 14.639335,345.22219 25.66783,340.0167 c 14.701754,-6.93929 39.159209,-6.57694 52.695004,0.7807 13.7474,7.47265 23.484506,24.64766 22.470806,39.63561 -0.36937,5.46124 -0.57017,5.59836 -10.08364,6.88588 l -4.75,0.64285 -7.89e-4,-7.73087 C 85.998552,373.77622 85.524044,371.50952 83.124807,366.5 79.760399,359.47524 76.432949,356.10955 69.354773,352.57171 64.650264,350.22028 63.136976,350 51.687678,350 c -10.148608,0 -13.375236,0.3658 -17.024442,1.93003 -6.094907,2.61258 -12.261327,8.38714 -15.490919,14.50651 L 16.5,371.5 v 55.5 55.5 l 2.702667,5.12335 c 3.366255,6.38129 10.460095,12.733 16.530942,14.80155 3.167198,1.07917 8.294552,1.5751 16.284807,1.5751 11.006325,0 12.006275,-0.17197 17.781796,-3.05803 C 80.378156,495.65611 85.099605,488.07103 85.948178,475 86.566765,465.47158 85.675021,466.14943 95.75,467.54918 l 5.25,0.7294 v 6.27162 c 0,12.20278 -5.207876,23.78333 -14.524988,32.29864 -9.027318,8.25046 -16.350787,10.95305 -31.31611,11.5566 C 49.296506,518.64187 43.15,518.63937 41.5,518.39988 Z m 124,-0.43226 c -7.54666,-1.2401 -10.95665,-2.49771 -15.79064,-5.82358 -24.93838,-17.15805 -21.15591,-54.30992 6.79064,-66.69835 3.24231,-1.43729 7.97785,-1.88422 25,-2.35943 l 21,-0.58626 0.28357,-11.96185 c 0.17939,-7.56725 -0.15487,-13.07802 -0.90982,-15 -1.88503,-4.79892 -5.68127,-9.38483 -10.20345,-12.32592 -3.92465,-2.55247 -4.84771,-2.7117 -15.6703,-2.70318 -9.96845,0.008 -12.05829,0.30626 -15.69207,2.24077 C 153.4794,406.38511 148,415.16344 148,422.46788 c 0,3.43593 -0.10213,3.5289 -3.75,3.41381 -2.0625,-0.0651 -5.1,-0.40936 -6.75,-0.76507 -2.90381,-0.62601 -2.9897,-0.80658 -2.67881,-5.63168 0.4023,-6.24379 4.80452,-15.958 9.67463,-21.34863 2.05184,-2.27115 6.6846,-5.57839 10.3331,-7.37663 6.1847,-3.04824 7.40142,-3.281 18.75785,-3.58837 13.83562,-0.37448 19.7256,0.88347 26.74313,5.71166 5.93199,4.08132 10.4615,9.44616 13.56899,16.0714 L 216.5,414.5 l 0.29294,50.75 c 0.28444,49.27756 0.23787,50.75 -1.60511,50.75 -1.18553,0 -3.478,-2.25237 -6.10681,-6 -2.31482,-3.3 -4.54583,-6 -4.9578,-6 -0.41197,0 -2.07073,1.39015 -3.68613,3.08921 -8.04001,8.45644 -22.42279,12.93482 -34.93709,10.87841 z m 26.35085,-16.25022 c 4.3641,-2.88802 8.17047,-7.53911 10.01588,-12.23862 0.78623,-2.00219 1.0931,-8.41067 0.90982,-19 L 202.5,454.5 185,454.20834 c -19.54242,-0.3257 -23.86463,0.40712 -29.42274,4.98859 -5.0516,4.16395 -7.78455,10.01616 -8.34894,17.87803 -0.70705,9.84901 1.6063,16.72926 7.31422,21.75357 5.87819,5.17419 9.66604,6.14573 22.63922,5.8067 9.61632,-0.2513 11.07947,-0.54233 14.66909,-2.91783 z M 371,518.05198 c -10.17894,-1.83365 -15.22948,-4.3767 -21.8595,-11.00672 -6.47093,-6.47093 -10.2998,-14.59509 -10.91481,-23.15922 -0.26123,-3.63767 -0.0814,-6.84111 0.39968,-7.11875 0.48104,-0.27764 3.68713,-0.8112 7.12463,-1.1857 l 6.25,-0.6809 0.01,5.79965 c 0.0149,8.84214 3.38886,15.21622 10.58165,19.99079 l 5.73797,3.80887 13.08531,-0.0243 c 11.4662,-0.0213 13.59195,-0.29237 17.17998,-2.19108 16.40841,-8.68299 15.73376,-28.28415 -1.29113,-37.51217 -2.64218,-1.43199 -10.42878,-4.2842 -17.30378,-6.33821 -23.42446,-6.99841 -31.00255,-11.63142 -36.1596,-22.10687 -2.80784,-5.70354 -3.23202,-7.60436 -3.28247,-14.70942 -0.0515,-7.25375 0.3039,-8.89448 3.20175,-14.7811 3.79952,-7.71821 9.2305,-13.01017 17.12031,-16.68204 4.8913,-2.27638 7.21982,-2.66413 17.95825,-2.99042 13.41955,-0.40776 18.86996,0.54984 25.82526,4.53733 9.24141,5.29812 17.36209,17.72828 17.678,27.05937 l 0.1585,4.6816 -5,1.18266 c -8.28865,1.96052 -8.5,1.89445 -8.5,-2.65747 0,-7.55119 -4.3298,-14.5106 -12,-19.28793 -3.09128,-1.92538 -4.90132,-2.17932 -15.5,-2.17459 -10.49816,0.005 -12.52465,0.28513 -16.19207,2.24077 -10.56562,5.63409 -14.1904,18.72631 -7.84992,28.35282 3.72004,5.64798 10.33206,9.27114 26.27178,14.39603 24.82796,7.9826 32.44682,12.84389 37.77225,24.10092 3.13074,6.61783 3.46885,18.21267 0.75291,25.81911 -3.28059,9.1878 -13.0124,17.78939 -23.83942,21.07079 -5.96033,1.80643 -21.23717,2.67916 -27.41553,1.56618 z m 247.22397,-0.005 c -11.46423,-1.81477 -22.71176,-10.24411 -27.9842,-20.97244 L 587.5,491.5 v -39 -39 l 2.92057,-5.76697 c 3.65963,-7.22631 10.12573,-13.66922 17.43591,-17.37338 5.23548,-2.65289 6.6196,-2.88389 19.14352,-3.19487 11.91306,-0.29581 14.17972,-0.0802 19.28231,1.83394 7.63341,2.86357 13.38484,7.36497 17.94305,14.04323 C 669.69748,411.05921 671,417.53237 671,436.7101 V 453 h -35 -35 l 0.022,17.25 c 0.0252,19.7938 0.79761,22.66434 7.79653,28.97462 5.27382,4.75492 7.31607,5.2757 20.68151,5.27388 9.47532,-10e-4 11.58105,-0.31187 15.19207,-2.24076 C 652.18206,498.25681 657,489.25792 657,479.26911 v -4.41302 l 5.75,0.69535 c 7.9102,0.95658 8.61419,1.70665 7.9027,8.42002 -1.62381,15.3219 -10.32832,26.77029 -24.34014,32.01279 -6.26287,2.34324 -19.96231,3.34944 -28.08859,2.06305 z m 37.19424,-75.65429 c 1.2998,-0.49846 1.58179,-2.4311 1.58179,-10.84075 0,-15.9764 -3.46741,-24.09163 -12.30793,-28.80581 -3.66742,-1.95564 -5.69391,-2.23608 -16.19207,-2.24077 -13.0834,-0.006 -15.63772,0.8388 -21.69695,7.17459 -4.70381,4.91851 -5.80305,9.10881 -5.80305,22.12126 0,6.526 0.3,12.16546 0.66667,12.53212 0.83309,0.83309 51.58921,0.88945 53.75154,0.0597 z m 168.17609,75.55 c -7.56339,-1.26695 -16.86609,-6.33921 -21.90487,-11.94355 -6.81715,-7.58231 -9.10523,-13.08143 -9.15097,-21.99324 l -0.0385,-7.49377 5,-0.64345 c 2.75,-0.35389 5.675,-0.80669 6.5,-1.00622 1.20358,-0.29109 1.59881,1.15286 2,7.30699 0.42161,6.46725 0.97521,8.34497 3.53093,11.97634 1.66701,2.36861 5.23242,5.66722 7.92313,7.33023 4.79135,2.96132 5.1618,3.02366 17.96907,3.02366 12.10583,0 13.40438,-0.18564 17.48748,-2.5 6.73727,-3.81879 10.33421,-8.90709 10.87084,-15.3781 C 864.868,473.51954 857.35388,465.45287 839,460.01814 c -29.03442,-8.59733 -36.21854,-12.75012 -42.21366,-24.40167 -3.05564,-5.93865 -3.146,-21.17163 -0.16411,-27.66728 2.68813,-5.85576 7.71281,-11.55968 13.32325,-15.12433 l 4.44548,-2.82448 2.55452,2.43619 c 4.13303,3.94158 7.34682,4.56343 23.58444,4.56343 14.95655,0 15.4334,-0.0648 16.57035,-2.25 0.64385,-1.2375 1.30878,-2.41159 1.47761,-2.60909 0.7877,-0.92145 6.90304,4.59549 10.51778,9.48857 4.55234,6.16229 6.5995,11.22498 7.07612,17.49952 l 0.32822,4.32096 -5,1.17902 c -8.20691,1.93523 -8.49717,1.8542 -8.52196,-2.37898 -0.0252,-4.30593 -3.09164,-11.66585 -6.29011,-15.09732 -5.72612,-6.14326 -19.35537,-8.81671 -31.78879,-6.23554 -17.03974,3.53744 -22.59336,23.4239 -9.68427,34.67754 4.22635,3.68436 10.42887,6.42707 24.34357,10.76456 28.39474,8.8512 37.1081,16.98105 38.19886,35.64076 0.61156,10.46202 -2.10837,17.51107 -9.6773,25.08 -9.77643,9.77643 -26.53795,13.86944 -44.4857,10.86301 z M 285,514.1712 c -10.02779,-3.72988 -15.60026,-8.65064 -20.06082,-17.71468 L 262.5,491.5 262.21932,447.54005 c -0.21218,-33.23129 -0.57827,-44.14902 -1.5,-44.73468 -0.67063,-0.42611 -5.83182,-0.78164 -11.46932,-0.79006 L 239,402 v -6.46725 -6.46725 l 11.25,-0.28275 11.25,-0.28275 0.5,-15 0.5,-15 5.96367,-1.17696 c 3.28002,-0.64733 6.31752,-0.95827 6.75,-0.69098 0.43248,0.26728 0.78633,7.65942 0.78633,16.42696 V 389 h 16 16 v 6.5 6.5 h -14.41821 c -7.93002,0 -15.13002,0.27314 -16,0.60699 -1.40825,0.54039 -1.57938,5.23059 -1.55983,42.75 0.0203,38.99766 0.16147,42.45021 1.89116,46.2591 C 281.34861,499.18128 289.21587,503 301.36602,503 H 308 v 6.5 6.5 l -9.25,-0.0775 c -6.01693,-0.0504 -10.82285,-0.66253 -13.75,-1.7513 z M 460.2446,427.25 460.5,338.5 l 29,-0.29771 c 17.86615,-0.18342 31.30355,0.119 35,0.7877 16.66903,3.01547 29.471,15.28333 33.96881,32.55156 2.07903,7.98193 2.1035,33.84102 0.0395,41.76515 -3.07842,11.81886 -9.30208,20.78566 -18.5424,26.71516 -9.07008,5.82026 -12.10333,6.35375 -39.46593,6.94131 l -25,0.53683 -0.26313,34.25 -0.26313,34.25 h -7.49227 -7.49228 l 0.25541,-88.75 z m 68.31886,2.57768 c 5.76243,-3.04121 11.57119,-9.01887 14.14415,-14.5554 1.47427,-3.17236 1.75619,-6.7939 1.77273,-22.77228 l 0.0197,-19 -2.96815,-5.3588 c -3.70527,-6.68965 -9.273,-11.5265 -16.29052,-14.1521 -4.93852,-1.84773 -7.3763,-2.00312 -27.57935,-1.758 L 475.5,352.5 l -0.26197,38.99761 c -0.14409,21.44868 -0.0344,39.59065 0.24374,40.31547 0.4036,1.05177 5.30258,1.25417 24.26197,1.0024 23.53513,-0.31254 23.80339,-0.34035 28.81972,-2.9878 z m 209.47493,84.13624 C 735.0345,512.88377 732.42772,512 732.24555,512 730.74464,512 721.25532,501.50718 719.1502,497.5198 L 716.5,492.5 l -0.2752,-44 c -0.24825,-39.69287 -0.43827,-44.12236 -1.94113,-45.25 -1.08258,-0.8123 -5.29241,-1.25 -12.02252,-1.25 h -10.35658 l 0.29771,-6.25 0.29772,-6.25 11.5,-0.5 11.5,-0.5 0.27512,-15.07817 0.27512,-15.07816 6.12377,-1.13884 c 3.36807,-0.62635 6.50676,-0.90212 6.97488,-0.61281 0.46811,0.28931 0.85111,7.69946 0.85111,16.467 V 389 h 16 16 v 6.5 6.5 h -14.41821 c -7.93002,0 -15.13002,0.27314 -16,0.60699 -1.40841,0.54045 -1.58179,5.31405 -1.58179,43.54966 0,46.6079 -0.11748,45.55098 5.6749,51.0545 C 739.72416,501.05849 746.08003,503 754.62573,503 H 762 v 6.5 6.5 l -9.25,-0.0361 c -6.59827,-0.0257 -10.8157,-0.59908 -14.71161,-2 z M 824.17947,390.47948 C 818.47031,387.99976 821.43396,387 834.49392,387 847.4173,387 852,387.90974 852,390.47525 c 0,1.28548 -1.92229,1.51861 -12.25,1.48561 -8.39277,-0.0268 -13.29555,-0.49327 -15.57053,-1.48138 z"
       style="fill:#292929" />
  </g>
</svg>
