<svg xmlns="http://www.w3.org/2000/svg" viewBox="0 0 139.01 139.01"><defs><style>.cls-1{fill:#5cb530}.cls-2{fill:#fff;fill-rule:evenodd}</style></defs><g id="Слой_2" data-name="Слой 2"><g id="Слой_2-2" data-name="Слой 2"><path class="cls-1" d="M0 0h69.5v69.5H0z"/><circle class="cls-1" cx="69.5" cy="69.5" r="69.5"/><path class="cls-2" d="M87 102a11.71 11.71 0 0 1-2 .34c-11.1 0-22.21-.11-33.31.07-4.09.07-7.83-2.83-7.34-7.29a11.54 11.54 0 0 0-.1-1.78 12.12 12.12 0 0 1-2.68-.05c-.51-.12-.9-.76-1.34-1.16.43-.41.8-1 1.32-1.19.87-.33 2.26-.1 2.64-.66s.16-1.93.17-2.93v-5a8.09 8.09 0 0 1-2.6-.06c-.62-.24-1-1-1.52-1.55.55-.41 1.08-1.12 1.66-1.17 2.46-.2 2.47-.13 2.47-2.67v-5.44c-.79 0-1.42-.11-2-.09-1 0-2-.13-2.05-1.38s.89-1.5 2-1.45h2.24v-7.43c0-1-.62-1.08-1.41-1.1-1.1 0-2.79.4-2.72-1.32.06-1.52 1.67-1.06 2.73-1.15l1.21-.12V49a8.82 8.82 0 0 1-2.6-.06c-.58-.2-1-.94-1.45-1.43.47-.44.88-1.1 1.43-1.25a10.81 10.81 0 0 1 2.7-.05V44c-.19-4.11 2.55-6.4 6.4-6.45q19.13-.25 38.27 0c4.38 0 6.84 2.46 6.77 7q-.17 10.81 0 21.62c0 2.27-.45 3.88-2.91 4.75 0-.56-.09-1.11-.09-1.65V44.11c0-2.65-1.25-4-3.81-4.05H57.72a8.26 8.26 0 0 0-.9.12v59.2h25.75a18.91 18.91 0 0 1 2.25.27zM47.3 91.13c.94-.36 1.57-.56 2.17-.84 1.06-.5 2.11-.39 2.63.6a2.92 2.92 0 0 1 0 2.36 1.79 1.79 0 0 1-2.61.65 14.66 14.66 0 0 0-2-.67c-1 5.9 1.73 6.77 7.84 6V40.29c-6.5-.94-8.92.92-7.77 6a5.91 5.91 0 0 1 1.77-.52c1 0 2.33 0 2.76.55s.21 2-.2 2.8c-.54 1.07-1.61.87-2.62.34A8.8 8.8 0 0 0 47.4 49v8.84a7.85 7.85 0 0 0 1.94-.64 1.64 1.64 0 0 1 2.59.37 2.78 2.78 0 0 1 .1 2.32c-.51 1-1.54 1.09-2.62.58a12.81 12.81 0 0 0-2.12-.58v8.84a8.92 8.92 0 0 0 1.95-.46c1-.51 2-.76 2.64.29.41.7.71 2.12.35 2.46a4.8 4.8 0 0 1-2.74.76 7.74 7.74 0 0 1-2.12-.45v8.4a7.58 7.58 0 0 1 2.26-.79c.82 0 2 .17 2.36.7a3 3 0 0 1 0 2.65c-.3.5-1.57.55-2.4.54a9.81 9.81 0 0 1-2.34-.63z"/><path class="cls-2" d="M77.61 93.22A8.42 8.42 0 0 0 73 86.85c2.38-1.68 4.72-3.31 7-5 4-2.86 8-5.77 12-8.61 1.3-.91 2.69-1.69 4.05-2.5a1.34 1.34 0 0 1 .78-.22c2.08.26 4.75 3.89 4.19 5.84-.16.57-.88 1-1.43 1.43-3.12 2.21-6.26 4.38-9.39 6.57zM87 102l-2.18-2.25c1.32-.1 2.64-.24 4-.28 2.89-.08 4-1.19 4-4.1s.19-5.55 0-8.3c-.19-2.32.74-3.63 3-4.56v13.43A6.52 6.52 0 0 1 87 102zM79.26 63.59h-7.6c-1 0-1.56-.26-1.54-1.36s.55-1.48 1.55-1.48c5.3 0 10.61 0 15.91.06.53 0 1 .82 1.57 1.26-.53.5-1 1.39-1.58 1.42-2.77.18-5.57.1-8.31.1zM79.32 73.88h-7.77c-.91 0-1.51-.23-1.51-1.25s.66-1.23 1.53-1.23c5.3 0 10.6 0 15.89.05.57 0 1.12.71 1.68 1.09-.57.44-1.12 1.23-1.7 1.26-2.7.2-5.44.08-8.12.08zM79.36 53h-7.79c-.9 0-1.68-.26-1.47-1.22a2 2 0 0 1 1.47-1.2q7.88-.13 15.76 0c.61 0 1.2.78 1.81 1.2-.6.4-1.19 1.12-1.81 1.15-2.65.13-5.31.05-8 .05zM63.4 62.33a23.16 23.16 0 0 1 2.69-2.62c.42-.29 1.2-.06 1.82-.07a5 5 0 0 1-.19 1.72 7.83 7.83 0 0 1-1.3 1.41c-2.89 3.27-3.19 2.56-5.91-.41-.3-.33 0-1.2 0-1.82.57.06 1.25-.05 1.68.23a6 6 0 0 1 1.21 1.56zM63.72 51.79a15.16 15.16 0 0 1 2.2-2.23c.49-.33 1.31-.17 2-.24-.08.62.07 1.46-.28 1.83a23.7 23.7 0 0 1-3.45 3 1.73 1.73 0 0 1-1.5-.22A9.48 9.48 0 0 1 60.61 52c-.27-.34-.39-1.21-.18-1.41a1.69 1.69 0 0 1 1.51-.31 8.57 8.57 0 0 1 1.78 1.51zM63.61 75.94c-1.33-1.51-2.61-2.54-3.3-3.89-.39-.77.94-1.39 1.52-.85 1.8 1.68 2.89.56 4.06-.72.64-.7 1.37-1 2.09-.09.13.16.27.55.19.63-1.42 1.57-2.87 3.11-4.56 4.92zM70.89 89.89l3.41 4.29c-2.09.49-3.55.9-5 1.17-1.1.2-1.23-.47-.79-1.28.62-1.23 1.36-2.43 2.38-4.18z"/></g></g></svg>