<svg xmlns="http://www.w3.org/2000/svg" viewBox="0 0 139.01 139.01"><defs><style>.cls-1{fill:#5cb530}.cls-2{fill:#fff;fill-rule:evenodd}</style></defs><g id="Слой_2" data-name="Слой 2"><g id="Слой_2-2" data-name="Слой 2"><path class="cls-1" d="M0 0h69.5v69.5H0z"/><circle class="cls-1" cx="69.5" cy="69.5" r="69.5"/><path class="cls-2" d="M80.56 78.77l-.65 1.08c12.88 1.35 22.25 5.48 22.25 10.36 0 6-14.07 10.83-31.42 10.83s-31.41-4.85-31.41-10.83c0-4.87 9.34-9 22.18-10.35l-.61-1.09C47 80.28 36.82 84.93 36.82 90.43c0 6.73 15.18 12.18 33.9 12.18s33.9-5.45 33.9-12.18c0-5.5-10.14-10.14-24.06-11.66z"/><path class="cls-2" d="M60.26 69.56l10.46 20.09 10.42-20.1s4.65-8 5.43-10.56a17 17 0 0 0-6.35-19.14 15.92 15.92 0 0 0-19.07.08A16.73 16.73 0 0 0 55 59.08c1.16 3.56 3.86 7.66 5.26 10.48zM63.8 52.7a6.95 6.95 0 1 1 6.95 6.95 6.95 6.95 0 0 1-6.95-6.95z"/><path class="cls-2" d="M63.61 82.15l-.47-.76c-10.76 1-18.6 4.26-18.6 8.07 0 4.66 11.72 8.43 26.18 8.43s26.18-3.77 26.18-8.42c0-3.8-7.83-7-18.58-8.07l-.5.75-7.11 10.42z"/></g></g></svg>