<svg xmlns="http://www.w3.org/2000/svg" viewBox="0 0 12.12 13.74"><g id="Слой_2" data-name="Слой 2"><g id="Слой_2-2" data-name="Слой 2"><path d="M2.18 2.88a1.73 1.73 0 0 1 0 3.47 1.73 1.73 0 0 1 0-3.47zM3.9 9a1.73 1.73 0 0 1-1.72 1.75A1.73 1.73 0 0 1 .5 9a1.7 1.7 0 1 1 3.4 0zm2.1.74a1.75 1.75 0 1 1 0 3.5 1.75 1.75 0 0 1 0-3.5zm1.83-7.52A1.67 1.67 0 0 1 6.08 3.9a1.69 1.69 0 0 1-1.69-1.68A1.74 1.74 0 0 1 6.08.5a1.75 1.75 0 0 1 1.75 1.72zm2 .66a1.76 1.76 0 0 1 1.75 1.75 1.75 1.75 0 0 1-1.71 1.71 1.69 1.69 0 0 1-1.65-1.71 1.7 1.7 0 0 1 1.65-1.75zM11.62 9a1.76 1.76 0 0 1-1.75 1.75A1.7 1.7 0 0 1 8.22 9a1.67 1.67 0 0 1 1.65-1.7A1.73 1.73 0 0 1 11.62 9z" fill="#fff" stroke="#fff" stroke-miterlimit="10"/><path d="M2.18 2.88a1.73 1.73 0 0 1 0 3.47 1.73 1.73 0 0 1 0-3.47zM3.9 9a1.73 1.73 0 0 1-1.72 1.75A1.73 1.73 0 0 1 .5 9a1.7 1.7 0 1 1 3.4 0zm2.1.74a1.75 1.75 0 1 1 0 3.5 1.75 1.75 0 0 1 0-3.5zm1.83-7.52A1.67 1.67 0 0 1 6.08 3.9a1.69 1.69 0 0 1-1.69-1.68A1.74 1.74 0 0 1 6.08.5a1.75 1.75 0 0 1 1.75 1.72zm2 .66a1.76 1.76 0 0 1 1.75 1.75 1.75 1.75 0 0 1-1.71 1.71 1.69 1.69 0 0 1-1.65-1.71 1.7 1.7 0 0 1 1.65-1.75zM11.62 9a1.76 1.76 0 0 1-1.75 1.75A1.7 1.7 0 0 1 8.22 9a1.67 1.67 0 0 1 1.65-1.7A1.73 1.73 0 0 1 11.62 9z" fill="#db001a"/></g></g></svg>