<svg xmlns="http://www.w3.org/2000/svg" id="svg3403" viewBox="0 0 10.93 9.615" height="36.342" width="41.312"><g transform="translate(-39.644 -129.053)" id="layer1"><g id="g3381" transform="translate(-65.565 37.65)"><g id="g1557" transform="matrix(.35278 0 0 -.35278 113.853 100.227)"><path d="M0 0a2.24 2.24 0 1 1-4.478 0A2.24 2.24 0 0 1 0 0" id="path1559" fill="#fff" fill-rule="evenodd"/></g><g id="g1561" transform="matrix(.35278 0 0 -.35278 110.435 100.227)"><path d="M0 0a2.24 2.24 0 1 1-4.478 0A2.24 2.24 0 0 1 0 0" id="path1563" fill="#fff" fill-rule="evenodd"/></g><path id="path1567" d="M115.26 93.436H108.262c-.456-.012-.696-.334-.84-.95-.152-.652-.345-1.04-.801-1.08v-.004h-1.194a.218.218 0 1 0 0 .436h1.193c.555.331.496 1.15.663 1.81.23.908.493 1.808.69 2.722.073.334.07.723-.027 1.048-.291.977.012 1.524 1.027 1.545 1.84.038 3.68.013 5.52.003.13-.001.26-.094.391-.144-.324-.251-.627-.298-.93-.299-1.572-.008-3.146.029-4.716-.03-.006 0-.012-.003-.017-.003h-.415a.534.534 0 0 1-.533-.534l.002-.022a.532.532 0 0 1 .531-.511h5.226l.315-.004c.301-.007.789-.192.863-.407.347-1.012.61-2.054.929-3.231v-.345z" fill="#fff" fill-rule="evenodd" stroke-width=".353"/></g></g></svg>