<svg xmlns="http://www.w3.org/2000/svg" viewBox="0 0 139.01 139.01"><defs><style>.cls-1{fill:#5cb530}</style></defs><g id="Слой_2" data-name="Слой 2"><g id="Слой_2-2" data-name="Слой 2"><path class="cls-1" d="M0 0h69.5v69.5H0z"/><circle class="cls-1" cx="69.5" cy="69.5" r="69.5"/><path d="M68.3 65.59h1.25v-4.48l.14-.78-.45.67-.72.58-.6-.76L70 58.67h.76v6.92H72v1.21h-3.7z" fill="#fff"/><path d="M99.69 44.92H89.06l-3.92 3.25H52l-3.9-3.25H37.46s-.81 15.7 5.39 24.36c6.66 9.29 13.41 12.12 18.33 12.12 0 0 .56-1.34-2.13-2.57s-8.9-4-12.65-10c-4-6.39-4.48-14.77-4.48-19.36h7.27s-.34 11.19 3.36 17.24a26.8 26.8 0 0 0 12 11v16.46a8.08 8.08 0 0 1-2.46 5.48c-2.46 2.24-3.25 2.57-5.09 2.57s-3.3 1-3.3 1.79.11 1.57.9 1.57h28c.78 0 .9-.78.9-1.57s-1.46-1.79-3.3-1.79-2.63-.34-5.09-2.57a8.08 8.08 0 0 1-2.46-5.48V77.71a26.8 26.8 0 0 0 12-11c3.7-6.05 3.36-17.24 3.36-17.24h7.27c0 4.59-.44 13-4.48 19.36-3.75 5.93-10 8.73-12.65 10S76 81.41 76 81.41c4.92 0 11.67-2.83 18.33-12.12 6.18-8.67 5.36-24.37 5.36-24.37zM57 104.58c-1-.29-.9-.55-.35-1.13s3-.31 3-.31c6.35 1.36-1.48 1.78-2.65 1.44zm21.66-1.34c.49 0 1.46.23 1.46.73s-1 .73-1.46.73-.9-.07-.9-.56a.9.9 0 0 1 .89-.91zM53.5 59.42a30.59 30.59 0 0 1 0-6.46h4.7s-.59 1.59-.08 8.39a29.72 29.72 0 0 0 3.94 12.25C58 71.42 54 63.8 53.5 59.42zm11.33 41.47a11.74 11.74 0 0 0 1.85-6.72c0-4.28-.08-15-.08-15h1.18v15.08a9.15 9.15 0 0 1-2.95 6.63zm5.09-32.32a6 6 0 1 1 6-6 6 6 0 0 1-6 5.99zm9.26 0C82.17 61.47 81 53 81 53h1.09c1.04 12.12-2.91 15.56-2.91 15.56z" fill="#fffff8" fill-rule="evenodd"/></g></g></svg>