<svg xmlns="http://www.w3.org/2000/svg" viewBox="0 0 98.9 98.9"><defs><style>.cls-2{fill:#5cb530}</style></defs><g id="Слой_2" data-name="Слой 2"><g id="Слой_2-2" data-name="Слой 2"><circle cx="49.45" cy="49.45" r="47.45" fill="#fff" stroke="#fff" stroke-miterlimit="10" stroke-width="4"/><path class="cls-2" d="M63.55 53.85a27.82 27.82 0 0 1-6.26-3.77 43.78 43.78 0 0 1-7.5-7.63 19.79 19.79 0 0 1-3.64-7 18.06 18.06 0 0 1-.79-4.5q0-1.11-.06-2.23a1.27 1.27 0 0 0-.17-.4 1.31 1.31 0 0 0-.38.18c-.69.69-1.37 1.41-2.06 2.1C38.38 35 34 39.29 29.77 43.65c-1.89 1.92-4 3.63-5.42 6a10 10 0 0 0-1.55 4.6 12.68 12.68 0 0 0 .38 4.38 18.09 18.09 0 0 0 2.21 4.77 36.6 36.6 0 0 0 4.36 5.49A37.55 37.55 0 0 0 38.62 76a15.76 15.76 0 0 0 4.26 1.69 11 11 0 0 0 4.86.14A11.22 11.22 0 0 0 53.11 75c2.22-2.13 4.38-4.33 6.57-6.49Q65 63.32 70.34 58.13c.74-.72 1.51-1.42 2.35-2.22-1.38-.15-2.52-.24-3.65-.4a21.24 21.24 0 0 1-5.49-1.66z"/><path class="cls-2" d="M75.52 37.71a37.53 37.53 0 0 0-4.26-5.62 36 36 0 0 0-9.75-7.6 33.07 33.07 0 0 0-4.26-1.68 8.52 8.52 0 0 0-3.87-.31 6.39 6.39 0 0 0-2.27.7c-2.42 1.32-2.95 3.6-2.87 6.11a17.35 17.35 0 0 0 .39 2.52 16.34 16.34 0 0 0 1.58 4.54c.72 1.41 1.5 2.79 2.35 4.12.33.51.6 1.17 1.36 1.31 1.12.21 2.21.53 3.33.71 1.53.24 3.08.45 4.63.56 2.43.17 4.87.25 7.66.38 1.5-.11 3.35-.19 5.19-.39a6.51 6.51 0 0 0 2-.65 1 1 0 0 0 .46-1.49c-.54-1.09-1.03-2.19-1.67-3.21z"/><path class="cls-2" d="M49.72 3.87a45.85 45.85 0 1 0 45.86 45.85A45.85 45.85 0 0 0 49.72 3.87zm32.18 64a4.37 4.37 0 0 1-1.86 3 3.39 3.39 0 0 1-2.84.34 7.68 7.68 0 0 1-3.67-2.34 3.57 3.57 0 0 1-1.17-3 6.62 6.62 0 0 1 2-3.81 11.54 11.54 0 0 0 2.81-3.64 18 18 0 0 0 .66-2.18l-.21-.12c-.28.24-.58.46-.84.72l-7.2 7.22-7.68 7.7c-2.05 2.06-4.1 4.13-6.16 6.18a15.72 15.72 0 0 1-5.14 3.49 11.77 11.77 0 0 1-2.56.66 13.3 13.3 0 0 1-2.77.2 14.48 14.48 0 0 1-3.51-.69A24.44 24.44 0 0 1 36 78.82a28.94 28.94 0 0 1-2.4-1.75 57 57 0 0 1-7.13-6.7 35.67 35.67 0 0 1-6-8.42 13.35 13.35 0 0 1-1.53-5c0-.85-.21-1.7-.18-2.55a11.85 11.85 0 0 1 1.47-5.18 23.41 23.41 0 0 1 4.43-5.37c4.79-4.77 9.54-9.56 14.33-14.34 2.29-2.29 4.59-4.57 6.92-6.81a11 11 0 0 1 4.46-2.7 15.56 15.56 0 0 1 3.63-.73 15.53 15.53 0 0 1 3.39.45 19.07 19.07 0 0 1 7 3.19 38.28 38.28 0 0 1 6.27 5.16c2 2 4 4.13 5.79 6.32A31.38 31.38 0 0 1 79.59 39a25.16 25.16 0 0 1 1.52 3.76 12.13 12.13 0 0 1 .5 5.58c-.1.94-.34 1.87-.43 2.81a11.27 11.27 0 0 0 0 2.16c.09 1 .27 1.92.42 2.87.25 1.59.59 3.17.72 4.77a32.64 32.64 0 0 1 0 4.32 15.53 15.53 0 0 1-.41 2.62z"/></g></g></svg>