<svg xmlns="http://www.w3.org/2000/svg" viewBox="0 0 98.17 98.17"><defs><style>.cls-2{stroke:#fff;stroke-miterlimit:10}.cls-2,.cls-3,.cls-4{fill:#fff}.cls-2,.cls-3{fill-rule:evenodd}</style></defs><g id="Слой_2" data-name="Слой 2"><g id="Слой_2-2" data-name="Слой 2"><circle cx="49.08" cy="49.08" r="48.58" stroke="#fff" stroke-miterlimit="10" fill="#80c533"/><path class="cls-2" d="M28.64 28c.28 0 .35.28.52.43s.34.36.53.57L31 27.4c.41-.51.8-1 1.23-1.52l.14.12-2.67 3.3-1.12-1.21z"/><path class="cls-3" d="M68.13 30.2H37.74c3.85-2.69 27.87-2.51 30.39 0zM68.19 69.72c-2.45 2.18-25.4 2.57-29.64.84 2.02-1.71 22.02-2.35 29.64-.84zM67.87 50.07H38.64c1.53-2.38 24.64-2.96 29.23 0z"/><path class="cls-4" d="M31.63 27.48a2.13 2.13 0 1 1-.57-.8l.17-.17a2.36 2.36 0 1 0 .58.79z"/><path class="cls-2" d="M28.64 49.81c.28 0 .35.28.52.43s.34.36.53.57l1.31-1.6c.41-.51.8-1 1.23-1.52l.14.12-2.67 3.31-1.12-1.21z"/><path class="cls-4" d="M31.63 49.29a2.13 2.13 0 1 1-.57-.8l.17-.17a2.36 2.36 0 1 0 .58.79z"/><path class="cls-2" d="M28.64 71.63c.28 0 .35.28.52.43s.34.36.53.57L31 71c.41-.51.8-1 1.23-1.52l.14.12-2.67 3.34-1.12-1.21z"/><path class="cls-4" d="M31.63 71.11a2.13 2.13 0 1 1-.57-.8l.17-.17a2.36 2.36 0 1 0 .58.79z"/></g></g></svg>