<svg xmlns="http://www.w3.org/2000/svg" viewBox="0 0 90.26 90.3"><defs><style>.cls-2{fill:#fff}</style></defs><g id="Слой_2" data-name="Слой 2"><g id="Слой_2-2" data-name="Слой 2"><path d="M45.11.5a44.71 44.71 0 0 0-44 37.35c0 .24-.08.48-.12.72v.17a45.54 45.54 0 0 0-.49 6.2 45 45 0 0 0 14 32.62l.31.3.78.7c.37.33.74.66 1.13 1l.1.09A44.64 44.64 0 1 0 45.11.5z" fill="#80c533" stroke="#fff" stroke-miterlimit="10"/><path class="cls-2" d="M12.06 67.91a2.31 2.31 0 0 1 1.53-1.54 4 4 0 0 1 .85-.09h5c.26 0 .45 0 .57-.31q.94-2.11 1.91-4.2c.16-.34.2-.54-.19-.8a2.06 2.06 0 0 1 1.67-3.66c.4.1.54 0 .7-.35q2.72-6 5.47-12 2.33-5.13 4.68-10.25a.57.57 0 0 0-.07-.68 2 2 0 0 1-.21-2.33 1.92 1.92 0 0 1 2-1 .51.51 0 0 0 .56-.31A31.29 31.29 0 0 1 42 23.46a18.12 18.12 0 0 1 10-4.85 16.81 16.81 0 0 1 7.79.61A11.91 11.91 0 0 1 68 27.48a25.1 25.1 0 0 1 .73 8.31 16.25 16.25 0 0 1-1.14 5.56A8.33 8.33 0 0 1 63 46c-.15.06-.3.1-.53.17v-1.46-2.81a.76.76 0 0 1 .15-.49 6.33 6.33 0 0 0 1.73-3.71 22.29 22.29 0 0 0-.35-9.12 7.2 7.2 0 0 0-4.13-4.82 13.05 13.05 0 0 0-9.06-.61 14.61 14.61 0 0 0-7.86 5.27C41.91 29.68 41 31 40 32.35c.24.22.41.35.54.5a2.1 2.1 0 0 1 .32 2.4 2 2 0 0 1-2.3 1c-.37-.09-.48 0-.62.33-1.24 2.75-2.5 5.49-3.75 8.23l-4.11 9.09c-.77 1.69-1.53 3.38-2.31 5.06-.11.24-.12.37.11.57a2.09 2.09 0 0 1 .55 2.36 2.05 2.05 0 0 1-2.08 1.23.53.53 0 0 0-.65.37c-.38.9-.8 1.79-1.23 2.74l.46.08a2.08 2.08 0 0 1-.13 4.14H14.79a2.5 2.5 0 0 1-2.73-1.67z"/><path class="cls-2" d="M60.32 56.57c-4.27-1.58-8-.89-10.89 2.65s-2.68 7.38-.22 11.23H39.79a2.5 2.5 0 0 1-2.48-2.92c.35-2.25.69-4.51 1.05-6.76s.63-4.27 1.08-6.38a21.42 21.42 0 0 1 4.25-9.24 16.6 16.6 0 0 1 9.53-5.92 10.74 10.74 0 0 1 2.06-.23h4.44c.55 0 .61.06.61.59v16.72c.01.07 0 .14-.01.26z"/><path class="cls-2" d="M63.49 64.64a7 7 0 1 1-7.33-6.74 7 7 0 0 1 7.33 6.74zm-7-3.26A3.52 3.52 0 1 0 60 64.89a3.56 3.56 0 0 0-3.5-3.52z"/></g></g></svg>