<svg xmlns="http://www.w3.org/2000/svg" viewBox="0 0 90.26 90.3"><defs><style>.cls-2{fill:#fff}</style></defs><g id="Слой_2" data-name="Слой 2"><g id="Слой_2-2" data-name="Слой 2"><path d="M45.11.5a44.71 44.71 0 0 0-44 37.35c0 .24-.08.48-.12.72v.17a45.54 45.54 0 0 0-.49 6.2 45 45 0 0 0 14 32.62l.31.3.78.7c.37.33.74.66 1.13 1l.1.09A44.64 44.64 0 1 0 45.11.5z" fill="#80c533" stroke="#fff" stroke-miterlimit="10"/><path class="cls-2" d="M66.62 27.86a3.54 3.54 0 0 1 1.91 4A23 23 0 0 1 63 44.16c-6 6.79-17.13 6.67-22.63.06a2.07 2.07 0 0 0-1.65-.43 49.43 49.43 0 0 0-17.3 6.56c-3.51 2.07-4.07 1.74-5.49-2.22a2 2 0 0 1 .83-2.64c6.77-5.51 14.67-8 23.19-8.93a5.23 5.23 0 0 0 1.84-.5 5.39 5.39 0 0 1 7 1.29c.54.63 1 1.35 1.49 2 2 2.53 4.94 3.17 7.49 1.08a31.07 31.07 0 0 0 5.46-6.2 54.36 54.36 0 0 0 3.39-6.37zm-19 14.29v-.8c-.67-.46-1.35-1.29-2-1.28A2.36 2.36 0 0 0 44 41.62c-.28 1.22.76 1.89 1.8 1.82.66-.03 1.2-.83 1.84-1.29z"/><path class="cls-2" d="M44.16 49.75l6.44 1.93a26.76 26.76 0 0 1-2.83 10.6c-1.55 3-3.4 5.91-5.11 8.86a2.26 2.26 0 0 1-3.32.91q-.88-.42-1.75-.86c-1.38-.71-1.75-1.46-.86-3.05C40 62.34 43 56.38 44.16 49.75zM47.46 33.61l12.2-12.53a17.41 17.41 0 0 1-1.07 11A29.87 29.87 0 0 1 54.78 38c-1.5 1.9-1.85 1.7-3.42-.25-1.22-1.51-2.68-2.85-3.9-4.14z"/></g></g></svg>