<svg xmlns="http://www.w3.org/2000/svg" viewBox="0 0 139.01 139.01"><defs><style>.cls-1{fill:#5cb530}.cls-2{fill:#fffff8;fill-rule:evenodd}</style></defs><g id="Слой_2" data-name="Слой 2"><g id="Слой_2-2" data-name="Слой 2"><path class="cls-1" d="M0 0h69.5v69.5H0z"/><circle class="cls-1" cx="69.5" cy="69.5" r="69.5"/><path class="cls-2" d="M73.06 81.38a87.09 87.09 0 0 0 .1 8.94c.12 1.14 1.25 2.24 2.09 3.22 1.64 1.92 3.38 3.77 5.12 5.61q2.1 2.2 4.32 4.28c.27.25.82.21 1.25.25a3 3 0 0 1 2.72 3.26A2.6 2.6 0 0 1 86 109.4a3 3 0 0 1-3.05-3 2.94 2.94 0 0 0-.53-1.7c-3-3.3-6-6.53-9.28-10.07v6h-3.62v-6.32c-1.13 1.18-1.86 1.93-2.57 2.7-2.28 2.46-4.59 4.9-6.8 7.42a3.89 3.89 0 0 0-.82 2.16c-.11 1.54-.69 2.56-2.3 2.77s-3.27-.86-3.42-2.11c-.18-1.54.38-3.23 1.91-3.25 2.73 0 3.7-2.19 5.19-3.63 2.81-2.74 5.39-5.72 8-8.63a2.55 2.55 0 0 0 .71-1.47c.07-2.86 0-5.71 0-8.78-.85 0-1.58-.11-2.32-.11H44a4.11 4.11 0 0 1-1.51-.06 2 2 0 0 1-1.15-1.08c-.08-.38.43-.9.69-1.35s1-1.15 1-1.72q.08-16.64 0-33.27c0-.59-.54-1.19-.86-1.77s-1-1.27-.87-1.64a2.23 2.23 0 0 1 1.6-1.22c3.95-.09 7.9 0 11.85 0 4.52 0 9 0 13.55-.09.57 0 1.12-.92 1.68-1.42l-.25-.41h3.14l.38 1.9h25.78a2.89 2.89 0 0 1 2.17 1c.46.79.07 1.67-1.11 2-.29.07-.53.93-.53 1.43v33.47c0 .58.61 1.16.94 1.74s.77 1 .69 1.36-.65.88-1.11 1.08a4 4 0 0 1-1.51.07H73.06zm-27.87-2.72h51.87v-36.4H45.19z"/><path class="cls-2" d="M84.45 49.89a2 2 0 0 0 .36 1c1.38 1.47 2.8 2.9 4.31 4.22a3.42 3.42 0 0 0 2.07.77 2.88 2.88 0 0 1 3.18 2.59 2.61 2.61 0 0 1-2.52 3.15c-1.72.15-3.44-1-3.28-2.66a3.6 3.6 0 0 0-1.13-3c-1.26-1.43-2.5-2.88-3.84-4.23-.73-.73-2.91-.28-3.54.6-1.56 2.17-3.15 4.31-4.64 6.52a2.34 2.34 0 0 0-.14 1.67 3.06 3.06 0 0 1-1.64 3.82c-1.31.58-2.76-.09-3.58-1.65s-4.45-2.33-5.91-1.42c-.62.39-1.5.86-2.08.69-1.56-.47-2.13.47-2.9 1.45-1.61 2-3.38 3.94-5 6a2.87 2.87 0 0 0-.48 1.84 3.1 3.1 0 0 1-2.34 3.43 3 3 0 0 1-3.27-2.33 2.74 2.74 0 0 1 2.39-3.3c1.6 0 2.21-.94 3-1.86q1.91-2.13 3.85-4.23a5.79 5.79 0 0 0 2-4.35 2.42 2.42 0 0 1 1.5-1.84c1.08-.15 2.76-.07 3.28.61 1.39 1.81 3.35 1.89 5.18 2.45a2 2 0 0 0 1.18-.2c.28-.11.48-.56.73-.58 3.46-.22 4.39-3.26 6-5.46 1-1.39 2.36-2.63 1.69-4.84-.44-1.45 1.34-3 2.78-2.94 1.89.1 3 1.51 2.79 4.08zm-10.4 11.66c-.61-.55-1.11-1.21-1.32-1.13-.48.19-1.14.74-1.14 1.14s.63 1 1.09 1.18c.32.07.77-.64 1.37-1.19zm-11.9-3.86c-.51.71-1 1.1-1 1.49s.64.94.92.9a1.59 1.59 0 0 0 1.13-.91c.06-.29-.52-.77-1.05-1.48zm29.34 2.5l1.21-1.39c-.4-.33-.76-.87-1.19-.93s-1.05.56-1 .83c0 .44.49.84.98 1.49z"/></g></g></svg>