<svg xmlns="http://www.w3.org/2000/svg" viewBox="0 0 47.76 47.32"><defs><style>.cls-1{fill:#5cb630;stroke:#fff;stroke-miterlimit:10;}</style></defs><title>facebook</title><g id="Слой_2" data-name="Слой 2"><g id="Слой_2-2" data-name="Слой 2"><path class="cls-1" d="M47.26,23v1.64c0,.13-.07.25-.09.38-.2,1.43-.28,2.89-.61,4.29A22.8,22.8,0,0,1,38.78,41.8a23,23,0,0,1-10,4.87V30.35h7l.68-7.2H29.26c-.34,0-.49-.06-.48-.45,0-1.34,0-2.67,0-4,.05-2.15,1.23-3.3,3.46-3.44a11.31,11.31,0,0,1,4,.56c.37.11.4,0,.44-.31.15-1.16.34-2.32.51-3.48s.32-2.27.49-3.52c-1.46-.25-2.89-.55-4.34-.72a19.46,19.46,0,0,0-5.13.07,12.56,12.56,0,0,0-5.38,1.89,7.35,7.35,0,0,0-3.5,6.49c0,2.13,0,4.25,0,6.38v.54H14.82v7.23h4.51V46.73l-.57-.1A22.9,22.9,0,0,1,7,40,22.81,22.81,0,0,1,1.16,29.26C.84,27.89.71,26.48.5,25.09V22.63c0-.36.07-.72.11-1.08A22.76,22.76,0,0,1,8,6.76,22.38,22.38,0,0,1,27.1.77c8.33,1.23,14.34,5.79,18,13.38a20.67,20.67,0,0,1,2,7.29C47.13,22,47.2,22.47,47.26,23Z"/></g></g></svg>