<svg xmlns="http://www.w3.org/2000/svg" id="svg15804" viewBox="0 0 8.856 8.478" height="32.044" width="33.473"><g transform="translate(-79.713 -163.511)" id="layer1"><g transform="matrix(.35278 0 0 -.35278 86.04 171.99)" id="g7999"><path id="path8001" d="M0 0l.001 4.163c0 1.399.016 2.797-.009 4.194-.008.472.161.621.618.607.884-.026 1.77-.007 2.764-.007l.29 3.39H.046c0 1.042-.085 2.018.05 2.963.042.292.665.661 1.054.707.736.086 1.495-.038 2.383-.082l.591 3.432c-.536.097-1.004.231-1.478.255-1.169.06-2.348.165-3.511.077-2.012-.152-3.416-1.649-3.544-3.667-.06-.951-.028-1.907-.042-2.86-.004-.239-.024-.479-.04-.784h-2.308c0-1.079-.014-2.092.021-3.103.004-.113.282-.296.446-.311.462-.044.936.025 1.394-.039.178-.025.463-.286.465-.441.027-2.728.017-5.458.011-8.187 0-.084-.046-.167-.087-.307H-5.2c-3.396 0-6.791-.001-10.187.001-1.452.001-2.541 1.045-2.544 2.495-.009 6.347-.01 12.693.001 19.039a2.49 2.49 0 0 0 2.507 2.491c6.68.009 13.359.009 20.038.001 1.419-.002 2.532-1.088 2.537-2.541.019-6.324.021-12.648-.001-18.972C7.146 1.019 6.038.002 4.547.001 3.065-.001 1.584 0 0 0" fill="#fff"/></g></g></svg>