<svg xmlns="http://www.w3.org/2000/svg" viewBox="0 0 90.26 90.3"><defs><style>.cls-2{fill:#fff;fill-rule:evenodd}</style></defs><g id="Слой_2" data-name="Слой 2"><g id="Слой_2-2" data-name="Слой 2"><path d="M45.11.5a44.71 44.71 0 0 0-44 37.35c0 .24-.08.48-.12.72v.17a45.54 45.54 0 0 0-.49 6.2 45 45 0 0 0 14 32.62l.31.3.78.7c.37.33.74.66 1.13 1l.1.09A44.64 44.64 0 1 0 45.11.5z" fill="#80c533" stroke="#fff" stroke-miterlimit="10"/><path class="cls-2" d="M57.6 70.4c-2.65-1.83-5.35-.07-8.38 1.11-1.75.68-4.1-.18-6.18-.34a7.75 7.75 0 0 0-2.65-.17 9.44 9.44 0 0 1-8.28-1.22 3.77 3.77 0 0 0-2.42-.57 9 9 0 0 1-10.26-6 8.79 8.79 0 0 1 4.68-10.74A3.35 3.35 0 0 0 26.27 50c.69-2.71 2.56-4.45 5-5.71a4.59 4.59 0 0 0 2-2 9 9 0 0 1 15.08-2.43A7 7 0 0 0 50.56 41h.2c4 1.53 8.34 2.63 12.06 4.74 3.13 1.78 4 5.24 3.19 8.93a4.41 4.41 0 0 0 .31 2.66c2.97 6.22-1.26 13.1-8.72 13.07zM45.65 36.07c-3.11-7.54 1.2-17.21 8.88-19.89a114.21 114.21 0 0 1 13.69-3.88l-14.51 5.84 3-.51.13.37c-.84.35-1.67.73-2.52 1.06-5.44 2.1-6.92 4.28-6.18 10.07a7.91 7.91 0 0 1-2.49 6.94zM65.22 15.76c-1.61 7.47-5.86 12.9-13.34 15.68 1-1.21 1.76-2.75 3-3.56C59.32 25 62.3 21 64.77 16.44c.13-.24.3-.44.45-.68zM41 31.26a58 58 0 0 0-2.18-5.51c-1.53-3-4.05-4.22-7.48-4a34.25 34.25 0 0 1-8.3-.66c2.92-.21 5.84-.49 8.77-.63 3.5-.16 6 1.63 8 4.34a21.61 21.61 0 0 1 3.48 8.8l-2.2-1.95a1.05 1.05 0 0 0-.09-.39z"/><path class="cls-2" d="M41 31.26a1.05 1.05 0 0 1 .06.38l.72 3.58-.43.38c-1.88-5.54-5.84-9-10.84-11.41l.37-.55 7.25 4.5.19-.12-4.18-4.43c2.54.9 4.24 2.91 5.54 5.37.44.79.9 1.54 1.32 2.3z"/><path class="cls-2" d="M26.73 24.63c2.37 1.66 4.66 3.41 7.09 4.93 1.66 1 3.53 1.74 5.21 2.78-3.64.99-9.88-3.07-12.3-7.71zM50.36 29.66a18.28 18.28 0 0 1 8.34-10.93z"/></g></g></svg>