<svg xmlns="http://www.w3.org/2000/svg" viewBox="0 0 98.9 98.9"><defs><style>.cls-3,.cls-4{fill:#fff}.cls-4{stroke:#fff;stroke-miterlimit:10;stroke-width:2px;fill-rule:evenodd}</style></defs><g id="Слой_2" data-name="Слой 2"><g id="Слой_2-2" data-name="Слой 2"><circle cx="49.45" cy="49.45" r="47.45" stroke-width="4" stroke="#fff" stroke-miterlimit="10" fill="#fff"/><path d="M49.45 3.13a46.32 46.32 0 1 0 46.32 46.32A46.32 46.32 0 0 0 49.45 3.13z" fill="#5cb530"/><path class="cls-3" d="M31.39 68.96h28.43v3.46H31.39zM51.62 54.24l-6.2-28.61-6.2 28.61C34.72 47.27 27 34.74 27 34.74l5 26.93h11.46l2-12.08 2 12.08h11.33l5-26.93s-7.72 12.53-12.22 19.5"/><path class="cls-4" d="M77.04 39.6l-3.28-5.84-3.28 5.84h2.77v29.35h1.01V39.6h2.78z"/><path class="cls-4" d="M70.48 66.58l3.28 5.84 3.28-5.84h-2.78V37.23h-1.01v29.35h-2.77z"/></g></g></svg>