<svg xmlns="http://www.w3.org/2000/svg" viewBox="0 0 205.67 205.67"><defs><style>.cls-1{fill:#fff}</style></defs><g id="Слой_2" data-name="Слой 2"><g id="Слой_2-2" data-name="Слой 2"><path class="cls-1" d="M102.83 205.67a102.83 102.83 0 1 1 102.84-102.84 102.95 102.95 0 0 1-102.84 102.84m0-201.73a98.9 98.9 0 1 0 98.9 98.9 99 99 0 0 0-98.9-98.9"/><path class="cls-1" d="M31.71 131.65l2.69 6.81-.38.15a9.13 9.13 0 0 1-5.55.62 7.35 7.35 0 0 1-5.23-4.76 8 8 0 0 1 4.67-10.86 8.06 8.06 0 0 1 10.89 4.81 7.4 7.4 0 0 1-1 7.75l-2.35-2a4.66 4.66 0 0 0 .69-4.76 5.26 5.26 0 0 0-7.11-2.83c-2.29.91-4.54 3.36-3.16 6.86.81 2 2.44 3.57 4.83 3l-1.51-3.83zM46.83 143.62a5.88 5.88 0 0 1 1.46 4 4.54 4.54 0 0 1-1.94 3.38 4.37 4.37 0 0 1-4.13.74 4.44 4.44 0 0 1-1.6-1l-2.45 8-2.31-3.12 2.62-7.25-.23-.31-5.16 3.82-1.85-2.5 12.84-9.5zM40 146.78l.53.71c.36.48 1.88 2.42 3.77 1s.47-3.39.13-3.85l-.55-.75zM53.28 168.09l-5-4.1-3.22 1.69-2.61-2.15 15.71-8.19 1.84 1.5-5.18 16.87-2.59-2.13zm.91-2.54l1.92-5.87-5.43 3zM74.14 169.93a3.12 3.12 0 0 0-1.76-2.36 1.91 1.91 0 0 0-2.8.73 1.35 1.35 0 0 0 0 1.19 5.48 5.48 0 0 0 1.33 1.65 9.29 9.29 0 0 1 2.21 2.86 4.35 4.35 0 0 1-.23 3.61c-1.35 2.8-4.31 3.75-7.28 2.31A6.58 6.58 0 0 1 62 174.8l2.68-.86a3.75 3.75 0 0 0 2.09 3.38 2.24 2.24 0 0 0 3.18-.91 1.86 1.86 0 0 0 .06-1.57 7.13 7.13 0 0 0-1.71-2.13 7.72 7.72 0 0 1-1.79-2.4 3.72 3.72 0 0 1 .15-3.23c1-2.12 3.46-3.54 6.66-2a6.15 6.15 0 0 1 3.27 3.65zM89.32 174.54a3.13 3.13 0 0 0-2.23-1.93 1.91 1.91 0 0 0-2.57 1.32 1.35 1.35 0 0 0 .24 1.16 5.46 5.46 0 0 0 1.66 1.32 9.29 9.29 0 0 1 2.78 2.3 4.34 4.34 0 0 1 .56 3.58c-.71 3-3.39 4.59-6.61 3.84a6.57 6.57 0 0 1-4.68-4.2l2.43-1.42a3.75 3.75 0 0 0 2.78 2.84 2.24 2.24 0 0 0 2.9-1.58 1.85 1.85 0 0 0-.28-1.54 7.13 7.13 0 0 0-2.13-1.7 7.74 7.74 0 0 1-2.27-2 3.72 3.72 0 0 1-.56-3.18c.54-2.29 2.61-4.21 6.06-3.4a6.15 6.15 0 0 1 4 2.85zM114.93 173.89l-5.72.59.37 3.55 5.48-.56.27 2.67-5.49.55.44 4.34 5.72-.58.27 2.67-8.81.89-1.62-15.89 8.82-.89.27 2.66zM126.1 176.05l-6.96-5.58 3.54-1.21 4.26 3.77 1.17-5.64 3.53-1.21-2.19 8.72 7.9 6.2-3.53 1.21-5.2-4.39-1.59 6.73-3.54 1.21 2.61-9.81zM140.05 161.24c1.52-1 2.67-1.47 4.21-1.23a5.43 5.43 0 0 1 4.25 6.1 5.47 5.47 0 0 1-2.66 3.36l-1.7 1.08 3.17 5-2.63 1.67-8.57-13.48zm2.67 7l1.07-.68a3.2 3.2 0 0 0 1.45-1.52 2.38 2.38 0 0 0-.28-2 2.2 2.2 0 0 0-1.72-1.06 3.77 3.77 0 0 0-2.13.76l-.91.58zM156.71 150.75l-4.09 4.03 2.5 2.55 3.92-3.86 1.88 1.91-3.92 3.86 3.05 3.11 4.1-4.03 1.88 1.91-6.32 6.21-11.2-11.39 6.32-6.21 1.88 1.91zM160.75 140.85a5.87 5.87 0 0 1 3.22-2.76 4.53 4.53 0 0 1 3.87.64 4.36 4.36 0 0 1 2.13 3.62 4.44 4.44 0 0 1-.37 1.84l8.36-.51-2.12 3.25-7.71.07-.21.32 5.38 3.5-1.7 2.61-13.39-8.71zm5.34 5.28l.48-.74c.33-.5 1.61-2.61-.36-3.89s-3.34.74-3.65 1.22l-.51.78zM170.64 127.1l12.4 4.77-1.11 2.9-12.41-4.76-1.29 3.35-2.5-.96 3.69-9.61 2.5.96-1.28 3.35zM102.83 160.31a57.47 57.47 0 1 1 57.47-57.47 57.54 57.54 0 0 1-57.47 57.47m0-111a53.54 53.54 0 1 0 53.54 53.54 53.6 53.6 0 0 0-53.54-53.55M40.6 45.47a4.54 4.54 0 0 0-4 1.67c-1.56 1.89-.84 3.47.09 4.24a2 2 0 0 0 1.69.44 7.92 7.92 0 0 0 2.81-1.31A13.52 13.52 0 0 1 46 48.36 6.44 6.44 0 0 1 51.14 50c3.54 2.87 3.86 7.4.86 11.13a9.59 9.59 0 0 1-8.55 3.39l-.32-4.11a5.47 5.47 0 0 0 5.54-1.79c1.27-1.62 1.26-3.62-.27-4.84a2.75 2.75 0 0 0-2.21-.64 10.43 10.43 0 0 0-3.62 1.69 11.17 11.17 0 0 1-4 1.7A5.51 5.51 0 0 1 34 55.17C31.28 53 30.07 49 33.36 45a8.92 8.92 0 0 1 6.33-3.36zM65.84 25.22l8.92 17.45-4.05 2.07-8.91-17.46-4.67 2.39-1.8-3.52 13.39-6.84 1.8 3.52-4.68 2.39z"/><path class="cls-1" d="M104.35 31.41l-9.4.42-1.84 5-4.93.22 9-24.48 3.42-.15L111.52 36l-4.89.22zm-1.49-3.68l-3.66-8.32-3 8.62zM139.91 20.92c2.92 1.35 4.06 2.81 4.66 4.1a6.72 6.72 0 0 1-.13 5.78 6.31 6.31 0 0 1-7.55 3.75l2.44 12.06-5.14-2.38L132.51 33l-.51-.23-4 8.6-4.13-1.91 9.89-21.39zm-6.55 8.92l1.17.54c.79.37 4.11 1.78 5.56-1.36s-1.75-4.7-2.52-5.06l-1.24-.57zM162.99 50.09l13.12.52 3.57 4.49-14.65-.96-3.49 16.02-3.73-4.72 3.12-13.06-.74-.08-7.86 6.24-2.82-3.57 18.46-14.64 2.82 3.57-7.8 6.19zM1.48 100.87h46.25v3.94H1.48zM158.43 100.87h46.25v3.94h-46.25zM29.54 84.27a47.52 47.52 0 0 1-2 13.52 46.29 46.29 0 0 1 0-27 47.5 47.5 0 0 1 2 13.51"/><path class="cls-1" d="M25 86.24a36.12 36.12 0 0 1 2.58 11.59 34.94 34.94 0 0 1-8.88-21.65A36.13 36.13 0 0 1 25 86.24"/><path class="cls-1" d="M30.1 86.24a36.17 36.17 0 0 0-2.58 11.59 36.15 36.15 0 0 0 6.31-10.06 36.17 36.17 0 0 0 2.57-11.59 36.13 36.13 0 0 0-6.3 10.06M180.14 84.27a47.51 47.51 0 0 1-2 13.52 46.29 46.29 0 0 1 0-27 47.5 47.5 0 0 1 2 13.51"/><path class="cls-1" d="M175.55 86.24a36.17 36.17 0 0 1 2.58 11.59 34.94 34.94 0 0 1-8.88-21.65 36.13 36.13 0 0 1 6.31 10.06"/><path class="cls-1" d="M180.7 86.24a36.12 36.12 0 0 0-2.58 11.59A34.94 34.94 0 0 0 187 76.18a36.13 36.13 0 0 0-6.31 10.06M70.79 116.13h9.31c.32-3 .65-6.44 1-9.91-4.34-7.78-10.55-19.48-10.55-19.48zM125.35 106.22c.33 3.48.67 6.9 1 9.91h9.32l.25-29.4s-6.21 11.7-10.55 19.48M70.68 125.82h65.07v4.6H70.68zM111.46 106.26l-8.24-38-8.24 38C89 97 78.74 80.35 78.74 80.35l6.7 35.78h15.17l2.61-16.06 2.61 16.06H121l6.7-35.78S117.43 97 111.46 106.26"/></g></g></svg>