<svg xmlns="http://www.w3.org/2000/svg" viewBox="0 0 55.72 35.07"><defs><style>.cls-1{fill:#34b24c;fill-rule:evenodd}</style></defs><g id="Слой_2" data-name="Слой 2"><g id="Слой_2-2" data-name="Слой 2"><path class="cls-1" d="M28.51 20.46L3.55 0h49.91z"/><path class="cls-1" d="M3.55 35.07c2.28-1.91 4-3.35 5.72-4.78 3.62-3 7.3-5.88 10.83-9 1.79-1.55 3.24-2.2 5 0a15 15 0 0 0 2.9 2.22l5.91-4.46 19.54 16zM0 1c2.88 2.3 5.22 4.15 7.53 6 3.69 3 7.32 6.11 11.06 9.06 1.54 1.21 1.79 2 .09 3.31-5.74 4.56-11.36 9.27-17 13.9a8.15 8.15 0 0 1-1.68.8zM55.72 2.16v31.26c-6.42-5.22-12.4-10.05-18.31-15a2 2 0 0 1 0-2C43.19 11.65 49.08 6.91 55 2.17c.06-.09.3-.01.72-.01z"/></g></g></svg>