<svg xmlns="http://www.w3.org/2000/svg" viewBox="0 0 38.21 29.29"><defs><style>.cls-1{fill:#fff;fill-rule:evenodd}</style></defs><g id="Слой_2" data-name="Слой 2"><g id="Слой_2-2" data-name="Слой 2"><path class="cls-1" d="M31.59.59L16 13.88.68.83C2-.08 28.47-.35 31.59.59zM0 2.53L10.86 12 0 21.22zM27.19 19.11l-.14.13a20.84 20.84 0 0 0-3.59 4.13l2.42-.1a27.89 27.89 0 0 1 3.71-2.07z"/><path class="cls-1" d="M25.74 17.84L20.18 13 16 16.6 11.83 13 .48 22.88c1.67.6 12.34.75 20.67.55a22.88 22.88 0 0 1 4.59-5.59z"/><path class="cls-1" d="M32.46 25.09l-2-3.25c-3.33 1.63-6.58 3.15-7 7.46-1.52-2-1.74-3.89-.8-5.52a20.15 20.15 0 0 1 4.09-5c1.12-1 1.28-1.64.52-2.72a9.76 9.76 0 0 1-.69-1.54l11.65 1.39z"/><path class="cls-1" d="M32.23 21.23v-5.68L27.78 15a2.63 2.63 0 0 1 .44 2.8z"/><path class="cls-1" d="M26.2 16.11a5.12 5.12 0 0 1-.57-1.17c-.08-.2-.16-.43-.28-.68l-.66-1.53 7.53.9V2.5L21.33 12l4.89 4.15z"/></g></g></svg>