<svg xmlns="http://www.w3.org/2000/svg" id="svg15223" viewBox="0 0 9.919 6.242" height="23.591" width="37.488"><g transform="translate(-95.308 -161.357)" id="layer1"><g id="g15199" transform="translate(-46.552 -1051.119)"><g id="g7921" transform="matrix(.35278 0 0 -.35278 146.935 1216.118)"><path d="M0 0l-12.592 10.323H12.59L0 0" id="path7923" fill="#fff" fill-rule="evenodd"/></g><g id="g7925" transform="matrix(.35278 0 0 -.35278 142.493 1218.718)"><path d="M0 0c1.15.962 2.014 1.691 2.887 2.411 1.824 1.504 3.681 2.967 5.466 4.517.902.782 1.634 1.109 2.514-.006.332-.42.875-.673 1.446-1.093l2.985 2.252L25.157 0z" id="path7927" fill="#fff" fill-rule="evenodd"/></g><path transform="matrix(.35278 0 0 -.35278 141.86 1212.658)" d="M0 0c1.451-1.161 2.634-2.092 3.799-3.043 1.862-1.52 3.69-3.085 5.582-4.569.777-.611.901-.988.046-1.669-2.895-2.302-5.73-4.678-8.597-7.015-.192-.156-.465-.215-.83-.377z" id="path7931" fill="#fff" fill-rule="evenodd"/><g id="g7933" transform="matrix(.35278 0 0 -.35278 151.78 1212.86)"><path d="M0 0v-15.771c-3.238 2.634-6.258 5.072-9.237 7.556-.175.147-.188.85-.021.988C-6.326-4.789-3.354-2.398-.387-.005-.334.037-.217 0 0 0" id="path7935" fill="#fff" fill-rule="evenodd"/></g></g></g></svg>