<svg xmlns="http://www.w3.org/2000/svg" id="svg30799" viewBox="0 0 8.004 4.439" height="16.779" width="30.253"><g transform="translate(-99.07 -159.688)" id="layer1"><g id="g30774" transform="matrix(.35278 0 0 -.35278 -269.916 2589.552)"><g id="g7173" transform="translate(1068.633 6887.543)"><path d="M0 0v-11.808c-.024.016-.049.03-.072.047l-7.169 5.135c-.029.021-.054.047-.086.076l.232.211L-1.1-.971c.365.326.734.648 1.1.971" id="path7175" fill="white"/></g><g id="g7177" transform="translate(1046.188 6887.806)"><path d="M0 0h22.182c-.046-.042-.075-.071-.107-.095-3.586-2.741-7.173-5.481-10.757-8.224-.087-.067-.14-.056-.219.004C7.444-5.577 3.789-2.841.133-.105.099-.08.065-.052 0 0" id="path7179" fill="white"/></g><g id="g7181" transform="translate(1057.4 6877.834)"><path d="M0 0l3.438 2.626 7.771-5.239h-22.417l7.998 4.977L0 0" id="path7183" fill="white"/></g><g id="g7185" transform="translate(1045.944 6875.735)"><path d="M0 0v11.814l7.788-6.825L0 0" id="path7187" fill="white"/></g></g></g></svg>