<svg xmlns="http://www.w3.org/2000/svg" viewBox="0 0 98.9 98.9"><g id="Слой_2" data-name="Слой 2"><g id="Слой_2-2" data-name="Слой 2"><circle cx="49.45" cy="49.45" r="47.45" stroke-miterlimit="10" fill="#fff" stroke="#fff" stroke-width="4"/><path d="M48.46 9.46v10.19s-39.8 3.66-39.8 37.22a36.75 36.75 0 0 0 13.22 27.92c9.75 8 22.6 11.08 26.58 11.08C71.68 95.86 95 77.47 95 49.34 95 19 69 3.59 53 3c6.67 2.42 32.31 8.9 32.31 37.7S60 78.58 47.57 78.58v10.64S21 71.65 21.43 64.12 48 42.69 48 42.69V55.1s25.27-13.18 25.27-22.82S48.46 9.46 48.46 9.46z" fill="#5cb530"/><circle cx="49.45" cy="49.45" r="46.41" fill="none" stroke="#5cb530" stroke-width="3" stroke-miterlimit="10"/></g></g></svg>