<svg xmlns="http://www.w3.org/2000/svg" viewBox="0 0 90.26 90.3"><g id="Слой_2" data-name="Слой 2"><g id="Слой_2-2" data-name="Слой 2"><path d="M45.11.5a44.71 44.71 0 0 0-44 37.35c0 .24-.08.48-.12.72v.17a45.54 45.54 0 0 0-.49 6.2 45 45 0 0 0 14 32.62l.31.3.78.7c.37.33.74.66 1.13 1l.1.09A44.64 44.64 0 1 0 45.11.5z" fill="#80c533" stroke="#fff" stroke-miterlimit="10"/><path d="M31.27 51.33l-11.71-20-1.74-3c-.66-1.14-1.46-2.38.15-3.29s2.16.44 2.78 1.5c4.54 7.77 9.13 15.46 13.57 23.27.92 1.6 1.89 2.26 3.92 1.62-1.39-2.85 2.32-3.21 3.1-5.5h-3.85v-9.7c3.86.28 7.67.38 11.44.87a89.78 89.78 0 0 1 9.39 2 1.84 1.84 0 0 1 1.1 1.31c.13 1.72.05 3.46.05 5.51h-9.2c-1.36 0-1.36 0-1.24 1.63h5.72c3.44 0 4.13.66 4.22 4 0 .25 0 .51.13 1.33a23.29 23.29 0 0 0 4.65-1.1 7.39 7.39 0 0 1 9.51 2.5 7.26 7.26 0 0 1-1.57 9.67 7.35 7.35 0 0 1-9.81-.69 4.16 4.16 0 0 0-2.58-1.11Q48 62 36.6 62.14a3.86 3.86 0 0 0-2.43 1 7.27 7.27 0 0 1-12.11-7.59 7.19 7.19 0 0 1 8.24-4.42zm35.86 3.4a3.51 3.51 0 1 0 3.55 3.45 3.42 3.42 0 0 0-3.54-3.45zm-34.82 3.53a3.42 3.42 0 0 0-3.48-3.53 3.51 3.51 0 1 0-.06 7 3.48 3.48 0 0 0 3.54-3.47z" fill="#fff"/></g></g></svg>