<svg xmlns="http://www.w3.org/2000/svg" viewBox="0 0 30.93 30.95"><defs><style>.cls-1{fill:#fff;fill-rule:evenodd}</style></defs><g id="Слой_2" data-name="Слой 2"><g id="Слой_2-2" data-name="Слой 2"><path class="cls-1" d="M28.35 9.47a5.7 5.7 0 0 1-2.91-3C23.48 2 19.92 0 15 0A10.94 10.94 0 0 0 5 7.75a1.73 1.73 0 0 1-1 1 5.57 5.57 0 0 0-4 6.16 5.34 5.34 0 0 0 4.22 4.57c1 .11 1.48-.16 1.45-1.28-.06-2.39 0-4.79 0-7.18a1.46 1.46 0 0 1 1.06-1.59 18.17 18.17 0 0 0 3.34-2 19.27 19.27 0 0 0 2.14-2.2 11.33 11.33 0 0 0 12.35 1.53 12.21 12.21 0 0 1 .62 2.55c.07 3.55.24 7.12 0 10.65A8 8 0 0 1 20 27.12c-1 .4-1.83.63-2.63-.53a2.47 2.47 0 0 0-3.69-.18 2.67 2.67 0 0 0 0 3.82 2.43 2.43 0 0 0 3.74-.34A3.81 3.81 0 0 1 20 28.23a9.54 9.54 0 0 0 1.21-.48c2.91-1.45 4.29-4 5-7 .16-.7.3-1.18 1.17-1.38a5.33 5.33 0 0 0 3.54-4.26c.2-2.42-.42-4.52-2.57-5.64z"/><path class="cls-1" d="M19.68 19.1a2.94 2.94 0 0 0 .07-1.1c-.33.19-.84.29-1 .57-1 2.29-5.54 2.35-6.63 0-.13-.27-.55-.42-.83-.62 0 .39-.2.84-.05 1.15.82 1.72 2.47 2.1 4 2.37a4.91 4.91 0 0 0 4.44-2.37zM19.11 13.81c.46-.06.86-.53 1.29-.82v-.58c-.46-.29-.93-.84-1.37-.81s-.93.63-1.05 1.08c-.2.8.43 1.23 1.13 1.13zM11.84 13.82c.48-.07.91-.55 1.37-.85-.24-1.06-.66-1.6-1.4-1.39a1.83 1.83 0 0 0-1 1.15.87.87 0 0 0 1.03 1.09z"/></g></g></svg>