<svg xmlns="http://www.w3.org/2000/svg" viewBox="0 0 98.17 98.17"><defs><style>.cls-2{fill:#f7f7f6}</style></defs><g id="Слой_2" data-name="Слой 2"><g id="Слой_2-2" data-name="Слой 2"><circle cx="49.08" cy="49.08" r="48.58" fill="#80c533" stroke="#fff" stroke-miterlimit="10"/><path class="cls-2" d="M80.42 61.14c-5.05-1.69-16.26-4-34-4.41l-4.07-20c2.34.49 6.11-1.76 8.95-3.32A6.58 6.58 0 0 1 59.32 35c1.52 1.69 3.54 1.52 2 0S60 26.74 60 26.74a8.65 8.65 0 0 0-6.75-3.58c-3.21 0-5.4 3.21-7.93 3.54A12.12 12.12 0 0 1 40 25.57L39.05 21l-2.55.6 7.17 35.15C26.68 57.11 9 64.61 9 64.61c50.83 0 63 16.64 66.8 16.42s6.75-5.62 10.8-11 .3-6.72-6.18-8.89z"/><path class="cls-2" d="M9 67.08s5.15 12.48 21 19.34a47.52 47.52 0 0 0 40.66-.84s-13.44-10-25.81-13.78S15.12 66 9 67.08z"/></g></g></svg>