<svg xmlns="http://www.w3.org/2000/svg" viewBox="0 0 90.26 90.3"><defs><style>.cls-2{fill:#fff;fill-rule:evenodd}</style></defs><g id="Слой_2" data-name="Слой 2"><g id="Слой_2-2" data-name="Слой 2"><path d="M45.11.5a44.71 44.71 0 0 0-44 37.35c0 .24-.08.48-.12.72v.17a45.54 45.54 0 0 0-.49 6.2 45 45 0 0 0 14 32.62l.31.3.78.7c.37.33.74.66 1.13 1l.1.09A44.64 44.64 0 1 0 45.11.5z" fill="#80c533" stroke="#fff" stroke-miterlimit="10"/><path class="cls-2" d="M43.57 70.06c-7.68-2.44-14.8-5.57-21.82-8-.79-.28-1.54-2-1.56-3-.12-9.55-.07-10.46-.07-21 7.72 2.48 14.91 4.73 22 7.19.7.24 1.35 1.75 1.36 2.68.13 9.68.09 11.7.09 22.13zM45.79 70c0-10.46-.08-12.34.11-21.88 0-1.16.5-1.48 1.61-2.14a27 27 0 0 1 5.34-2.16c1.4-.49 3.48-.77 5.34-1.43a49.76 49.76 0 0 0 9.59-4.7l1.46.81v10.18c0 6.06.14 3.48-.11 9.53-.06 1.38-1.13 3.52-2.24 3.92-6.71 2.48-13.54 5.48-21.1 7.87zM41.66 29.95c1.67-.89 3.27-4 4.87-4.19 5.28-.64 19 6.46 27.81 7.73-2.84 1.59-5.68 3.42-7.92 3.42-3.72 0-17.03-5.73-24.76-6.96zM40.95 29.87c-1.41-.67-3.83-4.17-5.14-4.26-4.35-.29-16.18 5.38-23.29 6.87 2.4 1.21 6.72 4.53 8.56 4.42 3.03-.18 13.62-5.63 19.87-7.03z"/></g></g></svg>