<svg xmlns="http://www.w3.org/2000/svg" viewBox="0 0 168.57 168.65"><defs><style>.cls-1{fill:#84c441;stroke:#fff;stroke-miterlimit:10;}.cls-2{fill:#fff;}</style></defs><title>pallet</title><g id="Слой_2" data-name="Слой 2"><g id="Layer_0_Изображение" data-name="Layer 0 Изображение"><path class="cls-1" d="M84.25.5A83.94,83.94,0,0,0,1.56,70.61c-.07.45-.16.89-.22,1.34,0,.11,0,.21,0,.32A85.5,85.5,0,0,0,.5,83.94a84.46,84.46,0,0,0,26.2,61.24l.58.56c.48.45,1,.88,1.46,1.32.7.62,1.4,1.24,2.12,1.83l.19.16A83.81,83.81,0,1,0,84.25.5Z"/><rect class="cls-2" x="22.54" y="102.84" width="123.5" height="2.5"/><rect class="cls-2" x="22.54" y="124.84" width="123.5" height="2.5"/><rect class="cls-2" x="27.04" y="106.59" width="22.5" height="17"/><rect class="cls-2" x="120.54" y="106.59" width="22.5" height="17"/><rect class="cls-2" x="73.04" y="106.59" width="22.5" height="17"/><circle class="cls-2" cx="38.29" cy="87.72" r="13.88"/><circle class="cls-2" cx="68.41" cy="87.72" r="13.88"/><circle class="cls-2" cx="100.29" cy="87.72" r="13.88"/><circle class="cls-2" cx="131.41" cy="87.72" r="13.88"/><rect class="cls-2" x="29.23" y="45.34" width="45.59" height="24.5"/><ellipse class="cls-2" cx="29.23" cy="57.59" rx="5.7" ry="12.25"/><ellipse class="cls-2" cx="74.5" cy="57.59" rx="5.7" ry="12.25"/><rect class="cls-2" x="92.98" y="45.34" width="45.59" height="24.5"/><ellipse class="cls-2" cx="92.98" cy="57.59" rx="5.7" ry="12.25"/><ellipse class="cls-2" cx="138.25" cy="57.59" rx="5.7" ry="12.25"/></g></g></svg>