<svg xmlns="http://www.w3.org/2000/svg" viewBox="0 0 139.01 139.01"><defs><style>.cls-1{fill:#5cb530}.cls-2{fill:#fffff8}</style></defs><g id="Слой_2" data-name="Слой 2"><g id="Слой_2-2" data-name="Слой 2"><path class="cls-1" d="M0 0h69.5v69.5H0z"/><circle class="cls-1" cx="69.5" cy="69.5" r="69.5"/><path class="cls-2" d="M68.12 37.35s-5.82-.61-6.12 5.21-2.34 3.74-1.46 7c.48 1.8 1.15 1.84 1.15 1.84l.61 9.81a6.2 6.2 0 0 0 4.29 5.21v7.36s-2.36 4.6-6.55 4.6-17.66 1.88-17.66 17.82h55.16s.31-17.77-14.1-17.77c0 0-7-.31-7-4.29v-7.38s6.13-4.59 6.13-11.94 1.23-12.57-4-13.79-10.45-.31-10.45-3.68z"/><path class="cls-2" d="M50 79v-4.56a4.55 4.55 0 0 0 3.26-3.81l.46-7.17a8.42 8.42 0 0 0 1.56-2.28c.81-2.38-1.56 0-1.79-4.23s-4.66-3.81-4.66-3.81c0 2.47-4 1.79-7.91 2.69s-3 4.71-3 10.09 4.65 8.74 4.65 8.74v5.39c0 2.91-5.35 3.14-5.35 3.14-10.94 0-10.71 13-10.71 13h14C40.54 86.32 45.24 81.42 50 79z"/><path class="cls-2" d="M55 83.19a5.71 5.71 0 0 1-4.34-2.44c-4.31 2.3-8.3 6.78-8.3 15.44h26c.07-11.66-10.17-13-13.36-13zM89.47 63.46l.45 7.17a4.53 4.53 0 0 0 3.14 3.81v5.45c.3.26.6.53.89.82 5.52 5.61 5.48 14.89 5.48 15.48h16.27s.22-13-10.32-13c0 0-5.16-.22-5.16-3.14v-5.39s4.48-3.36 4.48-8.74.9-9.19-2.91-10.09-7.62-.23-7.62-2.69c0 0-4.26-.45-4.48 3.81s-2.4 2.07-2 4.53 1.78 1.98 1.78 1.98z"/><path class="cls-2" d="M91.91 81.38a5 5 0 0 1-3.65 1.81c-3.06 0-12.93 1.34-12.93 13h22.2s.17-9.75-5.62-14.81z"/></g></g></svg>