<svg xmlns="http://www.w3.org/2000/svg" id="svg15314" viewBox="0 0 16.521 16.521" height="62.44" width="62.44"><g transform="translate(-84.06 -161.36)" id="layer1"><g id="g15291" transform="translate(-.525 22.905)"><g id="g7829" transform="matrix(.35278 0 0 -.35278 100.93 146.715)"><path d="M0 0c0-12.656-10.26-22.915-22.915-22.915S-45.83-12.656-45.83 0c0 12.655 10.26 22.915 22.915 22.915S0 12.655 0 0" id="path7831" fill="#5cb830" fill-rule="evenodd"/></g><g id="g7833" transform="matrix(.35278 0 0 -.35278 100.93 146.715)"><path d="M0 0c0-12.656-10.26-22.915-22.915-22.915S-45.83-12.656-45.83 0c0 12.655 10.26 22.915 22.915 22.915S0 12.655 0 0z" id="path7835" fill="none" stroke="#fff" stroke-miterlimit="10"/></g><g id="g7837" transform="matrix(.35278 0 0 -.35278 94.824 148.89)"><path d="M0 0c-3.719-3.756-6.528-5.968-10.007-7.169-2.984-1.03-5.091-.254-6.711 2.403-.12.197-.237.416-.277.639-.439 2.498 1.44 3.545 3.037 4.717 1.347.988 2.448.891 3.69-.145C-8.641-.913-8.039-1.011-6.389.356-3.64 2.635-1.28 5.282.393 8.47c.832 1.583.695 2.047-.668 3.223-1.409 1.214-1.682 2.333-.829 3.964a16.135 16.135 0 0 0 1.681 2.57c1.03 1.293 2.355 1.451 3.725.556 2.86-1.868 3.45-3.229 2.636-6.61C5.663 6.871 2.564 2.65 0 0" id="path7839" fill="#fff" fill-rule="evenodd"/></g></g></g></svg>