<svg xmlns="http://www.w3.org/2000/svg" id="svg31382" viewBox="0 0 5.937 5.934" height="22.429" width="22.438"><g transform="translate(-96.598 -157.304)" id="layer1"><g transform="matrix(.35278 0 0 -.35278 101.222 163.238)" id="g7169"><path id="path7171" d="M0 0c-.572.19-1.68.424-2.664.907-4.208 2.066-7.315 5.282-9.489 9.41-.334.633-.577 1.329-.762 2.022-.517 1.932-.002 3.13 1.701 4.168.664.405 1.391.46 1.912-.082.693-.721 1.3-1.55 1.814-2.41.465-.781.02-1.493-.575-2.005-.872-.748-.868-1.597-.181-2.32a99.74 99.74 0 0 1 4.969-4.873c.712-.654 1.491-.595 2.228.223.831.923 1.55.948 2.643.322.256-.146.502-.315.731-.499.802-.644 1.68-1.283 1.306-2.509C3.27 1.161 1.651-.028 0 0" fill="white" fill-rule="evenodd"/></g></g></svg>