<svg xmlns="http://www.w3.org/2000/svg" viewBox="0 0 98.17 98.17"><defs><style>.cls-2{fill:#f7f7f6;fill-rule:evenodd}</style></defs><g id="Слой_2" data-name="Слой 2"><g id="Слой_2-2" data-name="Слой 2"><circle cx="49.08" cy="49.08" r="48.58" fill="#80c533" stroke="#fff" stroke-miterlimit="10"/><path class="cls-2" d="M26.39 76.12l-7.77-17c4.84-1.78 9.31-3.75 14-5 1.8-.48 4.17.42 6.05 1.23a23.23 23.23 0 0 1 5.3 3.55 18.2 18.2 0 0 0 11.79 4.2c.82 0 3.67-.38 4.48.07a1.8 1.8 0 0 1 .07 3.09 18.16 18.16 0 0 1-4.44 1.68c-5.07.34-10.17.12-16.28.12a18.66 18.66 0 0 1 2.31.9c6 3.3 12.38 2.7 18.54.8 1.41-.44 3-3.34 2.85-4.91s-2.29-3.36-4-4.1c-1.84-.81-4.16-.53-6.38-1.05 3.54-1.95 6.18-6.49 11.45-3.5.55.31 1.64-.15 2.41-.44 2.6-1 4.91-1.06 6.46 1.69a4.23 4.23 0 0 0 1.18 0c2.42-.79 5.21-2 6.6 1.07 1.31 2.88-1.48 4.24-3.42 5.45C70.45 68.38 63.18 72.61 56 77a8.87 8.87 0 0 1-8.25.88c-2.7-1-5.55-1.68-8.15-2.9-4.44-2.06-8.73-3.32-13.21 1.14zM51.66 49.64a12.06 12.06 0 0 1-11.85-11.73 11.77 11.77 0 1 1 23.54-.18 12.1 12.1 0 0 1-11.69 11.91zm-2.93-15.58c.42 3.06.57 5.11 1 7.08.18.75 1.07 1.32 1.64 2 .71-.65 1.93-1.24 2-2a54.2 54.2 0 0 0 .1-6.73c0-2.25-1.42-2.49-3-1.8a5.5 5.5 0 0 0-1.74 1.45zM64.68 32.83L63 20.25l-3.74 1.5 2.27 4.07-7.84-2.93c.75-4.68 3.92-7.52 8.32-7.62A9.53 9.53 0 0 1 71.29 23c.78 3.79-1.55 7.74-6.61 9.83z"/></g></g></svg>