<svg xmlns="http://www.w3.org/2000/svg" viewBox="0 0 98.17 98.17"><defs><style>.cls-2{fill:#f7f7f6}</style></defs><g id="Слой_2" data-name="Слой 2"><g id="Слой_2-2" data-name="Слой 2"><circle cx="49.08" cy="49.08" r="48.58" fill="#80c533" stroke="#fff" stroke-miterlimit="10"/><path class="cls-2" d="M66.81 52.48l-7.88-2.21V49.1c1.1-.36 2.35-1.24 3.28-1a46.26 46.26 0 0 1 7.8 3c2.17 1.06 3.31 4.31 2 7.69-.21.51 0 1.18 0 1.77-.14 1.24.08 2.9-.62 3.61-1.2 1.19-.88 2.23-.6 3.45.07.31.36.74.24.91-2.25 3.35-1 8.72-5.46 10.62A28.13 28.13 0 0 1 55 81.74c-6 0-12-.91-18-1.4-4-.32-8-.56-12.14-.84V57.87c2-.21 4-.5 6-.6C36.2 57 41 55.16 43.8 50.57c2.1-3.42 3.18-7.51 4.44-11.38a42.29 42.29 0 0 0 1.48-7.34c.29-2.09 1.44-2.54 3.22-2.16 3.7.8 6 4.47 5.39 8.81-.35 2.38-1.09 4.71-1.59 7.07-1.14 5.41 2.27 9 7.79 8.21.71-.09 1.33-.78 2.28-1.3zM33.89 28c6.13 1.91 7.34 2.75 6.83 5.06l-8-2.1zM62.25 30.24l7.61-4.37 1.53 2.92c-2.34.93-4.52 1.9-6.77 2.62-.47.15-1.23-.58-2.37-1.17zM46.62 26.28l-4.48-7.65 3-1.5c.91 2.29 1.85 4.38 2.52 6.56.18.54-.51 1.31-1.04 2.59z"/><path class="cls-2" d="M42.47 42l-7.52 4.37-1.5-3c2.37-.93 4.55-1.88 6.8-2.59.46-.15 1.2.62 2.22 1.22zM63.38 40.2c.73-.25 1.52-.81 2.18-.68 2.12.41 4.18 1.08 6.5 1.71l-1.14 3.12-7.22-3.18zM57.55 16.43l2.88 1.07c-1.23 5.17-2.79 7.42-5 6.8z"/></g></g></svg>