<svg xmlns="http://www.w3.org/2000/svg" viewBox="0 0 90.26 90.3"><defs><style>.cls-2{fill:#f8fff8}</style></defs><g id="Слой_2" data-name="Слой 2"><g id="Слой_2-2" data-name="Слой 2"><path d="M45.11.5a44.71 44.71 0 0 0-44 37.35c0 .24-.08.48-.12.72v.17a45.54 45.54 0 0 0-.49 6.2 45 45 0 0 0 14 32.62l.31.3.78.7c.37.33.74.66 1.13 1l.1.09A44.64 44.64 0 1 0 45.11.5z" fill="#80c533" stroke="#fff" stroke-miterlimit="10"/><path class="cls-2" d="M62.09 57c.72 1 1.47 1.63 1.41 2.15s-.87 1.15-1.5 1.3c-.31.08-1.2-.8-1.21-1.25s.66-1.2 1.3-2.2zM59.43 65.53c-.76-1-1.54-1.58-1.47-2.06a2.12 2.12 0 0 1 1.42-1.36c.35-.08 1.25.76 1.29 1.22s-.6 1.15-1.24 2.2zM65 61.33c.68 1.06 1.3 1.61 1.3 2.17s-.84 1.31-1.17 1.25a2.09 2.09 0 0 1-1.47-1.24c-.12-.51.6-1.11 1.34-2.18z"/><path class="cls-2" d="M41 66.45H25c-2.3 0-2.55-.49-2.51-2.73.05-3.86-.22-7.72-.23-11.58V25.56c2.8-.68 2.8-.68 2.71-2.13l-1-.1-1-.05c-.12-.22-.23-.33-.25-.45-.54-4.71-.54-4.71 4.3-4.71h29.43c3.73 0 3.73 0 3.48 3.76 0 .41-.06.82-.09 1.18-.79.68-3-.53-2.26 2l2.48.18.81 25.11c7.47 2.65 12 8.59 14.91 16 1.14 2.84.46 3.77-2.59 3.78H44.07c-2.76-.05-3.31-.67-3.07-3.68zm32.25.85a3 3 0 0 0-.09-.88c-2.16-4.64-5-8.77-9.28-11.71-3.53-2.42-7.06-2.35-10.59 0a25.39 25.39 0 0 0-8.16 9.49c-.5.94-.88 1.94-1.38 3.06zM43.21 36.73l-.7 11.88.58.06c.91-1.31 1.73-2.7 2.75-3.92s2.19-2.21 3.3-3.31a23 23 0 0 1-1.43 4.71c-.52 1.47-.91 3-1.44 4.78a9.91 9.91 0 0 0 4.9-11.23 10.3 10.3 0 0 0-9.62-7.78 10.51 10.51 0 0 0-9.87 6.94c-1.17 3.35-.44 8.68 3.69 11.24l-1.91-7.54.51-.27 5.19 8.37c.42-4.83 1.2-9.66 4.05-13.93zM30.05 25c4.34.29 4.34.29 4.14-1.51C30.23 23 30 23.08 30.05 25zm13.28-1.61c-4.34-.22-4.34-.22-4 1.6 4.09.37 4.14.36 4-1.58zM48 24.91c4.67.55 4.92.45 4.43-1.69-1.37.67-3.43-.99-4.43 1.69z"/></g></g></svg>