<svg xmlns="http://www.w3.org/2000/svg" viewBox="0 0 98.9 98.9"><g id="Слой_2" data-name="Слой 2"><g id="Слой_2-2" data-name="Слой 2"><circle cx="49.45" cy="49.45" r="47.45" fill="#fff" stroke="#fff" stroke-miterlimit="10" stroke-width="4"/><path d="M47.68 97.17c-1-.13-1.92-.29-2.89-.38A46.42 46.42 0 0 1 22 88.35a47.55 47.55 0 0 1-18.16-52.9A47.65 47.65 0 0 1 32.48 4.84a50.25 50.25 0 0 1 10.65-2.72 1.78 1.78 0 0 1 .38 0c.1 2.18.18 4.34.31 6.49.18 3 .58 6.09.56 9.13a26.9 26.9 0 0 1-3.15 12 31.11 31.11 0 0 1-6.49 8.7 21.31 21.31 0 0 1-6.74 4.5c-2.79 1.1-4.23.66-5.75-1.81-1.25-2-3-2.17-5-2 2.89.34 3.88 2.88 5.76 4.74-2.44.15-4.58 1.2-6.87.35-2.47-.91-4.1.51-5.64 2.12a3.24 3.24 0 0 0-.76 1.25 10 10 0 0 1 1.15-1.18 5.92 5.92 0 0 1 6.37-.89 9 9 0 0 0 2.59.29 9.46 9.46 0 0 1-.5.82c-1.39 1.84-2.89 3.61-4.16 5.53A8.11 8.11 0 0 0 13.91 58a11 11 0 0 1 2.65-6.45c1.34-1.6 2.95-3 4.34-4.54a2.76 2.76 0 0 1 2.68-1 54.87 54.87 0 0 0 5.77.05c-.13.69-.29 1.44-.43 2.19-.35 1.88-.72 3.76-1 5.65a8.25 8.25 0 0 1-4.43 6.1c-2 1.1-4 2.18-6 3.23a3.79 3.79 0 0 1-2.66.23 9.06 9.06 0 0 0-2.54-.14c.91.23 1.84.4 2.73.7s1 .45.33 1.27a15.71 15.71 0 0 0-3.35 6.5 6.77 6.77 0 0 0-.1.76.85.85 0 0 0 0 .24 19.13 19.13 0 0 1 1.85-4 16.48 16.48 0 0 1 6.89-5.47 45.73 45.73 0 0 0 5.36-3c.35-.2.66-.47 1.24-.89-.18 1.15-.34 2-.47 2.95a15.44 15.44 0 0 0-.33 2.9A8.16 8.16 0 0 1 24 72c-2.28 2.22-2 2.39-1.84 6.31a13.19 13.19 0 0 1 4.77-8.25c2.51 2.79 2.68 6.15 2.33 9.86a11 11 0 0 0 0-8.24 13.79 13.79 0 0 1-1.68-7.57 27.07 27.07 0 0 1 .61-3.05c.42-1.77.9-3.53 1.3-5.3a47 47 0 0 1 1-4.79 42.88 42.88 0 0 1 2.3-5 2.11 2.11 0 0 1 .81-.76c3.35-2 6.77-4 9.52-7.1.07.34.17.52.13.66-1.13 4.65-2.19 9.34-4.94 13.36a7.54 7.54 0 0 1-2.55 2 4.18 4.18 0 0 0-2.11 2.41c-.52 1.56-1.26 3-1.78 4.59-.79 2.32-.12 4.6.35 6.88.14.69.36 1.36.52 1.94a46.21 46.21 0 0 1 .07-6.68 42.9 42.9 0 0 1 1.88-6.5 1.47 1.47 0 0 1 .66-.67c1.35-.81 2.72-1.59 4.17-2.43a17.87 17.87 0 0 1 2 7.79 1.51 1.51 0 0 1-.28.75c-1 1.46-2.05 2.88-3 4.36a3.55 3.55 0 0 0-.5 1.68 24.45 24.45 0 0 0 .88 7.69c-.06-1.27 0-2.56-.2-3.81a8.3 8.3 0 0 1 2.52-7.34 25.75 25.75 0 0 0 1.89-2.42 22 22 0 0 1 3.54 17.22h.31c.13-.85.28-1.71.38-2.57s.17-1.83.23-2.74a27.63 27.63 0 0 0-2.16-11.82A77.73 77.73 0 0 1 42.62 54a5.57 5.57 0 0 1 .4-4 63.78 63.78 0 0 1 7.06-10.65l.53-.66c.53.9 1.05 1.71 1.51 2.55a20.74 20.74 0 0 1 2.51 5.46 9.21 9.21 0 0 1-.35 5.1c-.89 2.48-2.09 4.84-3.14 7.26a29.72 29.72 0 0 0-1.54 4.2l1.82-3.36c1.62 3.24 3.24 6.13 1.72 9.61a8 8 0 0 0 .7-6.06 14.73 14.73 0 0 1-.8-3.1 3.22 3.22 0 0 1 .21-1.86c1.11-2.14 2.32-4.23 3.65-6.6.3.91.56 1.54.7 2.19a26.38 26.38 0 0 1 .75 8.38 51.12 51.12 0 0 1-1 6.62 11.28 11.28 0 0 1-1.65 3.27c-1.47 2.31-1.36 4.8-1 7.33a17.28 17.28 0 0 0 .76 3.1c-.12-1.29-.27-2.58-.35-3.87a10.24 10.24 0 0 1 1.16-5.78 2.74 2.74 0 0 1 .5-.51 2.2 2.2 0 0 1 .44.55c.85 2.36 1.68 4.73 2.58 7.11-.16-1-.28-1.94-.49-2.89-.36-1.63-.81-3.23-1.15-4.86a3 3 0 0 1 0-1.57c.63-1.77 1.36-3.51 2.07-5.3a24.75 24.75 0 0 1 6.46 3.88c1.4 1.25 1.77 3 2 4.75.24 2 .49 4 .79 6a6.42 6.42 0 0 0 .55 1.4l-1.21-11.2c4.51-.26 8 1.2 9.9 5.43a10.37 10.37 0 0 0-2.89-4.72 6.47 6.47 0 0 0-3-1 18.1 18.1 0 0 1-9.58-4.74 8.93 8.93 0 0 1-2.56-5.76c-.45-3.27-.74-6.57-1.11-10l3.45.46c.12 0 .25.12.37.1 2-.39 3 .88 4 2.25a21.58 21.58 0 0 1 2 2.65A41.41 41.41 0 0 1 71 59.24a8.22 8.22 0 0 0-.89-4.54c-.78-1.37-1.55-2.75-2.31-4.13a3.5 3.5 0 0 1-.19-.66c2.07.15 3.61 1.27 5.42 2.38-1.16-2-2.72-3.35-4.77-3.47-2.86-.17-5.41-1.27-8-2.18A2.67 2.67 0 0 1 59 45.4c-.75-1.4-1.34-2.79-2-4.2a3.74 3.74 0 0 1-.16-.59c2.29.74 4.48 1.46 6.69 2.15 1.71.53 3.43 1.05 5.16 1.52a8 8 0 0 1 3.59 2.46c2 2 4.08 4 5.44 6.58a9.58 9.58 0 0 1 .85 5.44c-.21 2.38-1.55 4.58-1.07 7.06.28 1.43.6 2.85.91 4.28l.31-.06a18 18 0 0 1-.39-3.04 18.19 18.19 0 0 1 .55-4.3 25.18 25.18 0 0 0 .94-6.91v-1.06c2.9 1.45 5.74 2.7 6.41 6.25a28.18 28.18 0 0 0 1.38 4.79c-.32-2.07-.63-4.15-1-6.22a16 16 0 0 0-.46-1.64 4.48 4.48 0 0 0-2.26-2.66A17.16 17.16 0 0 1 80 52.58a42.65 42.65 0 0 1-3.82-5.24c-.67-1-1.22-2-1.92-3.23l1.56-.42c1.78-.52 3.57-1 5.35-1.56a3.63 3.63 0 0 1 3.92.72c.77.76 1.59 1.46 2.37 2.21 1.73 1.66 1.78 3.88 2 6.05h.26v-3.74a4.09 4.09 0 0 0-1.53-3c-.79-.69-1.5-1.47-2.24-2.22a6.83 6.83 0 0 1-.49-.63l.12-.3 4.35.57a6.44 6.44 0 0 0-3.33-1.22c-4.21-.61-8.31.08-12.41 1a3.25 3.25 0 0 1-1.79-.16c-1.37-.54-2.68-1.21-4.27-2 .81-.4 1.39-.66 1.94-1a31 31 0 0 0 3.2-1.86 6.26 6.26 0 0 1 6.27-.7 1.9 1.9 0 0 0 .36.06l.11-.27c-1.33-.61-2.64-1.29-4-1.8-.37-.14-1 .17-1.4.37a34.41 34.41 0 0 1-4.87 2.24 18.54 18.54 0 0 1-5.39.54 3.91 3.91 0 0 1-2.17-1.34 40.87 40.87 0 0 1-8.49-11.55 19.34 19.34 0 0 1-1.59-9.44c.21-3.54.51-7.08.78-10.62.05-.69.14-1.39.23-2.31 2.45.43 5.1.75 7.67 1.37a46.77 46.77 0 0 1 19.4 9.85A47.34 47.34 0 0 1 94 32.46a47.42 47.42 0 0 1-1.26 36.85A47.6 47.6 0 0 1 63.5 94.94a44.24 44.24 0 0 1-11.67 2 3.17 3.17 0 0 0-.71.19z" fill="#5cb530"/></g></g></svg>