<svg id="Слой_1" data-name="Слой 1" xmlns="http://www.w3.org/2000/svg" viewBox="0 0 98.09 98.09"><defs><style>.cls-1{fill:#fff;}.cls-2{fill:#5eb549;}.cls-3{fill:#59813b;}</style></defs><title>пикто</title><circle class="cls-1" cx="49.04" cy="49.04" r="49.04"/><circle class="cls-2" cx="33.97" cy="78.88" r="0.29"/><circle class="cls-2" cx="39.4" cy="62.56" r="1.07"/><circle class="cls-2" cx="-85.38" cy="416.55" r="1.11" transform="translate(51.95 -372.13) rotate(-9.53)"/><circle class="cls-2" cx="-78.18" cy="454.76" r="0.76" transform="translate(45.72 -370.41) rotate(-9.53)"/><circle class="cls-2" cx="-84.26" cy="448.33" r="1.11" transform="translate(46.69 -371.51) rotate(-9.53)"/><circle class="cls-2" cx="-79.08" cy="444.7" r="0.76" transform="translate(47.37 -370.7) rotate(-9.53)"/><circle class="cls-2" cx="28" cy="57.86" r="2.14"/><circle class="cls-2" cx="-99" cy="434.85" r="0.76" transform="matrix(0.99, -0.17, 0.17, 0.99, 48.77, -374.13)"/><circle class="cls-2" cx="29.01" cy="76.12" r="1.38"/><circle class="cls-2" cx="34.55" cy="60.57" r="0.58"/><circle class="cls-2" cx="31.34" cy="69.32" r="0.58"/><circle class="cls-2" cx="33.68" cy="56.49" r="0.29"/><circle class="cls-2" cx="22.62" cy="65.01" r="1.38"/><circle class="cls-2" cx="48.93" cy="85.97" r="1.38"/><path class="cls-3" d="M-74,404.93h0q.23-1.89.32-3.61-.18-.69-.41-1.34a12.79,12.79,0,0,1,.1,3.91A7.28,7.28,0,0,0-74,404.93Z" transform="translate(122.1 -363.75)"/><path class="cls-3" d="M-72.54,411.13a.57.57,0,0,0,0,.18l0-.25A.57.57,0,0,0-72.54,411.13Z" transform="translate(122.1 -363.75)"/><circle class="cls-2" cx="47.8" cy="54.19" r="1.38"/><path class="cls-2" d="M-66.94,366.05c.35,5-.22,9.79-3.35,14-1.67,2.25-3.15,4.65-4.69,7q-.29.45-.56.9c.13.3.26.61.38.92a26.87,26.87,0,0,1,1.94,6.42,30.91,30.91,0,0,1,.34,4.29,19.28,19.28,0,0,1,.6,1.93,19.31,19.31,0,0,1,1.35-2.17A31.28,31.28,0,0,1-69.72,396a26.88,26.88,0,0,1,3.52-5.71c2.27-3.07,4.76-5.07,6.21-11.71-.63,3.3-1.45,6.12-2.61,7.87-1.47,2.21-3,4.28-4.47,6.27a18.4,18.4,0,0,0-2.59,5A15.53,15.53,0,0,1-63,393.53c1.19-.4,2.4-.76,3.6-1.11a13.1,13.1,0,0,0,4-5.34l.34-.77a1.29,1.29,0,0,1,.09-.14c0,.07,0,.11,0,.14a15,15,0,0,1-3.55,5.85l1.07-.31c1.11-.32,2.22-.64,3.35-.87,4.78-1,8.38-3.69,11.33-7.43l.82-1a2,2,0,0,1,.19-.17c0,.11,0,.18,0,.22-2.93,4.18-6.42,7.6-11.59,8.92-2.42.62-4.8,1.41-7.18,2.17l-.19.11c-1.58.88-3.09,1.89-4.63,2.85A10.32,10.32,0,0,0-70.32,405c-.14,1.65-.3,3.3-.46,5a43.37,43.37,0,0,1,37.05,25.59,45.4,45.4,0,0,1-39.33,22.7,45.4,45.4,0,0,1-39.62-23.2A43.37,43.37,0,0,1-75.88,410l.06-.19-.06,0,.09-.52-.31-.84-.06,0c-1-1.69-1.91-3.33-2.84-5a10.32,10.32,0,0,0-7.95-5.56c-1.8-.24-3.59-.54-5.39-.68-3.43-.28-6-2.08-8.34-4.42,0,0,0-.08,0-.14l.14.09.63.56a12.28,12.28,0,0,0,8,3.5c.74,0,1.49.1,2.23.19,1.24.14,2.48.27,3.71.46a10.66,10.66,0,0,1,7.55,5.22,7.28,7.28,0,0,0,.65.83h0q-4.61-7.32-9.24-9.83c-2.19-1.19-4.41-2.46-6.66-3.86-1.78-1.11-3.69-3.34-5.63-6.08,4.06,5.45,7.17,6.23,10.5,8.09a26.87,26.87,0,0,1,5.57,3.75,30.36,30.36,0,0,1,5.07,6,18.19,18.19,0,0,1-.55-8l-1.11-1.19q-.44-.32-.92-.61c-2.38-1.49-4.71-3.06-7.16-4.42-4.66-2.59-7.16-6.79-8.93-11.58,0,0,0-.12,0-.22a2,2,0,0,1,.14.21c.18.4.36.79.53,1.19,1.89,4.37,4.68,7.93,9.05,10.08,1,.51,2,1.1,3,1.69l1.71,1A14,14,0,0,1-85,382.16s0-.07.07-.13a1.31,1.31,0,0,1,.05.15c0,.28.09.55.14.83a12.41,12.41,0,0,0,3.63,7.45c.66.41,1.32.82,2,1.25l.68.47a15.93,15.93,0,0,1,2-4.45l0-.08q-.63-1.67-1.22-3.4c-.68-2-.75-4.92-.52-8.27A21,21,0,0,0-76,387c.89-1.36,1.82-2.69,2.74-4,.66-.95,1.32-1.9,2-2.79,3.09-3.77,4.15-8.16,4.07-12.92,0-.4,0-.79,0-1.19a47.66,47.66,0,0,0-5.93-.37,47.2,47.2,0,0,0-47.2,47.2,47.2,47.2,0,0,0,47.2,47.2,47.2,47.2,0,0,0,47.2-47.2A47.21,47.21,0,0,0-66.94,366.05Z" transform="translate(122.1 -363.75)"/><circle class="cls-2" cx="47.92" cy="67.71" r="2.14"/><circle class="cls-2" cx="42.54" cy="74.86" r="1.38"/><circle class="cls-2" cx="-79.3" cy="422.98" r="0.76" transform="translate(50.97 -371.04) rotate(-9.53)"/><circle class="cls-2" cx="-80.2" cy="412.92" r="0.76" transform="translate(52.62 -371.33) rotate(-9.53)"/><path class="cls-2" d="M-74,409.53l.13.38h1.18q-.15-1.6-.29-3.18Z" transform="translate(122.1 -363.75)"/><path class="cls-2" d="M-77.67,394.68A17.78,17.78,0,0,0-76.58,402q.69,1.93,1.36,3.88.15-.88.3-1.75a10.32,10.32,0,0,0-2.64-9.33Z" transform="translate(122.1 -363.75)"/><path class="cls-2" d="M-76,388.8A15.58,15.58,0,0,0-77.45,393a15.32,15.32,0,0,1,3.78,4.79,19.21,19.21,0,0,0-1.27-6.3Q-75.47,390.15-76,388.8Z" transform="translate(122.1 -363.75)"/><circle class="cls-2" cx="59.32" cy="72.4" r="1.07"/><circle class="cls-2" cx="-52.07" cy="427.62" r="0.76" transform="translate(-299.08 -158.23) rotate(-65.91)"/><circle class="cls-2" cx="-55.15" cy="435.47" r="0.58" transform="translate(-265.13 -215.32) rotate(-56.38)"/><circle class="cls-2" cx="-52.22" cy="421.3" r="1.11" transform="translate(-293.41 -162.09) rotate(-65.91)"/><circle class="cls-2" cx="-53.97" cy="445.93" r="1.07" transform="translate(-273.31 -209.68) rotate(-56.38)"/><circle class="cls-2" cx="-62.23" cy="441.87" r="0.76" transform="translate(48.07 -367.95) rotate(-9.53)"/><circle class="cls-2" cx="-60.95" cy="422.8" r="0.76" transform="translate(-299.94 -169.17) rotate(-65.91)"/><circle class="cls-2" cx="-49.64" cy="442.99" r="0.58" transform="matrix(0.55, -0.83, 0.83, 0.55, -268.92, -207.39)"/><circle class="cls-2" cx="-46.73" cy="430.6" r="1.38" transform="translate(-257.31 -210.49) rotate(-56.38)"/><circle class="cls-2" cx="-45.33" cy="421.23" r="0.29" transform="translate(-248.89 -213.5) rotate(-56.38)"/><circle class="cls-2" cx="-43.75" cy="439.03" r="2.14" transform="translate(-263.01 -204.24) rotate(-56.38)"/><circle class="cls-2" cx="62.36" cy="56.93" r="1.38"/><circle class="cls-2" cx="-45.76" cy="444.53" r="0.29" transform="translate(-268.51 -203.43) rotate(-56.38)"/><circle class="cls-2" cx="-67.97" cy="453.05" r="1.11" transform="translate(46.15 -368.75) rotate(-9.53)"/><circle class="cls-2" cx="51.26" cy="79.17" r="0.58"/><circle class="cls-2" cx="-66.49" cy="415.98" r="0.76" transform="translate(52.3 -369.01) rotate(-9.53)"/><circle class="cls-2" cx="-65.37" cy="447.76" r="0.76" transform="translate(47.07 -368.39) rotate(-9.53)"/><path class="cls-2" d="M-66.45,396.64c1-.68,2.12-1.32,3.19-2l.28-.17a15.37,15.37,0,0,0-7.68,6.76q-.45,2-.76,4.25h0a7.27,7.27,0,0,0,.25-1A10.66,10.66,0,0,1-66.45,396.64Z" transform="translate(122.1 -363.75)"/><circle class="cls-2" cx="63.49" cy="88.71" r="1.38"/><circle class="cls-2" cx="14.05" cy="69.03" r="0.29"/><circle class="cls-2" cx="-104.18" cy="438.48" r="1.11" transform="translate(48.07 -374.94) rotate(-9.53)"/><circle class="cls-2" cx="-59.51" cy="429.77" r="1.38" transform="translate(-262.33 -221.51) rotate(-56.38)"/><circle class="cls-2" cx="-69.1" cy="421.27" r="1.11" transform="translate(51.4 -369.37) rotate(-9.53)"/><circle class="cls-2" cx="-98.1" cy="444.91" r="0.76" transform="translate(47.08 -373.85) rotate(-9.53)"/><circle class="cls-2" cx="54.47" cy="70.42" r="0.58"/><circle class="cls-2" cx="53.6" cy="66.34" r="0.29"/></svg>