<svg xmlns="http://www.w3.org/2000/svg" viewBox="0 0 90.26 90.3"><defs><style>.cls-2{fill:#fff}</style></defs><g id="Слой_2" data-name="Слой 2"><g id="Слой_2-2" data-name="Слой 2"><path d="M45.11.5a44.71 44.71 0 0 0-44 37.35c0 .24-.08.48-.12.72v.17a45.54 45.54 0 0 0-.49 6.2 45 45 0 0 0 14 32.62l.31.3.78.7c.37.33.74.66 1.13 1l.1.09A44.64 44.64 0 1 0 45.11.5z" fill="#80c533" stroke="#fff" stroke-miterlimit="10"/><path class="cls-2" d="M45.89 65.14c-.12.76-7.3-13.13-7.78-15.81s-1-1.95-5.59-1.95-22.38-1.95-19.95 2.68S25 70 44.83 70s31.71-17.75 32.44-19.7S79 47 73.86 47s-21.4 1.14-21.4 1.14-5.35 8.97-6.57 17zM41.09 21.05s-2 .73-1.09 3.28 2.37 1.09 2.92 2.19 2.19 3.28 2.19 1.28-.92-8.21-4.02-6.75z"/><path class="cls-2" d="M41.09 39.11s-2.92.73-2.92 3.1 1.53 2.74 1.59 5.47.06 2.74 1.33.91 2.51-11.18 0-9.48zM46.56 35.65s-2.37 1.41-1.73 3.26 3.19 1.62 3.37 0 1.1-5.45-1.64-3.26zM52.58 31.54A3 3 0 0 0 50.94 35c.36 2.67 1.09 3.58 1.64 1.75s.91-1.15 2.19-2.12.23-4.28-2.19-3.09zM48.5 42.94s-.75 3.87-1.89 4-3.88 2.53-1.51 3.45 4-1.28 4.38-3.74-.1-6.65-.98-3.71z"/></g></g></svg>