<svg xmlns="http://www.w3.org/2000/svg" viewBox="0 0 98.17 98.17"><defs><style>.cls-2{fill:#f7f7f6;fill-rule:evenodd}</style></defs><g id="Слой_2" data-name="Слой 2"><g id="Слой_2-2" data-name="Слой 2"><circle cx="49.08" cy="49.08" r="48.58" fill="#80c533" stroke="#fff" stroke-miterlimit="10"/><path class="cls-2" d="M42.53 24.2C41.1 23.12 40 22.71 39.72 22c-.51-1.49-1.08-3.31-.64-4.68a4.9 4.9 0 0 1 3.33-2.53 22.6 22.6 0 0 1 7.16-.18c2 .27 5.15.87 5.56 2.08.68 2-.46 4.58-1 7.72 2.15.89 5.53 2.37 9 3.62.31.11 1.49-1.08 1.66-1.81 1.06-4.42 1.72-4.72 5.23-2a20 20 0 0 1 2.3 1.86c1.89 2 1.37 4.34-1.28 4.58-4.24.39-2.52 2-1.63 4.36 1.91 5.06 4.14 10.25 4.7 15.54C76 68.42 61 79.66 44.59 78c-12.32-1.3-21.11-9.81-23.08-22.28a26.92 26.92 0 0 1 15.67-29.06c1.57-.66 3.14-1.44 5.35-2.46zm5.18 52.51c15.3 0 25.59-10.08 25.55-24.92 0-15.34-10.46-26.33-25-26.31A26 26 0 0 0 22.38 51.7c.09 14.25 11.03 25.05 25.33 25.01zm-.28-55.36v-.06c1.4 0 2.89.3 4.17-.09 1.09-.33 1.94-1.45 2.89-2.23-.89-1-1.72-2.89-2.7-3a44.64 44.64 0 0 0-9.58.32 3.31 3.31 0 0 0-2 2.57 3.38 3.38 0 0 0 2.18 2.35 21.45 21.45 0 0 0 5.04.15z"/><path class="cls-2" d="M47.71 76.71c-14.3 0-25.24-10.76-25.33-25a26 26 0 0 1 25.93-26.23c14.49 0 24.91 11 25 26.31C73.3 66.64 63 76.67 47.71 76.71zm22.24-26C69.88 39 59.71 29.28 47.59 29.42a22.64 22.64 0 0 0-22.16 23.1c.06 11.25 10.36 21 22.18 21.06C58.77 73.62 70 62.1 69.95 50.71z"/><path class="cls-2" d="M69.95 50.71C70 62.1 58.77 73.62 47.61 73.59c-11.82 0-22.12-9.81-22.18-21.06a22.64 22.64 0 0 1 22.16-23.11c12.12-.14 22.29 9.58 22.36 21.29zm-1.35-.3c.06-10.78-9.19-19.58-20.68-19.66C36.17 30.66 26.86 40 26.74 52c-.1 10.56 9.91 20.37 20.74 20.32 10.66-.03 21.05-10.82 21.12-21.91z"/><path class="cls-2" d="M59.1 41.58a47 47 0 0 0-5.87 4.72c-1.31 1.42-1.8 3.57-3 5.16a5.11 5.11 0 0 1-3.08 2.09 3.21 3.21 0 0 1-2.49-2c-.05-1.15 1-3.41 1.52-3.38 5 .37 6.64-4.09 9.66-6.49.63-.5 1.24-1 1.86-1.56zM30.84 49.05c1.3-5.63 3.59-10.06 8.69-12.8z"/></g></g></svg>