<svg xmlns="http://www.w3.org/2000/svg" viewBox="0 0 98.17 98.17"><defs><style>.cls-4{fill:#f7f7f6;fill-rule:evenodd}</style><clipPath id="clip-path"><circle cx="49.08" cy="49.08" r="44.54" fill="none"/></clipPath></defs><g id="Слой_2" data-name="Слой 2"><g id="Слой_2-2" data-name="Слой 2"><circle cx="49.08" cy="49.08" r="48.58" fill="#80c533" stroke="#fff" stroke-miterlimit="10"/><g clip-path="url(#clip-path)"><path class="cls-4" d="M37.49 90.58c0-2.18-1.42-1.86-2.74-1.85-3.32 0-3.55.05-4.08-3.17-.78-4.68-1.8-9.45-1.56-14.12.18-3.57 2.13-7 3.31-10.56.14-.41.45-.77.56-1.18 1.46-5.34 5.07-8.14 10.75-8.77l2.43 10.17.66-.09c.27-1.84.48-3.7.86-5.52.12-.58.7-1.07 1.06-1.6.38.53 1 1 1.1 1.61.38 1.81.57 3.66.84 5.49l.72.08 2.66-10.31c2.21.76 4.49 1.49 6.72 2.36a2.76 2.76 0 0 1 1.28 1.41c2.15 5 4.38 9.89 6.26 15a11.66 11.66 0 0 1 .24 5.39C68 78.93 67.17 82.94 66.5 87c-.21 1.28-.69 1.81-2.13 1.82s-3.61-1-4.23 1.6c0 .15-.81.17-1.24.17zm-.4-7.7V69.52c-2.02 4.42-.28 8.86-.01 13.36zm23.71 0c.3-4.45 1.6-8.88 0-13.34z"/><path class="cls-4" d="M8.11 88.85C7.36 84 6.47 79.4 6 74.79a14.23 14.23 0 0 1 1-5.92c1.19-3.29 2.83-6.41 4.1-9.67a6.93 6.93 0 0 1 5-4.68 32.9 32.9 0 0 0 3.56-1.32L22 63.11h.64c.24-1.6.41-3.22.74-4.8.11-.54.64-1 1-1.5.42.51 1.1 1 1.22 1.53.33 1.56.42 3.17.6 4.76l.67.14 2.7-9.92 3.35 1.44c-.69 1.51-1.41 2.84-1.93 4.25-1.27 3.42-2.84 6.79-3.52 10.32a29.76 29.76 0 0 0 .16 8.88c.47 4.05 1.3 8.06 2 12.39H14.5a.81.81 0 0 1-.43-.05 8.78 8.78 0 0 0-2.29-1.6 15.4 15.4 0 0 0-3.67-.1zm5.27-17.72h-.52v12.16h.52zM89.29 88.38c-2.06 1.25-4.8-1-5.72 2.09H68.45c.59-5 1-10 1.81-14.85.89-5.35-.69-10.1-2.84-14.79-.91-2-1.86-4-2.9-6.17l3.75-1.52 2.34 10h.59c.22-1.58.36-3.18.71-4.72A6.3 6.3 0 0 1 73 56.61a6.71 6.71 0 0 1 1 1.75c.33 1.55.49 3.13.72 4.7l.59.09 2.79-9.65a1 1 0 0 1 .23 0c6.33 2 6.35 2 9.36 8.76A56.64 56.64 0 0 1 91 70.41a17 17 0 0 1 .23 6.25c-.53 4.03-1.33 8.04-1.94 11.72zm-5.1-17.32v11.77c.33-3.92 1.81-7.83 0-11.77zM55.16 39c-.95 2.57-1.8 5.19-2.87 7.71-.71 1.67-2.3 2.13-4 2.07a3.36 3.36 0 0 1-3.21-2.5 64 64 0 0 1-2.46-6.5c-.72-2.86.89-5.07 3.14-6.46a6 6 0 0 1 6.47.23c1.97 1.16 2.34 3.15 2.93 5.45zM79.22 42.15c-.94 2.73-1.42 5.31-2.66 7.46-2 3.41-5.26 3.22-7.05-.24a25.44 25.44 0 0 1-2.18-5.93 5.35 5.35 0 0 1 2.67-6 5.72 5.72 0 0 1 6.43.25c1.29.96 1.85 2.88 2.79 4.46zM18.73 43.63c0-4.29 2.1-6.59 5.15-6.84 3.64-.3 5.78 1.18 6.14 4.65a12.47 12.47 0 0 1-2.44 8.86c-2 2.72-5.23 2.26-6.6-.84-.98-2.24-1.77-4.58-2.25-5.83z"/></g></g></g></svg>