<svg xmlns="http://www.w3.org/2000/svg" viewBox="0 0 90.26 90.3"><defs><style>.cls-2{fill:#fff;fill-rule:evenodd}</style></defs><g id="Слой_2" data-name="Слой 2"><g id="Слой_2-2" data-name="Слой 2"><path d="M45.11.5a44.71 44.71 0 0 0-44 37.35c0 .24-.08.48-.12.72v.17a45.54 45.54 0 0 0-.49 6.2 45 45 0 0 0 14 32.62l.31.3.78.7c.37.33.74.66 1.13 1l.1.09A44.64 44.64 0 1 0 45.11.5z" fill="#80c533" stroke="#fff" stroke-miterlimit="10"/><path class="cls-2" d="M35.91 62.85a5 5 0 1 1-9.91-.06 4.77 4.77 0 0 1 5-4.91 4.8 4.8 0 0 1 4.91 4.97zm-1.72 0a3.24 3.24 0 0 0-6.48 0 3.24 3.24 0 0 0 6.48 0zM63.13 67.64c-3.66-.24-5.45-2-5.23-5a5 5 0 0 1 5.47-4.73 4.94 4.94 0 0 1 4.52 5.28 4.52 4.52 0 0 1-4.76 4.45zM62.89 66A2.86 2.86 0 0 0 66 62.83a2.91 2.91 0 0 0-3.16-3.13 3 3 0 0 0-3.16 3.2 3 3 0 0 0 3.21 3.1zM42.2 27.81c3.93 0 7.85.05 11.78 0 1.69 0 2.24.6 2.22 2.27-.07 6.23-.07 10.76 0 17 0 1.65-.5 2.28-2.21 2.27-8-.06-24.45-.07-32.44 0-1.71 0-2.24-.6-2.22-2.25.06-6.23.08-10.76 0-17 0-1.82.69-2.33 2.41-2.3 3.99.07 16.47.01 20.46.01z"/><path class="cls-2" d="M34.19 62.85a3.24 3.24 0 0 1-6.48 0 3.24 3.24 0 0 1 6.48 0zM62.89 66a3 3 0 0 1-3.22-3.11 3 3 0 0 1 3.16-3.2A2.91 2.91 0 0 1 66 62.83 2.86 2.86 0 0 1 62.89 66z"/><path class="cls-2" d="M73 56.54v-1.18a1.32 1.32 0 0 0 .66-1.19 1.23 1.23 0 0 0-.9-1.25 11.31 11.31 0 0 0-1.6-4.25s-3-9-3.82-9.67a17.57 17.57 0 0 0-3.81-1.66H58s.28 8.68 0 9.94a1 1 0 0 0 0 .2c-.06 2.89-.89 3.74-3.8 3.76-7 .05-20.7-.05-27.66.08-1.2 0-2.39 0-3.59-.09-1.53-.06-2 .45-1.94 1.88.07 1.59 0 3.18 0 4.77v3.26h2.39a5 5 0 0 1 1.32-3.49 8.32 8.32 0 0 1 8.92-2.2 8.42 8.42 0 0 1 2.93 1.95 5.14 5.14 0 0 1 1.61 3.74h17.19a5 5 0 0 1 1.83-3.94 9 9 0 0 1 9.29-1.2 6.26 6.26 0 0 1 3.59 5.73v.05H73v-2.69h.59a.89.89 0 0 0 .89-.89A1.69 1.69 0 0 0 73 56.54zm-13.33-9.75v-7.91H62a3.54 3.54 0 0 1 3.41 2.59l1.19 5.32zm7.11-6.61a11.09 11.09 0 0 0-.47-1.09 4.83 4.83 0 0 1 .85.57c.93.72 3.21 7.94 3.21 7.94v.06c-.22-.26-.41-.53-.66-.78a7.19 7.19 0 0 1-1-1.36z"/></g></g></svg>