<svg xmlns="http://www.w3.org/2000/svg" viewBox="0 0 90.26 90.3"><defs><style>.cls-2{fill:#f8fff8}</style></defs><g id="Слой_2" data-name="Слой 2"><g id="Слой_2-2" data-name="Слой 2"><path d="M45.11.5a44.71 44.71 0 0 0-44 37.35c0 .24-.08.48-.12.72v.17a45.54 45.54 0 0 0-.49 6.2 45 45 0 0 0 14 32.62l.31.3.78.7c.37.33.74.66 1.13 1l.1.09A44.64 44.64 0 1 0 45.11.5z" fill="#80c533" stroke="#fff" stroke-miterlimit="10"/><path class="cls-2" d="M12 47.82h12.34C29.54 61.73 35.88 66.89 47 66.29c9.42-.51 16.41-7.21 19.21-18.48h12.06v4h-8.48c-4.61 12.7-13.37 19.71-27 18.55-11-.94-18-7.64-21.71-18.38H12zM74.29 44.78c-2.42-.28-3.74-1.08-4.23-3.67-.65-3.44-4.33-6-8-6A3.57 3.57 0 0 1 58.33 33c-5-9.24-17.37-9.89-23.69-1.41a4.5 4.5 0 0 1-2.43 1.81c-5.71.93-9.06 4.21-10.25 10h-3.21c-.86-4.51 3.66-11.17 9.41-12.79a11.52 11.52 0 0 0 5.36-3.39A17.54 17.54 0 0 1 60.25 29a6 6 0 0 0 4 2.54c6.22 1.25 10.24 6.65 10.04 13.24z"/><path class="cls-2" d="M48.4 39.26c-1.55 1.33-2.4 2.64-3.26 2.65s-1.85-1.22-2.77-1.9c.76-1 1.36-2.41 2.34-2.75.7-.26 1.91.98 3.69 2zM32.2 39.67c-1.07 1-1.78 2.12-2.36 2.06-.81-.09-1.53-1.06-2.28-1.66.61-.65 1.15-1.72 1.85-1.84s1.52.77 2.79 1.44zM63.24 42.13c-1 1-1.61 1.91-2.19 1.91s-1.32-.85-2-1.32c.5-.65.9-1.68 1.54-1.85s1.41.61 2.65 1.26zM50.4 31c-1 1-1.56 2-2.11 1.94s-1.43-.86-1.64-1.51c-.13-.41.68-1.53 1.16-1.59.64-.04 1.37.61 2.59 1.16z"/></g></g></svg>