<svg xmlns="http://www.w3.org/2000/svg" viewBox="0 0 90.26 90.3"><defs><style>.cls-2{fill:#fff;fill-rule:evenodd}</style></defs><g id="Слой_2" data-name="Слой 2"><g id="Слой_2-2" data-name="Слой 2"><path d="M45.11.5a44.71 44.71 0 0 0-44 37.35c0 .24-.08.48-.12.72v.17a45.54 45.54 0 0 0-.49 6.2 45 45 0 0 0 14 32.62l.31.3.78.7c.37.33.74.66 1.13 1l.1.09A44.64 44.64 0 1 0 45.11.5z" fill="#80c533" stroke="#fff" stroke-miterlimit="10"/><path class="cls-2" d="M35.21 47.09H28.1c-1.25-6 2.07-11.76 7.76-12 9.52-.45 19.08-.12 28.77-.12v7.78c-2.83 0-5.59-.07-8.34 0a4.88 4.88 0 0 0-2.51.86A8.56 8.56 0 0 1 43 43.47c-1-.78-5.75-1.31-6.4-.42s-.86 2.45-1.39 4.04zM48.19 28.48a3.57 3.57 0 0 0-4.13 1.89c-1.57 2.48-5 3.29-7.81 2.25a7 7 0 0 1 .31-13.32 7.05 7.05 0 0 1 7.92 2.7 4.45 4.45 0 0 0 7.53 0 7 7 0 0 1 7.88-2.77A6.76 6.76 0 0 1 64.76 26a6.8 6.8 0 0 1-4.88 6.74 6.57 6.57 0 0 1-7.8-2.84c-1.03-1.9-2.5-1.29-3.89-1.42zM31.51 54.25c2 3.8 4.27 8 6.31 12.26 1.83 3.85 1.29 6.83-1.18 8.73-2.72 2.09-7.53 2.09-9.93-.34a5.73 5.73 0 0 1-1.68-4 26.44 26.44 0 0 1 2-7c1.42-3.42 3.09-6.69 4.48-9.65zm-2.57 14.39l-.76-1.72c-.5.32-1.25.53-1.47 1a4.9 4.9 0 0 0 2.86 6.93c.57.18 1.35-.27 2-.43-.29-.58-.44-1.51-.89-1.69-1.68-.73-2.1-1.88-1.74-4.09zM31.7 47.66a40.34 40.34 0 0 1 5.22.07c.7.09 1.3 1 1.95 1.51-.62.64-1.21 1.79-1.86 1.82a105.39 105.39 0 0 1-10.67 0 2.72 2.72 0 0 1-1.84-1.79c-.24-1.25.78-1.66 2-1.63 1.71.06 3.5.03 5.2.02z"/><path class="cls-2" d="M50.54 33.54h-4.33v-3.05h4.33z"/></g></g></svg>