<svg xmlns="http://www.w3.org/2000/svg" viewBox="0 0 98.9 98.9"><defs><style>.cls-2{fill:#5cb530}</style></defs><g id="Слой_2" data-name="Слой 2"><g id="Слой_2-2" data-name="Слой 2"><circle cx="49.45" cy="49.45" r="47.45" stroke-miterlimit="10" fill="#fff" stroke="#fff" stroke-width="4"/><path class="cls-2" d="M38.36 43.61c-.86-.33-1.71-.71-2.6-1-.63-.18-1.08.22-1.29.88s.14 1 .65 1.2a8.17 8.17 0 0 0 1.19.4c.55.14 1.11.24 1.72.37-.83.63-.8.93.07 1.34.37.18.76.31 1.14.46-.58 1-.36 1.42 1 1.72-.59-1.78-1.16-3.5-1.74-5.21a.36.36 0 0 0-.14-.16zM45.33 63l-.91-2.74c-.71.74-.32 1.85.91 2.74zM41.58 52.13a1.12 1.12 0 0 0-1.42-.91h-.35a1.3 1.3 0 0 0-1.28 1.16c0 .76.55.91 1.09 1 .69.17 1.41.25 2.13.37A2.11 2.11 0 0 0 43 56.66a7.72 7.72 0 0 0-.87 1.19.81.81 0 0 0 .15.77 21.1 21.1 0 0 0 1.93 1.1c-.1-.39-.13-.55-.19-.69-.81-2.3-1.67-4.59-2.44-6.9z"/><path class="cls-2" d="M49.45 4.36a45.29 45.29 0 0 0-8.86.88l-.06.6 3-.75.09.22L41.34 7c.72.5 1.41.91 2 1.41s1.2 1.06 1.91 1.7l-4-1.39-.1.17c1.07 1 2.29 1.84 2 3.51l-2.16-2-.19.15a3.32 3.32 0 0 1 .49 3.23c-.67-1.42-1.08-2.92-2.55-3.83.06 2.1.36 4.1-.09 6.07h-.2l-1.3-5.46h-.2a127.76 127.76 0 0 0 2 21c1.32 6.91 3.5 13.6 5.33 20.42 1.36-1.11 1.37-1.13 2.86-.19.92.58 1.8 1.23 2.7 1.85.29-1.6.53-3.25.89-4.87.42-1.88 1-3.74 1.4-5.62q1-4.53 1.9-9.08a13.33 13.33 0 0 0 0-2.39 2.28 2.28 0 0 0-.66 2.72c-1.45-.8-1.46-1.89-.15-4.46a1.89 1.89 0 0 0-2.54.86 14.52 14.52 0 0 0-1.07 2.62c-.9-1.5-.31-3.31 1.76-4.73l-2-1.06v-.19l2.12.11a2.93 2.93 0 0 1 .17-3.23 7.16 7.16 0 0 1 1.07-1.19 1.58 1.58 0 0 0 .42-1.9 2.21 2.21 0 0 1 0-.73l.69.35.27.47-.51-.24c.22.93 1 .85 1.56.84a1.88 1.88 0 0 0 1.05-.46c.2-.17.25-.52.42-.93a3.39 3.39 0 0 0-1 .39c-.47.43-.66-.11-1-.24l-.22.45-.19-.47.24-.7.6.65-.13-.61H55l.44.69.22-.8.31.34.12-.44.34.55.38-.3a1.74 1.74 0 0 1 0 .24 3.37 3.37 0 0 0 1.1 3c1 .87 1.87 1.94 1.59 3.5a5.36 5.36 0 0 1 4.14 2.6c-1.36-.32-2.55-1.44-4.26-.75 1.48 1.13 2.54 2.39 1.91 4.44-.56-1.49-.94-3-2.92-3.3a6.63 6.63 0 0 1-.55 5.23c-.18-1.3-.19-2.64-1.17-3.83-.09.94-.19 1.77-.25 2.61a37.06 37.06 0 0 1-1.82 8.3c-.82 2.76-1.59 5.55-2.15 8.37-.86 4.32-.16 8.58.86 12.8.36 1.47.79 2.92 1.19 4.38a3.25 3.25 0 0 0 .14.36c.2-.58.41-1.18.59-1.8a.9.9 0 0 0-.05-.53c-.43-1.09-.43-1.1.57-1.81L55 62.3c.48-.69 1.07-1.57 1.72-2.41a.87.87 0 0 0 .17-1.07c-.26-.45-.65-.4-1-.3s-.65.23-1 .35a2.23 2.23 0 0 1 1.24-3c.56-.28 1.15-.51 1.71-.79a1.39 1.39 0 0 0 .84-1.41 1.93 1.93 0 0 0-.73-1 1 1 0 0 0-1.29.09c-.32.26-.61.56-1 .9a2.73 2.73 0 0 1 .7-2.35 18.79 18.79 0 0 1 2.35-2c.57-.41.64-.4.66-1.19h1.58c.3 0 .69 0 .85-.21a1.53 1.53 0 0 0 .45-1.05 1.08 1.08 0 0 0-.81-.65 25 25 0 0 0-2.71.16c-.25 0-.5.07-.8.11a1.74 1.74 0 0 1 1.12-1.68 3.87 3.87 0 0 0 2.09-1.64 9.21 9.21 0 0 1 .64-.74 1.37 1.37 0 0 1 1.69-.42c.2.07.4.12.6.18 1.15.34 1.16.35 1.6-.75.19-.49.5-.41.91-.33a2.23 2.23 0 0 0 1.26 0c1.54-.75 1.59-1.79.12-2.64a7.61 7.61 0 0 0-2.17-.67 6.25 6.25 0 0 0-1.31 0c1.79-2.54 4-4.38 7.27-4.59a6.52 6.52 0 0 0 4-1.66 11 11 0 0 1 7.1-2.88h.41a4.6 4.6 0 0 1-1 3 6.15 6.15 0 0 0-1.59 4.28A22.74 22.74 0 0 1 78 45.41a6.45 6.45 0 0 1-1.34 1.73v-4.15c0-.6.1-1.35-.73-1.55a2 2 0 0 0-2 1.27 24.76 24.76 0 0 0-.38 3 4.06 4.06 0 0 0 0 .7c.07.94.07 1-.89.93-.4 0-.56.15-.56.52a7.21 7.21 0 0 0 0 .91c.31 2.22-1 3.66-2.39 5.11.05-.92.16-1.77.12-2.62a1.64 1.64 0 0 0-.5-1.09 1.52 1.52 0 0 0-1.22-.39 1.63 1.63 0 0 0-.88 1.1 12.71 12.71 0 0 0 .19 2.43c-.49 0-.43.49-.35.9.14.71.33 1.4.48 2.06-.33.09-.8.07-1 .29a1.73 1.73 0 0 0-.13 1.05A2.15 2.15 0 0 1 65 60a11.72 11.72 0 0 0 .12-2.27 4 4 0 0 0-.75-1.65c-.26-.37-.68-.3-1 0a1.77 1.77 0 0 0-.36 2.39 4.54 4.54 0 0 1 .18 3.67c-.21-.5-.35-.89-.54-1.25a1.12 1.12 0 0 0-1.31-.68c-.59.14-.62.66-.6 1.12s.19 1.05.2 1.58c0 1.26 0 2.52-.07 3.78h-.2a12.82 12.82 0 0 0-.64-1.82 1.39 1.39 0 0 0-.87-.66c-.76-.13-1.09.34-.81 1.06a5 5 0 0 1 .57 3.3c-.07.24-.13.48-.2.78l-.72-.64a5.84 5.84 0 0 0-.34.82c-.13.55-.27 1-1.1.59.11 1 .85 2.1-.73 2.54.75.35 1.31.31 1.71-.32a1.27 1.27 0 0 1 1.41-.66c.46.08.72-.09.72-.59 0-.65.31-.86.94-.71s1.22.41 1.34-.43-.64-.65-1.08-.82A4.55 4.55 0 0 0 60 69a2.5 2.5 0 0 1 2.47-.7c.36.1.71.24 1.07.33.72.16 1.06-.13 1-.87 0-1-.2-1.14-1.31-1.23a4.83 4.83 0 0 1 .85-.79c.61-.32 1.27-.54 1.9-.85.27-.13.71-.4.69-.55a.84.84 0 0 0-1-.8 9.63 9.63 0 0 0-1.39.38A2 2 0 0 1 66 62a6.48 6.48 0 0 0 2.74-1.25 7.39 7.39 0 0 1 2.26-.58c.28-.08.68-.25.75-.46a1.22 1.22 0 0 0-.2-1 1 1 0 0 0-.81-.27c-.76.06-1.51.21-2.32.34a1.31 1.31 0 0 1 .24-1.38c1.36-1.87 3-3.16 5.52-2.84a15.06 15.06 0 0 0 3-.06c.82-.06.94-.43.48-1.11a1.68 1.68 0 0 0-1.66-.68 1.81 1.81 0 0 1-.82-.06 16.75 16.75 0 0 1 1.42-1.4 8.11 8.11 0 0 1 3.76-1.6 25.68 25.68 0 0 1 9.51.07 20.83 20.83 0 0 1 2.23.76l-.6.38a11.6 11.6 0 0 0-5 5.64 13 13 0 0 1-3.5 5.07 3.5 3.5 0 0 1-3 1c.46-.67.92-1.28 1.31-1.93a4.25 4.25 0 0 0 .91-2.52c-.08-1.13-.68-1.47-1.69-1a2 2 0 0 0-1.1 1.88c0 .44 0 .88.06 1.32-1.13 0-1.6.45-1.46 1.6a18.48 18.48 0 0 0 .5 2.08l-.42.14a1.35 1.35 0 0 0-1.11 1.5 3.92 3.92 0 0 1-1.86 3.1 3.46 3.46 0 0 1-1.15.35l-.08-.16c.11-.14.21-.28.32-.41a3 3 0 0 0 .56-3.26c-.19-.54-.58-.8-1.07-.6a3.51 3.51 0 0 0-1.48.93 2.93 2.93 0 0 0-.24 3.67 2 2 0 0 0-1.74 2.13c0 1.48-1 2.18-2.22 2.73.18-1 .39-1.87.53-2.81s-.14-1-.89-.72a2.62 2.62 0 0 0-1.84 2.32A3 3 0 0 1 64.78 75c-.27.21-.57.37-.92.59a3 3 0 0 0 0-1 5.09 5.09 0 0 0-.74-1.18c0-.05-.54.1-.55.2-.25 1.54-1.51 1.79-2.7 2.24l-.22-1.17a6.24 6.24 0 0 0-.71.61 1.14 1.14 0 0 1-1.49.33 2.12 2.12 0 0 0-1.93-.14c-.26.12-.71-.1-1.05-.23s-.79-.39-1.21-.61c-.22.31-.41.59-.62.86a2.1 2.1 0 0 1-1.67.74c-.43 0-.8.21-.79.71s.48.48.84.52.51 0 1 0a5.51 5.51 0 0 1-2.58 1.29c-.62.09-1.25.13-1.87.21a.86.86 0 0 0 .07 1.7h1.45a1.8 1.8 0 0 1-1.54 1.67c-1 .22-2.11.31-3.17.43-.51.06-1 0-1.53.07a.81.81 0 0 0-.74.87.76.76 0 0 0 .75.85 15.11 15.11 0 0 0 1.58 0l.1.2a5.75 5.75 0 0 1-1.37 1.08A12.5 12.5 0 0 1 39.38 87c-2.35.1-4.65.18-6.75 1.44 1.39-1.7 1.61-3.77 1.93-5.76a5.93 5.93 0 0 1 2.75-4l-.84 3.21a1.76 1.76 0 0 0 2-1.33 9.67 9.67 0 0 1 3.66-4.83c-.12.73-.25 1.25-.28 1.78a2.19 2.19 0 0 0 .23.73c.23-.13.55-.21.68-.41a8.51 8.51 0 0 0 .62-1.32 4.57 4.57 0 0 1 1.78-2.12l.69 1 .71-1.39c-1.11-.39-2.11-.67-3.08.05-.45.34-.84.49-1.23 0-.1 0-.19 0-.22.09-.46.77-1.06.81-1.84.46a3.59 3.59 0 0 0-1.29 0 2.76 2.76 0 0 0-1.65-1.57c-.65-.25-.92-.06-.9.64a2.85 2.85 0 0 0 .11.61c0 .2.12.39.21.65a2.26 2.26 0 0 1-1.9-.93c-.69-.85-1.3-1.78-2.05-2.56a4.49 4.49 0 0 0-1.72-1.2c-.84-.29-1.42.3-1.28 1.18.08.48.22.94.34 1.41A2.64 2.64 0 0 1 27.82 71a8.51 8.51 0 0 1-.33-2.31c0-.84-.15-1.15-1-1.38s-1.37 0-1.69.67a4 4 0 0 0-.28 1.07 8.53 8.53 0 0 0 0 1.1 5.39 5.39 0 0 1-1.86-3.62c0-.58-.12-1.16-.18-1.74s-.34-.65-.83-.49c-.71.24-1 .5-1.28 1.41a4.62 4.62 0 0 1-1.49-3.91 36.73 36.73 0 0 0 .32-3.76 1.29 1.29 0 0 0-.27-1 2.75 2.75 0 0 0-1.5-.66c-.3 0-.7.61-.86 1a10.7 10.7 0 0 0-.39 1.85 4.93 4.93 0 0 1-2.43-3.76c-.07-1.18-.1-2.37-.09-3.56 0-2.47-.26-4.83-2.12-7 1.41.47 2.59.9 3.78 1.25q3.65 1.09 7.31 2.12A8 8 0 0 1 27 51.1c.35.45.64 1 1 1.55a15.86 15.86 0 0 0-2.36-.6 11.31 11.31 0 0 0-2.42.11c-.52.06-.95.37-.88 1s.29 1.18 1 1.29A6.56 6.56 0 0 0 27 54.1c-.09 1 .72 1.36 1.44 1.8S30.06 57 31 57.59c-1-.11-1.95-.25-2.86-.29a1.68 1.68 0 0 0-1.72 1.26c0 .18.08.56.21.61.63.22 1.28.5 1.92 0 1 1.13 1.39 1.22 3 .73l2.18 2.37h-1.85a1 1 0 0 0-.74.43 2.13 2.13 0 0 0 0 1.19c0 .1.58.12.88.07a6.25 6.25 0 0 0 .98-.41c.48.95 1.49.89 2.22 1.12a11.44 11.44 0 0 0-1.3 1.06.58.58 0 0 0 .24 1 4.06 4.06 0 0 0 1.26.3h2.75a8.4 8.4 0 0 0-.87 1.64c-.07.26.28.63.5 1.09.3-.38.51-.61.68-.87a1.1 1.1 0 0 1 1.21-.49.86.86 0 0 1 .79.81c.15.72.6 1 1.35.87.25 0 .49-.1.73-.15.46 1 .46 1 1.48.8a1.32 1.32 0 0 1 .86.12c1.06.71 2.17.47 3.46.29-1-.9-1.86-1.72-2.77-2.49-.08-.07-.54.09-.6.24a5.54 5.54 0 0 0-.24 1.16A4.4 4.4 0 0 1 42 65.84v-.91c0-.3-.08-.54-.2-.59a.67.67 0 0 0-.62.17 4.8 4.8 0 0 0-.67 1.39 6.16 6.16 0 0 0 0 1.44 1.82 1.82 0 0 1-1.37-1.56 9.05 9.05 0 0 1 0-2c.1-1.1 0-1.26-1-1.71v-1c0-.7-.49-1-1-.52A11.14 11.14 0 0 0 35.79 62c-.08.1-.15.22-.29.44-.07-1.15-.13-2.16-1.08-2.8a3.77 3.77 0 0 0 .44-1 2.62 2.62 0 0 0-.24-.92c.23-.9.51-1.81.68-2.74A1.08 1.08 0 0 0 35 54a.82.82 0 0 0-1.11.43c-.38.82-.72 1.65-1.13 2.59a7.84 7.84 0 0 1-.94-3.33c0-.73.26-1.49-.49-2.06-.09-.07 0-.39 0-.59.13-.68.16-1.32-.65-1.6.13-.83.28-1.6.35-2.39 0-.51.18-1.13-.53-1.34-.51-.15-1.06.21-1.3.92s-.33 1.35-.49 2c-1.16-1.39-2-4.79-1.77-7a18.8 18.8 0 0 1 1.3-5A16.35 16.35 0 0 0 29 33c.08-.55 0-1.11.13-1.71.14.29.3.58.43.88 1.16 2.63 3.19 4.57 5.25 6.47 1.09 1 2.22 2 3.08 2.75-2-10-4.47-20.49-3.7-31.33a4.41 4.41 0 0 0-1.63 2.91 20.52 20.52 0 0 0 0 3.3c-.49-.27-1-1.39-1.32-2.92a4.17 4.17 0 0 1 .65-3.35l-.23-.13a13.43 13.43 0 0 0-1.1 1.46 6.08 6.08 0 0 0-.77 1.84 8.66 8.66 0 0 0 .07 1.94c-.86-1-.69-3.94.23-6.45a45.1 45.1 0 1 0 19.36-4.3zm6.15 75.05l-.81-.13-.32 1.1h-.06l.16-2.88h.08l.18.92.43-.13c-.29.53-.59 1.07.42 1zm1.11 0L57.77 78l.12.78z"/><path class="cls-2" d="M46 56.82l-.22.08.49 1.61.29-.1zM56.48 62.94l-1.71 7.45zM50.77 69.84l-1.14-2.48-.18.08 1.14 2.48z"/><circle cx="49.45" cy="49.45" r="44.86" fill="none" stroke="red" stroke-width="5" stroke-miterlimit="10"/><path transform="rotate(45 49.447 49.451)" fill="red" d="M4.36 45.13h90.18v8.63H4.36z"/></g></g></svg>